<?xml version="1.0" encoding="iso-8859-1"?>
<!-- Generator: Adobe Illustrator 19.0.0, SVG Export Plug-In . SVG Version: 6.00 Build 0)  -->
<svg version="1.1" id="Capa_1" xmlns="http://www.w3.org/2000/svg" xmlns:xlink="http://www.w3.org/1999/xlink" x="0px" y="0px"
	 viewBox="0 0 512 512" style="enable-background:new 0 0 512 512;" xml:space="preserve">
<path style="fill:#046699;" d="M274.839,271.292h-72.237c-11.979,5.351-25.227,8.33-39.157,8.33c-13.931,0-27.18-2.979-39.158-8.33
	H38.718c-5.666,0-10.302,4.636-10.302,10.302v220.104c0,5.666,4.636,10.302,10.302,10.302h236.121
	c5.666,0,10.302-4.636,10.302-10.302V281.594C285.141,275.928,280.505,271.292,274.839,271.292z"/>
<path style="fill:#FFD5B3;" d="M261.213,182.334c0,54.283-43.774,98.288-97.769,98.288l0,0c-53.996,0-97.771-44.005-97.771-98.288
	v-58.505c0-54.28,43.774-71.663,97.771-71.663l0,0c53.994,0,97.769,17.383,97.769,71.663V182.334z"/>
<g style="opacity:0.1;">
	<path d="M57.175,501.698V281.594c0-5.666,4.636-10.302,10.302-10.302H38.718c-5.666,0-10.302,4.636-10.302,10.302v220.104
		c0,5.666,4.636,10.302,10.302,10.302h28.759C61.811,512,57.175,507.364,57.175,501.698z"/>
</g>
<g style="opacity:0.1;">
	<path d="M267.489,511.666c5.166,0,9.831,0.75,13.066,0H267.489z"/>
</g>
<path style="fill:#FFB98A;" d="M163.445,280.622c-12.672,0-24.782-2.425-35.896-6.836v15.67c0,17.42,14.222,31.545,31.763,31.545
	s31.763-14.125,31.763-31.545v-12.821C182.312,279.226,173.042,280.622,163.445,280.622z"/>
<g style="opacity:0.1;">
	<path d="M148.862,289.456v-9.924c-7.409-1.113-14.546-3.06-21.312-5.746v15.67c0,17.42,14.222,31.545,31.763,31.545
		c3.738,0,7.324-0.647,10.656-1.825C157.67,314.825,148.862,303.163,148.862,289.456z"/>
</g>
<path style="fill:#9EA7AF;" d="M341.839,364.091c0,1.7-1.391,3.09-3.091,3.09h-50.507c-1.7,0-3.091-1.39-3.091-3.09v-20.069
	c0-1.7,1.391-3.091,3.091-3.091h50.507c1.7,0,3.091,1.391,3.091,3.091V364.091z"/>
<path style="fill:#F7931E;" d="M227.151,340.931c1.596,2.639,2.531,5.717,2.529,9.021c-0.002,6.337-3.384,11.867-8.444,14.957
	c1.068,0.651,2.058,1.418,2.96,2.272h36.488v-26.25H227.151z"/>
<rect x="257.59" y="340.93" style="fill:#E6E9ED;" width="62.47" height="26.25"/>
<g>
	<path style="fill:#FFB98A;" d="M65.674,182.334V139.68H56.27c-13.535,0-24.607,11.008-24.607,24.465v10.697
		c0,13.457,11.072,24.464,24.607,24.464h10.861C66.177,193.792,65.674,188.123,65.674,182.334z"/>
	<path style="fill:#FFB98A;" d="M264.608,139.68h-3.395v42.654c0,5.789-0.501,11.458-1.457,16.972h4.852
		c13.533,0,24.605-11.007,24.605-24.464v-10.697C289.213,150.688,278.141,139.68,264.608,139.68z"/>
</g>
<path style="fill:#C6A07D;" d="M251.769,0h-86.596c-14.258,0-26.778,7.603-33.772,18.987h-26.057
	c-21.905,0-39.67,17.854-39.67,39.88v64.962c0-54.28,43.774-71.663,97.771-71.663c53.994,0,97.769,17.383,97.769,71.663V9.493
	C261.213,4.252,256.986,0,251.769,0z"/>
<g style="opacity:0.1;">
	<path d="M87.05,72.931V58.867c0-22.025,17.765-39.88,39.67-39.88h-21.376c-21.905,0-39.67,17.854-39.67,39.88v64.962
		C65.674,100.629,73.676,84.174,87.05,72.931z"/>
</g>
<g style="opacity:0.1;">
	<path d="M147.074,52.747V39.878c0-21.99,17.797-39.878,39.67-39.878h-21.571c-21.873,0-39.67,17.888-39.67,39.878v15.829
		C132.332,54.267,139.559,53.302,147.074,52.747z"/>
</g>
<path style="fill:#FFD5B3;" d="M261.213,182.334c0,54.283-43.774,98.288-97.769,98.288l0,0c-53.996,0-97.771-44.005-97.771-98.288
	v-58.505c0-54.28,43.774-71.663,97.771-71.663l0,0c53.994,0,97.769,17.383,97.769,71.663V182.334z"/>
<g style="opacity:0.1;">
	<path d="M87.245,182.334v-58.505c0-50.615,38.064-69.144,86.986-71.417c-3.544-0.164-7.142-0.246-10.787-0.246
		c-53.996,0-97.771,17.383-97.771,71.663v58.505c0,54.283,43.774,98.288,97.771,98.288c3.645,0,7.243-0.208,10.787-0.599
		C125.31,274.626,87.245,232.953,87.245,182.334z"/>
</g>
<path style="fill:#08375E;" d="M212.02,427.337l-14.39-0.005c-9.753,0-17.66-7.854-17.66-17.556c0-2.46,0-11.07,0-21.055h-0.097
	c-3.07,26.634-25.879,47.389-53.477,47.389c-29.69,0-53.846-24.014-53.846-53.531v-43.881c0-12.116-9.881-21.939-22.068-21.939
	c-12.185,0-22.066,9.823-22.066,21.939v43.881c0,53.712,43.952,97.413,97.98,97.413c37.833,0,70.706-21.435,87.02-52.726
	C212.953,427.303,212.49,427.337,212.02,427.337z"/>
<path style="fill:#FFD5B3;" d="M179.97,349.951c0,6.337,0,53.489,0,59.825c0,9.701,7.907,17.556,17.66,17.556l14.39,0.005
	c9.755-0.005,17.658-7.862,17.662-17.561c0-6.333-3.389-11.868-8.446-14.956c5.058-3.088,8.442-8.623,8.446-14.954
	c-0.002-6.337-3.389-11.875-8.446-14.958c5.061-3.09,8.442-8.62,8.444-14.957c0.002-9.697-7.907-17.554-17.66-17.56l-14.388,0.006
	C187.875,332.397,179.97,340.256,179.97,349.951z"/>
<g style="opacity:0.1;">
	<path d="M201.401,409.776c0-6.336,0-53.488,0-59.825c0-8.502,6.078-15.588,14.154-17.205c-1.143-0.232-2.323-0.353-3.535-0.354
		l-14.388,0.006c-9.757,0-17.662,7.858-17.662,17.554c0,6.337,0,53.489,0,59.825c0,9.701,7.907,17.556,17.66,17.556l14.39,0.005
		c1.21-0.001,2.391-0.124,3.531-0.355C207.481,425.366,201.401,418.283,201.401,409.776z"/>
</g>
<path style="fill:#C0272D;" d="M456.775,40.444c-2.01-1.996-5.3-1.996-7.31,0l-42.867,42.571c-2.01,1.996-5.3,1.996-7.311,0
	l-42.861-42.571c-2.01-1.996-5.299-1.996-7.31,0l-25.302,25.131c-2.01,1.996-2.01,5.264,0,7.26l42.861,42.569
	c2.01,1.996,2.01,5.264,0,7.26l-42.863,42.574c-2.01,1.996-2.008,5.264,0.002,7.26l25.302,25.129c2.011,1.996,5.3,1.996,7.31,0
	l42.861-42.57c2.011-1.996,5.301-1.996,7.311,0l42.867,42.57c2.01,1.997,5.3,1.996,7.31,0l25.302-25.129
	c2.01-1.996,2.01-5.264,0-7.26l-42.865-42.574c-2.01-1.996-2.01-5.264,0-7.26l42.865-42.569c2.01-1.996,2.01-5.264,0-7.26
	L456.775,40.444z"/>
<g>
	<path style="fill:#775436;" d="M166.057,192.167h-7.495c-4.143,0-7.5-3.357-7.5-7.5s3.357-7.5,7.5-7.5h5.477v-15.12
		c0-4.143,3.357-7.5,7.5-7.5s7.5,3.357,7.5,7.5v17.112C179.039,186.332,173.215,192.167,166.057,192.167z"/>
	<path style="fill:#775436;" d="M212.113,169.49c-4.143,0-7.5-3.357-7.5-7.5v-12.855c0-4.143,3.357-7.5,7.5-7.5s7.5,3.357,7.5,7.5
		v12.855C219.613,166.133,216.255,169.49,212.113,169.49z"/>
	<path style="fill:#775436;" d="M121.183,169.49c-4.143,0-7.5-3.357-7.5-7.5v-12.855c0-4.143,3.357-7.5,7.5-7.5s7.5,3.357,7.5,7.5
		v12.855C128.683,166.133,125.325,169.49,121.183,169.49z"/>
	<path style="fill:#775436;" d="M186.617,228.787h-47.923c-4.143,0-7.5-3.357-7.5-7.5s3.357-7.5,7.5-7.5h47.923
		c4.143,0,7.5,3.357,7.5,7.5C194.117,225.43,190.76,228.787,186.617,228.787z"/>
</g>
<path style="fill:#E6E9ED;" d="M384.779,251.36h-17.163c-3.95,0-7.164-3.187-7.164-7.104c0-3.916,3.214-7.103,7.164-7.103h10.954
	c4.143,0,7.5-3.357,7.5-7.5s-3.357-7.5-7.5-7.5h-10.954c-12.222,0-22.164,9.915-22.164,22.103s9.942,22.104,22.164,22.104h17.163
	c3.95,0,7.164,3.186,7.164,7.103c0,3.916-3.214,7.103-7.164,7.103c-4.143,0-7.5,3.357-7.5,7.5s3.357,7.5,7.5,7.5h1.024
	c0.482,0,0.954-0.046,1.411-0.133c11.08-1.213,19.729-10.603,19.729-21.97C406.943,261.276,397,251.36,384.779,251.36z"/>
<path style="fill:#C5CCD3;" d="M361.522,309.108h-11.358c-3.951,0-7.166-3.188-7.166-7.104c0-3.915,3.215-7.101,7.166-7.101
	c4.143,0,7.5-3.357,7.5-7.5s-3.357-7.5-7.5-7.5c-12.223,0-22.166,9.914-22.166,22.101c0,12.189,9.943,22.104,22.166,22.104h10.526
	v10.381c0,4.143,3.357,7.5,7.5,7.5s7.5-3.357,7.5-7.5v-11.096C375.69,315.517,369.334,309.108,361.522,309.108z"/>
<g>
</g>
<g>
</g>
<g>
</g>
<g>
</g>
<g>
</g>
<g>
</g>
<g>
</g>
<g>
</g>
<g>
</g>
<g>
</g>
<g>
</g>
<g>
</g>
<g>
</g>
<g>
</g>
<g>
</g>
</svg>
