<?xml version="1.0" encoding="iso-8859-1"?>
<!-- Generator: Adobe Illustrator 19.0.0, SVG Export Plug-In . SVG Version: 6.00 Build 0)  -->
<svg version="1.1" id="Capa_1" xmlns="http://www.w3.org/2000/svg" xmlns:xlink="http://www.w3.org/1999/xlink" x="0px" y="0px"
	 viewBox="0 0 512.001 512.001" style="enable-background:new 0 0 512.001 512.001;" xml:space="preserve">
<path style="fill:#A2DFF9;" d="M241.738,372.663l10.13,0.005c0.521,0,1.032,0.042,1.537,0.104V186.134
	c-1.702,1.102-3.722,1.749-5.889,1.749h-3.221c-2.168,0-4.188-0.648-5.89-1.75v186.998
	C239.467,372.835,240.582,372.664,241.738,372.663z"/>
<path style="fill:#EF5050;" d="M245.905,169c-4.086,0-8.099-0.341-12.017-0.994c-0.313,1.01-0.482,2.081-0.482,3.189v6.815
	c0,5.983,4.901,10.878,10.89,10.878h3.221c5.989,0,10.889-4.895,10.889-10.878v-6.815c0-1.108-0.17-2.18-0.482-3.189
	C254.005,168.659,249.991,169,245.905,169z"/>
<ellipse style="fill:#FB8276;" cx="245.911" cy="85.36" rx="78.56" ry="85.36"/>
<path style="fill:#046699;" d="M238.039,65.735c-5.735-9.911-10.821-18.699-12.226-21.125v-0.584
	c0.325-0.22,0.708-0.346,1.112-0.346h37.819c0.405,0,0.789,0.127,1.112,0.346v0.987c-1.607,2.778-6.196,10.708-11.99,20.722H238.039
	z"/>
<g>
	<path style="fill:#48C1E1;" d="M214.706,132.141c0,0,8.522-14.728,18.601-32.147l12.757,22.051l-12.219,21.122
		c-0.928,1.604-2.306,1.532-3.063-0.16l-2.653-5.935c-0.757-1.691-2.888-2.959-4.736-2.814l-7.011,0.541
		C214.532,134.939,213.779,133.745,214.706,132.141z"/>
	<path style="fill:#48C1E1;" d="M258.248,100.589c-0.123-0.214-5.948-10.279-12.643-21.852
		c10.666-18.434,20.017-34.595,20.132-34.791c0.298,0.172,0.55,0.421,0.729,0.728c1.569,2.709,10.496,18.133,10.496,18.133
		c0.928,1.605,0.928,4.229,0,5.833l-18.6,32.148L258.248,100.589z"/>
</g>
<path style="fill:#A2DFF9;" d="M214.706,62.807c0,0,8.775-15.162,10.496-18.133c0.179-0.307,0.431-0.555,0.729-0.727
	c0.269,0.457,50.825,87.84,50.825,87.84c0,0.001,0,0.001,0.001,0.001l0.204,0.352c0.928,1.605,0.175,2.799-1.674,2.657l-7.012-0.541
	c-1.849-0.145-3.979,1.123-4.737,2.814l-2.653,5.935c-0.756,1.692-2.135,1.764-3.063,0.16l-3.814-6.595l-39.302-67.93
	C213.779,67.035,213.779,64.411,214.706,62.807z"/>
<g style="opacity:0.1;">
	<path d="M262.222,136.887l-44.09-76.209c-0.409-0.704-0.655-1.586-0.743-2.506c-1.541,2.662-2.684,4.635-2.684,4.635
		c-0.927,1.605-0.927,4.229,0,5.833l39.303,67.932l3.814,6.595c0.928,1.604,2.307,1.532,3.063-0.16l2.125-4.754L262.222,136.887z"/>
</g>
<g style="opacity:0.1;">
	<path d="M188.97,85.358c0-43.154,29.479-78.807,67.747-84.533C253.18,0.296,249.575,0,245.905,0
		c-43.387,0-78.558,38.217-78.558,85.358c0,47.143,35.171,85.358,78.558,85.358c3.67,0,7.275-0.294,10.811-0.823
		C218.448,164.166,188.97,128.513,188.97,85.358z"/>
</g>
<path style="fill:#FFC502;" d="M265.772,393.315l10.129,0.002c6.305,0,11.434,5.137,11.434,11.451l0.001,6.04c0,0.553,0.448,1,1,1
	h34.561V389.65h-59.896c0,1.222,0,2.58,0,4.019C263.89,393.446,264.815,393.315,265.772,393.315z"/>
<path style="fill:#FFB98A;" d="M254.336,425.982c0.001-4.007,2.046-7.653,5.47-9.755c0.296-0.182,0.477-0.504,0.477-0.852
	s-0.18-0.67-0.476-0.853c-3.425-2.108-5.47-5.756-5.471-9.756c-0.001-5.815,4.353-10.62,9.966-11.348c0-4.762,0-8.508-0.001-9.811
	c0-6.877-5.564-12.448-12.435-12.448l-10.13-0.005c-6.865,0.005-12.435,5.575-12.434,12.453c0,4.494,2.383,8.416,5.946,10.608
	c-3.563,2.186-5.946,6.113-5.948,10.607c0.001,4.491,2.385,8.415,5.948,10.605c-3.563,2.19-5.948,6.116-5.948,10.609
	c0.001,6.877,5.568,12.451,12.435,12.453l10.132-0.002c2.983,0,5.718-1.054,7.861-2.807
	C256.355,433.569,254.338,429.953,254.336,425.982z"/>
<path style="fill:#FFC502;" d="M449.475,323.924h-41.218c-7.95,3.301-16.647,5.133-25.771,5.133c-9.123,0-17.82-1.832-25.77-5.133
	h-25.617c-5.425,0-9.864,4.44-9.864,9.869v168.338c0,5.429,4.439,9.869,9.864,9.869h118.375c5.425,0,9.864-4.44,9.864-9.869V333.793
	C459.339,328.364,454.899,323.924,449.475,323.924z"/>
<g style="opacity:0.1;">
	<path d="M342.709,502.131V333.793c0-5.429,4.439-9.869,9.865-9.869h-21.475c-5.425,0-9.864,4.44-9.864,9.869v168.338
		c0,5.429,4.439,9.869,9.864,9.869h21.475C347.149,512,342.709,507.56,342.709,502.131z"/>
</g>
<g>
	<path style="fill:#FFB98A;" d="M382.485,329.057c-6.086,0-11.979-0.821-17.593-2.34v7.653c0,10.239,8.297,18.539,18.531,18.539
		c10.235,0,18.532-8.3,18.532-18.539v-8.193C395.786,328.041,389.254,329.057,382.485,329.057z"/>
	<path style="fill:#FFB98A;" d="M457.024,231.717h-7.54v29.884c0,4.058-0.374,8.026-1.051,11.891h8.591
		c9.412,0,17.114-7.712,17.114-17.139v-7.495C474.139,239.429,466.436,231.717,457.024,231.717z"/>
	<path style="fill:#FFB98A;" d="M315.488,261.601v-29.884h-3.358c-9.414,0-17.116,7.712-17.116,17.141v7.495
		c0,9.427,7.701,17.139,17.116,17.139h4.409C315.862,269.627,315.488,265.658,315.488,261.601z"/>
</g>
<path style="fill:#F7931E;" d="M422.895,153.061h-18.122c-4.864-7.975-13.573-13.302-23.489-13.302h-60.225
	c-3.63,0-6.57,2.977-6.57,6.649v85.147h1v-10.944c0-32.651,22.541-49.207,66.997-49.207c44.457,0,66.999,16.556,66.999,49.207
	v10.944h1V181C450.484,165.569,438.129,153.061,422.895,153.061z"/>
<path style="opacity:0.1;enable-background:new    ;" d="M315.488,220.611c0-17.977,6.848-31.063,20.409-39.205v-34.998
	c0-3.672,2.94-6.649,6.57-6.649h-21.408c-3.63,0-6.57,2.977-6.57,6.649v85.147h1v-10.944H315.488z"/>
<path style="fill:#FFD5B3;" d="M314.488,261.601c0,38.031,30.445,68.86,67.997,68.86l0,0c37.555,0,67.999-30.829,67.999-68.86
	v-40.989c0-38.027-30.444-50.207-67.999-50.207l0,0c-37.552,0-67.997,12.18-67.997,50.207V261.601z"/>
<g style="opacity:0.1;">
	<path d="M335.536,261.601v-40.989c0-34.403,24.919-47.648,57.474-49.861c-3.431-0.232-6.944-0.346-10.524-0.346
		c-37.552,0-67.997,12.18-67.997,50.207v40.989c0,38.031,30.445,68.86,67.997,68.86c3.58,0,7.094-0.284,10.524-0.824
		C360.455,324.514,335.536,296.006,335.536,261.601z"/>
</g>
<g>
	<path style="fill:#775436;" d="M384.675,270.735h-5.805c-6.478,0-11.747-5.096-11.747-11.359v-11.989c0-4.143,3.358-7.5,7.5-7.5
		s7.5,3.357,7.5,7.5v8.349h2.552c4.142,0,7.5,3.357,7.5,7.5C392.175,267.378,388.817,270.735,384.675,270.735z"/>
	<path style="fill:#775436;" d="M346.37,257.016c-4.142,0-7.5-3.357-7.5-7.5V239.32c0-4.143,3.358-7.5,7.5-7.5s7.5,3.357,7.5,7.5
		v10.195C353.87,253.658,350.512,257.016,346.37,257.016z"/>
	<path style="fill:#775436;" d="M411.913,257.016c-4.142,0-7.5-3.357-7.5-7.5V239.32c0-4.143,3.358-7.5,7.5-7.5s7.5,3.357,7.5,7.5
		v10.195C419.413,253.658,416.055,257.016,411.913,257.016z"/>
	<path style="fill:#775436;" d="M379.273,304.054c-8.638,0-17.276-3.285-23.852-9.855c-2.93-2.927-2.933-7.676-0.005-10.606
		c2.928-2.931,7.677-2.932,10.607-0.005c7.307,7.299,19.195,7.3,26.501,0c2.931-2.929,7.679-2.924,10.607,0.005
		c2.927,2.931,2.925,7.68-0.005,10.606C396.549,300.769,387.911,304.054,379.273,304.054z"/>
</g>
<path style="fill:#FCDB67;" d="M430.528,350.825c-8.593-2.084-17.234,3.156-19.317,11.751c-0.033,0.128-3.358,12.969-12.777,25.296
	c-11.627,15.221-27.335,22.935-46.688,22.935h-64.745c0,8.788,0,24.198,0,32.027h64.746c29.95,0,55.189-12.678,72.989-36.665
	c12.774-17.213,17.114-34.102,17.567-35.969C444.387,361.605,439.12,352.908,430.528,350.825z"/>
<path style="fill:#FFD5B3;" d="M288.335,404.768c0.001,4.494,0.001,37.938,0,42.429c0.001,6.88-5.567,12.452-12.432,12.452
	l-10.132,0.002c-6.867-0.002-12.433-5.577-12.435-12.454c0-4.491,2.386-8.419,5.947-10.607c-3.561-2.19-5.945-6.115-5.947-10.607
	c0.001-4.492,2.386-8.422,5.947-10.607c-3.562-2.193-5.945-6.113-5.946-10.607c-0.001-6.88,5.568-12.451,12.434-12.453l10.13,0.002
	C282.772,392.316,288.335,397.891,288.335,404.768z"/>
<path style="fill:#A2DFF9;" d="M192.938,366.117h-15.833c-10.171,17.351-28.648,28.025-48.852,28.025
	c-20.205,0-38.682-10.675-48.853-28.025H60.568c-8.159,0-14.797,6.642-14.797,14.805v126.143c0,2.726,2.209,4.935,4.933,4.935
	h152.099c2.723,0,4.932-2.209,4.932-4.935V380.922C207.734,372.759,201.097,366.117,192.938,366.117z"/>
<path style="fill:#FFB98A;" d="M146.485,353.834c-5.882,1.84-11.999,2.81-18.231,2.81c-6.231,0-12.35-0.971-18.232-2.811v12.284
	H77.218c9.652,18.355,28.878,30.879,51.035,30.879s41.383-12.523,51.035-30.879h-32.803L146.485,353.834L146.485,353.834z"/>
<path style="opacity:0.1;enable-background:new    ;" d="M67.282,507.065V380.922c0-7.295,5.306-13.359,12.256-14.57
	c-0.046-0.078-0.092-0.156-0.138-0.234H60.568c-8.159,0-14.797,6.642-14.797,14.805v126.143c0,2.726,2.209,4.935,4.933,4.935h21.511
	C69.491,512,67.282,509.791,67.282,507.065z"/>
<path style="fill:#775436;" d="M111.117,171.354c5.492-1.534,11.229-2.354,17.137-2.354c5.907,0,11.645,0.819,17.136,2.354
	c5.744-5.467,9.399-13.616,9.399-22.71c0-1.853-1.499-3.355-3.347-3.355h-46.377c-1.849,0-3.347,1.502-3.347,3.355
	C101.717,157.737,105.373,165.887,111.117,171.354z"/>
<path style="opacity:0.1;enable-background:new    ;" d="M111.117,171.354c5.492-1.534,11.229-2.354,17.137-2.354
	c0.662,0,1.316,0.033,1.974,0.054c-4.49-5.334-7.258-12.511-7.258-20.41c0-1.853,1.499-3.355,3.347-3.355h-21.252
	c-1.849,0-3.347,1.502-3.347,3.355C101.717,157.737,105.373,165.887,111.117,171.354z"/>
<g>
	<path style="fill:#FFB98A;" d="M60.877,284.488v-7.822h-4.38c-10.29,0-18.634,8.353-18.634,18.656
		c0,10.306,8.344,18.657,18.634,18.657h10.632C63.071,304.661,60.877,294.571,60.877,284.488z"/>
	<path style="fill:#FFB98A;" d="M200.009,276.666h-4.381v7.822c0,10.083-2.194,20.173-6.252,29.491h10.633
		c10.29,0,18.634-8.352,18.634-18.657C218.643,285.019,210.3,276.666,200.009,276.666z"/>
</g>
<path style="fill:#FFD5B3;" d="M193.908,267H62.598c-0.929,0-1.836-0.094-2.721-0.246v17.734c0,38.514,30.613,73.156,68.377,73.156
	c37.762,0,68.374-34.642,68.374-73.156v-17.734C195.743,266.906,194.837,267,193.908,267z"/>
<g style="opacity:0.1;">
	<path d="M81.093,284.488V267H62.598c-0.929,0-1.836-0.094-2.721-0.246v17.734c0,38.514,30.613,73.156,68.377,73.156
		c3.608,0,7.15-0.32,10.608-0.928C106.137,350.984,81.093,319.322,81.093,284.488z"/>
</g>
<g>
	<path style="fill:#775436;" d="M128.598,315.728h-3.964c-4.142,0-7.5-3.357-7.5-7.5s3.358-7.5,7.5-7.5h0.428v-9.172
		c0-4.143,3.358-7.5,7.5-7.5s7.5,3.357,7.5,7.5v11.52C140.062,310.053,134.92,315.728,128.598,315.728z"/>
	<path style="fill:#775436;" d="M160.821,304.425c-4.142,0-7.5-3.357-7.5-7.5v-9.889c0-4.143,3.358-7.5,7.5-7.5s7.5,3.357,7.5,7.5
		v9.889C168.321,301.067,164.963,304.425,160.821,304.425z"/>
	<path style="fill:#775436;" d="M94.78,304.425c-4.142,0-7.5-3.357-7.5-7.5v-9.889c0-4.143,3.358-7.5,7.5-7.5s7.5,3.357,7.5,7.5
		v9.889C102.28,301.067,98.922,304.425,94.78,304.425z"/>
	<path style="fill:#775436;" d="M128.254,341.239c-9.26,0.001-17.969-3.613-24.523-10.176c-2.927-2.931-2.924-7.68,0.007-10.607
		c2.93-2.926,7.679-2.925,10.606,0.007c3.72,3.725,8.66,5.776,13.91,5.775c5.249,0,10.189-2.051,13.908-5.775
		c2.926-2.932,7.675-2.935,10.607-0.007c2.931,2.927,2.934,7.676,0.007,10.607C146.222,337.626,137.514,341.239,128.254,341.239z"/>
</g>
<path style="fill:#C6A07D;" d="M62.598,240h131.31c2.027,0,3.962,0.39,5.74,1.078c-3.616-41.305-34.199-73.559-71.395-73.559
	c-37.197,0-67.78,32.254-71.396,73.559C58.636,240.39,60.571,240,62.598,240z"/>
<path style="opacity:0.1;enable-background:new    ;" d="M62.598,240h15.474c3.658-36.818,28.753-66.224,60.73-71.594
	c-3.443-0.578-6.964-0.887-10.548-0.887c-37.197,0-67.78,32.254-71.396,73.559C58.636,240.39,60.571,240,62.598,240z"/>
<path style="fill:#775436;" d="M209.377,253.264c0,8.17-6.961,14.855-15.469,14.855H62.598c-8.508,0-15.469-6.686-15.469-14.855
	c0-8.17,6.961-14.855,15.469-14.855h131.31C202.416,238.408,209.377,245.094,209.377,253.264z"/>
<g style="opacity:0.1;">
	<path d="M79.315,253.264c0-8.17,6.961-14.855,15.469-14.855H62.598c-8.508,0-15.469,6.686-15.469,14.855
		c0,8.17,6.961,14.855,15.469,14.855h32.186C86.276,268.119,79.315,261.434,79.315,253.264z"/>
</g>
<path style="fill:#48C1E1;" d="M165.278,474.367c-5.547,0-10.06-4.52-10.06-10.075c-0.001-2.186-0.001-12.078-0.001-21.246h-0.173
	c-1.929,16.852-16.252,29.983-33.586,29.983c-18.648,0-33.818-15.193-33.818-33.868v-27.762c0-7.665-6.206-13.88-13.859-13.88
	c-7.654,0-13.86,6.215-13.86,13.88v27.762c0,33.982,27.605,61.63,61.538,61.63c20.866,0,39.32-10.467,50.449-26.422L165.278,474.367
	z"/>
<path style="fill:#FFD5B3;" d="M154.218,464.292c-0.001-3.996-0.001-33.746,0-37.744c-0.001-6.117,4.952-11.074,11.059-11.074
	l9.014-0.002c6.108,0.002,11.059,4.96,11.06,11.076c0,3.998-2.121,7.49-5.29,9.438c3.169,1.948,5.289,5.44,5.29,9.434
	c0,3.996-2.121,7.491-5.29,9.438c3.17,1.949,5.289,5.439,5.29,9.435c0,6.119-4.954,11.075-11.06,11.077l-9.013-0.002
	C159.167,475.367,154.218,470.409,154.218,464.292z"/>
<g>
</g>
<g>
</g>
<g>
</g>
<g>
</g>
<g>
</g>
<g>
</g>
<g>
</g>
<g>
</g>
<g>
</g>
<g>
</g>
<g>
</g>
<g>
</g>
<g>
</g>
<g>
</g>
<g>
</g>
</svg>
