<?xml version="1.0" encoding="iso-8859-1"?>
<!-- Generator: Adobe Illustrator 19.0.0, SVG Export Plug-In . SVG Version: 6.00 Build 0)  -->
<svg version="1.1" id="Capa_1" xmlns="http://www.w3.org/2000/svg" xmlns:xlink="http://www.w3.org/1999/xlink" x="0px" y="0px"
	 viewBox="0 0 512 512" style="enable-background:new 0 0 512 512;" xml:space="preserve">
<path style="fill:#C5CCD3;" d="M45.098,147.865l-19.581,19.564l73.648,73.575v-12.412c0-5.131,4.173-9.306,9.302-9.306h8.125
	L45.098,147.865z"/>
<path style="fill:#FFD5B3;" d="M1.27,144.389l14.171-14.156c1.692-1.694,4.463-1.694,6.161,0l10.471,10.463l5.545-5.539
	c1.692-1.693,4.465-1.693,6.159,0l4.928,4.923c1.692,1.693,1.692,4.462,0,6.154l-22.791,22.771c-1.696,1.692-4.469,1.692-6.163,0
	L1.27,150.542C-0.423,148.85-0.423,146.079,1.27,144.389z"/>
<path style="fill:#C5CCD3;" d="M487.219,158.199l-19.583-19.564l-62.349,62.286c-3.959,6.81-9.592,12.447-16.229,16.211
	l-2.156,2.154h14.615c5.129,0,9.301,4.175,9.301,9.306v5.928L487.219,158.199z"/>
<path style="fill:#FFD5B3;" d="M510.73,134.425l-14.171-14.155c-1.692-1.694-4.463-1.694-6.159,0l-10.473,10.461l-5.545-5.538
	c-1.693-1.692-4.465-1.692-6.16,0l-4.927,4.924c-1.692,1.692-1.692,4.461,0,6.153l22.792,22.771c1.697,1.692,4.467,1.692,6.162,0
	l18.48-18.463C512.422,138.887,512.425,136.117,510.73,134.425z"/>
<path style="fill:#046699;" d="M358.579,483.102c0.324,0.065,0.637,0.163,0.936,0.286V362.823h21.524v120.564
	c0.01-0.004,0.02-0.005,0.031-0.009c0.29-0.118,0.592-0.214,0.905-0.276c0.324-0.066,0.66-0.102,1.004-0.102h28.838V341.497h-83.082
	V483h28.839C357.919,483,358.254,483.036,358.579,483.102z"/>
<rect x="328.74" y="341.5" style="opacity:0.1;enable-background:new    ;" width="16.889" height="141.5"/>
<g>
	<path style="fill:#C5CCD3;" d="M329.736,266.214v-37.622c0-0.568,0.059-1.122,0.157-1.662l-75.668,75.593
		c10.218,0.152,18.486,8.489,18.486,18.73c0,0.691-0.044,1.372-0.117,2.044L329.736,266.214z"/>
	<path style="fill:#C5CCD3;" d="M177.985,222.21l-0.151,0.151c1.494,1.651,2.413,3.833,2.413,6.231v35.003l55.133,55.077
		c1.266-9.115,9.098-16.163,18.565-16.163c1.789,0,3.515,0.267,5.155,0.736L177.985,222.21z"/>
</g>
<path style="fill:#E6E9ED;" d="M401.518,218.285H386.87c-5.148,2.518-10.817,3.941-16.734,3.941c-5.918,0-11.588-1.423-16.736-3.941
	h-14.36c-5.666,0-10.302,4.638-10.302,10.306v114.191h83.082V228.591C411.818,222.923,407.184,218.285,401.518,218.285z"/>
<path style="fill:#F7931E;" d="M370.135,102.303c-23.387,0-42.346,12.42-42.346,36.216v22.459c0,3.194,0.352,6.201,1,9.025v-6.782
	c0-21.392,16.229-35.214,41.346-35.214c25.114,0,41.342,13.822,41.342,35.214v10.539c0.648-2.7,1-5.635,1-8.829V138.52
	C412.477,114.723,393.52,102.303,370.135,102.303z"/>
<path style="opacity:0.1;enable-background:new    ;" d="M328.789,163.219c0-14.641,7.604-25.732,20.455-31.277
	c2.643-16.165,15.123-25.899,31.354-28.753c-3.346-0.588-6.852-0.887-10.463-0.887c-23.387,0-42.346,12.42-42.346,36.216v22.459
	c0,3.194,0.352,6.201,1,9.025L328.789,163.219L328.789,163.219z"/>
<g>
	<path style="fill:#FFB98A;" d="M328.789,178.025v-14.67h-7.117c-6.968,0-12.617,5.647-12.617,12.608
		c0,6.965,5.649,12.609,12.617,12.609h8.367C329.228,185.179,328.789,181.646,328.789,178.025z"/>
	<path style="fill:#FFB98A;" d="M418.879,163.355h-7.402v14.67c0,3.621-0.439,7.154-1.25,10.548h8.652
		c6.975,0,12.624-5.645,12.624-12.609C431.503,169.003,425.853,163.355,418.879,163.355z"/>
</g>
<path style="fill:#FFD5B3;" d="M327.789,178.025c0,23.796,18.959,45.201,42.346,45.201l0,0c23.385,0,42.342-21.404,42.342-45.201
	v-14.806c0-23.794-18.957-36.214-42.342-36.214l0,0c-23.387,0-42.346,12.42-42.346,36.214V178.025z"/>
<g style="opacity:0.1;">
	<path d="M348.717,178.025v-14.806c0-20.12,13.556-32.105,31.881-35.328c-3.346-0.588-6.852-0.887-10.463-0.887
		c-23.387,0-42.346,12.42-42.346,36.214v14.807c0,23.796,18.959,45.201,42.346,45.201c3.611,0,7.117-0.514,10.463-1.465
		C362.272,216.554,348.717,198.147,348.717,178.025z"/>
</g>
<g>
	<path style="fill:#775436;" d="M371.141,190.272h-4.911c-4.143,0-7.5-3.358-7.5-7.5c0-3.232,2.045-5.987,4.911-7.041v-3.258
		c0-4.142,3.357-7.5,7.5-7.5s7.5,3.358,7.5,7.5v10.299C378.641,186.914,375.283,190.272,371.141,190.272z"/>
	<path style="fill:#775436;" d="M391.863,180.158c-4.143,0-7.5-3.358-7.5-7.5v-6.324c0-4.142,3.357-7.5,7.5-7.5s7.5,3.358,7.5,7.5
		v6.324C399.363,176.8,396.006,180.158,391.863,180.158z"/>
	<path style="fill:#775436;" d="M348.694,180.158c-4.143,0-7.5-3.358-7.5-7.5v-6.324c0-4.142,3.357-7.5,7.5-7.5s7.5,3.358,7.5,7.5
		v6.324C356.194,176.8,352.837,180.158,348.694,180.158z"/>
	<path style="fill:#775436;" d="M370.278,210.949c-6.229,0-12.458-2.369-17.2-7.107c-2.931-2.928-2.933-7.676-0.005-10.606
		c2.929-2.932,7.678-2.932,10.606-0.005c3.639,3.635,9.559,3.635,13.197,0c2.93-2.928,7.679-2.925,10.606,0.005
		c2.928,2.93,2.926,7.679-0.005,10.606C382.736,208.579,376.508,210.949,370.278,210.949z"/>
	<path style="fill:#775436;" d="M430.974,497v-9.883c0-2.834-2.317-5.153-5.151-5.153H382.98c-2.834,0-5.151,2.319-5.151,5.153V497
		H430.974z"/>
	<path style="fill:#775436;" d="M362.727,497v-9.883c0-2.834-2.318-5.153-5.151-5.153h-42.843c-2.833,0-5.15,2.319-5.15,5.153V497
		H362.727z"/>
</g>
<path style="opacity:0.1;enable-background:new    ;" d="M331.203,497v-9.883c0-2.834,2.318-5.153,5.15-5.153h-21.621
	c-2.833,0-5.15,2.319-5.15,5.153V497H331.203z"/>
<path style="fill:#C6A07D;" d="M98.165,483h28.839c0.686,0,1.34,0.142,1.94,0.388V362.823h21.527v120.564
	c0.6-0.246,1.252-0.387,1.938-0.387h28.839V341.497H98.165V483z"/>
<rect x="98.17" y="341.5" style="opacity:0.1;enable-background:new    ;" width="17.06" height="141.5"/>
<path style="fill:#E6E9ED;" d="M170.946,218.285h-14.359c-5.148,2.518-10.818,3.941-16.736,3.941
	c-5.917,0-11.586-1.423-16.733-3.941h-14.65c-5.666,0-10.302,4.638-10.302,10.306v114.191h83.082V228.591
	C181.247,222.923,176.612,218.285,170.946,218.285z"/>
<path style="fill:#FFD5B3;" d="M139.851,222.227c-22.409,0-41.342-20.241-41.342-44.201v-14.806
	c0-21.392,16.228-35.214,41.342-35.214c25.117,0,41.347,13.822,41.347,35.214v14.807
	C181.197,201.985,162.263,222.227,139.851,222.227z"/>
<path style="fill:#046699;" d="M162.49,110.272h-12.335c-1.528-3.467-5-5.905-9.019-5.905H107.36c-5.419,0-9.852,4.429-9.852,9.841
	v48.401c0,1.534,0.366,2.984,1,4.282v-3.671c0-21.392,16.228-35.214,41.342-35.214c25.117,0,41.347,13.822,41.347,35.214v1.588
	c0.641-1.935,1-3.995,1-6.137v-28.714C182.197,119.131,173.33,110.272,162.49,110.272z"/>
<path style="opacity:0.1;enable-background:new    ;" d="M98.509,163.219c0-13.471,6.439-23.936,17.477-29.842v-19.17
	c0-5.413,4.433-9.841,9.852-9.841H107.36c-5.419,0-9.852,4.429-9.852,9.841v48.401c0,1.534,0.366,2.984,1,4.282L98.509,163.219
	L98.509,163.219z"/>
<g>
	<path style="fill:#FFB98A;" d="M98.509,178.025v-14.738h-7.672c-7.01,0-12.692,5.677-12.692,12.677
		c0,7.003,5.683,12.679,12.692,12.679h8.938C98.953,185.229,98.509,181.671,98.509,178.025z"/>
	<path style="fill:#FFB98A;" d="M188.581,163.287h-7.384v14.738c0,3.645-0.443,7.202-1.266,10.617h8.65
		c7.007,0,12.688-5.675,12.688-12.679C201.27,168.964,195.588,163.287,188.581,163.287z"/>
</g>
<path style="fill:#FFD5B3;" d="M182.197,178.025c0,23.796-18.96,45.201-42.347,45.201l0,0c-23.384,0-42.342-21.404-42.342-45.201
	v-14.806c0-23.794,18.958-36.214,42.342-36.214l0,0c23.387,0,42.347,12.42,42.347,36.214V178.025z"/>
<g style="opacity:0.1;">
	<path d="M118.985,178.025v-14.806c0-20.019,13.421-31.984,31.604-35.278c-3.43-0.621-7.027-0.937-10.739-0.937
		c-23.384,0-42.342,12.42-42.342,36.214v14.807c0,23.796,18.958,45.201,42.342,45.201c3.712,0,7.31-0.543,10.739-1.545
		C132.406,216.369,118.985,198.046,118.985,178.025z"/>
</g>
<g>
	<path style="fill:#775436;" d="M143.754,190.272h-4.909c-4.143,0-7.5-3.358-7.5-7.5v-10.299c0-4.142,3.357-7.5,7.5-7.5
		s7.5,3.358,7.5,7.5v3.259c2.865,1.055,4.909,3.809,4.909,7.04C151.254,186.914,147.896,190.272,143.754,190.272z"/>
	<path style="fill:#775436;" d="M118.123,180.158c-4.143,0-7.5-3.358-7.5-7.5v-6.324c0-4.142,3.357-7.5,7.5-7.5s7.5,3.358,7.5,7.5
		v6.324C125.623,176.8,122.266,180.158,118.123,180.158z"/>
	<path style="fill:#775436;" d="M161.292,180.158c-4.143,0-7.5-3.358-7.5-7.5v-6.324c0-4.142,3.357-7.5,7.5-7.5s7.5,3.358,7.5,7.5
		v6.324C168.792,176.8,165.435,180.158,161.292,180.158z"/>
	<path style="fill:#775436;" d="M139.707,210.949c-6.23,0-12.458-2.369-17.2-7.107c-2.93-2.928-2.932-7.676-0.004-10.606
		c2.929-2.932,7.677-2.932,10.607-0.004c3.639,3.636,9.56,3.633,13.196-0.001c2.932-2.927,7.679-2.924,10.607,0.005
		c2.928,2.931,2.926,7.679-0.005,10.607C152.166,208.579,145.936,210.949,139.707,210.949z"/>
</g>
<ellipse style="fill:#FFD5B3;" cx="253.95" cy="321.25" rx="19.766" ry="19.747"/>
<path style="fill:#775436;" d="M132.154,497v-9.883c0-2.834-2.317-5.153-5.15-5.153H84.163c-2.833,0-5.151,2.319-5.151,5.153V497
	H132.154z"/>
<path style="opacity:0.1;enable-background:new    ;" d="M100.442,497v-9.883c0-2.834,2.318-5.153,5.151-5.153h-21.43
	c-2.833,0-5.151,2.319-5.151,5.153V497H100.442z"/>
<path style="fill:#775436;" d="M200.402,497v-9.883c0-2.834-2.318-5.153-5.151-5.153h-42.843c-2.833,0-5.15,2.319-5.15,5.153V497
	H200.402z"/>
<g>
	<path style="fill:#FB8276;" d="M139.636,286.706c-0.645,0-1.254-0.251-1.71-0.703l-18.793-18.682
		c-2.266-2.252-3.514-5.251-3.514-8.44c0-3.193,1.248-6.191,3.514-8.443c2.268-2.256,5.283-3.497,8.495-3.497
		c3.207,0,6.223,1.241,8.49,3.497l3.586,3.562l3.585-3.562c2.268-2.256,5.284-3.497,8.493-3.497c3.208,0,6.226,1.241,8.493,3.497
		c2.268,2.254,3.52,5.253,3.52,8.443c0,3.188-1.252,6.187-3.52,8.44l-18.938,18.686
		C140.883,286.458,140.277,286.706,139.636,286.706z"/>
	<path style="fill:#FB8276;" d="M370.207,286.706c-0.646,0-1.252-0.251-1.71-0.703l-18.793-18.682
		c-2.266-2.252-3.513-5.251-3.513-8.44c0-3.193,1.247-6.191,3.513-8.443c2.268-2.256,5.284-3.497,8.495-3.497
		c3.207,0,6.223,1.241,8.49,3.497l3.586,3.562l3.586-3.562c2.268-2.256,5.283-3.497,8.492-3.497c3.21,0,6.227,1.241,8.494,3.497
		c2.27,2.254,3.519,5.253,3.519,8.443c0,3.188-1.249,6.187-3.519,8.44l-18.936,18.686
		C371.455,286.458,370.85,286.706,370.207,286.706z"/>
</g>
<path style="fill:#C5CCD3;" d="M504.5,510.353H7.5c-4.143,0-7.5-3.358-7.5-7.5s3.357-7.5,7.5-7.5h497c4.143,0,7.5,3.358,7.5,7.5
	S508.643,510.353,504.5,510.353z"/>
<path style="fill:#046699;" d="M243.297,37.623c-9.346-16.168-17.634-30.504-19.923-34.461V2.21
	c0.528-0.357,1.154-0.562,1.813-0.562h61.628c0.66,0,1.287,0.206,1.813,0.563v1.611c-2.619,4.53-10.096,17.467-19.538,33.802
	L243.297,37.623L243.297,37.623z"/>
<g>
	<path style="fill:#48C1E1;" d="M205.274,145.949c0,0,13.888-24.026,30.311-52.44l20.789,35.97l-19.912,34.456
		c-1.512,2.616-3.759,2.499-4.992-0.26l-4.323-9.681c-1.233-2.759-4.706-4.827-7.718-4.593l-11.425,0.882
		C204.99,150.516,203.763,148.565,205.274,145.949z"/>
	<path style="fill:#48C1E1;" d="M276.229,94.48c-0.201-0.349-9.692-16.769-20.603-35.646c17.381-30.07,32.62-56.434,32.807-56.753
		c0.485,0.279,0.898,0.684,1.189,1.186c2.556,4.418,17.104,29.58,17.104,29.58c1.513,2.616,1.513,6.898,0,9.514l-30.31,52.442
		L276.229,94.48z"/>
</g>
<path style="fill:#A2DFF9;" d="M205.274,32.847c0,0,14.3-24.733,17.104-29.58c0.292-0.501,0.703-0.906,1.189-1.185
	c0.439,0.746,82.823,143.291,82.823,143.291c0,0.001,0,0.001,0.002,0.002l0.332,0.575c1.513,2.617,0.285,4.567-2.728,4.334
	l-11.426-0.882c-3.013-0.234-6.485,1.833-7.72,4.593l-4.322,9.681c-1.232,2.76-3.479,2.876-4.991,0.26l-6.216-10.757L205.274,42.361
	C203.763,39.744,203.763,35.463,205.274,32.847z"/>
<g style="opacity:0.1;">
	<path d="M282.706,153.689L210.857,29.374c-0.666-1.15-1.066-2.589-1.21-4.089c-2.511,4.343-4.373,7.561-4.373,7.561
		c-1.512,2.616-1.512,6.898,0,9.514l64.048,110.816l6.216,10.757c1.512,2.616,3.759,2.499,4.991-0.26l3.463-7.756L282.706,153.689z"
		/>
</g>
<g>
</g>
<g>
</g>
<g>
</g>
<g>
</g>
<g>
</g>
<g>
</g>
<g>
</g>
<g>
</g>
<g>
</g>
<g>
</g>
<g>
</g>
<g>
</g>
<g>
</g>
<g>
</g>
<g>
</g>
</svg>
