<?xml version="1.0" encoding="iso-8859-1"?>
<!-- Generator: Adobe Illustrator 19.0.0, SVG Export Plug-In . SVG Version: 6.00 Build 0)  -->
<svg version="1.1" id="Capa_1" xmlns="http://www.w3.org/2000/svg" xmlns:xlink="http://www.w3.org/1999/xlink" x="0px" y="0px"
	 viewBox="0 0 512 512" style="enable-background:new 0 0 512 512;" xml:space="preserve">
<g>
	<path style="fill:#FCDB67;" d="M291.347,431.278c-3.416,0.628-6.893,1.156-10.354,1.6l7.684,7.666
		c0.805,0.804,1.248,1.879,1.248,3.025c0,1.147-0.443,2.221-1.248,3.026l-0.412,0.41c1.939-0.3,3.875-0.623,5.791-0.974
		c4.074-0.747,6.77-4.657,6.022-8.73C299.33,433.227,295.426,430.531,291.347,431.278z"/>
	<path style="fill:#FCDB67;" d="M209.615,444.327c3.642,0.823,7.349,1.543,11.039,2.17v-15.238c-2.59-0.476-5.177-0.985-7.73-1.563
		c-4.043-0.916-8.057,1.621-8.97,5.661C203.041,439.398,205.575,443.414,209.615,444.327z"/>
	<path style="fill:#FCDB67;" d="M315.035,440.717c-3.211,0-6.184-2.08-7.17-5.312c-1.209-3.962,1.022-8.154,4.984-9.363
		c3.664-1.119,7.346-2.364,10.941-3.702c3.883-1.446,8.201,0.532,9.645,4.415c1.443,3.882-0.533,8.2-4.414,9.644
		c-3.877,1.442-7.844,2.784-11.793,3.99C316.498,440.611,315.761,440.717,315.035,440.717z"/>
	<path style="fill:#FCDB67;" d="M189.163,438.161c-0.823,0-1.661-0.137-2.482-0.424c-3.906-1.37-7.822-2.876-11.639-4.477
		c-3.82-1.603-5.617-5.998-4.015-9.817s5.999-5.617,9.817-4.015c3.542,1.486,7.175,2.883,10.8,4.154
		c3.909,1.371,5.966,5.651,4.596,9.56C195.158,436.228,192.26,438.161,189.163,438.161z"/>
	<path style="fill:#FCDB67;" d="M347.465,427.632c-2.73,0-5.365-1.497-6.689-4.099c-1.879-3.691-0.41-8.207,3.281-10.086
		c3.414-1.738,6.82-3.601,10.125-5.539c3.572-2.094,8.168-0.897,10.264,2.676s0.896,8.168-2.676,10.264
		c-3.56,2.087-7.228,4.095-10.908,5.967C349.771,427.37,348.609,427.632,347.465,427.632z"/>
	<path style="fill:#FCDB67;" d="M157.273,423.748c-1.244,0-2.504-0.31-3.665-0.962c-3.6-2.021-7.191-4.182-10.675-6.42
		c-3.485-2.239-4.495-6.879-2.255-10.364c2.239-3.484,6.879-4.496,10.364-2.255c3.235,2.079,6.57,4.084,9.912,5.96
		c3.612,2.028,4.895,6.6,2.867,10.212C162.444,422.369,159.897,423.748,157.273,423.748z"/>
	<path style="fill:#FCDB67;" d="M377.115,409.144c-2.279,0-4.531-1.035-6.004-2.997c-2.486-3.313-1.818-8.014,1.494-10.501
		c3.066-2.303,6.105-4.727,9.029-7.207c3.16-2.678,7.893-2.289,10.57,0.871c2.68,3.159,2.289,7.892-0.869,10.571
		c-3.15,2.67-6.422,5.281-9.725,7.761C380.261,408.655,378.681,409.144,377.115,409.144z"/>
	<path style="fill:#FCDB67;" d="M128.375,404.044c-1.668,0-3.347-0.554-4.74-1.691c-3.198-2.612-6.362-5.356-9.404-8.156
		c-3.047-2.805-3.244-7.55-0.438-10.598c2.806-3.047,7.55-3.243,10.598-0.438c2.825,2.601,5.763,5.149,8.733,7.574
		c3.208,2.621,3.685,7.345,1.064,10.553C132.706,403.103,130.549,404.044,128.375,404.044z"/>
	<path style="fill:#FCDB67;" d="M403.15,385.822c-1.842,0-3.688-0.674-5.137-2.035c-3.018-2.836-3.164-7.583-0.328-10.602
		c2.625-2.793,5.203-5.704,7.662-8.653c2.652-3.181,7.383-3.609,10.563-0.958c3.182,2.653,3.611,7.382,0.959,10.564
		c-2.648,3.176-5.426,6.313-8.254,9.321C407.14,385.029,405.146,385.822,403.15,385.822z"/>
	<path style="fill:#FCDB67;" d="M103.308,379.674c-2.102,0-4.191-0.878-5.674-2.591c-2.703-3.123-5.348-6.368-7.86-9.644
		c-2.521-3.287-1.9-7.995,1.387-10.515c3.287-2.521,7.995-1.9,10.515,1.387c2.333,3.042,4.789,6.055,7.299,8.955
		c2.71,3.132,2.37,7.869-0.762,10.58C106.795,379.073,105.048,379.674,103.308,379.674z"/>
	<path style="fill:#FCDB67;" d="M424.801,358.369c-1.412,0-2.842-0.399-4.111-1.233c-3.461-2.275-4.424-6.925-2.148-10.387
		c2.107-3.21,4.148-6.523,6.061-9.85c2.064-3.591,6.648-4.827,10.24-2.763c3.592,2.065,4.828,6.65,2.764,10.24
		c-2.061,3.583-4.258,7.152-6.529,10.609C429.635,357.179,427.242,358.369,424.801,358.369z"/>
	<path style="fill:#FCDB67;" d="M82.803,351.372c-2.548,0-5.032-1.298-6.438-3.642c-2.126-3.543-4.171-7.193-6.078-10.849
		c-1.916-3.672-0.492-8.203,3.181-10.118c3.672-1.916,8.203-0.492,10.118,3.181c1.77,3.392,3.668,6.779,5.641,10.067
		c2.132,3.552,0.98,8.159-2.571,10.29C85.448,351.026,84.116,351.372,82.803,351.372z"/>
	<path style="fill:#FCDB67;" d="M441.404,327.58c-0.99,0-1.998-0.198-2.967-0.615c-3.803-1.641-5.557-6.054-3.916-9.857
		c1.521-3.527,2.957-7.147,4.264-10.757c1.412-3.896,5.713-5.909,9.605-4.499c3.895,1.41,5.908,5.71,4.498,9.605
		c-1.408,3.891-2.953,7.791-4.594,11.592C447.072,325.884,444.308,327.58,441.404,327.58z"/>
	<path style="fill:#FCDB67;" d="M67.488,319.955c-3.016,0-5.86-1.832-7.004-4.816c-1.478-3.854-2.859-7.807-4.107-11.751
		c-1.249-3.949,0.939-8.164,4.889-9.413c3.949-1.247,8.163,0.939,9.413,4.889c1.158,3.66,2.44,7.329,3.812,10.904
		c1.483,3.868-0.45,8.205-4.317,9.688C69.288,319.794,68.38,319.955,67.488,319.955z"/>
	<path style="fill:#FCDB67;" d="M452.416,294.363c-0.572,0-1.152-0.065-1.732-0.203c-4.031-0.953-6.525-4.994-5.572-9.025
		c0.881-3.726,1.662-7.533,2.32-11.315c0.711-4.081,4.59-6.818,8.676-6.102c4.08,0.71,6.813,4.595,6.102,8.675
		c-0.709,4.076-1.551,8.179-2.5,12.195C458.892,292.039,455.814,294.363,452.416,294.363z"/>
	<path style="fill:#FCDB67;" d="M57.858,286.345c-3.52,0-6.66-2.49-7.355-6.075c-0.784-4.05-1.458-8.183-2.001-12.285
		c-0.544-4.107,2.344-7.876,6.45-8.42c4.109-0.547,7.876,2.345,8.42,6.45c0.504,3.807,1.129,7.643,1.857,11.401
		c0.788,4.066-1.87,8.002-5.936,8.79C58.811,286.3,58.331,286.345,57.858,286.345z"/>
	<path style="fill:#FCDB67;" d="M457.472,259.772c-0.148,0-0.297-0.004-0.447-0.013c-4.135-0.244-7.289-3.792-7.047-7.928
		c0.225-3.82,0.34-7.707,0.34-11.553c-0.002-2.448-0.047-4.913-0.137-7.322c-0.154-4.14,3.076-7.62,7.217-7.773
		c4.125-0.167,7.619,3.077,7.773,7.216c0.096,2.593,0.145,5.243,0.147,7.877c0,4.141-0.123,8.324-0.365,12.436
		C464.719,256.697,461.414,259.772,457.472,259.772z"/>
	<path style="fill:#FCDB67;" d="M54.214,251.582c-4.077,0-7.42-3.267-7.496-7.361c-0.025-1.313-0.037-2.628-0.036-3.946
		c0-2.825,0.057-5.684,0.17-8.494c0.166-4.139,3.647-7.358,7.794-7.194c4.139,0.166,7.359,3.655,7.194,7.794
		c-0.104,2.61-0.158,5.267-0.158,7.896c0,1.226,0.011,2.447,0.033,3.665c0.077,4.142-3.218,7.561-7.36,7.638
		C54.308,251.581,54.261,251.582,54.214,251.582z"/>
	<path style="fill:#FCDB67;" d="M455.517,217.29c-3.645,0-6.842-2.661-7.406-6.375c-0.576-3.798-1.273-7.621-2.072-11.365
		c-0.865-4.051,1.719-8.036,5.77-8.9c4.049-0.862,8.035,1.718,8.9,5.77c0.859,4.034,1.611,8.153,2.232,12.244
		c0.623,4.095-2.193,7.919-6.289,8.541C456.271,217.263,455.892,217.29,455.517,217.29z"/>
	<path style="fill:#FCDB67;" d="M56.572,216.702c-0.381,0-0.768-0.029-1.156-0.089c-4.093-0.633-6.898-4.465-6.265-8.559
		c0.632-4.087,1.396-8.204,2.27-12.239c0.877-4.048,4.867-6.62,8.917-5.743c4.048,0.876,6.619,4.869,5.743,8.917
		c-0.811,3.744-1.52,7.565-2.107,11.358C63.401,214.052,60.208,216.702,56.572,216.702z"/>
	<path style="fill:#FCDB67;" d="M447.291,183.317c-3.129,0-6.049-1.975-7.105-5.105c-1.225-3.631-2.576-7.274-4.018-10.83
		c-1.557-3.838,0.295-8.212,4.133-9.769c3.84-1.558,8.213,0.294,9.768,4.133c1.555,3.832,3.012,7.759,4.33,11.672
		c1.324,3.925-0.785,8.18-4.709,9.503C448.894,183.19,448.086,183.317,447.291,183.317z"/>
	<path style="fill:#FCDB67;" d="M64.904,182.741c-0.802,0-1.617-0.129-2.418-0.402c-3.921-1.335-6.017-5.597-4.682-9.518
		c1.333-3.915,2.805-7.845,4.374-11.68c1.568-3.833,5.948-5.669,9.781-4.102c3.833,1.568,5.67,5.948,4.101,9.781
		c-1.455,3.558-2.821,7.204-4.058,10.836C70.94,180.776,68.025,182.741,64.904,182.741z"/>
	<path style="fill:#FCDB67;" d="M433.285,151.3c-2.656,0-5.227-1.413-6.59-3.907c-1.838-3.365-3.799-6.717-5.83-9.962
		c-2.197-3.511-1.133-8.139,2.379-10.336c3.508-2.198,8.139-1.133,10.336,2.378c2.188,3.496,4.301,7.106,6.279,10.731
		c1.986,3.635,0.648,8.192-2.986,10.177C435.732,151.004,434.5,151.3,433.285,151.3z"/>
	<path style="fill:#FCDB67;" d="M79.027,150.731c-1.222,0-2.461-0.299-3.608-0.93c-3.629-1.997-4.953-6.557-2.956-10.186
		c1.991-3.62,4.121-7.231,6.328-10.732c2.209-3.503,6.841-4.553,10.345-2.344c3.504,2.209,4.553,6.841,2.344,10.345
		c-2.05,3.25-4.026,6.602-5.874,9.961C84.239,149.328,81.674,150.731,79.027,150.731z"/>
	<path style="fill:#FCDB67;" d="M413.941,122.193c-2.205,0-4.389-0.968-5.869-2.827c-2.387-2.994-4.898-5.96-7.465-8.816
		c-2.77-3.081-2.518-7.823,0.564-10.592c3.082-2.77,7.822-2.515,10.592,0.564c2.764,3.076,5.469,6.271,8.039,9.496
		c2.582,3.24,2.047,7.958-1.191,10.54C417.23,121.659,415.58,122.193,413.941,122.193z"/>
	<path style="fill:#FCDB67;" d="M98.482,121.662c-1.647,0-3.305-0.54-4.69-1.651c-3.23-2.593-3.747-7.313-1.154-10.544
		c2.586-3.221,5.303-6.409,8.076-9.473c2.778-3.071,7.521-3.309,10.593-0.529c3.071,2.779,3.308,7.522,0.529,10.593
		c-2.575,2.846-5.098,5.806-7.5,8.798C102.855,120.702,100.678,121.662,98.482,121.662z"/>
	<path style="fill:#FCDB67;" d="M389.871,96.835c-1.768,0-3.545-0.622-4.973-1.888c-2.871-2.545-5.855-5.038-8.873-7.41
		c-3.258-2.56-3.822-7.274-1.262-10.531c2.559-3.257,7.273-3.822,10.531-1.262c3.248,2.554,6.465,5.239,9.555,7.979
		c3.1,2.748,3.385,7.488,0.637,10.587C394.004,95.982,391.943,96.835,389.871,96.835z"/>
	<path style="fill:#FCDB67;" d="M122.644,96.379c-2.08,0-4.149-0.86-5.632-2.544c-2.737-3.109-2.436-7.848,0.672-10.585
		c3.099-2.729,6.32-5.4,9.576-7.942c3.265-2.549,7.979-1.967,10.527,1.297c2.549,3.265,1.968,7.978-1.297,10.527
		c-3.023,2.36-6.016,4.841-8.893,7.376C126.173,95.763,124.405,96.379,122.644,96.379z"/>
	<path style="fill:#FCDB67;" d="M361.795,75.98c-1.344,0-2.703-0.36-3.93-1.117c-3.267-2.014-6.639-3.957-10.021-5.773
		c-3.648-1.959-5.018-6.507-3.059-10.156s6.504-5.021,10.156-3.059c3.645,1.957,7.277,4.05,10.797,6.22
		c3.525,2.174,4.621,6.794,2.447,10.32C366.767,74.715,364.31,75.98,361.795,75.98z"/>
	<path style="fill:#FCDB67;" d="M150.776,75.629c-2.525,0-4.991-1.275-6.405-3.587c-2.162-3.533-1.05-8.15,2.483-10.312
		c3.525-2.157,7.157-4.233,10.794-6.171c3.655-1.948,8.198-0.564,10.146,3.091c1.948,3.656,0.564,8.198-3.091,10.146
		c-3.376,1.799-6.748,3.727-10.021,5.729C153.461,75.273,152.11,75.629,150.776,75.629z"/>
	<path style="fill:#FCDB67;" d="M330.539,60.28c-0.922,0-1.858-0.171-2.768-0.532c-3.574-1.42-7.234-2.75-10.877-3.95
		c-3.934-1.296-6.072-5.537-4.775-9.47c1.295-3.934,5.537-6.072,9.471-4.776c3.926,1.293,7.869,2.726,11.721,4.256
		c3.85,1.53,5.73,5.89,4.201,9.74C336.344,58.488,333.521,60.28,330.539,60.28z"/>
	<path style="fill:#FCDB67;" d="M182.053,60.045c-2.991,0-5.818-1.802-6.98-4.754c-1.518-3.854,0.376-8.209,4.23-9.727
		c3.844-1.514,7.786-2.931,11.715-4.212c3.938-1.286,8.171,0.868,9.456,4.805c1.284,3.938-0.867,8.171-4.805,9.456
		c-3.646,1.189-7.303,2.504-10.869,3.908C183.897,59.876,182.967,60.045,182.053,60.045z"/>
	<path style="fill:#FCDB67;" d="M301.056,49.056c1.643-1.052,2.881-2.735,3.307-4.798c0.838-4.057-1.773-8.024-5.83-8.861
		c-4.045-0.835-8.17-1.559-12.258-2.15c-0.383-0.056-0.762-0.073-1.137-0.071L301.056,49.056z"/>
	<path style="fill:#FCDB67;" d="M211.257,48.749l15.682-15.645c-0.197,0.012-0.395,0.025-0.594,0.054
		c-4.097,0.581-8.223,1.292-12.265,2.114c-4.059,0.825-6.681,4.784-5.856,8.843C208.621,46.068,209.746,47.685,211.257,48.749z"/>
</g>
<g>
	<path style="fill:#FFB98A;" d="M211.844,137.317v-22.129h-8.084c-7.839,0-14.195,6.341-14.195,14.162s6.356,14.162,14.195,14.162
		h8.495C211.993,141.478,211.844,139.413,211.844,137.317z"/>
	<path style="fill:#FFB98A;" d="M308.24,115.188h-7.773v22.129c0,2.096-0.148,4.161-0.412,6.194h8.185
		c7.84,0,14.195-6.34,14.195-14.162C322.435,121.529,316.08,115.188,308.24,115.188z"/>
</g>
<g>
	<path style="fill:#FFD5B3;" d="M244.144,0c-5.409,0-9.794,4.374-9.794,9.771v14.527l-81.811,81.616
		c-11.098,11.07-11.098,29.082,0,40.153l61.996,61.848c1.439-4.374,3.847-8.438,7.055-12.006c-0.052-1.249-0.081-2.528-0.081-3.837
		c0-5.6,0.527-11.027,1.507-15.85l-50.352-50.232l75.719-75.538c3.284-1.577,5.556-4.919,5.556-8.798V9.771
		C253.939,4.374,249.553,0,244.144,0z"/>
	<path style="fill:#FFD5B3;" d="M359.467,105.914l-81.815-81.619V9.771c0-5.397-4.387-9.771-9.797-9.771
		c-5.406,0-9.793,4.374-9.793,9.771v31.883c0,3.88,2.273,7.223,5.561,8.799l75.717,75.537l-60.957,60.822
		c9.371,4.758,16.184,12.313,19.082,21.107l62.002-61.853c5.363-5.352,8.318-12.481,8.318-20.077
		C367.785,118.394,364.83,111.265,359.467,105.914z"/>
</g>
<g>
	<path style="fill:#FFB98A;" d="M274.802,425.29l32.805-41.676l-24.857-19.355l-0.188-0.116l-32.365,41.119
		c-0.652,0.255-1.263,0.642-1.789,1.167l-6.185,6.17c-2.059,2.054-2.059,5.413,0,7.466l33.491,33.41
		c2.059,2.053,5.424,2.053,7.483,0l6.185-6.17c2.059-2.054,2.059-5.413,0-7.467L274.802,425.29z"/>
	<path style="fill:#FFB98A;" d="M218.959,419v66.214h-16.854c-2.91,0-5.291,2.376-5.291,5.28v8.727c0,2.904,2.381,5.279,5.291,5.279
		h43.313c2.91,0,5.292-2.375,5.292-5.279V419L218.959,419L218.959,419z"/>
</g>
<path style="fill:#046699;" d="M330.969,331.603c-4.272-8.764-13.523-13.79-25.387-13.79h-86.623v102.421h31.75v-70.747h43.39
	l-12.652,16.075l25.027,19.489l19.69-25.012C333.486,350.73,335.24,340.367,330.969,331.603z"/>
<rect x="218.96" y="317.81" style="opacity:0.1;enable-background:new    ;" width="16.698" height="102.42"/>
<path style="fill:#D5E962;" d="M269.472,182.333c-4.223,1.475-8.699,2.282-13.317,2.282c-4.667,0-9.189-0.827-13.452-2.332
	c-17.789,4.745-30.717,18.74-30.717,35.226v95.228c0,2.802,2.273,5.075,5.079,5.075h77.873c2.805,0,5.078-2.273,5.078-5.075V217.51
	C300.015,201.078,287.172,187.123,269.472,182.333z"/>
<g style="opacity:0.1;">
	<path d="M233.157,312.737v-87.884c-5.393-0.076-11.128-12.129-11.611-30.305c-5.979,6.31-9.56,14.29-9.56,22.961v95.228
		c0,2.802,2.273,5.075,5.079,5.075h21.171C235.43,317.813,233.157,315.54,233.157,312.737z"/>
</g>
<path style="fill:#FFB98A;" d="M256.156,184.616c-4.293,0-8.462-0.703-12.422-1.985v9.971c0,6.76,5.493,12.239,12.267,12.239
	c6.776,0,12.268-5.479,12.268-12.239v-9.875C264.4,183.946,260.338,184.616,256.156,184.616z"/>
<path style="fill:#FFC502;" d="M223.833,169.284c-2.064,6.008-3.324,14.006-3.324,22.788c0,18.659,5.685,33.785,12.7,33.785
	c7.014,0,12.701-15.126,12.701-33.785c0-3.088-0.159-6.076-0.451-8.918C237.101,180.846,229.612,175.92,223.833,169.284z"/>
<path style="fill:#FFD5B3;" d="M299.301,109h-86.598c-0.656,0-1.281-0.136-1.858-0.365v28.682c0,25.428,20.287,48.299,45.311,48.299
	c25.024,0,45.311-22.871,45.311-48.299v-28.823C300.806,108.809,300.078,109,299.301,109z"/>
<g style="opacity:0.1;">
	<path d="M222.509,137.317V109h-9.807c-0.656,0-1.281-0.136-1.858-0.365v28.682c0,25.428,20.287,48.299,45.311,48.299
		c1.977,0,3.92-0.158,5.832-0.434C239.72,181.969,222.509,160.735,222.509,137.317z"/>
</g>
<path style="fill:#FFC502;" d="M212.702,91H299.3c0.691,0,1.352,0.142,1.955,0.395c-2.184-22.599-21.539-34.369-45.1-34.369
	c-23.528,0-42.863,11.735-45.092,34.27C211.581,91.118,212.126,91,212.702,91z"/>
<path style="opacity:0.1;enable-background:new    ;" d="M212.702,91h19.694c1.999-18.838,16.013-30.06,34.408-33.113
	c-3.416-0.567-6.98-0.86-10.649-0.86c-23.528,0-42.863,11.735-45.092,34.27C211.581,91.118,212.126,91,212.702,91z"/>
<g>
	<path style="fill:#775436;" d="M260.332,153.022h-5.254c-4.142,0-7.5-3.358-7.5-7.5v-11.006c0-4.142,3.358-7.5,7.5-7.5
		c4.143,0,7.501,3.358,7.501,7.5v3.848c3.045,0.954,5.254,3.798,5.254,7.158C267.832,149.664,264.474,153.022,260.332,153.022z"/>
	<path style="fill:#775436;" d="M232.905,142.215c-4.142,0-7.5-3.358-7.5-7.5v-6.758c0-4.142,3.358-7.5,7.5-7.5s7.5,3.358,7.5,7.5
		v6.758C240.405,138.857,237.047,142.215,232.905,142.215z"/>
	<path style="fill:#775436;" d="M279.095,142.215c-4.143,0-7.5-3.358-7.5-7.5v-6.758c0-4.142,3.357-7.5,7.5-7.5s7.5,3.358,7.5,7.5
		v6.758C286.595,138.857,283.238,142.215,279.095,142.215z"/>
	<path style="fill:#775436;" d="M256.002,175.115c-6.53,0-13.059-2.479-18.031-7.438c-2.933-2.925-2.939-7.673-0.014-10.607
		c2.924-2.933,7.673-2.94,10.607-0.014c4.101,4.091,10.776,4.091,14.873,0.001c2.934-2.926,7.68-2.921,10.607,0.012
		c2.924,2.932,2.92,7.681-0.012,10.606C269.062,172.635,262.531,175.115,256.002,175.115z"/>
</g>
<path style="fill:#FB8276;" d="M422.162,512H89.839c-4.142,0-7.5-3.358-7.5-7.5s3.358-7.5,7.5-7.5h332.323
	c4.143,0,7.5,3.358,7.5,7.5S426.304,512,422.162,512z"/>
<path style="fill:#A2DFF9;" d="M299.301,89.757h-86.598c-2.793,0-5.079,2.284-5.079,5.075v10.438c0,2.792,2.286,5.076,5.079,5.076
	h86.598c2.793,0,5.078-2.284,5.078-5.076V94.832C304.379,92.041,302.094,89.757,299.301,89.757z"/>
<g style="opacity:0.1;">
	<path d="M228.828,105.27V94.832c0-2.791,2.285-5.075,5.078-5.075h-21.204c-2.793,0-5.079,2.284-5.079,5.075v10.438
		c0,2.792,2.286,5.076,5.079,5.076h21.204C231.114,110.346,228.828,108.062,228.828,105.27z"/>
</g>
<path style="fill:#FB8276;" d="M255.927,282.953c-0.665,0-1.288-0.258-1.758-0.724l-19.295-19.192
	c-2.329-2.314-3.608-5.395-3.608-8.672c0-3.279,1.279-6.36,3.608-8.674c2.329-2.317,5.425-3.592,8.72-3.592s6.392,1.275,8.723,3.592
	l3.68,3.66l3.684-3.66c2.326-2.317,5.426-3.592,8.721-3.592s6.391,1.275,8.721,3.592c2.33,2.317,3.613,5.397,3.613,8.674
	c0,3.275-1.283,6.357-3.613,8.672l-19.447,19.198C257.207,282.698,256.586,282.953,255.927,282.953z"/>
<g>
	<path style="fill:#FFC502;" d="M373.886,287.886c-1.147,0-2.197-0.645-2.717-1.667c-3.189-6.281-6.547-9.636-12.83-12.822
		c-1.023-0.519-1.668-1.569-1.668-2.716s0.645-2.197,1.668-2.716c6.283-3.186,9.641-6.541,12.83-12.823
		c0.52-1.022,1.57-1.667,2.717-1.667l0,0c1.148,0,2.199,0.645,2.719,1.668c3.188,6.281,6.545,9.636,12.828,12.822
		c1.023,0.519,1.668,1.569,1.668,2.716s-0.645,2.197-1.668,2.716c-6.283,3.186-9.641,6.542-12.828,12.822
		C376.086,287.241,375.035,287.886,373.886,287.886z"/>
	<path style="fill:#FFC502;" d="M436.029,82.742c-1.162,0-2.225-0.662-2.736-1.706c-3.848-7.852-7.998-11.997-15.853-15.843
		c-1.045-0.512-1.707-1.573-1.707-2.735c0-1.163,0.662-2.224,1.707-2.735c7.855-3.846,12.004-7.992,15.853-15.844
		c0.512-1.044,1.574-1.706,2.736-1.706l0,0c1.164,0,2.225,0.662,2.736,1.706c3.848,7.852,7.996,11.998,15.852,15.843
		c1.045,0.512,1.707,1.573,1.707,2.735c0,1.162-0.662,2.223-1.707,2.735c-7.855,3.846-12.006,7.992-15.852,15.843
		C438.254,82.08,437.193,82.742,436.029,82.742z"/>
	<path style="fill:#FFC502;" d="M126.811,232.648c-1.188,0-2.269-0.691-2.767-1.769c-5.778-12.514-11.653-18.384-24.174-24.159
		c-1.079-0.498-1.771-1.577-1.771-2.765c0-1.189,0.691-2.267,1.771-2.766c12.521-5.775,18.396-11.646,24.174-24.16
		c0.499-1.079,1.579-1.769,2.767-1.769c1.188,0,2.268,0.69,2.767,1.769c5.778,12.514,11.653,18.385,24.173,24.16
		c1.079,0.498,1.77,1.577,1.77,2.766c0,1.188-0.691,2.267-1.77,2.765c-12.522,5.775-18.396,11.646-24.173,24.159
		C129.079,231.956,127.999,232.648,126.811,232.648z"/>
</g>
<g>
</g>
<g>
</g>
<g>
</g>
<g>
</g>
<g>
</g>
<g>
</g>
<g>
</g>
<g>
</g>
<g>
</g>
<g>
</g>
<g>
</g>
<g>
</g>
<g>
</g>
<g>
</g>
<g>
</g>
</svg>
