<?xml version="1.0" encoding="iso-8859-1"?>
<!-- Generator: Adobe Illustrator 19.0.0, SVG Export Plug-In . SVG Version: 6.00 Build 0)  -->
<svg version="1.1" id="Capa_1" xmlns="http://www.w3.org/2000/svg" xmlns:xlink="http://www.w3.org/1999/xlink" x="0px" y="0px"
	 viewBox="0 0 511.999 511.999" style="enable-background:new 0 0 511.999 511.999;" xml:space="preserve">
<path style="fill:#E6E9ED;" d="M477.474,121.277L345.393,89.613c-0.972-0.233-2.004-0.332-3.06-0.33
	c0.803,1.672,1.338,3.556,1.338,5.058v26.373l67.486,33.661c5.075,2.531,9.226,9.238,9.226,14.904V281.62
	c0,0.243,0.02,0.482,0.037,0.721h67.046c0.017-0.239,0.037-0.478,0.037-0.721V133.982
	C487.502,128.316,482.989,122.599,477.474,121.277z"/>
<g>
	<path style="fill:#9EA7AF;" d="M220.715,489.707v17.141c0,2.833,2.32,5.151,5.156,5.151h28.921c2.836,0,5.156-2.318,5.156-5.151
		v-17.141H220.715z"/>
	<path style="fill:#9EA7AF;" d="M427.344,489.707v17.141c0,2.833,2.32,5.151,5.156,5.151h28.921c2.836,0,5.156-2.318,5.156-5.151
		v-17.141H427.344z"/>
	<path style="fill:#9EA7AF;" d="M339.03,447.293v-42.949c0-2.833-2.32-5.15-5.156-5.15h-71.57c-2.835,0-5.156,2.317-5.156,5.15
		v42.949H339.03z"/>
</g>
<rect x="257.147" y="419.8" style="fill:#08375E;" width="81.88" height="27.496"/>
<path style="opacity:0.1;enable-background:new    ;" d="M278.308,447.293v-42.949c0-2.833,2.32-5.15,5.156-5.15h-21.16
	c-2.835,0-5.156,2.317-5.156,5.15v42.949H278.308z"/>
<path style="fill:#C5CCD3;" d="M278.33,205.624v21.144c0,2.833,2.32,5.151,5.156,5.151h26.221c2.836,0,5.156-2.318,5.156-5.151
	v-21.144H278.33z"/>
<g>
	<path style="fill:#08375E;" d="M270.698,128.161v73.493c0,2.833,2.32,5.15,5.156,5.15h41.484c2.836,0,5.156-2.317,5.156-5.15
		v-73.493H270.698z"/>
	<path style="fill:#08375E;" d="M324.017,70.072l16.293,16.194c1.266,1.258,2.382,3.425,2.954,5.492l47.854-47.562
		c-0.005-0.005-0.011-0.01-0.016-0.015l-24.895-24.745l-47.928,47.636C320.418,67.62,322.705,68.768,324.017,70.072z"/>
</g>
<path style="fill:#E6E9ED;" d="M391.564,1.498c-2.01-1.998-5.3-1.998-7.31,0l-18.048,17.938l24.895,24.745
	c0.005,0.005,0.011,0.01,0.017,0.015l18.047-17.938c2.01-1.998,2.01-5.268,0-7.266L391.564,1.498z"/>
<path style="fill:#C5CCD3;" d="M324.722,69.362c-2.011-1.998-5.976-3.633-8.811-3.633h-62.235c-2.836,0-5.156,2.318-5.156,5.151
	v53.859c0,2.833,2.32,5.15,5.156,5.15h85.839c2.836,0,5.156-2.317,5.156-5.15V94.34c0-2.833-1.645-6.786-3.656-8.784L324.722,69.362
	z"/>
<path style="opacity:0.1;enable-background:new    ;" d="M270.059,124.74V70.88c0-2.833,2.32-5.151,5.156-5.151h-21.54
	c-2.836,0-5.156,2.318-5.156,5.151v53.859c0,2.833,2.32,5.15,5.156,5.15h21.54C272.379,129.89,270.059,127.573,270.059,124.74z"/>
<ellipse style="fill:#C5CCD3;" cx="275.857" cy="167.131" rx="16.931" ry="16.828"/>
<rect x="268.007" y="324.391" style="fill:#046699;" width="63.66" height="22.708"/>
<rect x="268.007" y="324.391" style="opacity:0.1;enable-background:new    ;" width="21.647" height="22.708"/>
<path style="fill:#E6E9ED;" d="M374.57,281.332H239.055c-2.836,0-5.156,2.318-5.156,5.151v34.405c0,2.833,2.32,5.15,5.156,5.15
	H374.57V281.332z"/>
<path style="opacity:0.1;enable-background:new    ;" d="M255.232,320.889v-34.405c0-2.833,2.32-5.151,5.156-5.151h-21.333
	c-2.836,0-5.156,2.318-5.156,5.151v34.405c0,2.833,2.32,5.15,5.156,5.15h21.333C257.552,326.039,255.232,323.722,255.232,320.889z"
	/>
<rect x="373.327" y="281.33" style="fill:#9EA7AF;" width="114.18" height="168.66"/>
<path style="fill:#C5CCD3;" d="M212.793,446.115c-2.836,0-5.156,2.318-5.156,5.151v34.405c0,2.833,2.32,5.151,5.156,5.151h269.553
	c2.836,0,5.156-2.318,5.156-5.151v-39.557H212.793V446.115z"/>
<ellipse style="fill:#08375E;" cx="432.027" cy="338.98" rx="26.04" ry="25.883"/>
<path style="opacity:0.1;enable-background:new    ;" d="M427.309,338.983c0-10.519,6.316-19.565,15.38-23.614
	c-3.255-1.454-6.862-2.27-10.663-2.27c-14.381,0-26.042,11.589-26.042,25.885c0,14.294,11.661,25.883,26.042,25.883
	c3.8,0,7.407-0.815,10.663-2.27C433.625,358.546,427.309,349.5,427.309,338.983z"/>
<path style="fill:#046699;" d="M432.027,372.366c-18.495,0-33.542-14.976-33.542-33.383c0-18.408,15.047-33.385,33.542-33.385
	s33.542,14.977,33.542,33.385C465.569,357.391,450.522,372.366,432.027,372.366z M432.027,320.598
	c-10.224,0-18.542,8.247-18.542,18.385c0,10.137,8.318,18.383,18.542,18.383s18.542-8.246,18.542-18.383
	C450.569,328.845,442.251,320.598,432.027,320.598z"/>
<path style="fill:#08375E;" d="M341.829,360.6h-83.99c-4.142,0-7.5-3.357-7.5-7.5c0-4.142,3.358-7.5,7.5-7.5h83.99
	c4.142,0,7.5,3.358,7.5,7.5C349.329,357.243,345.971,360.6,341.829,360.6z"/>
<path style="opacity:0.1;enable-background:new    ;" d="M239.745,485.671v-34.405c0-2.833,2.32-5.151,5.156-5.151h-32.108
	c-2.836,0-5.156,2.318-5.156,5.151v34.405c0,2.833,2.32,5.151,5.156,5.151h32.108C242.065,490.822,239.745,488.503,239.745,485.671z
	"/>
<path style="fill:#9EA7AF;" d="M348.77,267.656h-94.053c-4.142,0-7.5-3.358-7.5-7.5c0-4.143,3.358-7.5,7.5-7.5h94.052
	c4.142,0,7.5,3.357,7.5,7.5C356.27,264.297,352.912,267.656,348.77,267.656z"/>
<ellipse style="fill:#48C1E1;" cx="129.477" cy="162.811" rx="97.48" ry="96.89"/>
<path style="opacity:0.1;enable-background:new    ;" d="M150.988,248.892c-53.837,0-97.482-43.38-97.482-96.89
	c0-33.51,17.118-63.045,43.135-80.442c-37.684,13.396-64.65,49.189-64.65,91.248c0,53.51,43.645,96.889,97.482,96.889
	c20.122,0,38.819-6.062,54.347-16.444C173.561,246.9,162.509,248.892,150.988,248.892z"/>
<path style="fill:#A2DFF9;" d="M253.627,221.967l-28.322-16.549c5.877-13.019,9.152-27.44,9.152-42.61
	c0-57.56-47.095-104.388-104.983-104.388c-57.887,0-104.982,46.828-104.982,104.388c0,57.561,47.095,104.389,104.982,104.389
	c37.262,0,70.047-19.404,88.684-48.582l27.902,16.304c1.189,0.695,2.492,1.025,3.777,1.025c2.578,0,5.088-1.331,6.482-3.718
	C258.408,228.65,257.203,224.057,253.627,221.967z M129.473,252.197c-49.616,0-89.982-40.1-89.982-89.389
	c0-49.288,40.366-89.388,89.982-89.388c49.617,0,89.983,40.1,89.983,89.388C219.457,212.096,179.091,252.197,129.473,252.197z"/>
<g>
	<path style="fill:#FFD5B3;" d="M77.012,90.136c-0.851-1.473-2.938-2.677-4.64-2.677H52.32c-1.702,0-3.79,1.204-4.641,2.677
		l-10.026,17.349c-0.851,1.472-0.851,3.88,0,5.353l10.026,17.349c0.851,1.472,2.939,2.676,4.641,2.676h20.052
		c1.702,0,3.79-1.204,4.64-2.676l10.026-17.349c0.851-1.473,0.851-3.881,0-5.353L77.012,90.136z"/>
	<path style="fill:#FFD5B3;" d="M109.27,97.427h20.052c1.701,0,3.79-1.204,4.641-2.676l10.026-17.349
		c0.851-1.473,0.851-3.881,0-5.353L133.963,54.7c-0.851-1.473-2.939-2.677-4.641-2.677H109.27c-1.701,0-3.789,1.204-4.64,2.677
		L94.604,72.05c-0.851,1.472-0.851,3.88,0,5.353l10.026,17.349C105.481,96.223,107.57,97.427,109.27,97.427z"/>
</g>
<path style="fill:#FCDB67;" d="M145.817,136.405l-10.026-17.35c-0.851-1.472-2.938-2.676-4.641-2.676h-20.052
	c-1.702,0-3.79,1.204-4.641,2.676l-10.026,17.35c-0.851,1.472-0.851,3.88,0,5.352l10.026,17.35c0.851,1.472,2.938,2.676,4.641,2.676
	h20.052c1.702,0,3.79-1.204,4.641-2.676l10.026-17.35C146.668,140.285,146.668,137.877,145.817,136.405z"/>
<g>
	<path style="fill:#FFD5B3;" d="M137.853,186.989c-0.851-1.472-2.938-2.676-4.641-2.676H113.16c-1.702,0-3.79,1.204-4.641,2.676
		l-10.026,17.349c-0.851,1.473-0.851,3.881,0,5.353l10.026,17.349c0.851,1.473,2.938,2.677,4.641,2.677h20.052
		c1.702,0,3.79-1.204,4.641-2.677l10.026-17.349c0.851-1.472,0.851-3.88,0-5.353L137.853,186.989z"/>
	<path style="fill:#FFD5B3;" d="M170.111,194.281h20.052c1.701,0,3.789-1.204,4.64-2.677l10.026-17.349
		c0.851-1.472,0.851-3.88,0-5.353l-10.026-17.349c-0.851-1.472-2.939-2.676-4.64-2.676h-20.052c-1.701,0-3.79,1.204-4.641,2.676
		l-10.026,17.349c-0.851,1.473-0.851,3.881,0,5.353l10.026,17.349C166.322,193.077,168.411,194.281,170.111,194.281z"/>
</g>
<path style="fill:#FCDB67;" d="M206.658,233.257l-10.026-17.349c-0.851-1.473-2.939-2.677-4.641-2.677h-20.052
	c-1.702,0-3.79,1.204-4.64,2.677l-10.026,17.349c-0.851,1.472-0.851,3.88,0,5.353l10.026,17.349c0.851,1.472,2.938,2.676,4.64,2.676
	h20.052c1.702,0,3.79-1.204,4.641-2.676l10.026-17.349C207.509,237.137,207.509,234.729,206.658,233.257z"/>
<g>
</g>
<g>
</g>
<g>
</g>
<g>
</g>
<g>
</g>
<g>
</g>
<g>
</g>
<g>
</g>
<g>
</g>
<g>
</g>
<g>
</g>
<g>
</g>
<g>
</g>
<g>
</g>
<g>
</g>
</svg>
