<?xml version="1.0" encoding="iso-8859-1"?>
<!-- Generator: Adobe Illustrator 19.0.0, SVG Export Plug-In . SVG Version: 6.00 Build 0)  -->
<svg version="1.1" id="Capa_1" xmlns="http://www.w3.org/2000/svg" xmlns:xlink="http://www.w3.org/1999/xlink" x="0px" y="0px"
	 viewBox="0 0 512 512" style="enable-background:new 0 0 512 512;" xml:space="preserve">
<path style="fill:#E6E9ED;" d="M12.575,421h13.503V41h-15v380.253C11.555,421.103,12.051,421,12.575,421z"/>
<rect x="63.63" y="41" style="fill:#9EA7AF;" width="15" height="25.372"/>
<g>
	<path style="fill:#A2DFF9;" d="M50.7,178.049v19.483c0,4.142,3.358,7.5,7.5,7.5s7.5-3.358,7.5-7.5v-19.483H50.7z"/>
	<path style="fill:#A2DFF9;" d="M89.617,83.951v-8.472c0-5.586-4.568-10.156-10.151-10.156H62.792
		c-5.583,0-10.151,4.57-10.151,10.156v8.472H89.617z"/>
</g>
<path style="fill:#C6A07D;" d="M397.898,257.619H328.35c1.647,2.495,2.613,5.479,2.613,8.688v102.451h-21.77
	c-0.227,2.026-1.117,3.902-2.571,5.363c-1.697,1.705-3.954,2.645-6.353,2.645l-8.146,0.002c-2.698-0.001-5.231-1.205-6.948-3.303
	c-0.179-0.219-0.442-0.352-0.725-0.366c-0.017,0-0.033-0.001-0.049-0.001c-0.265,0-0.52,0.105-0.708,0.294
	c-0.917,0.919-1.879,1.617-2.86,2.073l-45.644,21.271c-1.799,0.838-4.223,1.299-6.827,1.299s-5.028-0.461-6.827-1.299
	l-45.645-21.271c-0.982-0.457-1.944-1.155-2.86-2.074c-0.188-0.188-0.443-0.294-0.708-0.294c-0.016,0-0.033,0-0.049,0.001
	c-0.283,0.014-0.546,0.147-0.725,0.366c-1.717,2.098-4.25,3.302-6.948,3.302h-8.141c-4.612-0.001-8.419-3.509-8.929-8.009h-21.769
	v-102.45c0-3.208,0.966-6.192,2.613-8.688H58.827c-2.792,0-5.076,2.285-5.076,5.077v156.491c0,0.64,0.132,1.247,0.351,1.813h348.52
	c0.218-0.565,0.351-1.173,0.351-1.813V262.696C402.974,259.904,400.69,257.619,397.898,257.619z"/>
<path style="fill:#FB8276;" d="M384.012,350.679v140.377c0,2.793,2.284,5.078,5.076,5.078h86.083c2.791,0,5.075-2.285,5.075-5.078
	V350.679H384.012z"/>
<path style="fill:#A2DFF9;" d="M408.461,331.321h47.335c13.519-8.246,21.79-22.849,21.79-38.852c0-15.733-8.105-30.092-20.942-38.33
	h4.194c1.322,0,2.393-1.073,2.393-2.396v-19.165c0-1.323-1.071-2.396-2.393-2.396h-57.419c-1.321,0-2.393,1.073-2.393,2.396v19.165
	c0,1.323,1.072,2.396,2.393,2.396h4.194c-12.838,8.238-20.942,22.598-20.942,38.33C386.672,308.472,394.943,323.075,408.461,331.321
	z"/>
<path style="fill:#775436;" d="M493.185,346.692c0,2.793-2.284,5.078-5.075,5.078H376.147c-2.792,0-5.076-2.285-5.076-5.078V335.17
	c0-2.793,2.284-5.078,5.076-5.078H488.11c2.792,0,5.075,2.285,5.075,5.078V346.692z"/>
<g style="opacity:0.1;">
	<path d="M402.574,346.692V335.17c0-2.793,2.284-5.078,5.076-5.078h-31.503c-2.792,0-5.076,2.285-5.076,5.078v11.523
		c0,2.793,2.284,5.078,5.076,5.078h31.503C404.858,351.771,402.574,349.485,402.574,346.692z"/>
</g>
<g>
	<path style="fill:#89C947;" d="M395.885,181.492c-0.096,0.096-0.212,0.174-0.341,0.225c-11.74,4.671-25.096,1.912-34.027-7.03
		c-8.93-8.942-11.686-22.316-7.021-34.072c0.051-0.128,0.128-0.245,0.224-0.342c0.096-0.096,0.213-0.173,0.341-0.224
		c11.74-4.672,25.096-1.912,34.027,7.03c8.931,8.941,11.686,22.316,7.021,34.072C396.059,181.279,395.981,181.398,395.885,181.492z"
		/>
	<path style="fill:#89C947;" d="M463.991,167.3c-0.079-0.079-0.143-0.175-0.185-0.282c-3.862-9.732-1.581-20.805,5.813-28.208
		c7.393-7.403,18.45-9.688,28.169-5.82c0.106,0.042,0.203,0.106,0.283,0.186c0.079,0.08,0.142,0.177,0.185,0.283
		c3.862,9.732,1.581,20.805-5.813,28.208c-7.392,7.403-18.451,9.688-28.171,5.819C464.168,167.444,464.07,167.38,463.991,167.3z"/>
</g>
<path style="fill:#EF5050;" d="M447.355,207.826c0-7.414-6.003-13.425-13.407-13.425c-0.421,0-0.838,0.025-1.249,0.063
	c0.317-0.264,0.629-0.54,0.927-0.839c5.235-5.243,5.235-13.744,0-18.985c-5.235-5.243-13.725-5.243-18.961,0
	c-0.299,0.298-0.574,0.61-0.838,0.929c0.038-0.412,0.063-0.828,0.063-1.251c0-7.414-6.003-13.425-13.407-13.425
	c-7.405,0-13.407,6.011-13.407,13.425c0,0.423,0.024,0.838,0.063,1.25c-0.265-0.318-0.54-0.63-0.838-0.929
	c-5.236-5.243-13.726-5.243-18.96,0c-5.236,5.242-5.236,13.743,0,18.986c0.298,0.298,0.61,0.575,0.928,0.84
	c-0.412-0.038-0.828-0.063-1.25-0.063c-7.404,0-13.407,6.011-13.407,13.425s6.003,13.425,13.407,13.425
	c0.421,0,0.837-0.024,1.249-0.063c-0.318,0.264-0.629,0.54-0.928,0.839c-5.235,5.242-5.235,13.743,0,18.985
	c5.235,5.243,13.725,5.243,18.961,0c0.298-0.298,0.573-0.61,0.838-0.929c-0.038,0.412-0.063,0.829-0.063,1.251
	c0,7.414,6.002,13.425,13.407,13.425c7.404,0,13.407-6.011,13.407-13.425c0-0.422-0.025-0.839-0.063-1.251
	c0.264,0.318,0.54,0.631,0.838,0.929c5.236,5.242,13.725,5.242,18.961,0c5.235-5.242,5.235-13.743,0-18.985
	c-0.298-0.299-0.61-0.575-0.927-0.839c0.411,0.038,0.827,0.063,1.248,0.063C441.352,221.251,447.355,215.24,447.355,207.826z"/>
<ellipse style="fill:#FFFFFF;" cx="400.48" cy="207.83" rx="16.292" ry="16.313"/>
<path style="fill:#F7931E;" d="M512,200.518c0-7.414-6.003-13.425-13.407-13.425c-0.422,0-0.838,0.025-1.249,0.063
	c0.318-0.265,0.629-0.541,0.927-0.84c5.236-5.242,5.236-13.743,0-18.985c-5.235-5.243-13.725-5.243-18.96,0
	c-0.298,0.298-0.575,0.609-0.839,0.929c0.038-0.412,0.063-0.829,0.063-1.251c0-7.414-6.003-13.425-13.407-13.425
	c-7.404,0-13.407,6.011-13.407,13.425c0,0.422,0.025,0.838,0.063,1.25c-0.264-0.318-0.541-0.63-0.839-0.929
	c-5.235-5.243-13.725-5.243-18.96,0c-5.236,5.242-5.236,13.743,0,18.986c0.298,0.299,0.61,0.575,0.928,0.84
	c-0.412-0.038-0.827-0.063-1.249-0.063c-7.404,0-13.407,6.011-13.407,13.425s6.003,13.426,13.407,13.426
	c0.422,0,0.838-0.025,1.249-0.064c-0.318,0.265-0.629,0.541-0.928,0.839c-5.235,5.243-5.235,13.743,0,18.985
	c5.236,5.243,13.726,5.243,18.961,0c0.298-0.298,0.574-0.609,0.838-0.928c-0.038,0.412-0.063,0.828-0.063,1.25
	c0,7.414,6.003,13.426,13.407,13.426c7.404,0,13.407-6.012,13.407-13.426c0-0.422-0.025-0.838-0.063-1.251
	c0.264,0.318,0.54,0.631,0.838,0.929c5.235,5.243,13.725,5.243,18.96,0c5.235-5.242,5.235-13.743,0-18.985
	c-0.298-0.299-0.609-0.574-0.927-0.839c0.411,0.038,0.827,0.064,1.249,0.064C505.997,213.943,512,207.932,512,200.518z"/>
<g>
	<ellipse style="fill:#FFC502;" cx="465.13" cy="200.52" rx="16.291" ry="16.313"/>
	<path style="fill:#FFC502;" d="M472.379,142.148c0-7.414-6.003-13.425-13.407-13.425c-0.421,0-0.837,0.025-1.249,0.063
		c0.318-0.264,0.629-0.54,0.928-0.839c5.236-5.243,5.236-13.744,0-18.986c-5.235-5.242-13.725-5.242-18.96,0
		c-0.298,0.299-0.574,0.611-0.838,0.93c0.038-0.412,0.063-0.828,0.063-1.251c0-7.414-6.003-13.425-13.407-13.425
		c-7.404,0-13.408,6.011-13.408,13.425c0,0.423,0.025,0.838,0.064,1.25c-0.264-0.318-0.54-0.63-0.838-0.929
		c-5.236-5.243-13.725-5.243-18.961,0c-5.236,5.242-5.236,13.743,0,18.986c0.298,0.298,0.61,0.575,0.928,0.84
		c-0.412-0.038-0.827-0.063-1.25-0.063c-7.404,0-13.407,6.011-13.407,13.425s6.003,13.425,13.407,13.425
		c0.422,0,0.837-0.024,1.249-0.063c-0.318,0.264-0.629,0.54-0.928,0.839c-5.235,5.242-5.235,13.743,0,18.985
		c5.236,5.243,13.725,5.243,18.961,0c0.298-0.298,0.574-0.61,0.838-0.929c-0.038,0.412-0.064,0.829-0.064,1.251
		c0,7.414,6.003,13.425,13.408,13.425c7.404,0,13.407-6.011,13.407-13.425c0-0.422-0.025-0.839-0.063-1.251
		c0.264,0.318,0.54,0.631,0.838,0.929c5.236,5.242,13.725,5.242,18.961,0c5.235-5.242,5.235-13.743,0-18.985
		c-0.298-0.299-0.609-0.575-0.927-0.839c0.411,0.038,0.827,0.063,1.248,0.063C466.375,155.573,472.379,149.563,472.379,142.148z"/>
</g>
<g>
	<ellipse style="fill:#FFFFFF;" cx="425.51" cy="142.15" rx="16.292" ry="16.313"/>
	<path style="fill:#FFFFFF;" d="M125.762,281.967h-14.856c-5.583,0-10.151,4.57-10.151,10.155v77.636h25.007
		C125.762,369.758,125.762,281.967,125.762,281.967z"/>
	<path style="fill:#FFFFFF;" d="M345.819,281.967h-14.855v87.791h25.007v-77.636C355.97,286.537,351.402,281.967,345.819,281.967z"
		/>
</g>
<g>
	<path style="fill:#D5E962;" d="M70.635,209.337h12.73c0.489,0,0.964,0.057,1.424,0.158v-31.446h-15v31.349
		C70.066,209.362,70.348,209.337,70.635,209.337z"/>
	<path style="fill:#D5E962;" d="M125.925,332.147c-0.428-0.076-0.866-0.123-1.315-0.123H87.44c-1.437,0-2.651-1.216-2.651-2.655
		v-86.993c-0.459,0.101-0.935,0.158-1.424,0.158h-12.73c-0.287,0-0.568-0.024-0.846-0.06v86.896c0,9.735,7.918,17.655,17.651,17.655
		h37.17c0.45,0,0.888-0.047,1.315-0.123C125.925,346.902,125.925,332.147,125.925,332.147z"/>
</g>
<path style="fill:#A2DFF9;" d="M315.185,249.507h-34.612C269.908,268.362,250.074,280,228.362,280s-41.545-11.638-52.211-30.493
	H141.54c-9.251,0-16.778,7.536-16.778,16.8v103.451h22.943c-0.149-0.653-0.236-1.331-0.236-2.029v-34.207
	c0-4.985,4.033-9.04,8.99-9.04l8.143-0.001c1.106,0,2.201,0.209,3.254,0.621c0.118,0.046,0.241,0.069,0.364,0.069
	c0.198,0,0.395-0.059,0.564-0.174c0.273-0.187,0.436-0.496,0.436-0.826v-15.628c0-2.774,1.515-4.566,3.858-4.566
	c0.694,0,1.432,0.154,2.194,0.459l45.295,18.133c2.089,0.837,4.857,1.298,7.792,1.298c2.938,0,5.708-0.462,7.798-1.3l45.293-18.129
	c0.763-0.305,1.502-0.46,2.196-0.46c2.343,0,3.857,1.792,3.857,4.565v15.629c0,0.331,0.163,0.64,0.436,0.826
	c0.168,0.115,0.366,0.174,0.564,0.174c0.123,0,0.247-0.022,0.364-0.069c1.053-0.412,2.148-0.621,3.255-0.621h8.141
	c4.959,0.001,8.993,4.055,8.992,9.038v34.208c0,0.693-0.085,1.371-0.235,2.03h22.942V266.307
	C331.963,257.043,324.436,249.507,315.185,249.507z"/>
<path style="opacity:0.1;enable-background:new    ;" d="M146.06,369.758V266.307c0-9.264,7.527-16.8,16.777-16.8H141.54
	c-9.251,0-16.778,7.536-16.778,16.8v103.451H146.06z"/>
<path style="fill:#FCDB67;" d="M359.313,368.758h-50.12c-0.227,2.026-1.117,3.902-2.571,5.363c-1.697,1.705-3.954,2.645-6.353,2.645
	l-8.146,0.002c-2.698-0.001-5.231-1.205-6.948-3.303c-0.179-0.219-0.442-0.352-0.725-0.366c-0.017,0-0.033-0.001-0.049-0.001
	c-0.265,0-0.52,0.105-0.708,0.294c-0.917,0.919-1.879,1.617-2.86,2.073l-45.644,21.271c-1.799,0.838-4.223,1.299-6.827,1.299
	s-5.028-0.461-6.827-1.299l-45.645-21.271c-0.982-0.457-1.944-1.155-2.86-2.074c-0.188-0.188-0.443-0.294-0.708-0.294
	c-0.016,0-0.033,0-0.049,0.001c-0.283,0.014-0.546,0.147-0.725,0.366c-1.717,2.098-4.25,3.302-6.948,3.302h-8.141
	c-4.612-0.001-8.419-3.509-8.929-8.009H96.995c-29.372,0-53.336,23.164-54.68,52.242h371.678
	C412.649,391.922,388.685,368.758,359.313,368.758z"/>
<path style="opacity:0.1;enable-background:new    ;" d="M74.053,421c1.344-29.078,25.308-52.242,54.68-52.242H96.995
	c-29.372,0-53.336,23.164-54.68,52.242H74.053z"/>
<path style="fill:#C6A07D;" d="M449.225,491.056c0,2.793-2.284,5.078-5.076,5.078H12.575c-2.791,0-5.075-2.285-5.075-5.078v-66.357
	c0-2.793,2.284-5.078,5.075-5.078h431.574c2.791,0,5.076,2.285,5.076,5.078V491.056z"/>
<g style="opacity:0.1;">
	<path d="M39.315,491.056v-66.357c0-2.793,2.284-5.078,5.075-5.078H12.575c-2.791,0-5.075,2.285-5.075,5.078v66.357
		c0,2.793,2.284,5.078,5.075,5.078H44.39C41.599,496.134,39.315,493.849,39.315,491.056z"/>
</g>
<rect x="77.02" y="419.62" style="fill:#775436;" width="302.69" height="76.51"/>
<path style="fill:#C6A07D;" d="M157.327,419.62v29.644c0,2.871,2.346,5.221,5.213,5.221h131.645c2.868,0,5.214-2.35,5.214-5.221
	V419.62H157.327z"/>
<path style="fill:#FFB98A;" d="M247.652,236.57c-6.223,1.945-12.696,2.972-19.289,2.972s-13.066-1.026-19.29-2.972v12.937h-34.705
	c10.212,19.42,30.553,32.669,53.995,32.669s43.783-13.249,53.995-32.669h-34.705V236.57H247.652z"/>
<path style="fill:#EF5050;" d="M209.818,43.04c5.942-1.722,12.152-2.654,18.544-2.654s12.603,0.932,18.545,2.654
	c5.838-5.778,9.53-14.224,9.53-23.625c0-1.96-1.586-3.549-3.542-3.549H203.83c-1.956,0-3.542,1.589-3.542,3.549
	C200.288,28.816,203.98,37.262,209.818,43.04z"/>
<path style="opacity:0.1;enable-background:new    ;" d="M209.818,43.04c5.936-1.72,12.14-2.652,18.524-2.654
	c-4.447-5.574-7.166-12.917-7.166-20.971c0-1.96,1.586-3.549,3.542-3.549H203.83c-1.956,0-3.542,1.589-3.542,3.549
	C200.288,28.816,203.98,37.262,209.818,43.04z"/>
<g>
	<path style="fill:#FFB98A;" d="M157.022,163.141v-8.275h-4.577c-10.888,0-19.714,8.838-19.714,19.739
		c0,10.902,8.826,19.74,19.714,19.74h11.188C159.342,184.484,157.022,173.81,157.022,163.141z"/>
	<path style="fill:#FFB98A;" d="M304.28,154.865h-4.577v8.275c0,10.669-2.32,21.344-6.611,31.204h11.188
		c10.887,0,19.714-8.838,19.714-19.74C323.994,163.703,315.167,154.865,304.28,154.865z"/>
</g>
<path style="fill:#FFD5B3;" d="M298.965,144.435H157.761c-0.588,0-1.167-0.042-1.739-0.108v18.814
	c0,40.749,32.388,77.401,72.341,77.401s72.341-36.652,72.341-77.401v-18.814C300.132,144.393,299.553,144.435,298.965,144.435z"/>
<g style="opacity:0.1;">
	<path d="M176.989,163.141v-18.706h-19.228c-0.588,0-1.167-0.042-1.739-0.108v18.814c0,40.749,32.388,77.401,72.341,77.401
		c3.562,0,7.06-0.304,10.484-0.863C203.863,233.962,176.989,200.257,176.989,163.141z"/>
</g>
<g>
	<path style="fill:#775436;" d="M228.729,195.759h-4.194c-4.142,0-7.5-3.358-7.5-7.5s3.358-7.5,7.5-7.5h0.888v-10.14
		c0-4.142,3.358-7.5,7.5-7.5s7.5,3.358,7.5,7.5v12.563C240.422,190.117,235.176,195.759,228.729,195.759z"/>
	<path style="fill:#775436;" d="M262.819,183.799c-4.142,0-7.5-3.358-7.5-7.5v-10.462c0-4.142,3.358-7.5,7.5-7.5s7.5,3.358,7.5,7.5
		v10.462C270.319,180.441,266.961,183.799,262.819,183.799z"/>
	<path style="fill:#775436;" d="M192.949,183.799c-4.142,0-7.5-3.358-7.5-7.5v-10.462c0-4.142,3.358-7.5,7.5-7.5s7.5,3.358,7.5,7.5
		v10.462C200.449,180.441,197.091,183.799,192.949,183.799z"/>
	<path style="fill:#775436;" d="M228.364,222.749c-9.68,0.001-18.785-3.777-25.638-10.638c-2.927-2.931-2.924-7.68,0.006-10.607
		c2.931-2.926,7.679-2.924,10.607,0.006c4.018,4.023,9.354,6.239,15.024,6.238c5.67,0,11.005-2.215,15.022-6.238
		c2.928-2.931,7.676-2.934,10.607-0.007c2.931,2.927,2.934,7.676,0.007,10.606C247.148,218.972,238.044,222.749,228.364,222.749z"/>
</g>
<path style="fill:#FB8276;" d="M157.761,115.565h141.204c1.695,0,3.321,0.293,4.847,0.81c-4.164-43.297-36.348-76.99-75.449-76.99
	s-71.285,33.693-75.449,76.99C154.439,115.858,156.066,115.565,157.761,115.565z"/>
<path style="opacity:0.1;enable-background:new    ;" d="M157.761,115.565h16.263c4.075-38.961,30.858-69.966,64.85-75.334
	c-3.437-0.544-6.942-0.846-10.511-0.846c-39.101,0-71.285,33.693-75.449,76.99C154.439,115.858,156.066,115.565,157.761,115.565z"/>
<path style="fill:#EF5050;" d="M314.191,130.589c0,8.379-6.852,15.233-15.227,15.233H157.761c-8.374,0-15.227-6.854-15.227-15.233
	v-0.968c0-8.379,6.852-15.233,15.227-15.233h141.204c8.375,0,15.227,6.854,15.227,15.233L314.191,130.589L314.191,130.589z"/>
<g style="opacity:0.1;">
	<path d="M174.376,130.589v-0.968c0-8.379,6.851-15.233,15.226-15.233h-31.841c-8.374,0-15.227,6.854-15.227,15.233v0.968
		c0,8.379,6.852,15.233,15.227,15.233h31.841C181.227,145.822,174.376,138.968,174.376,130.589z"/>
</g>
<g>
	<path style="fill:#48C1E1;" d="M168.99,314.67h0.23v-6.128c0-2.774,1.515-4.566,3.858-4.566c0.694,0,1.432,0.154,2.194,0.459
		l11.448,4.583c0.15-0.592,0.239-1.209,0.239-1.848c0-4.142-3.358-7.5-7.5-7.5h-10.47c-4.142,0-7.5,3.358-7.5,7.5
		C161.49,311.312,164.848,314.67,168.99,314.67z"/>
	<path style="fill:#48C1E1;" d="M226.077,314.67h-10.47c-4.142,0-7.5-3.358-7.5-7.5s3.358-7.5,7.5-7.5h10.47
		c4.142,0,7.5,3.358,7.5,7.5S230.219,314.67,226.077,314.67z"/>
	<path style="fill:#48C1E1;" d="M258.451,313.644l21.439-8.581c-0.911-3.115-3.785-5.393-7.194-5.393h-10.47
		c-4.142,0-7.5,3.358-7.5,7.5C254.725,309.934,256.225,312.343,258.451,313.644z"/>
	<path style="fill:#48C1E1;" d="M163.671,285.405h-10.47c-4.142,0-7.5-3.358-7.5-7.5s3.358-7.5,7.5-7.5h10.47
		c4.142,0,7.5,3.358,7.5,7.5S167.813,285.405,163.671,285.405z"/>
	<path style="fill:#48C1E1;" d="M303.524,285.405h-10.47c-4.142,0-7.5-3.358-7.5-7.5s3.358-7.5,7.5-7.5h10.47
		c4.142,0,7.5,3.358,7.5,7.5S307.667,285.405,303.524,285.405z"/>
</g>
<path style="fill:#046699;" d="M288.504,364.988c0,4.404-3.262,9.526-7.248,11.384l-45.644,21.271
	c-3.987,1.857-10.511,1.857-14.498,0l-45.645-21.271c-3.987-1.858-7.249-6.979-7.249-11.384v-56.446c0-4.404,3.34-6.669,7.424-5.035
	l45.296,18.133c4.083,1.635,10.764,1.635,14.847-0.002l45.294-18.129c4.084-1.636,7.424,0.629,7.424,5.033v56.446H288.504z"/>
<path style="fill:#08375E;" d="M175.469,376.372l45.645,21.271c1.993,0.929,4.621,1.393,7.248,1.393v-76.17
	c-2.691,0-5.382-0.408-7.423-1.226l-45.296-18.133c-4.084-1.634-7.424,0.631-7.424,5.035v56.446
	C168.22,369.393,171.482,374.515,175.469,376.372z"/>
<g>
	<path style="fill:#FFD5B3;" d="M146.469,367.728c0-3.623-0.001-30.585,0-34.208c0-5.547,4.473-10.04,9.992-10.039l8.141-0.001
		c5.519,0.001,9.991,4.495,9.992,10.04c0,3.622-1.915,6.786-4.776,8.552c2.86,1.766,4.776,4.93,4.777,8.551
		c0,3.623-1.916,6.787-4.777,8.553c2.862,1.765,4.777,4.929,4.777,8.553c0,5.545-4.474,10.038-9.992,10.038h-8.141
		C150.942,377.766,146.468,373.273,146.469,367.728z"/>
	<path style="fill:#FFD5B3;" d="M310.257,333.52c0,3.623,0.001,30.586,0,34.209c0,5.546-4.473,10.039-9.992,10.037l-8.141,0.002
		c-5.519-0.002-9.992-4.494-9.993-10.039c0-3.622,1.916-6.786,4.777-8.553c-2.859-1.766-4.776-4.93-4.777-8.551
		c0-3.622,1.917-6.787,4.778-8.553c-2.862-1.766-4.777-4.929-4.777-8.553c0.001-5.544,4.474-10.038,9.993-10.038h8.141
		C305.784,323.482,310.258,327.976,310.257,333.52z"/>
</g>
<path style="fill:#48C1E1;" d="M103.452,169.082c0,5.585-4.568,10.155-10.151,10.155H48.957c-5.583,0-10.151-4.57-10.151-10.155
	V92.344c0-5.586,4.568-10.155,10.151-10.155h44.344c5.583,0,10.151,4.569,10.151,10.155V169.082z"/>
<rect x="38.806" y="101.25" style="fill:#FFFFFF;" width="64.65" height="53.697"/>
<g style="opacity:0.1;">
	<path d="M60.097,169.082V92.344c0-5.586,4.568-10.155,10.151-10.155H48.957c-5.583,0-10.151,4.569-10.151,10.155v76.738
		c0,5.585,4.568,10.155,10.151,10.155h21.291C64.665,179.237,60.097,174.667,60.097,169.082z"/>
</g>
<path style="fill:#368C0E;" d="M80.674,120.295h-2.045v-2.057c0-4.142-3.358-7.5-7.5-7.5s-7.5,3.358-7.5,7.5v2.057h-2.043
	c-4.142,0-7.5,3.358-7.5,7.5s3.358,7.5,7.5,7.5h2.043v2.057c0,4.142,3.358,7.5,7.5,7.5s7.5-3.358,7.5-7.5v-2.057h2.045
	c4.142,0,7.5-3.358,7.5-7.5S84.816,120.295,80.674,120.295z"/>
<path style="fill:#C5CCD3;" d="M88.773,42.16H7.5c-4.142,0-7.5-3.358-7.5-7.5s3.358-7.5,7.5-7.5h81.273c4.142,0,7.5,3.358,7.5,7.5
	S92.915,42.16,88.773,42.16z"/>
<path style="fill:#FFC502;" d="M91,235.895c0,4.202-3.436,7.639-7.635,7.639h-12.73c-4.2,0-7.635-3.438-7.635-7.639v-19.918
	c0-4.202,3.435-7.639,7.635-7.639h12.73c4.2,0,7.635,3.438,7.635,7.639C91,215.977,91,235.895,91,235.895z"/>
<g>
</g>
<g>
</g>
<g>
</g>
<g>
</g>
<g>
</g>
<g>
</g>
<g>
</g>
<g>
</g>
<g>
</g>
<g>
</g>
<g>
</g>
<g>
</g>
<g>
</g>
<g>
</g>
<g>
</g>
</svg>
