<?xml version="1.0" encoding="iso-8859-1"?>
<!-- Generator: Adobe Illustrator 19.0.0, SVG Export Plug-In . SVG Version: 6.00 Build 0)  -->
<svg version="1.1" id="Capa_1" xmlns="http://www.w3.org/2000/svg" xmlns:xlink="http://www.w3.org/1999/xlink" x="0px" y="0px"
	 viewBox="0 0 512 512" style="enable-background:new 0 0 512 512;" xml:space="preserve">
<g>
	<path style="fill:#A2DFF9;" d="M272.258,210.771h-29.34c-0.357,0-0.688,0.191-0.866,0.5c-0.179,0.31-0.179,0.691,0.001,1
		l14.67,25.368c0.179,0.309,0.508,0.499,0.865,0.499s0.687-0.19,0.865-0.499l14.67-25.368c0.18-0.309,0.18-0.69,0.001-1
		C272.945,210.961,272.615,210.771,272.258,210.771z"/>
	<path style="fill:#A2DFF9;" d="M256.001,7.5c-71.438,0-129.347,58.18-129.347,129.948c0,60.076,40.58,110.621,95.701,125.5
		l-26.502-45.834c-1.683-2.91-1.683-7.826,0-10.735c0-0.001,17.645-30.509,21.107-36.488c0.237-0.409,0.568-0.756,0.963-1.013
		c0.052-0.019,0.101-0.042,0.148-0.069c0.47-0.272,0.985-0.416,1.489-0.416h76.056c0.512,0,1.012,0.14,1.488,0.415
		c0.039,0.023,0.079,0.042,0.121,0.059c0.461,0.315,0.768,0.642,0.991,1.025c3.153,5.448,21.105,36.486,21.105,36.486
		c1.683,2.91,1.683,7.826,0,10.736l-25.871,44.744c53.172-16.135,91.895-65.727,91.895-124.411
		C385.346,65.68,327.435,7.5,256.001,7.5z"/>
</g>
<g>
	<path style="fill:#FFFFFF;" d="M272.258,210.771h-29.34c-0.357,0-0.688,0.191-0.866,0.5c-0.179,0.31-0.179,0.691,0.001,1
		l14.67,25.368c0.179,0.309,0.508,0.499,0.865,0.499s0.687-0.19,0.865-0.499l14.67-25.368c0.18-0.309,0.18-0.69,0.001-1
		C272.945,210.961,272.615,210.771,272.258,210.771z"/>
	<path style="fill:#FFFFFF;" d="M195.854,217.115c-1.683-2.91-1.683-7.826,0-10.735c0,0,1.848-3.196,4.46-7.711
		c-18.964,3.845-35.377,9.591-47.864,16.658c17.109,22.927,41.591,39.978,69.906,47.622L195.854,217.115z"/>
	<path style="fill:#FFFFFF;" d="M315.305,199.433c2.374,4.105,4.018,6.946,4.018,6.946c1.683,2.91,1.683,7.826,0,10.736
		l-25.872,44.745c26.702-8.103,49.762-24.639,66.101-46.533C347.865,208.712,332.739,203.257,315.305,199.433z"/>
	<path style="fill:#FFFFFF;" d="M256.001,81.564c42.357,0,79.957-8.639,103.55-21.994C335.958,27.958,298.358,7.5,256.001,7.5
		s-79.959,20.458-103.552,52.07C176.042,72.925,213.644,81.564,256.001,81.564z"/>
</g>
<g style="opacity:0.1;">
	<path d="M158.551,137.448c0-51.25,29.536-95.56,72.436-116.712C238.535,12.264,247.024,7.5,256.001,7.5
		c-71.438,0-129.347,58.18-129.347,129.948c0,60.076,40.58,110.621,95.701,125.5l-12.764-22.075
		C178.574,217.137,158.551,179.645,158.551,137.448z"/>
</g>
<g>
	<path style="fill:#89C947;" d="M257.588,238.139c0.357,0,0.687-0.19,0.865-0.499l14.67-25.368c0.18-0.309,0.18-0.69,0.001-1
		s-0.509-0.5-0.866-0.5h-29.34c-0.357,0-0.688,0.191-0.866,0.5c-0.179,0.31-0.179,0.691,0.001,1l14.67,25.368
		C256.901,237.948,257.23,238.139,257.588,238.139z"/>
	<path style="fill:#89C947;" d="M216.96,169.891c0.237-0.409,0.568-0.756,0.963-1.013c0.052-0.019,0.101-0.042,0.148-0.069
		c0.47-0.272,0.985-0.416,1.489-0.416h76.056c0.512,0,1.012,0.14,1.488,0.415c0.039,0.023,0.079,0.042,0.121,0.059
		c0.461,0.315,0.768,0.642,0.991,1.025c1.416,2.447,5.818,10.058,10.239,17.7c2.825-15.431,4.389-32.37,4.389-50.145
		c0-71.768-25.45-129.948-56.844-129.948c-31.392,0-56.843,58.18-56.843,129.948c0,19.37,1.856,37.746,5.182,54.26
		C209.381,182.991,215.137,173.04,216.96,169.891z"/>
</g>
<g>
	<path style="fill:#48C1E1;" d="M248.501,223.422l8.222,14.217c0.179,0.309,0.508,0.499,0.865,0.499s0.687-0.19,0.865-0.499
		l5.048-8.729v-18.14h-15V223.422z"/>
	<path style="fill:#48C1E1;" d="M256.001,0c-75.458,0-136.847,61.659-136.847,137.448c0,65.987,46.537,121.254,108.376,134.45
		l-10.704-18.513c-20.577-7.041-38.703-19.453-52.693-35.587c9.044-4.15,19.615-7.632,31.215-10.34
		c0.148-0.38,0.313-0.745,0.506-1.078c0-0.001,8.003-13.837,14.287-24.701c-1.9-11.658-3.056-23.998-3.378-36.73h41.738v23.445h15
		v-23.445h41.739c-0.282,11.167-1.205,22.034-2.708,32.404c6.355,10.987,16.79,29.027,16.79,29.027
		c0.33,0.57,0.575,1.231,0.775,1.924c10.247,2.576,19.634,5.761,27.771,9.495c-13.073,15.077-29.758,26.903-48.678,34.135
		l-11.061,19.129c60.006-14.557,104.717-68.936,104.717-133.614C392.846,61.659,331.457,0,256.001,0z M154.824,205.607
		c-11.743-17.548-19.084-38.304-20.435-60.66h57.367c0.395,16.324,2.086,32.113,4.945,46.783
		C180.956,195.065,166.737,199.749,154.824,205.607z M191.757,129.948H134.39c1.351-22.355,8.691-43.111,20.435-60.658
		c11.912,5.859,26.131,10.543,41.878,13.876C193.843,97.836,192.152,113.625,191.757,129.948z M200.039,68.484
		c-13.448-2.832-25.656-6.681-35.906-11.385c15.15-17.472,35.146-30.594,57.858-37.239c-4.776,6.208-9.163,13.8-13.055,22.695
		C205.477,50.466,202.5,59.172,200.039,68.484z M248.501,129.948h-41.738c0.392-15.456,1.991-30.35,4.689-44.124
		c11.8,1.777,24.242,2.849,37.05,3.149L248.501,129.948L248.501,129.948z M248.501,73.967c-11.558-0.294-22.871-1.27-33.634-2.851
		c2.196-8.09,4.801-15.666,7.811-22.55c7.365-16.836,16.483-27.998,25.822-31.959L248.501,73.967L248.501,73.967z M357.176,69.289
		c11.743,17.548,19.084,38.304,20.435,60.659h-57.364c-0.395-16.323-2.086-32.112-4.945-46.782
		C331.046,79.832,345.265,75.148,357.176,69.289z M263.501,16.607c9.34,3.96,18.458,15.123,25.823,31.959
		c3.012,6.884,5.615,14.46,7.812,22.549c-10.763,1.582-22.077,2.557-33.635,2.852V16.607z M263.501,129.948V88.974
		c12.808-0.301,25.251-1.372,37.051-3.15c2.697,13.774,4.298,28.669,4.688,44.124H263.501z M303.066,42.555
		c-3.891-8.895-8.279-16.487-13.055-22.695c22.713,6.646,42.705,19.767,57.857,37.239c-10.249,4.704-22.457,8.552-35.905,11.384
		C309.503,59.172,306.527,50.465,303.066,42.555z M357.176,205.607c-11.912-5.858-26.131-10.542-41.875-13.876
		c2.859-14.671,4.551-30.46,4.945-46.784h57.364C376.26,167.303,368.919,188.06,357.176,205.607z"/>
</g>
<path style="fill:#FFB98A;" d="M380.081,325.542c2.288-2.125,4.907-3.779,7.789-4.92c0.382-0.151,0.632-0.52,0.632-0.93v-64.403
	c-1.244-0.242-2.526-0.376-3.842-0.376c-10.98,0-19.882,8.845-19.882,19.755v64.943L380.081,325.542z"/>
<path style="fill:#FFAB7D;" d="M396.032,319c4.941,0,9.358,1.802,12.436,5.074c1.488,1.582,2.618,3.483,3.358,5.65
	c0.14,0.41,0.524,0.677,0.945,0.677c0.055,0,0.109-0.004,0.164-0.013c0.483-0.08,0.837-0.497,0.837-0.986
	c0.021-22.714,0.005-95.655,0.005-95.655c0-1.326,0.144-2.619,0.408-3.868c-2.125-0.771-4.409-1.212-6.803-1.212
	c-10.98,0-19.881,8.845-19.881,19.755v72.341C390.256,319.617,393.163,319,396.032,319z"/>
<path style="fill:#FFB98A;" d="M412.758,336.07c-0.197,5.844-2.992,11.686-7.668,16.029l-12.858,11.947
	c-0.205,0.191-0.321,0.459-0.319,0.74c0.002,0.281,0.122,0.547,0.33,0.735c0.998,0.9,1.838,1.761,2.567,2.632
	c0.173,0.207,0.423,0.336,0.692,0.355c0.024,0.002,0.05,0.003,0.074,0.003c0.244,0,0.479-0.089,0.663-0.252l41.055-36.398
	c0.036-0.032,0.07-0.066,0.102-0.103c1.032-1.225,2.369-4.433,2.509-6.022l0.004-97.634c0-4.076,1.33-7.841,3.563-10.921
	c-3.114-2.011-6.822-3.19-10.811-3.19c-10.979,0-19.882,8.844-19.882,19.755C412.777,233.748,412.799,334.84,412.758,336.07z"/>
<path style="fill:#FFD5B3;" d="M458.789,208.349c-10.962,0-19.881,8.862-19.881,19.754v97.546c-0.122,1.385-1.378,4.398-2.277,5.465
	l-41.055,36.397c-0.84-1.003-1.737-1.897-2.664-2.733l12.858-11.947c9.137-8.485,10.676-21.736,3.426-29.443
	c-7.249-7.708-20.653-7.07-29.792,1.416l-43.426,39.926C326,373,318.2,385.37,318.2,399.682V507c0,2.761,2.238,5,5,5h62.708
	c2.762,0,5-2.239,5-5l0.064-74.867c2.403-2.275,70.924-70.254,73.842-73.149c8.16-8.104,13.858-21.772,13.858-33.237v-97.643
	C478.673,217.211,469.753,208.349,458.789,208.349z"/>
<path style="fill:#FFB98A;" d="M131.919,325.542c-2.288-2.125-4.907-3.779-7.789-4.92c-0.382-0.151-0.632-0.52-0.632-0.93v-64.403
	c1.244-0.242,2.526-0.376,3.842-0.376c10.98,0,19.882,8.845,19.882,19.755v64.943L131.919,325.542z"/>
<path style="fill:#FFAB7D;" d="M115.968,319c-4.941,0-9.358,1.802-12.436,5.074c-1.488,1.582-2.618,3.483-3.358,5.65
	c-0.14,0.41-0.524,0.677-0.945,0.677c-0.055,0-0.109-0.004-0.164-0.013c-0.482-0.08-0.837-0.497-0.837-0.986
	c-0.021-22.714-0.005-95.655-0.005-95.655c0-1.326-0.144-2.619-0.408-3.868c2.125-0.771,4.409-1.212,6.803-1.212
	c10.98,0,19.881,8.845,19.881,19.755v72.341C121.744,319.617,118.837,319,115.968,319z"/>
<path style="fill:#FFB98A;" d="M99.242,336.07c0.197,5.844,2.992,11.686,7.668,16.029l12.858,11.947
	c0.205,0.191,0.321,0.459,0.319,0.74c-0.002,0.281-0.122,0.547-0.33,0.735c-0.998,0.9-1.838,1.761-2.567,2.632
	c-0.173,0.207-0.423,0.336-0.692,0.355c-0.024,0.002-0.05,0.003-0.074,0.003c-0.244,0-0.479-0.089-0.663-0.252l-41.055-36.398
	c-0.036-0.032-0.07-0.066-0.102-0.103c-1.032-1.225-2.369-4.433-2.509-6.022l-0.004-97.634c0-4.076-1.33-7.841-3.563-10.921
	c3.114-2.011,6.822-3.19,10.812-3.19c10.979,0,19.882,8.844,19.882,19.755C99.223,233.748,99.201,334.84,99.242,336.07z"/>
<path style="fill:#FFD5B3;" d="M53.211,208.349c10.962,0,19.881,8.862,19.881,19.754v97.546c0.122,1.385,1.378,4.398,2.277,5.465
	l41.055,36.397c0.84-1.003,1.737-1.897,2.664-2.733l-12.858-11.947c-9.137-8.485-10.676-21.736-3.426-29.443
	c7.249-7.708,20.653-7.07,29.792,1.416l43.426,39.926C186,373,193.8,385.37,193.8,399.682V507c0,2.761-2.238,5-5,5h-62.708
	c-2.762,0-5-2.239-5-5l-0.064-74.867c-2.403-2.275-70.924-70.254-73.842-73.149c-8.16-8.104-13.858-21.772-13.858-33.237v-97.643
	C33.327,217.211,42.247,208.349,53.211,208.349z"/>
<path style="fill:#C0272D;" d="M241.91,211.771c-11.532-19.944-21.762-37.629-24.586-42.51v-1.175
	c0.65-0.44,1.424-0.693,2.236-0.693h76.056c0.814,0,1.588,0.254,2.238,0.694v1.987c-3.232,5.588-12.461,21.547-24.113,41.697H241.91
	z"/>
<g>
	<path style="fill:#EF5050;" d="M194.988,345.397c0,0,17.138-29.637,37.405-64.689l25.656,44.372l-24.574,42.502
		c-1.866,3.228-4.639,3.084-6.16-0.32l-5.336-11.941c-1.522-3.404-5.807-5.954-9.524-5.667l-14.101,1.089
		C194.636,351.03,193.121,348.625,194.988,345.397z"/>
	<path style="fill:#EF5050;" d="M282.553,281.906c-0.248-0.43-11.961-20.685-25.426-43.97c21.45-37.094,40.257-69.614,40.487-70.009
		c0.599,0.345,1.107,0.844,1.467,1.463c3.154,5.45,21.106,36.488,21.106,36.488c1.867,3.228,1.867,8.509,0,11.737l-37.404,64.69
		L282.553,281.906z"/>
</g>
<path style="fill:#FB8276;" d="M194.988,205.878c0,0,17.646-30.509,21.106-36.488c0.359-0.619,0.868-1.118,1.467-1.463
	c0.541,0.921,102.213,176.758,102.213,176.758c0.001,0.001,0.001,0.001,0.003,0.002l0.41,0.71c1.867,3.228,0.352,5.634-3.366,5.346
	l-14.101-1.089c-3.718-0.288-8.003,2.263-9.526,5.667l-5.335,11.941c-1.521,3.404-4.292,3.548-6.159,0.32l-7.672-13.269
	l-79.04-136.697C193.121,214.387,193.121,209.106,194.988,205.878z"/>
<g style="opacity:0.1;">
	<path d="M290.546,354.946l-88.67-153.351c-0.821-1.419-1.316-3.194-1.493-5.044c-3.098,5.356-5.395,9.327-5.395,9.327
		c-1.867,3.228-1.867,8.509,0,11.737l79.04,136.697l7.672,13.269c1.867,3.228,4.639,3.084,6.159-0.32l4.275-9.567L290.546,354.946z"
		/>
</g>
<g>
</g>
<g>
</g>
<g>
</g>
<g>
</g>
<g>
</g>
<g>
</g>
<g>
</g>
<g>
</g>
<g>
</g>
<g>
</g>
<g>
</g>
<g>
</g>
<g>
</g>
<g>
</g>
<g>
</g>
</svg>
