<?xml version="1.0" encoding="iso-8859-1"?>
<!-- Generator: Adobe Illustrator 19.0.0, SVG Export Plug-In . SVG Version: 6.00 Build 0)  -->
<svg version="1.1" id="Capa_1" xmlns="http://www.w3.org/2000/svg" xmlns:xlink="http://www.w3.org/1999/xlink" x="0px" y="0px"
	 viewBox="0 0 512 512" style="enable-background:new 0 0 512 512;" xml:space="preserve">
<path style="fill:#FB8276;" d="M369.085,278.749V254.38c0-5.5-4.5-10-10-10H139.54c-5.5,0-10,4.5-10,10v24.369H369.085z"/>
<path style="opacity:0.1;enable-background:new    ;" d="M150.455,278.749V254.38c0-5.5,4.5-10,10-10H139.54c-5.5,0-10,4.5-10,10
	v24.369H150.455z"/>
<path style="fill:#FFB98A;" d="M249.313,239.749c-7.882,0-15.499-1.268-22.704-3.597v13.472c0,12.539,10.165,22.703,22.704,22.703
	c12.539,0,22.702-10.164,22.702-22.703v-13.472C264.81,238.481,257.193,239.749,249.313,239.749z"/>
<path style="fill:#FFC502;" d="M428.898,418.776h-12.156c-7.676,0-13.921-6.268-13.921-13.974c0-4.884,2.489-9.335,6.659-11.906
	c0.295-0.182,0.475-0.505,0.475-0.852s-0.181-0.669-0.477-0.851c-4.169-2.561-6.657-7.01-6.657-11.9c0-4.881,2.489-9.33,6.658-11.9
	c0.296-0.182,0.476-0.504,0.476-0.851c0-0.347-0.18-0.669-0.476-0.852c-4.169-2.568-6.658-7.017-6.658-11.9
	c0-7.704,6.245-13.974,13.921-13.977l12.156,0.003c0.812,0,1.603,0.084,2.377,0.219v-57.717c0-2.75-2.25-5-5-5H72.35
	c-2.75,0-5,2.25-5,5v60.93c1.087-0.275,2.218-0.437,3.389-0.437l12.161-0.002c7.676,0.003,13.921,6.273,13.921,13.977
	c0,4.883-2.489,9.332-6.658,11.9c-0.296,0.182-0.476,0.504-0.476,0.852c0,0.347,0.18,0.669,0.476,0.851
	c4.169,2.571,6.658,7.02,6.658,11.901c0,4.888-2.489,9.336-6.657,11.901c-0.296,0.182-0.477,0.504-0.477,0.851
	s0.18,0.669,0.476,0.852c4.169,2.571,6.658,7.021,6.658,11.905c0,7.705-6.245,13.973-13.921,13.973H70.744
	c-1.173,0-2.306-0.163-3.395-0.439v65.58c0,2.75,2.25,5,5,5h353.926c2.75,0,5-2.25,5-5v-68.355
	C430.501,418.691,429.71,418.776,428.898,418.776z"/>
<path style="fill:#FFFFFF;" d="M402.821,404.803c0-4.884,2.489-9.335,6.659-11.906c0.295-0.182,0.475-0.505,0.475-0.852
	s-0.181-0.669-0.477-0.851c-4.169-2.561-6.657-7.01-6.657-11.9c0-4.881,2.489-9.33,6.658-11.9c0.296-0.182,0.476-0.504,0.476-0.851
	c0-0.347-0.18-0.669-0.476-0.852c-4.169-2.568-6.658-7.017-6.658-11.9c0-5.756,3.488-10.71,8.454-12.849v-38.623c0-2.75-2.25-5-5-5
	H92.35c-2.75,0-5,2.25-5,5v41.237c5.498,1.871,9.472,7.089,9.472,13.23c0,4.883-2.489,9.332-6.658,11.9
	c-0.296,0.182-0.476,0.504-0.476,0.852c0,0.347,0.18,0.669,0.476,0.851c4.169,2.571,6.658,7.02,6.658,11.901
	c0,4.888-2.489,9.336-6.657,11.901c-0.296,0.182-0.477,0.504-0.477,0.851s0.18,0.669,0.476,0.852
	c4.169,2.571,6.658,7.021,6.658,11.905c0,6.142-3.974,11.359-9.472,13.228v45.886c0,2.75,2.25,5,5,5h313.926c2.75,0,5-2.25,5-5
	v-49.261C406.31,415.514,402.821,410.56,402.821,404.803z"/>
<path style="opacity:0.1;enable-background:new    ;" d="M113.074,297.318H92.35c-2.75,0-5,2.25-5,5v41.237
	c5.498,1.871,9.472,7.089,9.472,13.23c0,4.883-2.489,9.332-6.658,11.9c-0.296,0.182-0.476,0.504-0.476,0.852
	c0,0.347,0.18,0.669,0.476,0.851c4.169,2.571,6.658,7.02,6.658,11.901c0,4.888-2.489,9.336-6.657,11.901
	c-0.296,0.182-0.477,0.504-0.477,0.851s0.18,0.669,0.476,0.852c4.169,2.571,6.658,7.021,6.658,11.905
	c0,6.142-3.974,11.359-9.472,13.228v45.886c0,2.75,2.25,5,5,5h20.725c-2.75,0-5-2.25-5-5V302.318
	C108.074,299.568,110.324,297.318,113.074,297.318z"/>
<g>
	<path style="fill:#FCDB67;" d="M82.9,342.809c5.078,0.002,9.518,2.756,11.949,6.845v-44.835h308.926v43.927
		c2.022-5.215,7.064-8.929,12.967-8.932h2.033v-37.496c0-6.893-5.607-12.5-12.5-12.5H92.35c-6.893,0-12.5,5.607-12.5,12.5v40.491
		H82.9z"/>
	<path style="fill:#FCDB67;" d="M409.48,392.897c0.295-0.182,0.475-0.505,0.475-0.852s-0.181-0.669-0.477-0.851
		c-2.651-1.629-4.619-4.023-5.703-6.806v15.326C404.859,396.93,406.828,394.532,409.48,392.897z"/>
	<path style="fill:#FCDB67;" d="M409.479,365.691c-2.651-1.633-4.62-4.029-5.704-6.811v15.328c1.084-2.782,3.053-5.178,5.704-6.814
		c0.296-0.182,0.476-0.504,0.476-0.851C409.955,366.195,409.775,365.873,409.479,365.691z"/>
	<path style="fill:#FCDB67;" d="M90.163,368.685c-0.296,0.182-0.476,0.504-0.476,0.852c0,0.347,0.18,0.669,0.476,0.851
		c1.966,1.212,3.553,2.846,4.687,4.742v-11.185C93.716,365.841,92.129,367.474,90.163,368.685z"/>
	<path style="fill:#FCDB67;" d="M90.164,394.19c-0.296,0.182-0.477,0.504-0.477,0.851s0.18,0.669,0.476,0.852
		c1.966,1.212,3.553,2.847,4.687,4.743v-11.183C93.716,391.349,92.13,392.98,90.164,394.19z"/>
	<path style="fill:#FCDB67;" d="M416.742,418.776c-5.902,0-10.945-3.712-12.967-8.927v54.562H94.85v-49.482
		c-2.432,4.088-6.871,6.841-11.949,6.841H79.85v45.141c0,6.893,5.607,12.5,12.5,12.5h313.926c6.893,0,12.5-5.607,12.5-12.5v-48.135
		L416.742,418.776L416.742,418.776z"/>
</g>
<g>
	<path style="fill:#FFB98A;" d="M55.821,407.797c0-5.402,0-45.61,0-51.012c0-8.273,6.68-14.977,14.923-14.973l12.156-0.003
		c8.243,0.003,14.921,6.704,14.921,14.977c0,5.397-2.86,10.119-7.134,12.751c4.271,2.633,7.134,7.353,7.134,12.752
		c0,5.401-2.86,10.124-7.134,12.753c4.273,2.635,7.134,7.352,7.134,12.756c0,8.269-6.678,14.973-14.921,14.973H70.744
		C62.504,422.767,55.821,416.066,55.821,407.797z"/>
	<path style="fill:#FFB98A;" d="M443.821,404.803c0-5.402,0-45.611,0-51.012c0-8.273-6.68-14.977-14.923-14.974l-12.156-0.003
		c-8.243,0.003-14.921,6.704-14.921,14.977c0,5.398,2.858,10.119,7.134,12.752c-4.27,2.632-7.134,7.352-7.134,12.751
		c0,5.4,2.858,10.125,7.134,12.752c-4.275,2.637-7.134,7.352-7.134,12.757c0,8.268,6.678,14.974,14.921,14.974h12.156
		C437.139,419.773,443.821,413.071,443.821,404.803z"/>
</g>
<path style="fill:#046699;" d="M164.154,146.44h4.011c0.553,0,1-0.448,1-1v-11.123c0-1.103,0.898-2,2-2h37.954
	c20.662,0,40.023-10.207,51.792-27.302c0.374-0.542,0.989-0.866,1.647-0.866s1.273,0.324,1.647,0.866
	c11.768,17.096,31.13,27.302,51.794,27.302h11.46c1.102,0,2,0.897,2,2v11.123c0,0.552,0.447,1,1,1h4.014
	c3.152,0,6.135,0.71,8.823,1.947c1.29-6.192,1.991-12.601,1.991-19.177c0-51.602-41.771-93.434-93.296-93.434h-5.357
	c-51.527,0-93.296,41.832-93.296,93.434c0,6.577,0.701,12.985,1.991,19.178C158.019,147.15,161.002,146.44,164.154,146.44z"/>
<path style="opacity:0.1;enable-background:new    ;" d="M164.154,146.44h4.011c0.553,0,1-0.448,1-1v-11.123c0-1.103,0.898-2,2-2
	h2.959c-0.034-1.034-0.073-2.066-0.073-3.107c0-49.013,37.684-89.206,85.618-93.117c-2.532-0.206-5.092-0.317-7.678-0.317h-5.357
	c-51.527,0-93.296,41.832-93.296,93.434c0,6.577,0.701,12.985,1.991,19.178C158.019,147.15,161.002,146.44,164.154,146.44z"/>
<g>
	<path style="fill:#FFB98A;" d="M169.165,154.663v-9.222h-5.011c-12.215,0-22.115,9.85-22.115,21.999s9.9,22,22.115,22h12.417
		C171.765,178.448,169.165,166.552,169.165,154.663z"/>
	<path style="fill:#FFB98A;" d="M334.473,145.44h-5.014v9.222c0,11.89-2.6,23.786-7.406,34.777h12.42
		c12.211,0,22.114-9.851,22.114-22S346.684,145.44,334.473,145.44z"/>
</g>
<path style="fill:#FFD5B3;" d="M249.313,240.925c-21.446,0-41.825-9.27-57.381-26.101c-15.104-16.343-23.767-38.271-23.767-60.161
	v-20.345c0-1.657,1.343-3,3-3h37.954c20.333,0,39.387-10.045,50.969-26.869c0.56-0.813,1.483-1.299,2.471-1.299l0,0
	c0.987,0,1.911,0.486,2.471,1.299c11.581,16.825,30.636,26.869,50.97,26.869h11.46c1.657,0,3,1.343,3,3v20.345
	c0,21.891-8.662,43.818-23.767,60.161C291.138,231.655,270.76,240.925,249.313,240.925z"/>
<g>
	<path style="fill:#775436;" d="M254.019,190.157h-4.706c-6.73,0-12.206-5.607-12.206-12.5v-14.659c0-4.142,3.357-7.5,7.5-7.5
		s7.5,3.358,7.5,7.5v12.159h1.912c4.143,0,7.5,3.358,7.5,7.5S258.161,190.157,254.019,190.157z"/>
	<path style="fill:#775436;" d="M249.313,220.208c-10.174,0-20.348-3.853-28.094-11.559c-2.937-2.921-2.948-7.67-0.026-10.607
		c2.92-2.936,7.669-2.948,10.606-0.027c9.656,9.608,25.371,9.608,35.027,0c2.936-2.921,7.684-2.91,10.606,0.027
		s2.91,7.686-0.026,10.607C269.66,216.355,259.486,220.208,249.313,220.208z"/>
	<path style="fill:#775436;" d="M208.492,172.383c-4.143,0-7.5-3.358-7.5-7.5v-10.002c0-4.142,3.357-7.5,7.5-7.5s7.5,3.358,7.5,7.5
		v10.002C215.992,169.025,212.635,172.383,208.492,172.383z"/>
	<path style="fill:#775436;" d="M290.131,172.383c-4.143,0-7.5-3.358-7.5-7.5v-10.002c0-4.142,3.357-7.5,7.5-7.5s7.5,3.358,7.5,7.5
		v10.002C297.631,169.025,294.273,172.383,290.131,172.383z"/>
</g>
<ellipse style="fill:#FFC502;" cx="54.749" cy="189.529" rx="47.25" ry="47.07"/>
<g>
	<path style="fill:#C6A07D;" d="M54.749,244.108C24.56,244.108,0,219.626,0,189.534c0-30.093,24.56-54.575,54.749-54.575
		s54.748,24.482,54.748,54.575C109.497,219.626,84.938,244.108,54.749,244.108z M54.749,149.959
		C32.831,149.959,15,167.712,15,189.534c0,21.821,17.831,39.574,39.749,39.574c21.917,0,39.748-17.753,39.748-39.574
		C94.497,167.712,76.666,149.959,54.749,149.959z"/>
	<path style="fill:#C6A07D;" d="M78.157,198.51c0-9.18-7.483-16.648-16.682-16.648H48.021c-0.928,0-1.682-0.74-1.682-1.649
		s0.754-1.649,1.682-1.649h17.203c4.143,0,7.5-3.358,7.5-7.5s-3.357-7.5-7.5-7.5h-2.976v-1.416c0-4.142-3.357-7.5-7.5-7.5
		s-7.5,3.358-7.5,7.5v1.455c-8.839,0.407-15.909,7.69-15.909,16.61c0,9.181,7.483,16.649,16.682,16.649h13.454
		c0.928,0,1.682,0.739,1.682,1.648s-0.754,1.648-1.682,1.648H41.104c-4.143,0-7.5,3.358-7.5,7.5s3.357,7.5,7.5,7.5h6.168
		c0.226,3.939,3.481,7.065,7.478,7.065c4.009,0,7.272-3.147,7.479-7.104C71.076,214.723,78.157,207.436,78.157,198.51z"/>
</g>
<ellipse style="fill:#FFC502;" cx="422.47" cy="83.719" rx="47.25" ry="47.07"/>
<g>
	<path style="fill:#C6A07D;" d="M422.473,138.291c-30.188,0-54.748-24.482-54.748-54.574c0-30.093,24.56-54.576,54.748-54.576
		s54.747,24.482,54.747,54.576C477.22,113.809,452.66,138.291,422.473,138.291z M422.473,44.141
		c-21.917,0-39.748,17.753-39.748,39.576c0,21.821,17.831,39.574,39.748,39.574s39.747-17.753,39.747-39.574
		C462.22,61.895,444.39,44.141,422.473,44.141z"/>
	<path style="fill:#C6A07D;" d="M445.882,92.692c0-9.18-7.483-16.648-16.682-16.648h-13.454c-0.929,0-1.684-0.74-1.684-1.649
		c0-0.91,0.755-1.649,1.684-1.649h17.203c4.143,0,7.5-3.358,7.5-7.5s-3.357-7.5-7.5-7.5h-2.977v-1.415c0-4.142-3.357-7.5-7.5-7.5
		s-7.5,3.358-7.5,7.5v1.454c-8.839,0.407-15.91,7.69-15.91,16.61c0,9.181,7.484,16.649,16.684,16.649H429.2
		c0.928,0,1.682,0.739,1.682,1.648c0,0.909-0.754,1.648-1.682,1.648h-20.372c-4.143,0-7.5,3.358-7.5,7.5s3.357,7.5,7.5,7.5h6.166
		c0.227,3.938,3.482,7.065,7.479,7.065c4.009,0,7.272-3.147,7.48-7.104C438.801,108.906,445.882,101.619,445.882,92.692z"/>
</g>
<g>
	<path style="fill:#9EA7AF;" d="M255.316,342.709H129.524c-4.143,0-7.5-3.358-7.5-7.5s3.357-7.5,7.5-7.5h125.792
		c4.143,0,7.5,3.358,7.5,7.5S259.459,342.709,255.316,342.709z"/>
	<path style="fill:#9EA7AF;" d="M255.316,367.661H129.524c-4.143,0-7.5-3.358-7.5-7.5s3.357-7.5,7.5-7.5h125.792
		c4.143,0,7.5,3.358,7.5,7.5S259.459,367.661,255.316,367.661z"/>
	<path style="fill:#9EA7AF;" d="M255.316,392.614H129.524c-4.143,0-7.5-3.358-7.5-7.5s3.357-7.5,7.5-7.5h125.792
		c4.143,0,7.5,3.358,7.5,7.5S259.459,392.614,255.316,392.614z"/>
</g>
<g>
	<path style="fill:#C6A07D;" d="M182.89,417.566h-53.365c-4.143,0-7.5-3.358-7.5-7.5s3.357-7.5,7.5-7.5h53.365
		c4.143,0,7.5,3.358,7.5,7.5C190.39,414.209,187.032,417.566,182.89,417.566z"/>
	<path style="fill:#C6A07D;" d="M255.316,442.52H129.524c-4.143,0-7.5-3.358-7.5-7.5s3.357-7.5,7.5-7.5h125.792
		c4.143,0,7.5,3.358,7.5,7.5S259.459,442.52,255.316,442.52z"/>
</g>
<g>
	<ellipse style="fill:#FFC502;" cx="424.16" cy="228.529" rx="24.506" ry="24.416"/>
	<ellipse style="fill:#FFC502;" cx="81.72" cy="55.259" rx="27.77" ry="27.668"/>
	<ellipse style="fill:#FFC502;" cx="483.34" cy="172.349" rx="21.16" ry="21.08"/>
</g>
<g>
	<path style="fill:#C6A07D;" d="M483.342,200.936c-15.802,0-28.658-12.821-28.658-28.581s12.856-28.582,28.658-28.582
		S512,156.594,512,172.354S499.144,200.936,483.342,200.936z M483.342,158.772c-7.531,0-13.658,6.093-13.658,13.582
		s6.127,13.581,13.658,13.581c7.531,0,13.658-6.092,13.658-13.581S490.873,158.772,483.342,158.772z"/>
	<path style="fill:#C6A07D;" d="M424.161,260.441c-17.648,0-32.006-14.317-32.006-31.916s14.357-31.916,32.006-31.916
		c17.648,0,32.006,14.317,32.006,31.916C456.167,246.124,441.81,260.441,424.161,260.441z M424.161,211.609
		c-9.377,0-17.006,7.588-17.006,16.916s7.629,16.916,17.006,16.916s17.006-7.588,17.006-16.916
		C441.167,219.198,433.538,211.609,424.161,211.609z"/>
	<path style="fill:#C6A07D;" d="M81.722,90.424c-19.447,0-35.27-15.776-35.27-35.168s15.822-35.169,35.27-35.169
		c19.447,0,35.27,15.777,35.27,35.169C116.991,74.647,101.169,90.424,81.722,90.424z M81.722,35.087
		c-11.177,0-20.27,9.048-20.27,20.169s9.093,20.168,20.27,20.168s20.27-9.047,20.27-20.168
		C101.991,44.135,92.898,35.087,81.722,35.087z"/>
</g>
<path style="fill:#FFB98A;" d="M319.565,354.268c-6.818-11.789-12.864-22.244-14.534-25.129v-0.694
	c0.385-0.26,0.842-0.41,1.321-0.41h44.961c0.48,0,0.939,0.15,1.321,0.41v1.175c-1.911,3.304-7.366,12.737-14.253,24.648H319.565z"/>
<g>
	<path style="fill:#EF5050;" d="M291.827,433.258c0,0,10.131-17.52,22.112-38.24l15.165,26.23l-14.526,25.124
		c-1.103,1.908-2.741,1.823-3.642-0.19l-3.153-7.059c-0.899-2.012-3.433-3.52-5.631-3.35l-8.335,0.644
		C291.619,436.588,290.724,435.166,291.827,433.258z"/>
	<path style="fill:#EF5050;" d="M343.589,395.726c-0.146-0.254-7.069-12.227-15.029-25.992
		c12.68-21.927,23.796-41.151,23.933-41.384c0.354,0.204,0.655,0.499,0.867,0.865c1.864,3.222,12.478,21.569,12.478,21.569
		c1.103,1.908,1.103,5.03,0,6.938l-22.111,38.24L343.589,395.726z"/>
</g>
<path style="fill:#FB8276;" d="M291.827,350.784c0,0,10.432-18.034,12.478-21.569c0.212-0.365,0.513-0.661,0.867-0.865
	c0.32,0.544,60.42,104.487,60.42,104.487c0.001,0,0.001,0,0.001,0l0.244,0.42c1.103,1.908,0.207,3.33-1.99,3.16l-8.335-0.644
	c-2.198-0.17-4.731,1.337-5.632,3.35l-3.154,7.059c-0.898,2.013-2.536,2.098-3.64,0.19l-4.535-7.844l-46.724-80.806
	C290.724,355.814,290.724,352.692,291.827,350.784z"/>
<g>
</g>
<g>
</g>
<g>
</g>
<g>
</g>
<g>
</g>
<g>
</g>
<g>
</g>
<g>
</g>
<g>
</g>
<g>
</g>
<g>
</g>
<g>
</g>
<g>
</g>
<g>
</g>
<g>
</g>
</svg>
