<?xml version="1.0" encoding="iso-8859-1"?>
<!-- Generator: Adobe Illustrator 19.0.0, SVG Export Plug-In . SVG Version: 6.00 Build 0)  -->
<svg version="1.1" id="Capa_1" xmlns="http://www.w3.org/2000/svg" xmlns:xlink="http://www.w3.org/1999/xlink" x="0px" y="0px"
	 viewBox="0 0 512 512" style="enable-background:new 0 0 512 512;" xml:space="preserve">
<path style="fill:#046699;" d="M493.457,262.647h-71.916c-8.005,2.824-16.401,4.31-24.971,4.31c-8.569,0-16.966-1.486-24.971-4.31
	h-27.552c-3.077,8.999-11.605,15.489-21.625,15.489H310.25c-0.4,0-0.761,0.238-0.919,0.605
	c-10.971,25.537-31.49,44.188-55.394,51.657v15.451h81.68c11.193,0,20.301,9.115,20.301,20.318v129.02
	c0,2.804-2.273,5.079-5.076,5.079h154.195c3.198,0,5.79-2.595,5.79-5.795V280.035C510.829,270.448,503.036,262.647,493.457,262.647z
	"/>
<g>
	<path style="fill:#48C1E1;" d="M100.152,11.731H7.502C3.359,11.731,0,15.09,0,19.233c0,4.144,3.359,7.502,7.502,7.502h38.822
		v24.264H61.33V26.736h38.823c4.144,0,7.503-3.359,7.503-7.502C107.655,15.09,104.296,11.731,100.152,11.731z"/>
	<path style="fill:#48C1E1;" d="M106.286,459.151H64.169c-1.504,0-2.775-1.275-2.775-2.784V237.118H46.389v219.249
		c0,9.809,7.976,17.789,17.78,17.789h42.117C106.286,474.156,106.286,459.151,106.286,459.151z"/>
</g>
<path style="fill:#08375E;" d="M492.873,309.725c-11.112-1.276-21.17,6.706-22.449,17.835c-0.025,0.224-2.823,22.957-12.017,44.891
	c-10.566,25.205-24.296,37.985-40.81,37.985c-17.351,0-30.812-9.283-41.151-28.379c-5.849-10.804-9.044-21.929-10.577-28.47
	c-1.268,5.16-5.933,9.007-11.491,9.008c0.208,1.162,0.336,2.353,0.336,3.574v55.619c16.534,19.202,37.907,29.218,62.883,29.218
	c23.648,0,56.41-10.905,78.188-62.859c11.552-27.556,14.777-54.806,14.909-55.952C511.972,321.064,503.994,311.005,492.873,309.725z
	"/>
<path style="fill:#FFC502;" d="M441.281,44.457h-24.362c-3.018-6.86-9.876-11.686-17.813-11.686H332.4
	c-10.701,0-19.458,8.764-19.458,19.475v95.769c0,0.25,0.028,0.494,0.038,0.743c0.801-46.088,37.906-70.149,83.591-70.149
	c44.216,0,80.397,22.541,83.403,65.775c0.147-1.368,0.227-2.755,0.227-4.16V83.408C480.2,61.985,462.686,44.457,441.281,44.457z"/>
<path style="opacity:0.1;enable-background:new    ;" d="M333.92,99.806v-47.56c0-10.71,8.757-19.475,19.458-19.475H332.4
	c-10.701,0-19.458,8.764-19.458,19.475v95.769c0,0.25,0.028,0.494,0.038,0.743C313.343,127.836,321.183,111.456,333.92,99.806z"/>
<path style="fill:#FFB98A;" d="M488.149,150.57H479.2v27.949c0,6.647-0.793,13.294-2.283,19.798h11.232
	c13.171,0,23.851-10.687,23.851-23.873C512,161.26,501.321,150.57,488.149,150.57z"/>
<path style="fill:#FFD5B3;" d="M396.57,77.566c-46.185,0-83.628,24.577-83.628,71.659v3.474c3.818,9.335,6.473,19.436,7.695,30.092
	c0.051,0.44,0.385,0.795,0.822,0.872c6.928,1.208,11.956,7.18,11.956,14.2v7.16c0,6.752-4.664,12.42-10.933,13.985
	c2.713,5.508,5.948,10.724,9.64,15.549c5.34,2.516,9.553,7.04,11.665,12.594c14.396,12.847,32.767,20.806,52.783,20.806
	c46.186,0,83.63-42.353,83.63-89.439v-29.293C480.2,102.143,442.756,77.566,396.57,77.566z"/>
<path style="fill:#FFB98A;" d="M396.57,266.957c-8.439,0-16.711-1.436-24.605-4.176v18.413c0,13.444,10.889,24.341,24.32,24.341
	c13.433,0,24.32-10.897,24.32-24.341V262.99C412.884,265.601,404.805,266.957,396.57,266.957z"/>
<path style="opacity:0.1;enable-background:new    ;" d="M333.95,178.52v-29.293c0-43.453,31.901-67.718,73.124-71.204
	c-3.443-0.291-6.943-0.455-10.504-0.455c-46.185,0-83.628,24.577-83.628,71.659v3.474c3.818,9.335,6.473,19.436,7.695,30.092
	c0.051,0.44,0.385,0.795,0.822,0.872c6.928,1.208,11.956,7.18,11.956,14.2v7.16c0,6.752-4.664,12.42-10.933,13.985
	c2.713,5.508,5.948,10.724,9.64,15.549c5.34,2.516,9.553,7.04,11.665,12.594c14.396,12.847,32.767,20.806,52.783,20.806
	c3.558,0,7.063-0.253,10.504-0.739C365.848,261.402,333.95,221.977,333.95,178.52z"/>
<g>
	<path style="fill:#775436;" d="M404.278,201.215h-9.699c-4.144,0-7.503-3.359-7.503-7.502v-20.38c0-4.143,3.359-7.502,7.503-7.502
		c4.143,0,7.502,3.359,7.502,7.502v12.878h2.196c4.144,0,7.503,3.359,7.503,7.503C411.781,197.856,408.422,201.215,404.278,201.215z
		"/>
	<path style="fill:#775436;" d="M353.657,181.203c-4.144,0-7.503-3.359-7.503-7.502v-12.515c0-4.144,3.359-7.502,7.503-7.502
		c4.144,0,7.503,3.359,7.503,7.502v12.515C361.16,177.844,357.801,181.203,353.657,181.203z"/>
	<path style="fill:#775436;" d="M438.914,181.203c-4.144,0-7.503-3.359-7.503-7.502v-12.515c0-4.144,3.359-7.502,7.503-7.502
		c4.143,0,7.502,3.359,7.502,7.502v12.515C446.416,177.844,443.058,181.203,438.914,181.203z"/>
	<path style="fill:#775436;" d="M396.286,242.158c-10.878,0-21.109-4.244-28.809-11.951c-2.928-2.932-2.926-7.682,0.005-10.61
		c2.932-2.928,7.682-2.926,10.61,0.005c4.864,4.869,11.326,7.551,18.193,7.551c6.868,0,13.33-2.682,18.195-7.551
		c2.93-2.931,7.68-2.933,10.61-0.004c2.932,2.928,2.934,7.679,0.005,10.61C417.396,237.914,407.165,242.158,396.286,242.158z"/>
</g>
<path style="fill:#A2DFF9;" d="M354.379,362.595c-4.14,0-7.91-2.111-10.086-5.647c-0.182-0.296-0.504-0.476-0.852-0.476
	c-0.347,0-0.669,0.18-0.852,0.476c-2.178,3.535-5.948,5.646-10.086,5.648l0,0l0,0l0,0c-4.14,0-7.911-2.112-10.087-5.648
	c-0.182-0.296-0.504-0.476-0.852-0.476c-0.347,0-0.669,0.18-0.852,0.476c-2.177,3.537-5.948,5.648-10.088,5.648
	c-6.528-0.001-11.839-5.298-11.839-11.809v-4.936H125.506c-11.193,0-20.301,9.115-20.301,20.318v129.02
	c0,2.804,2.273,5.079,5.076,5.079h240.562c2.803,0,5.076-2.274,5.076-5.079v-129.02c0-1.242-0.129-2.453-0.344-3.634
	C355.182,362.574,354.783,362.595,354.379,362.595z"/>
<g style="opacity:0.1;">
	<path d="M126.135,495.188v-129.02c0-11.204,9.108-20.318,20.301-20.318h-20.929c-11.193,0-20.301,9.115-20.301,20.318v129.02
		c0,2.804,2.273,5.079,5.076,5.079h20.929C128.408,500.267,126.135,497.993,126.135,495.188z"/>
</g>
<path style="fill:#FFB98A;" d="M230.562,334.008c-8.414,0-16.674-1.353-24.581-3.958v23.306c0,2.829,0.842,7.299,1.871,9.934
	l20.84,53.368c1.028,2.635,2.711,2.635,3.741,0l20.84-53.369c1.029-2.635,1.871-7.105,1.871-9.934v-23.305
	C247.235,332.655,238.977,334.008,230.562,334.008z"/>
<path style="fill:#FFD5B3;" d="M156.39,327.542c4.635,0,39.12-0.001,43.755,0c7.093,0,12.841,5.734,12.839,12.809l0.002,10.435
	c-0.002,7.075-5.749,12.807-12.841,12.809c-4.633,0-8.68-2.455-10.939-6.123c-2.258,3.667-6.305,6.122-10.937,6.124
	c-4.633,0-8.681-2.456-10.939-6.124c-2.258,3.669-6.304,6.124-10.94,6.124c-7.091-0.001-12.839-5.735-12.839-12.809v-10.435
	C143.552,333.277,149.299,327.541,156.39,327.542z"/>
<path style="fill:#89C947;" d="M208.128,96.149c7.18-2.053,14.694-3.15,22.434-3.15s15.253,1.097,22.434,3.15
	c7.066-6.988,11.537-17.206,11.537-28.578c0-2.37-1.92-4.292-4.286-4.292h-59.37c-2.368,0-4.287,1.922-4.287,4.292
	C196.591,78.944,201.061,89.162,208.128,96.149z"/>
<path style="opacity:0.1;enable-background:new    ;" d="M208.128,96.149c5.865-1.677,11.953-2.717,18.206-3.04
	c-5.46-6.761-8.795-15.718-8.795-25.538c0-2.37,1.919-4.292,4.287-4.292h-20.948c-2.368,0-4.287,1.922-4.287,4.292
	C196.591,78.944,201.061,89.162,208.128,96.149z"/>
<g>
	<path style="fill:#FFB98A;" d="M144.029,241.397v-10.008h-5.328c-13.174,0-23.854,10.688-23.854,23.873
		c0,13.185,10.68,23.875,23.854,23.875h13.309C146.831,267.207,144.029,254.299,144.029,241.397z"/>
	<path style="fill:#FFB98A;" d="M322.423,231.389h-5.328v10.008c0,12.902-2.802,25.811-7.982,37.74h13.31
		c13.172,0,23.854-10.69,23.854-23.875C346.277,242.077,335.595,231.389,322.423,231.389z"/>
</g>
<path style="fill:#FFD5B3;" d="M143.029,219.018v22.379c0,49.283,39.19,93.612,87.533,93.612s87.533-44.329,87.533-93.612v-22.379
	H143.029z"/>
<g style="opacity:0.1;">
	<path d="M164.102,241.397v-22.379h-21.073v22.379c0,49.283,39.19,93.612,87.533,93.612c3.566,0,7.082-0.248,10.537-0.714
		C197.725,328.435,164.102,287.043,164.102,241.397z"/>
</g>
<g>
	<path style="fill:#775436;" d="M231.004,279.279h-5.074c-4.144,0-7.503-3.359-7.503-7.502c0-4.144,3.359-7.502,7.503-7.502h2.647
		v-13.832c0-4.143,3.359-7.503,7.503-7.503c4.143,0,7.502,3.359,7.502,7.503v16.191
		C243.582,273.606,237.939,279.279,231.004,279.279z"/>
	<path style="fill:#775436;" d="M272.254,264.814c-4.144,0-7.502-3.359-7.502-7.503v-12.653c0-4.143,3.359-7.502,7.502-7.502
		s7.502,3.359,7.502,7.502v12.653C279.757,261.455,276.398,264.814,272.254,264.814z"/>
	<path style="fill:#775436;" d="M187.711,264.814c-4.144,0-7.502-3.359-7.502-7.503v-12.653c0-4.143,3.359-7.502,7.502-7.502
		c4.144,0,7.503,3.359,7.503,7.502v12.653C195.214,261.455,191.855,264.814,187.711,264.814z"/>
	<path style="fill:#775436;" d="M230.562,311.921c-11.292,0-21.913-4.405-29.906-12.405c-2.929-2.931-2.927-7.681,0.004-10.61
		s7.682-2.927,10.61,0.004c5.159,5.163,12.01,8.006,19.292,8.006s14.132-2.843,19.291-8.006c2.929-2.931,7.679-2.933,10.61-0.004
		c2.931,2.929,2.933,7.679,0.004,10.61C252.475,307.516,241.854,311.921,230.562,311.921z"/>
</g>
<path style="fill:#D5E962;" d="M142.126,183.981h176.872c0.96,0,1.896,0.101,2.809,0.27c-5.271-52.083-44.108-92.526-91.244-92.526
	c-47.137,0-85.974,40.443-91.245,92.526C140.23,184.082,141.166,183.981,142.126,183.981z"/>
<path style="opacity:0.1;enable-background:new    ;" d="M142.126,183.981h18.186c4.976-48.037,38.496-86.114,80.724-91.575
	c-3.438-0.444-6.931-0.681-10.474-0.681c-47.137,0-85.974,40.443-91.245,92.526C140.23,184.082,141.166,183.981,142.126,183.981z"/>
<path style="fill:#89C947;" d="M334.415,205.022c0,8.486-6.938,15.429-15.417,15.429H142.126c-8.479,0-15.417-6.943-15.417-15.429
	v-7.16c0-8.486,6.938-15.429,15.417-15.429h176.872c8.479,0,15.417,6.943,15.417,15.429L334.415,205.022L334.415,205.022z"/>
<g>
	<path style="fill:#48C1E1;" d="M163.79,389.54h-8.107c-4.144,0-7.502-3.359-7.502-7.502c0-4.144,3.359-7.503,7.502-7.503h8.107
		c4.144,0,7.503,3.359,7.503,7.503C171.293,386.181,167.934,389.54,163.79,389.54z"/>
	<path style="fill:#48C1E1;" d="M163.79,469.519h-8.107c-4.144,0-7.502-3.359-7.502-7.502s3.359-7.503,7.502-7.503h8.107
		c4.144,0,7.503,3.359,7.503,7.503C171.293,466.16,167.934,469.519,163.79,469.519z"/>
	<path style="fill:#48C1E1;" d="M205.483,434.745h-8.107c-4.144,0-7.503-3.359-7.503-7.502c0-4.144,3.359-7.503,7.503-7.503h8.107
		c4.144,0,7.502,3.359,7.502,7.503C212.986,431.386,209.627,434.745,205.483,434.745z"/>
	<path style="fill:#48C1E1;" d="M132.521,434.745h-8.107c-4.144,0-7.503-3.359-7.503-7.502c0-4.144,3.359-7.503,7.503-7.503h8.107
		c4.144,0,7.502,3.359,7.502,7.503C140.023,431.386,136.665,434.745,132.521,434.745z"/>
	<path style="fill:#48C1E1;" d="M301.208,389.54h-8.107c-4.144,0-7.502-3.359-7.502-7.502c0-4.144,3.359-7.503,7.502-7.503h8.107
		c4.144,0,7.502,3.359,7.502,7.503C308.71,386.181,305.352,389.54,301.208,389.54z"/>
</g>
<path style="fill:#FB8276;" d="M294.025,471.665c-0.997,0-1.935-0.389-2.641-1.093l-29.011-29.035
	c-3.497-3.501-5.422-8.162-5.422-13.123c0-4.96,1.926-9.621,5.422-13.122c3.503-3.505,8.159-5.436,13.113-5.436
	c4.953,0,9.609,1.93,13.111,5.436l5.534,5.538l5.534-5.538c3.501-3.505,8.157-5.436,13.11-5.436c4.954,0,9.61,1.93,13.111,5.436
	c3.502,3.504,5.431,8.166,5.431,13.122c0,4.957-1.929,9.617-5.433,13.123l-29.233,29.044
	C295.952,471.281,295.016,471.665,294.025,471.665z"/>
<path style="fill:#FFD5B3;" d="M310.625,327.542c4.635,0,39.12-0.001,43.754,0c7.094,0,12.842,5.734,12.839,12.809l0.003,10.435
	c-0.003,7.075-5.75,12.807-12.842,12.809c-4.633,0-8.68-2.455-10.938-6.123c-2.259,3.667-6.305,6.122-10.937,6.124
	c-4.634,0-8.681-2.456-10.939-6.124c-2.258,3.669-6.304,6.124-10.94,6.124c-7.091-0.001-12.839-5.735-12.839-12.809v-10.435
	C297.787,333.277,303.534,327.541,310.625,327.542z"/>
<g>
	<path style="fill:#A2DFF9;" d="M40.409,216.682v16.989c0,2.829,2.313,5.143,5.139,5.143h16.559c2.826,0,5.139-2.314,5.139-5.143
		v-16.989H40.409z"/>
	<path style="fill:#A2DFF9;" d="M85.083,72.316v-7.61c0-8.425-6.889-15.32-15.308-15.32H37.88c-8.419,0-15.309,6.895-15.309,15.32
		v7.61H85.083z"/>
</g>
<path style="fill:#48C1E1;" d="M103.822,71.229H3.833c-1.447,0-2.631,1.185-2.631,2.633v117.204c0,1.448,0.772,3.532,1.716,4.63
	l17.379,20.221c0.943,1.098,2.899,1.996,4.347,1.996h58.369c1.447,0,3.402-0.898,4.347-1.996l17.378-20.221
	c0.944-1.098,1.716-3.182,1.716-4.63V73.862C106.453,72.414,105.269,71.229,103.822,71.229z"/>
<rect x="1.202" y="99.919" style="fill:#E6E9ED;" width="105.25" height="79.83"/>
<g style="opacity:0.1;">
	<path d="M41.366,215.917l-17.378-20.221c-0.945-1.098-1.716-3.182-1.716-4.63V73.862c0-1.448,1.185-2.633,2.631-2.633H3.833
		c-1.447,0-2.631,1.185-2.631,2.633v117.204c0,1.448,0.772,3.532,1.716,4.63l17.379,20.221c0.943,1.098,2.899,1.996,4.347,1.996
		h21.069C44.266,217.912,42.309,217.014,41.366,215.917z"/>
</g>
<path style="fill:#A2DFF9;" d="M66.456,275.946H41.199c-4.144,0-7.502-3.359-7.502-7.503c0-4.143,3.359-7.502,7.502-7.502h25.257
	c4.143,0,7.502,3.359,7.502,7.502C73.958,272.587,70.599,275.946,66.456,275.946z"/>
<path style="fill:#368C0E;" d="M68.427,133.29H61.33v-7.109c0-4.144-3.359-7.502-7.502-7.502c-4.144,0-7.502,3.359-7.502,7.502
	v7.109h-7.097c-4.143,0-7.502,3.359-7.502,7.503c0,4.143,3.359,7.502,7.502,7.502h7.097v7.11c0,4.143,3.359,7.502,7.502,7.502
	c4.144,0,7.502-3.359,7.502-7.502v-7.11h7.098c4.144,0,7.503-3.359,7.503-7.502C75.93,136.649,72.571,133.29,68.427,133.29z"/>
<g style="opacity:0.1;">
	<path d="M147.658,205.022v-7.16c0-8.486,6.938-15.429,15.417-15.429h-20.949c-8.479,0-15.417,6.943-15.417,15.429v7.16
		c0,8.486,6.938,15.429,15.417,15.429h20.949C154.595,220.452,147.658,213.508,147.658,205.022z"/>
</g>
<g>
</g>
<g>
</g>
<g>
</g>
<g>
</g>
<g>
</g>
<g>
</g>
<g>
</g>
<g>
</g>
<g>
</g>
<g>
</g>
<g>
</g>
<g>
</g>
<g>
</g>
<g>
</g>
<g>
</g>
</svg>
