<?xml version="1.0" encoding="iso-8859-1"?>
<!-- Generator: Adobe Illustrator 19.0.0, SVG Export Plug-In . SVG Version: 6.00 Build 0)  -->
<svg version="1.1" id="Capa_1" xmlns="http://www.w3.org/2000/svg" xmlns:xlink="http://www.w3.org/1999/xlink" x="0px" y="0px"
	 viewBox="0 0 512 512" style="enable-background:new 0 0 512 512;" xml:space="preserve">
<path style="fill:#FFB98A;" d="M476.459,293.317h-13.935c-2.833,0-5.151,2.318-5.151,5.151v25.231h-41.251v18.69h41.251v-17.97
	c0-2.833,2.318-5.151,5.151-5.151h13.935c2.833,0,5.15,2.318,5.15,5.151v-25.952C481.609,295.635,479.292,293.317,476.459,293.317z"
	/>
<path style="fill:#FFD5B3;" d="M476.459,319.269h-13.935c-2.833,0-5.151,2.318-5.151,5.151v17.97h-41.251v29.518h65.487v-47.489
	C481.609,321.586,479.292,319.269,476.459,319.269z"/>
<path style="fill:#E6E9ED;" d="M211.29,124.999v16.65c0,2.833,2.317,5.151,5.15,5.151h83.858c2.833,0,5.151-2.318,5.151-5.151
	v-16.65H211.29z"/>
<path style="opacity:0.1;enable-background:new    ;" d="M232.924,141.649v-16.65H211.29v16.65c0,2.833,2.317,5.151,5.15,5.151
	h21.634C235.241,146.8,232.924,144.482,232.924,141.649z"/>
<path style="fill:#9EA7AF;" d="M162.254,429.185v35.325c0,2.833,2.317,5.151,5.15,5.151h239.79c2.833,0,5.15-2.318,5.15-5.151
	v-35.325H162.254z"/>
<path style="opacity:0.1;enable-background:new    ;" d="M194.432,464.51v-35.325h-32.178v35.325c0,2.833,2.317,5.151,5.15,5.151
	h32.178C196.75,469.661,194.432,467.343,194.432,464.51z"/>
<g>
	<path style="fill:#A2DFF9;" d="M79.123,403.091v27.186h355.055c5.666,0,10.303-4.636,10.303-10.302v-13.488
		c0-1.19-0.215-2.33-0.591-3.396H79.123z"/>
	<path style="fill:#A2DFF9;" d="M417.477,371.907v-61.708c0-2.833-2.317-5.151-5.15-5.151H238.505c-2.833,0-5.15,2.318-5.15,5.151
		v61.708L417.477,371.907L417.477,371.907z"/>
</g>
<path style="opacity:0.1;enable-background:new    ;" d="M254.97,371.907v-61.708c0-2.833,2.318-5.151,5.151-5.151h-21.616
	c-2.833,0-5.15,2.318-5.15,5.151v61.708L254.97,371.907L254.97,371.907z"/>
<path style="fill:#FFD5B3;" d="M320.022,348.416h-86.667v-38.217c0-0.855,0.231-1.651,0.603-2.362h-17.822
	c-6.884,0-13.217,2.346-18.258,6.272c0.013-0.389,0.029-0.776,0.029-1.167c0-21.208-17.192-38.4-38.399-38.4
	c-21.208,0-38.4,17.192-38.4,38.4c0,13.854,7.34,25.992,18.34,32.745l1.396,1h46.018c5.129,0,9.302,4.173,9.302,9.302v6.836
	c0,0.477-0.046,0.944-0.117,1.407c0.578,0.138,0.959,0.281,0.931,0.435c5.176,4.365,11.857,7,19.159,7h103.886
	c6.419,0,11.625-5.205,11.625-11.625C331.647,353.621,326.44,348.416,320.022,348.416z"/>
<path style="fill:#48C1E1;" d="M118.46,371.907h73.242c3.242-1.74,5.461-5.164,5.461-9.082v-6.836
	c0-5.666-4.636-10.302-10.302-10.302h-63.559c-5.666,0-10.302,4.636-10.302,10.302v6.836
	C113,366.744,115.219,370.167,118.46,371.907z"/>
<path style="opacity:0.1;enable-background:new    ;" d="M118.46,371.907h21.115c-3.242-1.74-5.461-5.164-5.461-9.082v-6.836
	c0-5.666,4.637-10.302,10.303-10.302h-21.115c-5.666,0-10.302,4.636-10.302,10.302v6.836
	C113,366.744,115.219,370.167,118.46,371.907z"/>
<path style="fill:#C5CCD3;" d="M501.698,370.616H79.123v34.092h422.575c5.666,0,10.302-4.636,10.302-10.302v-13.488
	C512,375.252,507.364,370.616,501.698,370.616z"/>
<g>
	<path style="fill:#FCDB67;" d="M258.364,221.587c-16.946,0-33.217-5.36-45.819-15.093c-3.277-2.532-3.883-7.242-1.351-10.52
		c2.532-3.279,7.243-3.883,10.52-1.351c9.989,7.715,23.005,11.964,36.649,11.964c0.002,0,0.003,0,0.005,0
		c13.648-0.001,26.666-4.249,36.655-11.964c3.274-2.529,7.987-1.928,10.52,1.352c2.532,3.278,1.927,7.988-1.352,10.52
		c-12.601,9.731-28.874,15.091-45.823,15.092C258.368,221.587,258.365,221.587,258.364,221.587z"/>
	<path style="fill:#FCDB67;" d="M258.369,252.167c-23.839,0-47.19-7.015-65.754-19.753c-3.416-2.343-4.284-7.012-1.941-10.427
		c2.344-3.416,7.011-4.286,10.428-1.941c16.091,11.04,36.429,17.121,57.268,17.121c20.84,0,41.178-6.081,57.269-17.121
		c3.416-2.344,8.085-1.475,10.428,1.941c2.343,3.415,1.475,8.084-1.941,10.427C305.56,245.152,282.208,252.167,258.369,252.167z"/>
</g>
<path style="fill:#FFC502;" d="M258.368,191.008c-10.518,0-20.371-4.518-26.358-12.086c-2.57-3.248-2.02-7.965,1.229-10.535
	c3.247-2.569,7.964-2.021,10.535,1.229c3.167,4.002,8.623,6.392,14.595,6.392c5.974,0,11.43-2.389,14.596-6.391
	c2.569-3.249,7.286-3.799,10.534-1.229c3.249,2.57,3.8,7.287,1.23,10.535C278.742,186.49,268.889,191.008,258.368,191.008z"/>
<path style="fill:#A2DFF9;" d="M191.717,92.199v28.847c0,2.833,2.317,5.151,5.15,5.151h123.004c2.833,0,5.151-2.318,5.151-5.151
	V92.199H191.717z"/>
<path style="opacity:0.1;enable-background:new    ;" d="M224.064,121.045V92.199h-32.348v28.847c0,2.833,2.317,5.151,5.15,5.151
	h32.348C226.383,126.196,224.064,123.878,224.064,121.045z"/>
<path style="fill:#E6E9ED;" d="M5,469.661c-2.762,0-5-2.239-5-5V52.184c0-5.429,4.417-9.846,9.846-9.846H334.77
	c5.429,0,9.846,4.417,9.846,9.846v31.508c0,5.429-4.417,9.846-9.846,9.846H117.169c-20.088,0-36.431,16.343-36.431,36.431v334.692
	c0,2.761-2.238,5-5,5H5z"/>
<path style="fill:#F7931E;" d="M315.896,74.976h-2.564c-4.142,0-7.5-3.358-7.5-7.5s3.358-7.5,7.5-7.5h2.564
	c4.143,0,7.5,3.358,7.5,7.5C323.396,71.618,320.038,74.976,315.896,74.976z"/>
<path style="fill:#368C0E;" d="M292.381,74.976h-2.564c-4.143,0-7.5-3.358-7.5-7.5s3.357-7.5,7.5-7.5h2.564
	c4.143,0,7.5,3.358,7.5,7.5C299.881,71.618,296.523,74.976,292.381,74.976z"/>
<path style="fill:#EF5050;" d="M268.865,74.976h-2.563c-4.143,0-7.5-3.358-7.5-7.5s3.357-7.5,7.5-7.5h2.563
	c4.143,0,7.5,3.358,7.5,7.5C276.365,71.618,273.008,74.976,268.865,74.976z"/>
<path style="fill:#775436;" d="M172.394,306.382c-1.232,0-2.482-0.304-3.636-0.945l-6.093-3.385
	c-3.62-2.011-4.925-6.578-2.914-10.198c2.012-3.622,6.576-4.926,10.199-2.914l6.093,3.385c3.62,2.011,4.925,6.578,2.914,10.198
	C177.586,304.99,175.029,306.382,172.394,306.382z"/>
<g>
</g>
<g>
</g>
<g>
</g>
<g>
</g>
<g>
</g>
<g>
</g>
<g>
</g>
<g>
</g>
<g>
</g>
<g>
</g>
<g>
</g>
<g>
</g>
<g>
</g>
<g>
</g>
<g>
</g>
</svg>
