<?xml version="1.0" encoding="iso-8859-1"?>
<!-- Generator: Adobe Illustrator 19.0.0, SVG Export Plug-In . SVG Version: 6.00 Build 0)  -->
<svg version="1.1" id="Capa_1" xmlns="http://www.w3.org/2000/svg" xmlns:xlink="http://www.w3.org/1999/xlink" x="0px" y="0px"
	 viewBox="0 0 512 512" style="enable-background:new 0 0 512 512;" xml:space="preserve">
<g>
	<path style="fill:#A2DFF9;" d="M176.067,471.095H161.11c-0.008,0-0.015-0.002-0.022-0.002V504.5c0,4.142,3.357,7.5,7.5,7.5
		c4.143,0,7.5-3.358,7.5-7.5v-33.405C176.08,471.094,176.075,471.095,176.067,471.095z"/>
	<rect x="156.11" y="408.996" style="fill:#A2DFF9;" width="24.958" height="40.904"/>
</g>
<path style="fill:#046699;" d="M193.135,395.76h-17.047v-18.768h-15.001v18.768h-17.046c-4.143,0-7.5,3.358-7.5,7.5
	s3.357,7.5,7.5,7.5h49.094c4.143,0,7.5-3.358,7.5-7.5S197.279,395.76,193.135,395.76z"/>
<path style="fill:#FCDB67;" d="M156.11,448.608v19.1c0,2.75,2.25,5,5,5h14.957c2.75,0,5-2.25,5-5v-19.1H156.11z"/>
<g>
	<path style="fill:#48C1E1;" d="M142.507,356.99v16.685c0,2.772,2.27,5.04,5.042,5.04h42.079c2.773,0,5.041-2.268,5.041-5.04V356.99
		H142.507z"/>
	<path style="fill:#48C1E1;" d="M146.264,74.972c-0.617-0.836-0.994-1.858-0.994-2.97V59.586c0-2.772,2.269-5.041,5.042-5.041
		h36.965c2.773,0,5.042,2.269,5.042,5.041v12.416c0,1.112-0.377,2.134-0.994,2.97h38.221V60.773
		c0-16.362-13.389-29.749-29.753-29.749h-61.996c-16.364,0-29.756,13.387-29.756,29.749v14.199H146.264z"/>
</g>
<path style="opacity:0.1;enable-background:new    ;" d="M158.997,31.024h-21.199c-16.364,0-29.756,13.387-29.756,29.749v14.199
	h21.199V60.773C129.241,44.411,142.633,31.024,158.997,31.024z"/>
<rect x="161.29" y="13.968" style="fill:#9EA7AF;" width="15.001" height="40.577"/>
<g>
	<path style="fill:#A2DFF9;" d="M66.503,306.134c0,2.812,1.501,6.856,3.337,8.99l33.778,39.264c1.834,2.132,5.637,3.876,8.45,3.876
		h113.454c2.813,0,6.613-1.744,8.45-3.876l33.778-39.264c1.833-2.132,3.334-6.177,3.334-8.99v-35.846H66.503V306.134z"/>
	<path style="fill:#A2DFF9;" d="M265.971,73.438H71.619c-2.813,0-5.115,2.3-5.115,5.113v86.398h204.582V78.551
		C271.085,75.738,268.784,73.438,265.971,73.438z"/>
</g>
<g>
	<path style="fill:#FFB98A;" d="M84.914,270.287v31.107c0,1.664,0.889,4.056,1.973,5.317l26.543,30.851
		c1.084,1.261,3.333,2.293,4.997,2.293h100.735c1.664,0,3.914-1.032,4.998-2.293l26.541-30.851c1.084-1.261,1.973-3.654,1.973-5.317
		v-31.107H84.914z"/>
	<path style="fill:#FFB98A;" d="M252.675,164.949v-33.713c0-1.663-1.361-3.024-3.025-3.024H87.941c-1.664,0-3.025,1.361-3.025,3.024
		v33.713H252.675z"/>
</g>
<rect x="66.504" y="163.951" style="fill:#48C1E1;" width="109.337" height="107.337"/>
<rect x="174.671" y="163.951" style="fill:#FCDB67;" width="96.416" height="107.337"/>
<path style="fill:#FFFFFF;" d="M112.069,248.331c-1.586,0-2.872-1.287-2.872-2.868v-17.55H91.631c-1.586,0-2.872-1.288-2.872-2.869
	v-14.852c0-1.581,1.286-2.869,2.872-2.869h17.565v-17.55c0-1.582,1.286-2.869,2.872-2.869h14.863c1.581,0,2.871,1.287,2.871,2.869
	v17.55h17.566c1.583,0,2.871,1.287,2.871,2.869v14.852c0,1.581-1.288,2.869-2.871,2.869h-17.566v17.55
	c0,1.581-1.29,2.868-2.871,2.868L112.069,248.331L112.069,248.331z"/>
<g style="opacity:0.1;">
	<path d="M135.082,354.387l-33.779-39.264c-1.835-2.132-3.336-6.177-3.336-8.99V78.551c0-2.813,2.303-5.113,5.115-5.113H71.619
		c-2.813,0-5.115,2.3-5.115,5.113v227.583c0,2.812,1.501,6.856,3.337,8.99l33.778,39.264c1.834,2.132,5.637,3.876,8.45,3.876h31.462
		C140.719,358.263,136.915,356.519,135.082,354.387z"/>
</g>
<g>
	<path style="fill:#FFFFFF;" d="M246.392,203.318h-47.173c-4.143,0-7.5-3.358-7.5-7.5c0-4.142,3.357-7.5,7.5-7.5h47.173
		c4.143,0,7.5,3.358,7.5,7.5S250.535,203.318,246.392,203.318z"/>
	<path style="fill:#FFFFFF;" d="M246.392,225.119h-47.173c-4.143,0-7.5-3.358-7.5-7.5c0-4.142,3.357-7.5,7.5-7.5h47.173
		c4.143,0,7.5,3.358,7.5,7.5C253.892,221.76,250.535,225.119,246.392,225.119z"/>
	<path style="fill:#FFFFFF;" d="M221.191,246.918h-21.972c-4.143,0-7.5-3.358-7.5-7.5c0-4.142,3.357-7.5,7.5-7.5h21.972
		c4.143,0,7.5,3.358,7.5,7.5S225.334,246.918,221.191,246.918z"/>
</g>
<g>
	<rect x="369.084" y="13.968" style="fill:#9EA7AF;" width="36.819" height="60.474"/>
	<path style="fill:#9EA7AF;" d="M369.087,129.705v377.182c0,2.811,2.301,5.112,5.112,5.112h26.595c2.813,0,5.112-2.301,5.112-5.112
		V129.705H369.087z"/>
</g>
<path style="fill:#48C1E1;" d="M413.066,125.664c0,2.772-2.269,5.041-5.042,5.041h-41.055c-2.772,0-5.041-2.269-5.041-5.041V78.479
	c0-2.772,2.269-5.04,5.041-5.04h41.055c2.773,0,5.042,2.268,5.042,5.04V125.664z"/>
<g style="opacity:0.1;">
	<path d="M382.622,125.664V78.479c0-2.772,2.268-5.04,5.041-5.04H366.97c-2.772,0-5.041,2.268-5.041,5.04v47.185
		c0,2.772,2.269,5.041,5.041,5.041h20.693C384.89,130.705,382.622,128.436,382.622,125.664z"/>
</g>
<path style="fill:#E6E9ED;" d="M437.996,15.001H119.029c-4.143,0-7.5-3.358-7.5-7.5s3.357-7.5,7.5-7.5h318.968
	c4.143,0,7.5,3.358,7.5,7.5S442.138,15.001,437.996,15.001z"/>
<g>
</g>
<g>
</g>
<g>
</g>
<g>
</g>
<g>
</g>
<g>
</g>
<g>
</g>
<g>
</g>
<g>
</g>
<g>
</g>
<g>
</g>
<g>
</g>
<g>
</g>
<g>
</g>
<g>
</g>
</svg>
