<?xml version="1.0" encoding="iso-8859-1"?>
<!-- Generator: Adobe Illustrator 19.0.0, SVG Export Plug-In . SVG Version: 6.00 Build 0)  -->
<svg version="1.1" id="Capa_1" xmlns="http://www.w3.org/2000/svg" xmlns:xlink="http://www.w3.org/1999/xlink" x="0px" y="0px"
	 viewBox="0 0 512 512" style="enable-background:new 0 0 512 512;" xml:space="preserve">
<path style="fill:#89C947;" d="M496.547,29.979H99.294c-8.499,0-15.453,6.954-15.453,15.453v121.991h1.258
	c0.276,0,0.54-0.114,0.729-0.316c0.189-0.201,0.286-0.471,0.269-0.746c-0.036-0.575-0.06-1.153-0.06-1.736
	c0-15.327,12.598-27.796,28.082-27.796c15.485,0,28.083,12.469,28.083,27.796c0,0.583-0.025,1.162-0.06,1.736
	c-0.017,0.275,0.08,0.545,0.269,0.746s0.453,0.316,0.729,0.316h35.407c1.843,0,3.342,1.5,3.342,3.344v5.087c0,0.552,0.448,1,1,1
	h41.007c1.843,0,3.342,1.499,3.342,3.342v198.353h269.309c8.499,0,15.453-6.954,15.453-15.453V45.432
	C512,36.933,505.046,29.979,496.547,29.979z"/>
<path style="opacity:0.1;enable-background:new    ;" d="M85.099,167.423c0.276,0,0.54-0.114,0.729-0.316
	c0.189-0.201,0.286-0.471,0.269-0.746c-0.036-0.575-0.06-1.153-0.06-1.736c0-12.153,7.923-22.502,18.923-26.27V45.432
	c0-8.499,6.954-15.453,15.453-15.453H99.294c-8.499,0-15.453,6.954-15.453,15.453v121.991H85.099z"/>
<g>
	<path style="fill:#E6E9ED;" d="M333.855,208.583c0,2.833-2.318,5.151-5.151,5.151h-61.566c-2.833,0-5.151-2.318-5.151-5.151V187.62
		c0-2.833,2.318-5.151,5.151-5.151h61.566c2.833,0,5.151,2.318,5.151,5.151V208.583z"/>
	<path style="fill:#E6E9ED;" d="M339.668,332.714h-83.494c-2.833,0-5.151,2.318-5.151,5.151v40.682h93.796v-40.682
		C344.819,335.033,342.501,332.714,339.668,332.714z"/>
</g>
<path style="fill:#FFFFFF;" d="M191.451,65.769c-5.666,0-8.559,4.296-6.43,9.547l28.092,69.268
	c2.129,5.251,8.507,9.547,14.173,9.547h141.269c5.666,0,12.044-4.296,14.174-9.547l28.092-69.268
	c2.129-5.251-0.764-9.547-6.43-9.547H191.451z"/>
<g style="opacity:0.1;">
	<path d="M234.313,144.583l-28.092-69.268c-2.129-5.251,0.764-9.547,6.43-9.547h-21.2c-5.666,0-8.559,4.296-6.43,9.547
		l28.092,69.268c2.129,5.251,8.507,9.547,14.173,9.547h21.2C242.82,154.131,236.442,149.835,234.313,144.583z"/>
</g>
<g>
	<path style="fill:#E6E9ED;" d="M220.175,86.984c4.142,0,7.5-3.358,7.5-7.5V65.769h-15v13.716
		C212.675,83.627,216.033,86.984,220.175,86.984z"/>
	<path style="fill:#E6E9ED;" d="M246.09,86.984c4.142,0,7.5-3.358,7.5-7.5V65.769h-15v13.716
		C238.59,83.627,241.948,86.984,246.09,86.984z"/>
	<path style="fill:#E6E9ED;" d="M272.005,86.984c4.142,0,7.5-3.358,7.5-7.5V65.769h-15v13.716
		C264.505,83.627,267.863,86.984,272.005,86.984z"/>
	<path style="fill:#E6E9ED;" d="M297.92,86.984c4.142,0,7.5-3.358,7.5-7.5V65.769h-15v13.716
		C290.42,83.627,293.778,86.984,297.92,86.984z"/>
	<path style="fill:#E6E9ED;" d="M323.836,86.984c4.142,0,7.5-3.358,7.5-7.5V65.769h-15v13.716
		C316.336,83.627,319.694,86.984,323.836,86.984z"/>
	<path style="fill:#E6E9ED;" d="M349.751,86.984c4.142,0,7.5-3.358,7.5-7.5V65.769h-15v13.716
		C342.251,83.627,345.609,86.984,349.751,86.984z"/>
	<path style="fill:#E6E9ED;" d="M375.666,86.984c4.142,0,7.5-3.358,7.5-7.5V65.769h-15v13.716
		C368.166,83.627,371.524,86.984,375.666,86.984z"/>
</g>
<path style="fill:#C0272D;" d="M297.92,136.001c3.865,0,7.598,0.553,11.139,1.56l-8.098-32.239
	c-0.554-2.204-1.577-3.321-3.041-3.321s-2.487,1.118-3.041,3.321l-8.098,32.239C290.323,136.553,294.056,136.001,297.92,136.001z"/>
<path style="fill:#C5CCD3;" d="M263.299,154.131h69.243c-7.168-11.593-19.991-19.32-34.622-19.32
	C283.29,134.811,270.467,142.538,263.299,154.131z"/>
<g>
	<path style="fill:#046699;" d="M142.202,164.624c0,0.583-0.025,1.162-0.06,1.736c-0.017,0.275,0.08,0.545,0.269,0.746
		s0.453,0.316,0.729,0.316h35.407c1.843,0,3.342,1.5,3.342,3.344v5.087c0,0.552,0.448,1,1,1h20.747
		c-0.296-1.996-0.845-4.171-1.478-5.647L158.682,69.761c-0.94-2.195-3.665-3.992-6.054-3.992h-21.711
		c-2.389,0-4.343,1.954-4.343,4.343v69.609C135.826,144.273,142.202,153.723,142.202,164.624z"/>
	<path style="fill:#046699;" d="M437.336,69.761c0.941-2.195,3.666-3.992,6.054-3.992h21.711c2.389,0,4.343,1.954,4.343,4.343
		v308.436h-77.295V179.538c0-2.388,0.77-6.139,1.71-8.333L437.336,69.761z"/>
</g>
<path style="fill:#C6A07D;" d="M223.896,175.853h-42.007v23.618c0,1.843-1.5,3.342-3.342,3.342H49.692
	c-1.843,0-3.343-1.499-3.343-3.342v-23.618H4.343c-2.389,0-4.343,1.954-4.343,4.342v297.484c0,2.389,1.955,4.343,4.343,4.343
	h219.553c2.388,0,4.342-1.955,4.342-4.343V180.195C228.239,177.807,226.284,175.853,223.896,175.853z"/>
<path style="fill:#FFFFFF;" d="M204.02,194.176h-22.131v5.294c0,1.843-1.5,3.342-3.342,3.342H49.692
	c-1.843,0-3.343-1.499-3.343-3.342v-5.294h-22.13c-1.433,0-2.606,1.172-2.606,2.604v259.176c0,1.432,1.173,2.605,2.606,2.605H204.02
	c1.433,0,2.605-1.173,2.605-2.605V196.781C206.625,195.349,205.453,194.176,204.02,194.176z"/>
<path style="opacity:0.1;enable-background:new    ;" d="M34.923,455.957V196.781c0-1.433,1.173-2.604,2.606-2.604h-13.31
	c-1.433,0-2.606,1.172-2.606,2.604v259.176c0,1.432,1.173,2.605,2.606,2.605h13.31C36.096,458.563,34.923,457.389,34.923,455.957z"
	/>
<path style="fill:#FCDB67;" d="M143.046,167.611c0.102-0.982,0.156-1.978,0.156-2.987c0-15.903-13.021-28.796-29.083-28.796
	c-16.061,0-29.082,12.894-29.082,28.796c0,1.009,0.053,2.005,0.156,2.987H143.046z"/>
<path style="fill:#FFC502;" d="M182.889,199.471c0,2.387-1.954,4.342-4.342,4.342H49.692c-2.389,0-4.343-1.955-4.343-4.342v-28.704
	c0-2.389,1.954-4.344,4.343-4.344h128.854c2.389,0,4.342,1.955,4.342,4.344v28.704H182.889z"/>
<g style="opacity:0.1;">
	<path d="M77.779,199.471v-28.704c0-2.389,1.954-4.344,4.342-4.344H49.692c-2.389,0-4.343,1.955-4.343,4.344v28.704
		c0,2.387,1.954,4.342,4.343,4.342h32.429C79.733,203.813,77.779,201.857,77.779,199.471z"/>
</g>
<g>
	<path style="fill:#C5CCD3;" d="M107.426,245.62H45.764c-4.142,0-7.5-3.358-7.5-7.5s3.358-7.5,7.5-7.5h61.662
		c4.142,0,7.5,3.358,7.5,7.5C114.926,242.262,111.568,245.62,107.426,245.62z"/>
	<path style="fill:#C5CCD3;" d="M107.426,264.227H45.764c-4.142,0-7.5-3.358-7.5-7.5c0-4.142,3.358-7.5,7.5-7.5h61.662
		c4.142,0,7.5,3.358,7.5,7.5C114.926,260.868,111.568,264.227,107.426,264.227z"/>
	<path style="fill:#C5CCD3;" d="M107.426,282.835H45.764c-4.142,0-7.5-3.358-7.5-7.5s3.358-7.5,7.5-7.5h61.662
		c4.142,0,7.5,3.358,7.5,7.5S111.568,282.835,107.426,282.835z"/>
</g>
<circle style="fill:#D5E962;" cx="155.37" cy="256.73" r="27.1"/>
<g>
	<path style="fill:#89C947;" d="M155.372,291.33c-19.08,0-34.603-15.523-34.603-34.604c0-19.08,15.523-34.603,34.603-34.603
		s34.604,15.523,34.604,34.603C189.976,275.807,174.452,291.33,155.372,291.33z M155.372,237.124
		c-10.809,0-19.603,8.794-19.603,19.603c0,10.81,8.794,19.604,19.603,19.604c10.81,0,19.604-8.794,19.604-19.604
		C174.976,245.918,166.181,237.124,155.372,237.124z"/>
	<path style="fill:#89C947;" d="M152.963,269.875c-3.032,0-6.063-1.153-8.371-3.46l-4.901-4.901
		c-2.929-2.929-2.928-7.678,0.001-10.607c2.929-2.928,7.677-2.928,10.607,0l2.666,2.667l6.875-6.876
		c2.929-2.93,7.678-2.93,10.606-0.001c2.929,2.929,2.93,7.677,0.001,10.606l-9.108,9.109
		C159.029,268.721,155.995,269.875,152.963,269.875z"/>
</g>
<g>
	<path style="fill:#C5CCD3;" d="M107.426,322.227H45.764c-4.142,0-7.5-3.358-7.5-7.5s3.358-7.5,7.5-7.5h61.662
		c4.142,0,7.5,3.358,7.5,7.5S111.568,322.227,107.426,322.227z"/>
	<path style="fill:#C5CCD3;" d="M107.426,340.835H45.764c-4.142,0-7.5-3.358-7.5-7.5s3.358-7.5,7.5-7.5h61.662
		c4.142,0,7.5,3.358,7.5,7.5S111.568,340.835,107.426,340.835z"/>
	<path style="fill:#C5CCD3;" d="M107.426,359.441H45.764c-4.142,0-7.5-3.358-7.5-7.5s3.358-7.5,7.5-7.5h61.662
		c4.142,0,7.5,3.358,7.5,7.5C114.926,356.085,111.568,359.441,107.426,359.441z"/>
</g>
<circle style="fill:#D5E962;" cx="155.37" cy="333.33" r="27.1"/>
<g>
	<path style="fill:#89C947;" d="M155.372,367.938c-19.08,0-34.603-15.523-34.603-34.604c0-19.08,15.523-34.603,34.603-34.603
		s34.604,15.523,34.604,34.603C189.976,352.415,174.452,367.938,155.372,367.938z M155.372,313.731
		c-10.809,0-19.603,8.794-19.603,19.603c0,10.81,8.794,19.604,19.603,19.604c10.81,0,19.604-8.794,19.604-19.604
		C174.976,322.525,166.181,313.731,155.372,313.731z"/>
	<path style="fill:#89C947;" d="M152.963,346.484c-3.033,0-6.064-1.154-8.373-3.463l-4.899-4.898
		c-2.929-2.929-2.929-7.678-0.001-10.607c2.929-2.929,7.677-2.929,10.607,0l2.666,2.666l6.876-6.876
		c2.929-2.929,7.678-2.93,10.606,0c2.929,2.929,2.929,7.677,0,10.606l-9.108,9.108C159.03,345.329,155.996,346.484,152.963,346.484z
		"/>
</g>
<g>
	<path style="fill:#C5CCD3;" d="M107.426,398.835H45.764c-4.142,0-7.5-3.358-7.5-7.5s3.358-7.5,7.5-7.5h61.662
		c4.142,0,7.5,3.358,7.5,7.5S111.568,398.835,107.426,398.835z"/>
	<path style="fill:#C5CCD3;" d="M107.426,417.441H45.764c-4.142,0-7.5-3.358-7.5-7.5s3.358-7.5,7.5-7.5h61.662
		c4.142,0,7.5,3.358,7.5,7.5C114.926,414.085,111.568,417.441,107.426,417.441z"/>
	<path style="fill:#C5CCD3;" d="M107.426,436.05H45.764c-4.142,0-7.5-3.358-7.5-7.5s3.358-7.5,7.5-7.5h61.662
		c4.142,0,7.5,3.358,7.5,7.5C114.926,432.692,111.568,436.05,107.426,436.05z"/>
</g>
<circle style="fill:#FB8276;" cx="155.37" cy="409.94" r="27.1"/>
<path style="fill:#EF5050;" d="M155.372,444.546c-19.08,0-34.603-15.523-34.603-34.604c0-19.08,15.523-34.602,34.603-34.602
	s34.604,15.522,34.604,34.602C189.976,429.022,174.452,444.546,155.372,444.546z M155.372,390.339
	c-10.809,0-19.603,8.793-19.603,19.602c0,10.81,8.794,19.604,19.603,19.604c10.81,0,19.604-8.794,19.604-19.604
	C174.976,399.132,166.181,390.339,155.372,390.339z"/>
<g>
</g>
<g>
</g>
<g>
</g>
<g>
</g>
<g>
</g>
<g>
</g>
<g>
</g>
<g>
</g>
<g>
</g>
<g>
</g>
<g>
</g>
<g>
</g>
<g>
</g>
<g>
</g>
<g>
</g>
</svg>
