<?xml version="1.0" encoding="iso-8859-1"?>
<!-- Generator: Adobe Illustrator 19.0.0, SVG Export Plug-In . SVG Version: 6.00 Build 0)  -->
<svg version="1.1" id="Capa_1" xmlns="http://www.w3.org/2000/svg" xmlns:xlink="http://www.w3.org/1999/xlink" x="0px" y="0px"
	 viewBox="0 0 511.999 511.999" style="enable-background:new 0 0 511.999 511.999;" xml:space="preserve">
<path style="fill:#FB8276;" d="M390.573,215.852c-0.179-0.309-0.509-0.499-0.866-0.499c-0.356,0-0.686,0.19-0.865,0.499
	l-24.419,42.254c-0.684,1.183-1.51,1.86-2.266,1.86c-0.801,0-1.602-0.763-2.195-2.093l-5.403-12.1
	c-1.62-3.623-5.906-6.354-9.971-6.354c-0.223,0-0.445,0.009-0.666,0.025l-14.279,1.103c-0.178,0.014-0.351,0.021-0.517,0.021
	c-1.194,0-2.052-0.347-2.415-0.976c-0.396-0.688-0.228-1.768,0.463-2.964l37.416-64.731c0.179-0.31,0.179-0.691,0-1.001
	l-25.01-43.272c-5.911-1.235-11.991-1.886-18.173-1.886c-23.42,0-45.434,9.084-61.983,25.578l-26.167,26.055l-26.162-26.055
	c-16.558-16.494-38.571-25.578-61.987-25.578c-23.419,0-45.431,9.084-61.989,25.578c-16.535,16.473-25.641,38.405-25.641,61.745
	c0,23.346,9.105,45.278,25.641,61.754l52.38,52.179c1.509-9.315,9.572-16.457,19.291-16.457c10.792,0,19.572,8.792,19.572,19.599
	v21.223c0,0.405,0.244,0.77,0.618,0.924c0.123,0.052,0.253,0.076,0.382,0.076c0.261,0,0.517-0.102,0.708-0.293l82.33-82.455
	c2.228-2.232,5.206-3.462,8.382-3.462c3.177,0,6.154,1.23,8.384,3.464l3.992,3.999c4.622,4.63,4.622,12.163,0,16.793l-63.155,63.249
	c-0.39,0.39-0.39,1.022,0,1.413l4.809,4.818c0.188,0.188,0.442,0.293,0.708,0.293c0.266,0,0.52-0.105,0.707-0.293l71.584-71.692
	c2.229-2.233,5.205-3.462,8.382-3.462s6.154,1.229,8.383,3.462l3.994,4.001c4.624,4.63,4.624,12.164,0,16.795l-71.586,71.689
	c-0.391,0.39-0.391,1.022,0,1.413l4.811,4.817c0.188,0.188,0.442,0.293,0.708,0.293c0.266,0,0.52-0.105,0.707-0.293l71.586-71.693
	c2.23-2.231,5.206-3.461,8.383-3.461s6.153,1.229,8.383,3.46l2.47,2.476l43.357-42.874c9.888-9.848,17.098-21.64,21.323-34.501
	L390.573,215.852z"/>
<g style="opacity:0.1;">
	<path d="M174.979,352.283c0.123,0.052,0.253,0.076,0.382,0.076c0.261,0,0.517-0.102,0.708-0.293l8.51-8.523l-10.218-10.179v17.995
		C174.361,351.764,174.605,352.129,174.979,352.283z"/>
	<path d="M151.714,310.804l-36.128-35.988c-16.534-16.476-25.641-38.408-25.641-61.754c0-23.34,9.106-45.273,25.641-61.745
		c12.664-12.615,28.521-20.876,45.755-24.074c-5.301-0.983-10.726-1.504-16.234-1.504c-23.419,0-45.431,9.084-61.989,25.578
		c-16.535,16.473-25.641,38.405-25.641,61.745c0,23.346,9.105,45.278,25.641,61.754l52.38,52.179
		C136.844,318.684,143.41,312.127,151.714,310.804z"/>
</g>
<path style="fill:#FFD5B3;" d="M206.774,508.242l-84.946-85.066c-4.997-5.008-4.997-13.197,0-18.208l12.395-12.414v-62.416
	c0-11.375,9.211-20.6,20.566-20.6c11.362,0,20.572,9.225,20.572,20.599v21.223l82.33-82.455c5-5.007,13.182-5.007,18.182,0.002
	l3.991,3.999c4.999,5.007,4.999,13.199,0,18.206L216.71,354.36l4.809,4.818l71.584-71.692c4.997-5.007,13.181-5.007,18.179,0
	l3.995,4.001c5.001,5.008,5,13.201,0,18.208l-71.587,71.69l4.812,4.817l71.586-71.693c4.999-5.005,13.18-5.005,18.18-0.001
	l3.993,4.001c5,5.003,5,13.196,0,18.206l-71.588,71.692l4.811,4.815l59.302-59.386c4.999-5.01,13.182-5.01,18.18,0l3.991,3.998
	c5.001,5.008,5.001,13.197,0,18.207l-132.004,132.2C219.954,513.252,211.773,513.252,206.774,508.242z"/>
<g style="opacity:0.1;">
	<path d="M353.251,354.122L224.953,482.61c-4.999,5.011-13.18,5.011-18.179,0l-81.239-81.354l-3.707,3.712
		c-4.997,5.011-4.997,13.2,0,18.208l84.946,85.066c4.999,5.01,13.18,5.01,18.179,0l132.004-132.2c5.001-5.01,5.001-13.199,0-18.207
		L353.251,354.122z"/>
</g>
<path style="fill:#48C1E1;" d="M194.179,207.691c0-1.626-1.329-2.956-2.952-2.956h-24.796c-1.624,0-2.952-1.33-2.952-2.955v-24.671
	c0-1.625-1.329-2.955-2.952-2.955h-24.796c-1.624,0-2.952,1.33-2.952,2.955v24.671c0,1.625-1.329,2.955-2.952,2.955h-24.795
	c-1.624,0-2.952,1.33-2.952,2.956v24.671c0,1.625,1.328,2.955,2.952,2.955h24.795c1.623,0,2.952,1.33,2.952,2.955v24.671
	c0,1.625,1.328,2.955,2.952,2.955h24.796c1.623,0,2.952-1.33,2.952-2.955v-24.671c0-1.625,1.328-2.955,2.952-2.955h24.796
	c1.623,0,2.952-1.33,2.952-2.955V207.691z"/>
<path style="fill:#FFC502;" d="M227.823,137.159c-1.568,0-2.934-1.076-3.293-2.599c-6.034-25.553-10.037-29.54-35.689-35.551
	c-1.528-0.359-2.608-1.717-2.608-3.281c0-1.564,1.08-2.923,2.608-3.281c25.651-6.011,29.654-9.998,35.689-35.551
	c0.359-1.523,1.725-2.599,3.293-2.599c1.57,0,2.935,1.076,3.295,2.599c6.034,25.553,10.036,29.54,35.688,35.551
	c1.527,0.358,2.608,1.717,2.608,3.281c0,1.564-1.081,2.922-2.608,3.281c-25.652,6.011-29.654,9.998-35.688,35.551
	C230.757,136.083,229.393,137.159,227.823,137.159z"/>
<path style="fill:#FFFFFF;" d="M183.44,39.586c-1.15,1.146-3.034,1.146-4.184,0L161.91,22.307c-1.151-1.146-1.151-3.022,0-4.169
	l17.346-17.279c1.15-1.145,3.034-1.145,4.184,0l17.346,17.279c1.151,1.146,1.151,3.022,0,4.169L183.44,39.586z"/>
<path style="fill:#FFC502;" d="M183.44,39.586c-1.15,1.146-3.034,1.146-4.184,0L161.91,22.307c-1.151-1.146-1.151-3.022,0-4.169
	l17.346-17.279c1.15-1.145,3.034-1.145,4.184,0l17.346,17.279c1.151,1.146,1.151,3.022,0,4.169L183.44,39.586z"/>
<path style="fill:#FFFFFF;" d="M141.357,75.771c-1.151,1.146-3.034,1.146-4.186,0l-12.389-12.342c-1.151-1.146-1.151-3.023,0-4.169
	l12.389-12.341c1.151-1.147,3.034-1.147,4.186-0.001l12.391,12.342c1.15,1.146,1.15,3.023,0,4.169L141.357,75.771z"/>
<path style="fill:#FFC502;" d="M141.357,75.771c-1.151,1.146-3.034,1.146-4.186,0l-12.389-12.342c-1.151-1.146-1.151-3.023,0-4.169
	l12.389-12.341c1.151-1.147,3.034-1.147,4.186-0.001l12.391,12.342c1.15,1.146,1.15,3.023,0,4.169L141.357,75.771z"/>
<path style="fill:#046699;" d="M373.83,100.739c-11.681-20.207-22.039-38.126-24.9-43.071v-1.189
	c0.661-0.447,1.443-0.703,2.266-0.703h77.024c0.825,0,1.609,0.257,2.266,0.703v2.015c-3.273,5.661-12.617,21.83-24.419,42.246
	L373.83,100.739L373.83,100.739z"/>
<g>
	<path style="fill:#A2DFF9;" d="M326.308,236.129c0,0,17.357-30.029,37.884-65.542l25.982,44.957l-24.887,43.064
		c-1.89,3.269-4.698,3.123-6.239-0.325l-5.403-12.1c-1.542-3.448-5.882-6.032-9.647-5.74l-14.279,1.103
		C325.953,241.836,324.419,239.399,326.308,236.129z"/>
	<path style="fill:#A2DFF9;" d="M414.991,171.801c-0.252-0.437-12.114-20.959-25.751-44.551
		c21.723-37.583,40.77-70.534,41.002-70.933c0.607,0.349,1.122,0.855,1.486,1.481c3.193,5.522,21.376,36.971,21.376,36.971
		c1.891,3.27,1.891,8.621,0,11.892l-37.882,65.543L414.991,171.801z"/>
</g>
<path style="fill:#48C1E1;" d="M326.308,94.769c0,0,17.873-30.912,21.377-36.971c0.364-0.626,0.879-1.132,1.486-1.481
	c0.548,0.933,103.516,179.09,103.516,179.09c0,0.001,0,0.001,0.002,0.002l0.415,0.72c1.891,3.27,0.356,5.707-3.408,5.416
	l-14.281-1.103c-3.766-0.292-8.105,2.292-9.648,5.74l-5.402,12.1c-1.539,3.448-4.349,3.594-6.237,0.325l-7.769-13.445
	l-80.05-138.501C324.419,103.39,324.419,98.039,326.308,94.769z"/>
<g style="opacity:0.1;">
	<path d="M423.085,245.804L333.287,90.429c-0.833-1.438-1.334-3.236-1.513-5.11c-3.139,5.428-5.466,9.45-5.466,9.45
		c-1.89,3.27-1.89,8.621,0,11.892l80.05,138.501l7.769,13.445c1.889,3.269,4.698,3.123,6.237-0.325l4.328-9.693L423.085,245.804z"/>
</g>
<g>
</g>
<g>
</g>
<g>
</g>
<g>
</g>
<g>
</g>
<g>
</g>
<g>
</g>
<g>
</g>
<g>
</g>
<g>
</g>
<g>
</g>
<g>
</g>
<g>
</g>
<g>
</g>
<g>
</g>
</svg>
