<svg height="512pt" viewBox="0 -35 512.00126 512" width="512pt" xmlns="http://www.w3.org/2000/svg"><path d="m371.816406 301.792969c-29.535156-.398438-54.285156-10.167969-74.269531-24.660157l-5.667969 89.082032c-3.378906 40.78125 28.808594 75.746094 69.730469 75.746094h130.382813c12.097656 0 21.433593-10.660157 19.828124-22.652344-15.867187-118.480469-30.84375-232.980469-103.261718-280.972656-8.664063-5.746094-18.851563-8.773438-29.25-8.773438-27.628906 0-71.289063 21.1875-73.570313 48.722656l-3.351562 40.433594c16.347656 18.699219 40.066406 37.253906 70.042969 37.65625z" fill="#cf4842"/><path d="m491.992188 441.960938c12.097656 0 21.433593-10.660157 19.828124-22.652344-15.867187-118.480469-30.84375-232.980469-103.261718-280.976563-8.667969-5.742187-18.851563-8.769531-29.25-8.769531-7.363282 0-15.871094 1.507812-24.425782 4.238281 2.929688 1.246094 5.75 2.757813 8.429688 4.535157 72.414062 47.992187 87.390625 162.492187 103.257812 280.972656 1.609376 11.992187-7.730468 22.652344-19.828124 22.652344zm0 0" fill="#a83a36"/><path d="m139.878906 302.828125h.320313c29.535156-.398437 54.273437-14.449219 74.253906-28.9375l5.671875 92.320313c3.378906 40.785156-28.8125 75.75-69.734375 75.75h-130.378906c-12.101563 0-21.4375-10.660157-19.832031-22.652344 15.867187-118.480469 30.84375-232.980469 103.261718-280.976563 8.667969-5.742187 18.851563-8.769531 29.25-8.769531 27.628906 0 71.289063 21.183594 73.570313 48.71875l3.351562 40.4375c-16.34375 18.699219-40.0625 37.25-70.039062 37.65625l.625 46.453125" fill="#cf4842"/><g fill="#a83a36"><path d="m.179688 419.308594c15.867187-118.480469 30.84375-232.980469 103.261718-280.976563 8.667969-5.742187 18.851563-8.769531 29.25-8.769531 7.367188 0 15.871094 1.507812 24.425782 4.238281-2.929688 1.246094-5.75 2.757813-8.425782 4.535157-72.417968 47.992187-87.394531 162.492187-103.261718 280.972656-1.605469 11.992187 7.734374 22.652344 19.828124 22.652344h-45.246093c-12.097657 0-21.4375-10.660157-19.832031-22.652344zm0 0"/><path d="m159.4375 279.601562c0-25.089843-8.894531-45.425781-19.871094-45.425781-10.976562 0-19.875 20.335938-19.875 45.425781 0 25.085938 8.898438 45.421876 19.875 45.421876 10.976563 0 19.871094-20.335938 19.871094-45.421876zm0 0"/><path d="m392.300781 279.601562c0-25.089843-8.894531-45.425781-19.871093-45.425781-10.976563 0-19.875 20.335938-19.875 45.425781 0 25.085938 8.898437 45.421876 19.875 45.421876 10.976562 0 19.871093-20.335938 19.871093-45.421876zm0 0"/></g><path d="m379.347656 225.140625c1.117188-4.128906-1.324218-8.378906-5.453125-9.496094-4.128906-1.113281-8.378906 1.324219-9.496093 5.453125-5.148438 19.050782-21.113282 22.183594-25.167969 22.660156-.378907.046876-.761719.035157-1.136719-.015624l-1.59375-.222657c-5.023438-.703125-9.828125-2.605469-13.867188-5.675781-17.769531-13.496094-30.757812-31.492188-38.324218-43.777344-3.703125-6.007812-5.625-12.941406-5.625-20 0-28.777344 0-111.085937 0-151.34375 0-12.550781-10.175782-22.722656-22.726563-22.722656h-1.003906c-12.550781 0-22.726563 10.175781-22.726563 22.726562v151.429688c0 7.046875-1.933593 13.957031-5.628906 19.957031-4.335937 7.046875-10.464844 15.976563-18.273437 24.863281-6.539063 7.441407-13.265625 13.773438-20.15625 19.003907-4.386719 3.328125-9.65625 5.28125-15.148438 5.675781l-.359375.027344c-1.015625.070312-2.039062.03125-3.039062-.152344-5.566406-1.011719-19.015625-5.246094-23.664063-22.429688-1.113281-4.128906-5.363281-6.570312-9.496093-5.457031-4.125 1.117188-6.566407 5.371094-5.453126 9.496094 4.441407 16.429687 14.589844 24.949219 23.117188 29.339844-2.140625.488281-4.292969.90625-6.457031 1.207031-5.234375.71875-9.15625 5.144531-9.121094 10.425781l.125 18.574219c.066406 10.273438 9.300781 18.105469 19.429687 16.40625.0625-.011719.125-.019531.1875-.03125.117188 5.375-.488281 27.910156-18.308593 32.164062-4.027344.960938-6.792969 4.894532-6.050781 8.964844.691406 3.78125 3.972656 6.367188 7.613281 6.367188.578125 0 1.160156-.066406 1.746093-.199219 26.324219-6.078125 31.402344-35.011719 30.410157-49.464844 0-.003906-.003907-.007812-.003907-.011719-.058593-.875.449219-1.675781 1.28125-1.945312 26.058594-8.414062 47.078126-24.710938 63.089844-41.628906 9.4375-9.96875 25.347656-9.957032 34.785156.011718 15.90625 16.796876 36.746094 32.980469 62.554688 41.441407.832031.269531 1.347656 1.078125 1.265625 1.949219-.003906.058593-.007813.125-.011719.1875-.996094 14.449218 4.082032 43.386718 30.40625 49.460937.585938.132813 1.171875.199219 1.746094.199219 3.644531 0 6.925781-2.585938 7.613281-6.367188.742188-4.066406-2.015625-8-6.042969-8.960937-17.929687-4.273438-18.4375-27.0625-18.316406-32.269531.300782.054687.617188.105468.949219.15625 10.066406 1.574218 19.15625-6.246094 19.222656-16.433594l.125-18.578125c.035157-5.238281-3.816406-9.695313-9.003906-10.410157-2.363281-.324218-4.679687-.765624-6.953125-1.304687 8.492188-4.417969 18.53125-12.933594 22.941406-29.25zm0 0" fill="#e0726e"/></svg>