<?xml version="1.0" encoding="iso-8859-1"?>
<!-- Generator: Adobe Illustrator 19.0.0, SVG Export Plug-In . SVG Version: 6.00 Build 0)  -->
<svg version="1.1" id="Capa_1" xmlns="http://www.w3.org/2000/svg" xmlns:xlink="http://www.w3.org/1999/xlink" x="0px" y="0px"
	 viewBox="0 0 512 512" style="enable-background:new 0 0 512 512;" xml:space="preserve">
<path style="fill:#FCDB67;" d="M134.373,467.355c0,13.131-10.633,23.775-23.75,23.775H44.53c-13.119,0-23.754-10.645-23.752-23.775
	l0,0c0-13.132,10.633-23.777,23.752-23.776h66.092C123.74,443.577,134.373,454.223,134.373,467.355L134.373,467.355z"/>
<path style="fill:#E6E9ED;" d="M77.576,443.578H44.53c-13.119-0.001-23.752,10.645-23.752,23.776
	C20.776,480.485,31.41,491.13,44.53,491.13h33.047L77.576,443.578L77.576,443.578z"/>
<g style="opacity:0.1;">
	<path d="M65.303,491.13c-13.119,0-23.754-10.645-23.752-23.775c0-13.132,10.633-23.777,23.752-23.776H44.53
		c-13.119-0.001-23.752,10.645-23.752,23.776c-0.002,13.13,10.632,23.775,23.752,23.775H65.303z"/>
</g>
<rect x="241.76" y="276" style="fill:#C6A07D;" width="99.98" height="35.32"/>
<rect x="241.76" y="276" style="opacity:0.1;enable-background:new    ;" width="31.697" height="35.32"/>
<g>
	<path style="fill:#775436;" d="M195.143,494.701c0,3.242,2.65,5.893,5.889,5.893h181.443c3.236,0,5.885-2.651,5.885-5.893v-49.894
		H195.143V494.701z"/>
	<path style="fill:#775436;" d="M364.811,310.069H218.694c-12.951,0-23.551,10.607-23.551,23.573v31.11H388.36v-31.11
		C388.36,320.676,377.764,310.069,364.811,310.069z"/>
</g>
<g>
	<path style="fill:#E6E9ED;" d="M233.219,404.78c0-15.482,6.01-29.552,15.809-40.028h-53.885v80.055h53.884
		C239.229,434.333,233.219,420.263,233.219,404.78z"/>
	<path style="fill:#E6E9ED;" d="M334.479,364.753c9.799,10.475,15.809,24.545,15.809,40.028c0,15.482-6.01,29.552-15.809,40.027
		h53.881v-80.055L334.479,364.753L334.479,364.753z"/>
</g>
<g style="opacity:0.1;">
	<path d="M221.682,494.701V333.642c0-12.966,10.6-23.573,23.551-23.573h-26.539c-12.951,0-23.551,10.607-23.551,23.573v161.059
		c0,3.242,2.65,5.893,5.889,5.893h26.539C224.332,500.595,221.682,497.943,221.682,494.701z"/>
</g>
<path style="fill:#F7931E;" d="M373.203,272.38c0,2.792-2.283,5.075-5.074,5.075H215.377c-2.791,0-5.076-2.283-5.076-5.075v-41.342
	c0-2.792,2.285-5.076,5.076-5.076h152.752c2.791,0,5.074,2.284,5.074,5.076V272.38z"/>
<g style="opacity:0.1;">
	<path d="M242.006,272.38v-41.342c0-2.792,2.283-5.076,5.074-5.076h-31.703c-2.791,0-5.076,2.284-5.076,5.076v41.342
		c0,2.792,2.285,5.075,5.076,5.075h31.703C244.289,277.456,242.006,275.172,242.006,272.38z"/>
</g>
<ellipse style="fill:#FFC502;" cx="291.75" cy="404.78" rx="58.53" ry="58.59"/>
<g style="opacity:0.1;">
	<path d="M254.34,404.78c0-28.747,20.691-52.643,47.975-57.624c-3.428-0.625-6.953-0.969-10.563-0.969
		c-32.326,0-58.533,26.233-58.533,58.592s26.207,58.592,58.533,58.592c3.609,0,7.135-0.344,10.563-0.969
		C275.032,457.423,254.34,433.528,254.34,404.78z"/>
</g>
<g>
	<path style="fill:#775436;" d="M317.52,400.493h-51.535c-4.143,0-7.5-3.357-7.5-7.5c0-4.142,3.357-7.5,7.5-7.5h51.535
		c4.143,0,7.5,3.358,7.5,7.5C325.02,397.136,321.662,400.493,317.52,400.493z"/>
	<path style="fill:#775436;" d="M309.942,425.246h-36.377c-4.143,0-7.5-3.357-7.5-7.5c0-4.142,3.357-7.5,7.5-7.5h36.377
		c4.143,0,7.5,3.358,7.5,7.5C317.442,421.889,314.084,425.246,309.942,425.246z"/>
</g>
<g>
	<path style="fill:#FFC502;" d="M162.86,391.716c0,11.664-9.441,21.118-21.096,21.118h-10.791c-11.654,0-21.1-9.454-21.1-21.118l0,0
		c0-11.662,9.445-21.118,21.1-21.118h10.791C153.418,370.598,162.86,380.054,162.86,391.716L162.86,391.716z"/>
	<path style="fill:#FFC502;" d="M87.401,330.138c8.24,8.247,8.24,21.618,0,29.865l-7.633,7.641c-8.238,8.247-21.594,8.247-29.834,0
		l0,0c-8.238-8.247-8.238-21.618,0.002-29.865l7.631-7.641C65.807,321.891,79.164,321.891,87.401,330.138L87.401,330.138z"/>
</g>
<path style="fill:#E6E9ED;" d="M505.044,184.036c9.275,9.285,9.275,24.34,0,33.624l-46.737,46.781
	c-9.275,9.284-24.314,9.286-33.59,0l0,0c-9.275-9.285-9.275-24.339,0-33.624l46.734-46.781
	C480.726,174.751,495.767,174.751,505.044,184.036L505.044,184.036z"/>
<path style="fill:#48C1E1;" d="M448.084,207.426l-23.367,23.391c-9.275,9.285-9.275,24.339,0,33.624
	c9.275,9.286,24.314,9.284,33.59,0l23.37-23.391L448.084,207.426z"/>
<g style="opacity:0.1;">
	<path d="M437.684,251.474c-9.275-9.285-9.275-24.339,0-33.624l-12.967,12.967c-9.275,9.285-9.275,24.339,0,33.624
		c9.275,9.286,24.314,9.284,33.59,0l12.84-12.852C461.864,260.751,446.918,260.718,437.684,251.474z"/>
</g>
<path style="fill:#E6E9ED;" d="M446.578,158.049c0,13.13-10.635,23.775-23.754,23.775H356.73c-13.117,0-23.752-10.645-23.752-23.775
	l0,0c0-13.132,10.635-23.777,23.752-23.775h66.094C435.944,134.272,446.578,144.918,446.578,158.049L446.578,158.049z"/>
<path style="fill:#48C1E1;" d="M389.778,134.273l-33.047,0.001c-13.117-0.002-23.752,10.644-23.752,23.775
	c0,13.13,10.635,23.775,23.752,23.775l33.047,0.001V134.273z"/>
<g style="opacity:0.1;">
	<path d="M377.949,181.825c-13.117,0-23.75-10.645-23.75-23.775c0-13.132,10.633-23.777,23.75-23.775H356.73
		c-13.117-0.002-23.752,10.644-23.752,23.775c0,13.13,10.635,23.775,23.752,23.775H377.949z"/>
</g>
<path style="fill:#FFC502;" d="M451.121,369.753c-20.442,0.01-37.007-16.554-36.998-36.999c0.01-20.444,16.592-37.027,37.036-37.037
	c20.445-0.009,37.01,16.556,36.999,36.999C488.15,353.162,471.568,369.745,451.121,369.753z"/>
<path style="fill:#FCDB67;" d="M430.826,301.815c-4.216,2.778-7.829,6.391-10.607,10.607l51.235,51.236
	c4.216-2.778,7.829-6.391,10.607-10.606L430.826,301.815z"/>
<g>
	<polygon style="fill:#E6E9ED;" points="254.632,102.393 292.057,64.932 272.698,45.553 235.274,83.015 	"/>
	<path style="fill:#E6E9ED;" d="M78.964,226.353l-15.005,15.021c-1.973,1.975-1.973,5.206,0,7.182l25.297,25.322
		c1.973,1.975,5.201,1.975,7.174,0l15.006-15.021L78.964,226.353z"/>
</g>
<path style="fill:#9EA7AF;" d="M106.135,253.551l-13.293,13.305l-5.633-5.64l13.291-13.305L89.9,237.3l-13.293,13.305l-5.635-5.641
	l13.291-13.306l-10.6-10.611l-15.012,15.025c-4.896,4.902-4.896,12.879,0,17.783l7.354,7.361l-63.81,63.876
	c-2.928,2.931-2.926,7.68,0.004,10.607c1.465,1.463,3.383,2.193,5.301,2.193c1.922,0,3.842-0.733,5.307-2.199l63.802-63.865
	l7.344,7.35c2.371,2.373,5.527,3.681,8.891,3.681c3.365,0,6.521-1.308,8.893-3.681l15.002-15.015L106.135,253.551z"/>
<path style="fill:#E6E9ED;" d="M195.239,87.459L70.203,212.619c-1.973,1.975-1.973,5.206,0,7.181l47.779,47.827
	c1.973,1.975,5.201,1.975,7.174,0l125.036-125.158L195.239,87.459z"/>
<path style="fill:#A2DFF9;" d="M159.041,123.693l-88.838,88.926c-1.973,1.975-1.973,5.206,0,7.181l47.779,47.827
	c1.973,1.975,5.201,1.975,7.174,0l88.849-88.936L159.041,123.693z"/>
<path style="opacity:0.1;enable-background:new    ;" d="M209.581,101.817l-14.343-14.358L70.203,212.619
	c-1.973,1.975-1.973,5.206,0,7.181l14.35,14.35c-1.973-1.975-1.973-5.206,0-7.181L209.581,101.817z"/>
<path style="fill:#C5CCD3;" d="M180.041,74.847c-1.973-1.975-1.973-5.206,0-7.181l17.873-17.891c1.973-1.975,5.201-1.975,7.176,0
	l82.748,82.833c1.973,1.975,1.973,5.206,0,7.181l-17.873,17.891c-1.973,1.975-5.201,1.975-7.174,0L180.041,74.847z"/>
<g style="opacity:0.1;">
	<path d="M196.588,91.393c-1.973-1.975-1.973-5.206,0-7.182l17.873-17.89c1.943-1.947,5.104-1.966,7.084-0.073L205.09,49.775
		c-1.975-1.975-5.203-1.975-7.176,0l-17.873,17.891c-1.973,1.975-1.973,5.206,0,7.181L196.588,91.393z"/>
</g>
<path style="fill:#C5CCD3;" d="M256.426,31.725c-1.975-1.975-1.975-5.206,0-7.181l11.645-11.657
	c1.975-1.975,5.203-1.975,7.176,0.001L324.69,62.38c1.973,1.975,1.973,5.207,0,7.182l-11.646,11.657
	c-1.973,1.975-5.199,1.975-7.174,0L256.426,31.725z"/>
<g style="opacity:0.1;">
	<path d="M269.465,44.764c-1.973-1.975-1.973-5.206,0-7.181l11.647-11.656c1.951-1.952,5.123-1.967,7.102-0.059l-12.967-12.98
		c-1.973-1.976-5.201-1.976-7.176-0.001l-11.645,11.657c-1.975,1.975-1.975,5.206,0,7.181L269.465,44.764z"/>
</g>
<g>
	<path style="fill:#48C1E1;" d="M139.182,228.366c-2.93-2.929-7.678-2.929-10.607,0c-2.928,2.929-2.928,7.678,0,10.607l12.611,12.61
		l10.602-10.612L139.182,228.366z"/>
	<path style="fill:#48C1E1;" d="M158.723,208.826c-2.93-2.929-7.678-2.929-10.607,0c-2.928,2.929-2.928,7.678,0,10.606l12.602,12.6
		l10.602-10.611L158.723,208.826z"/>
	<path style="fill:#48C1E1;" d="M178.262,189.286c-2.928-2.93-7.676-2.929-10.605,0c-2.93,2.929-2.93,7.678,0,10.606l12.592,12.59
		l10.6-10.611L178.262,189.286z"/>
</g>
<g>
</g>
<g>
</g>
<g>
</g>
<g>
</g>
<g>
</g>
<g>
</g>
<g>
</g>
<g>
</g>
<g>
</g>
<g>
</g>
<g>
</g>
<g>
</g>
<g>
</g>
<g>
</g>
<g>
</g>
</svg>
