<?xml version="1.0" encoding="iso-8859-1"?>
<!-- Generator: Adobe Illustrator 19.0.0, SVG Export Plug-In . SVG Version: 6.00 Build 0)  -->
<svg version="1.1" id="Capa_1" xmlns="http://www.w3.org/2000/svg" xmlns:xlink="http://www.w3.org/1999/xlink" x="0px" y="0px"
	 viewBox="0 0 512.001 512.001" style="enable-background:new 0 0 512.001 512.001;" xml:space="preserve">
<path style="fill:#FFB98A;" d="M268.867,424.893h116.71c0.012-0.283,0.043-0.561,0.043-0.847v-1.395
	c0-11.332-9.271-20.604-20.604-20.604H277.63c-11.332,0-27.361-6.349-35.619-14.108l-16.161-15.184h-15.722
	c-0.265,0-0.52,0.105-0.707,0.293s-0.293,0.442-0.293,0.708c0.004,8.38,3.438,16.703,8.965,21.719l25.365,23.026
	C251.702,422.32,261.39,424.893,268.867,424.893z"/>
<path style="fill:#FFAB7D;" d="M292.794,445.15h152.201v-1.165c0-11.332-9.271-20.604-20.604-20.604H268.867
	c-8.633,0-20.213-3.426-29.11-8.242l24.206,21.974C272.837,441.818,284.261,445.15,292.794,445.15z"/>
<path style="fill:#FFB98A;" d="M448.317,443.763H292.794c-9.985,0-23.941-4.556-33.121-10.545l19.63,17.819
	c8.569,7.779,24.957,14.107,36.531,14.107h119.192c10.81,0,19.603,8.794,19.603,19.604v5.863
	c8.268-2.683,14.291-10.467,14.291-19.599v-6.647C468.921,453.035,459.649,443.763,448.317,443.763z"/>
<path style="fill:#FFD5B3;" d="M435.026,464.146H315.834c-11.332,0-27.469-6.231-35.859-13.848l-61.208-55.563
	c-5.559-5.046-8.633-13.135-8.637-20.979h83.64c11.332,0,20.604-9.271,20.604-20.603v-4.875c0-11.332-9.271-20.604-20.604-20.604
	h-84.72h-46.746H58.842c-11.332,0-20.604,9.272-20.604,20.604v73.996c0,11.332,9.271,20.604,20.604,20.604h11.964
	c11.332,0,29.213,3.444,39.733,7.652l134.546,53.819c10.521,4.208,28.402,7.652,39.734,7.652h150.207
	c11.332,0,20.603-9.272,20.603-20.603v-6.647C455.63,473.418,446.358,464.146,435.026,464.146z"/>
<g style="opacity:0.1;">
	<path d="M68.508,426.014V348.73c0-10.324,7.369-19.005,17.105-21.057H58.842c-11.332,0-20.604,9.272-20.604,20.604v73.996
		c0,11.332,9.271,20.604,20.604,20.604h11.964c1.934,0,4.067,0.107,6.313,0.294C71.907,439.235,68.508,433.01,68.508,426.014z"/>
</g>
<g>
	<path style="fill:#FFC502;" d="M430.136,371.96c-1.646,0-3.078-1.128-3.455-2.723c-6.33-26.775-10.529-30.952-37.438-37.251
		c-1.603-0.375-2.735-1.798-2.735-3.437s1.133-3.063,2.735-3.438c26.908-6.298,31.107-10.477,37.438-37.251
		c0.377-1.595,1.809-2.722,3.455-2.722c1.647,0,3.077,1.127,3.455,2.722c6.33,26.774,10.529,30.953,37.437,37.251
		c1.603,0.375,2.736,1.799,2.736,3.438c0,1.639-1.134,3.062-2.736,3.437c-26.907,6.299-31.106,10.476-37.437,37.251
		C433.213,370.832,431.782,371.96,430.136,371.96z"/>
	<path style="fill:#FFC502;" d="M138.582,204.495c-1.646,0-3.077-1.127-3.455-2.723c-6.33-26.775-10.528-30.951-37.438-37.25
		c-1.603-0.376-2.735-1.799-2.735-3.438c0-1.638,1.133-3.063,2.735-3.438c26.909-6.298,31.107-10.476,37.438-37.251
		c0.378-1.595,1.809-2.723,3.455-2.723c1.647,0,3.078,1.128,3.456,2.723c6.328,26.775,10.527,30.952,37.436,37.251
		c1.602,0.375,2.737,1.799,2.737,3.438s-1.135,3.063-2.737,3.438c-26.908,6.299-31.107,10.475-37.436,37.25
		C141.66,203.368,140.229,204.495,138.582,204.495z"/>
</g>
<path style="fill:#C0272D;" d="M260.335,68.621c-17.834-30.838-33.65-58.186-38.018-65.733V1.071C223.323,0.391,224.519,0,225.774,0
	H343.38c1.258,0,2.455,0.393,3.461,1.073v3.073c-5,8.641-19.27,33.318-37.287,64.475H260.335z"/>
<g>
	<path style="fill:#EF5050;" d="M187.78,275.246c0,0,26.5-45.828,57.84-100.027l39.672,68.612l-38,65.72
		c-2.887,4.991-7.172,4.769-9.525-0.495l-8.25-18.464c-2.351-5.264-8.979-9.207-14.729-8.763l-21.803,1.685
		C187.235,283.957,184.894,280.237,187.78,275.246z"/>
	<path style="fill:#EF5050;" d="M323.181,177.07c-0.385-0.664-18.496-31.984-39.316-67.991
		C317.032,51.722,346.112,1.436,346.47,0.826c0.926,0.533,1.713,1.306,2.267,2.263c4.877,8.427,32.637,56.421,32.637,56.421
		c2.887,4.991,2.887,13.158,0,18.149l-57.838,100.028L323.181,177.07z"/>
</g>
<path style="fill:#FB8276;" d="M187.78,59.51c0,0,27.285-47.175,32.637-56.421c0.555-0.956,1.342-1.729,2.268-2.262
	c0.838,1.424,158.051,273.318,158.051,273.318c0.002,0.002,0.002,0.003,0.004,0.003l0.635,1.098
	c2.887,4.991,0.543,8.711-5.205,8.267l-21.803-1.685c-5.75-0.444-12.377,3.499-14.73,8.763l-8.25,18.464
	c-2.352,5.264-6.637,5.486-9.523,0.495l-11.863-20.518L187.78,77.659C184.894,72.668,184.894,64.501,187.78,59.51z"/>
<g style="opacity:0.1;">
	<path d="M335.538,290.012L198.43,52.887c-1.27-2.195-2.034-4.939-2.308-7.799c-4.791,8.282-8.342,14.422-8.342,14.422
		c-2.887,4.991-2.887,13.158,0,18.149l122.219,211.373l11.863,20.518c2.887,4.991,7.172,4.769,9.523-0.495l6.609-14.793
		L335.538,290.012z"/>
</g>
<g>
</g>
<g>
</g>
<g>
</g>
<g>
</g>
<g>
</g>
<g>
</g>
<g>
</g>
<g>
</g>
<g>
</g>
<g>
</g>
<g>
</g>
<g>
</g>
<g>
</g>
<g>
</g>
<g>
</g>
</svg>
