<?xml version="1.0" encoding="iso-8859-1"?>
<!-- Generator: Adobe Illustrator 19.0.0, SVG Export Plug-In . SVG Version: 6.00 Build 0)  -->
<svg version="1.1" id="Capa_1" xmlns="http://www.w3.org/2000/svg" xmlns:xlink="http://www.w3.org/1999/xlink" x="0px" y="0px"
	 viewBox="0 0 512 512" style="enable-background:new 0 0 512 512;" xml:space="preserve">
<path style="fill:#C6A07D;" d="M417.122,65.908h-61.923v35.587c0,2.289-1.862,4.151-4.151,4.151H160.952
	c-2.288,0-4.151-1.862-4.151-4.151V65.908H94.878c-2.833,0-5.151,2.318-5.151,5.151v435.79c0,2.833,2.318,5.151,5.151,5.151h322.243
	c2.833,0,5.151-2.318,5.151-5.151V71.059C422.272,68.226,419.955,65.908,417.122,65.908z"/>
<path style="opacity:0.1;enable-background:new    ;" d="M114.85,506.849V71.059c0-2.833,2.318-5.151,5.151-5.151H94.878
	c-2.833,0-5.151,2.318-5.151,5.151v435.79c0,2.833,2.318,5.151,5.151,5.151h25.123C117.169,512,114.85,509.682,114.85,506.849z"/>
<path style="fill:#FFFFFF;" d="M387.691,92.605h-32.493v8.89c0,2.289-1.862,4.151-4.151,4.151H160.952
	c-2.288,0-4.151-1.862-4.151-4.151v-8.89h-32.492c-1.7,0-3.091,1.391-3.091,3.091v379.032c0,1.699,1.391,3.09,3.091,3.09h263.382
	c1.699,0,3.09-1.391,3.09-3.09V95.696C390.783,93.997,389.391,92.605,387.691,92.605z"/>
<path style="fill:#FFC502;" d="M305.866,53.523c0.105-1.312,0.174-2.634,0.174-3.973C306.04,22.185,283.636,0,256,0
	s-50.04,22.185-50.04,49.55c0,1.339,0.069,2.661,0.174,3.973H305.866z"/>
<path style="opacity:0.1;enable-background:new    ;" d="M238.493,53.523c-0.105-1.311-0.16-2.636-0.16-3.973
	c0-21.753,14.165-40.22,33.854-46.885C267.107,0.947,261.667,0,256,0c-27.636,0-50.04,22.185-50.04,49.55
	c0,1.339,0.069,2.661,0.174,3.973H238.493z"/>
<path style="fill:#FCDB67;" d="M275.49,53.523c0.267-1.284,0.407-2.612,0.407-3.973c0-10.864-8.925-19.701-19.896-19.701
	c-10.972,0-19.897,8.837-19.897,19.701c0,1.361,0.14,2.689,0.407,3.973H275.49z"/>
<path style="fill:#FFC502;" d="M356.199,101.495c0,2.833-2.318,5.151-5.151,5.151H160.952c-2.833,0-5.151-2.318-5.151-5.151V57.32
	c0-2.833,2.318-5.151,5.151-5.151h190.096c2.833,0,5.151,2.318,5.151,5.151L356.199,101.495L356.199,101.495z"/>
<g style="opacity:0.1;">
	<path d="M188.008,101.495V57.32c0-2.833,2.318-5.151,5.151-5.151h-32.207c-2.833,0-5.151,2.318-5.151,5.151v44.175
		c0,2.833,2.318,5.151,5.151,5.151h32.207C190.327,106.646,188.008,104.328,188.008,101.495z"/>
</g>
<path style="fill:#E6E9ED;" d="M243.605,201.847c-1.7,0-3.09-1.391-3.09-3.091v-53.817c0-1.7,1.391-3.09,3.09-3.09h112.712
	c1.7,0,3.09,1.391,3.09,3.09v53.817c0,1.7-1.391,3.091-3.09,3.091H243.605z"/>
<path style="fill:#C5CCD3;" d="M356.318,134.349H243.605c-5.839,0-10.59,4.751-10.59,10.59v53.817c0,5.84,4.751,10.591,10.59,10.591
	h112.712c5.839,0,10.59-4.751,10.59-10.591v-53.817C366.908,139.1,362.158,134.349,356.318,134.349z M351.908,163.851h-65.516
	v-14.502h65.516V163.851z M271.393,149.349v14.502h-23.378v-14.502H271.393z M248.016,178.851h23.378v15.497h-23.378V178.851z
	 M286.393,194.347V178.85h65.516v15.497H286.393z"/>
<path style="fill:#48C1E1;" d="M178.402,204.224c-1.635,0-2.965-1.328-2.965-2.962v-18.119h-18.132
	c-1.635,0-2.964-1.329-2.964-2.963v-15.333c0-1.633,1.33-2.962,2.964-2.962h18.132v-18.12c0-1.633,1.33-2.962,2.965-2.962h15.344
	c1.635,0,2.965,1.329,2.965,2.962v18.12h18.132c1.634,0,2.964,1.329,2.964,2.962v15.333c0,1.634-1.33,2.963-2.964,2.963h-18.132
	v18.119c0,1.634-1.33,2.962-2.965,2.962H178.402z"/>
<g>
	<path style="fill:#C5CCD3;" d="M223.114,244.628h-67.517c-4.142,0-7.5-3.358-7.5-7.5s3.358-7.5,7.5-7.5h67.517
		c4.142,0,7.5,3.358,7.5,7.5S227.256,244.628,223.114,244.628z"/>
	<path style="fill:#C5CCD3;" d="M223.114,271.74h-67.517c-4.142,0-7.5-3.358-7.5-7.5s3.358-7.5,7.5-7.5h67.517
		c4.142,0,7.5,3.358,7.5,7.5S227.256,271.74,223.114,271.74z"/>
	<path style="fill:#C5CCD3;" d="M223.114,298.853h-67.517c-4.142,0-7.5-3.358-7.5-7.5s3.358-7.5,7.5-7.5h67.517
		c4.142,0,7.5,3.358,7.5,7.5S227.256,298.853,223.114,298.853z"/>
</g>
<g>
	<path style="fill:#E6E9ED;" d="M356.404,244.628H253.204c-4.142,0-7.5-3.358-7.5-7.5s3.358-7.5,7.5-7.5h103.201
		c4.142,0,7.5,3.358,7.5,7.5S360.546,244.628,356.404,244.628z"/>
	<path style="fill:#E6E9ED;" d="M356.404,271.74H253.204c-4.142,0-7.5-3.358-7.5-7.5s3.358-7.5,7.5-7.5h103.201
		c4.142,0,7.5,3.358,7.5,7.5S360.546,271.74,356.404,271.74z"/>
	<path style="fill:#E6E9ED;" d="M356.404,298.853H253.204c-4.142,0-7.5-3.358-7.5-7.5s3.358-7.5,7.5-7.5h103.201
		c4.142,0,7.5,3.358,7.5,7.5S360.546,298.853,356.404,298.853z"/>
</g>
<path style="fill:#D5E962;" d="M199.113,346.042c0,1.699-1.391,3.09-3.091,3.09h-37.335c-1.7,0-3.09-1.391-3.09-3.09v-15.427
	c0-1.7,1.391-3.091,3.09-3.091h37.335c1.7,0,3.091,1.391,3.091,3.091V346.042z"/>
<path style="fill:#48C1E1;" d="M199.113,391.23c0,1.7-1.391,3.09-3.091,3.09h-37.335c-1.7,0-3.09-1.391-3.09-3.09v-15.427
	c0-1.7,1.391-3.091,3.09-3.091h37.335c1.7,0,3.091,1.391,3.091,3.091V391.23z"/>
<path style="fill:#FB8276;" d="M199.113,437.929c0,1.7-1.391,3.091-3.091,3.091h-37.335c-1.7,0-3.09-1.391-3.09-3.091v-15.426
	c0-1.7,1.391-3.091,3.09-3.091h37.335c1.7,0,3.091,1.391,3.091,3.091V437.929z"/>
<g>
	<path style="fill:#C5CCD3;" d="M249.6,346.042c0,1.699-1.391,3.09-3.09,3.09H228.98c-1.7,0-3.091-1.391-3.091-3.09v-15.427
		c0-1.7,1.391-3.091,3.091-3.091h17.529c1.699,0,3.09,1.391,3.09,3.091V346.042z"/>
	<path style="fill:#C5CCD3;" d="M249.6,392.339c0,1.7-1.391,3.091-3.09,3.091H228.98c-1.7,0-3.091-1.391-3.091-3.091v-15.426
		c0-1.7,1.391-3.091,3.091-3.091h17.529c1.699,0,3.09,1.391,3.09,3.091V392.339z"/>
	<path style="fill:#C5CCD3;" d="M249.6,438.342c0,1.7-1.391,3.091-3.09,3.091H228.98c-1.7,0-3.091-1.391-3.091-3.091v-15.426
		c0-1.7,1.391-3.091,3.091-3.091h17.529c1.699,0,3.09,1.391,3.09,3.091V438.342z"/>
</g>
<path style="fill:#A2DFF9;" d="M354.975,438.341c0,1.7-1.391,3.091-3.091,3.091h-66.426c-1.699,0-3.09-1.391-3.09-3.091V330.615
	c0-1.7,1.391-3.091,3.09-3.091h66.426c1.7,0,3.091,1.391,3.091,3.091V438.341z"/>
<g style="opacity:0.1;">
	<path d="M303.925,438.341V330.615c0-1.7,1.391-3.091,3.09-3.091h-21.557c-1.699,0-3.09,1.391-3.09,3.091v107.726
		c0,1.7,1.391,3.091,3.09,3.091h21.557C305.315,441.432,303.925,440.041,303.925,438.341z"/>
</g>
<path style="fill:#48C1E1;" d="M351.884,320.024h-66.426c-5.839,0-10.59,4.751-10.59,10.591v107.726
	c0,5.84,4.751,10.591,10.59,10.591h66.426c5.84,0,10.591-4.751,10.591-10.591V330.615
	C362.475,324.775,357.724,320.024,351.884,320.024z M289.868,371.196h57.607v23.667h-57.607V371.196z M347.475,335.024v21.172
	h-57.607v-21.172H347.475z M289.868,433.932v-24.069h57.607v24.069H289.868z"/>
<path style="fill:#FCDB67;" d="M306.766,86.993H205.234c-4.142,0-7.5-3.358-7.5-7.5s3.358-7.5,7.5-7.5h101.531
	c4.142,0,7.5,3.358,7.5,7.5C314.266,83.635,310.908,86.993,306.766,86.993z"/>
<g>
</g>
<g>
</g>
<g>
</g>
<g>
</g>
<g>
</g>
<g>
</g>
<g>
</g>
<g>
</g>
<g>
</g>
<g>
</g>
<g>
</g>
<g>
</g>
<g>
</g>
<g>
</g>
<g>
</g>
</svg>
