<?xml version="1.0" encoding="iso-8859-1"?>
<!-- Generator: Adobe Illustrator 19.0.0, SVG Export Plug-In . SVG Version: 6.00 Build 0)  -->
<svg version="1.1" id="Capa_1" xmlns="http://www.w3.org/2000/svg" xmlns:xlink="http://www.w3.org/1999/xlink" x="0px" y="0px"
	 viewBox="0 0 512 512" style="enable-background:new 0 0 512 512;" xml:space="preserve">
<rect x="298.06" y="271.047" style="fill:#C5CCD3;" width="189.22" height="186.89"/>
<path style="fill:#9EA7AF;" d="M501.159,250.077H298.055v23.899H501.16c2.833,0,5.151-2.318,5.151-5.151v-13.597
	C506.31,252.395,503.992,250.077,501.159,250.077z"/>
<path style="opacity:0.1;enable-background:new    ;" d="M332.233,268.825v-13.597c0-2.833,2.318-5.151,5.151-5.151h-39.33v23.899
	h39.33C334.551,273.976,332.233,271.658,332.233,268.825z"/>
<path style="fill:#046699;" d="M73.782,121.467c-2.555,0-5.058-0.216-7.5-0.615v28.851c0,0.099,0.011,0.195,0.015,0.294h14.971
	c0.003-0.099,0.015-0.195,0.015-0.294v-28.851C78.84,121.251,76.336,121.467,73.782,121.467z"/>
<circle style="fill:#368C0E;" cx="73.78" cy="76.447" r="46.23"/>
<path style="fill:#FFFFFF;" d="M92.768,68.944H81.282V57.458c0-4.142-3.358-7.5-7.5-7.5s-7.5,3.358-7.5,7.5v11.486H54.795
	c-4.142,0-7.5,3.358-7.5,7.5s3.358,7.5,7.5,7.5h11.486v11.487c0,4.142,3.358,7.5,7.5,7.5s7.5-3.358,7.5-7.5V83.944h11.486
	c4.142,0,7.5-3.358,7.5-7.5S96.91,68.944,92.768,68.944z"/>
<g>
	<rect x="159.45" y="104.997" style="fill:#775436;" width="15" height="45"/>
	<rect x="274.16" y="104.997" style="fill:#775436;" width="15" height="45"/>
</g>
<rect x="29.845" y="171.217" style="fill:#E6E9ED;" width="270.06" height="286.73"/>
<rect x="29.845" y="171.217" style="opacity:0.1;enable-background:new    ;" width="21.15" height="286.73"/>
<path style="fill:#C5CCD3;" d="M317.511,167.257c0,2.833-2.318,5.15-5.151,5.15H17.385c-2.833,0-5.151-2.317-5.151-5.15V153.66
	c0-2.833,2.318-5.151,5.151-5.151H312.36c2.833,0,5.151,2.318,5.151,5.151V167.257z"/>
<path style="opacity:0.1;enable-background:new    ;" d="M44.469,167.257V153.66c0-2.833,2.318-5.151,5.151-5.151H17.385
	c-2.833,0-5.151,2.318-5.151,5.151v13.597c0,2.833,2.318,5.15,5.151,5.15H49.62C46.787,172.407,44.469,170.09,44.469,167.257z"/>
<rect x="111.1" y="356.347" style="fill:#046699;" width="107.54" height="101.59"/>
<rect x="111.1" y="356.347" style="fill:#08375E;" width="53.771" height="101.59"/>
<rect x="111.1" y="356.347" style="opacity:0.1;enable-background:new    ;" width="21.278" height="101.59"/>
<path style="fill:#C5CCD3;" d="M226.886,352.846c0,2.833-2.318,5.151-5.151,5.151H108.01c-2.833,0-5.151-2.318-5.151-5.151v-16.051
	c0-2.833,2.318-5.151,5.151-5.151h113.726c2.833,0,5.151,2.318,5.151,5.151L226.886,352.846L226.886,352.846z"/>
<g>
	<path style="fill:#FFC502;" d="M91.982,237.471c0,1.7-1.391,3.091-3.09,3.091H68.784c-1.7,0-3.09-1.391-3.09-3.091v-32.057
		c0-1.7,1.391-3.09,3.09-3.09h20.108c1.699,0,3.09,1.391,3.09,3.09C91.982,205.413,91.982,237.471,91.982,237.471z"/>
	<path style="fill:#FFC502;" d="M149.338,237.471c0,1.7-1.391,3.091-3.09,3.091H126.14c-1.7,0-3.09-1.391-3.09-3.091v-32.057
		c0-1.7,1.391-3.09,3.09-3.09h20.108c1.7,0,3.09,1.391,3.09,3.09V237.471z"/>
	<path style="fill:#FFC502;" d="M206.695,237.471c0,1.7-1.391,3.091-3.091,3.091h-20.107c-1.7,0-3.091-1.391-3.091-3.091v-32.057
		c0-1.7,1.391-3.09,3.091-3.09h20.107c1.7,0,3.091,1.391,3.091,3.09V237.471z"/>
	<path style="fill:#FFC502;" d="M264.052,237.471c0,1.7-1.391,3.091-3.09,3.091h-20.108c-1.7,0-3.09-1.391-3.09-3.091v-32.057
		c0-1.7,1.391-3.09,3.09-3.09h20.108c1.7,0,3.09,1.391,3.09,3.09V237.471z"/>
	<path style="fill:#FFC502;" d="M91.982,301.502c0,1.7-1.391,3.091-3.09,3.091H68.784c-1.7,0-3.09-1.391-3.09-3.091v-32.057
		c0-1.7,1.391-3.091,3.09-3.091h20.108c1.699,0,3.09,1.391,3.09,3.091C91.982,269.445,91.982,301.502,91.982,301.502z"/>
	<path style="fill:#FFC502;" d="M149.338,301.502c0,1.7-1.391,3.091-3.09,3.091H126.14c-1.7,0-3.09-1.391-3.09-3.091v-32.057
		c0-1.7,1.391-3.091,3.09-3.091h20.108c1.7,0,3.09,1.391,3.09,3.091V301.502z"/>
	<path style="fill:#FFC502;" d="M206.695,301.502c0,1.7-1.391,3.091-3.091,3.091h-20.107c-1.7,0-3.091-1.391-3.091-3.091v-32.057
		c0-1.7,1.391-3.091,3.091-3.091h20.107c1.7,0,3.091,1.391,3.091,3.091V301.502z"/>
	<path style="fill:#FFC502;" d="M264.052,301.502c0,1.7-1.391,3.091-3.09,3.091h-20.108c-1.7,0-3.09-1.391-3.09-3.091v-32.057
		c0-1.7,1.391-3.091,3.09-3.091h20.108c1.7,0,3.09,1.391,3.09,3.091V301.502z"/>
</g>
<path style="fill:#FB8276;" d="M305.562,101.167c0,2.833-2.318,5.151-5.151,5.151H148.202c-2.833,0-5.151-2.318-5.151-5.151V58.893
	c0-2.833,2.318-5.151,5.151-5.151h152.209c2.833,0,5.151,2.318,5.151,5.151V101.167z"/>
<path style="opacity:0.1;enable-background:new    ;" d="M175.646,101.167V58.893c0-2.833,2.318-5.151,5.151-5.151h-32.595
	c-2.833,0-5.151,2.318-5.151,5.151v42.275c0,2.833,2.318,5.151,5.151,5.151h32.595C177.964,106.318,175.646,104,175.646,101.167z"/>
<g>
	<path style="fill:#EF5050;" d="M188.459,86.702h-22.704c-4.142,0-7.5-3.358-7.5-7.5s3.358-7.5,7.5-7.5h22.704
		c4.142,0,7.5,3.358,7.5,7.5S192.601,86.702,188.459,86.702z"/>
	<path style="fill:#EF5050;" d="M280.768,86.702h-66.021c-4.142,0-7.5-3.358-7.5-7.5s3.358-7.5,7.5-7.5h66.021
		c4.142,0,7.5,3.358,7.5,7.5S284.91,86.702,280.768,86.702z"/>
</g>
<g>
	<path style="fill:#FFFFFF;" d="M351.595,338.997c0,1.7-1.391,3.09-3.091,3.09h-20.107c-1.7,0-3.091-1.391-3.091-3.09V306.94
		c0-1.7,1.391-3.091,3.091-3.091h20.107c1.7,0,3.091,1.391,3.091,3.091V338.997z"/>
	<path style="fill:#FFFFFF;" d="M405.366,338.997c0,1.7-1.391,3.09-3.09,3.09h-20.107c-1.7,0-3.09-1.391-3.09-3.09V306.94
		c0-1.7,1.391-3.091,3.09-3.091h20.107c1.7,0,3.09,1.391,3.09,3.091V338.997z"/>
	<path style="fill:#FFFFFF;" d="M459.138,338.997c0,1.7-1.391,3.09-3.09,3.09H435.94c-1.7,0-3.09-1.391-3.09-3.09V306.94
		c0-1.7,1.391-3.091,3.09-3.091h20.108c1.7,0,3.09,1.391,3.09,3.091V338.997z"/>
	<path style="fill:#FFFFFF;" d="M351.595,405.55c0,1.7-1.391,3.09-3.091,3.09h-20.107c-1.7,0-3.091-1.391-3.091-3.09v-32.057
		c0-1.7,1.391-3.091,3.091-3.091h20.107c1.7,0,3.091,1.391,3.091,3.091V405.55z"/>
	<path style="fill:#FFFFFF;" d="M405.366,405.55c0,1.7-1.391,3.09-3.09,3.09h-20.107c-1.7,0-3.09-1.391-3.09-3.09v-32.057
		c0-1.7,1.391-3.091,3.09-3.091h20.107c1.7,0,3.09,1.391,3.09,3.091V405.55z"/>
	<path style="fill:#FFFFFF;" d="M459.138,405.55c0,1.7-1.391,3.09-3.09,3.09H435.94c-1.7,0-3.09-1.391-3.09-3.09v-32.057
		c0-1.7,1.391-3.091,3.09-3.091h20.108c1.7,0,3.09,1.391,3.09,3.091V405.55z"/>
</g>
<path style="fill:#9EA7AF;" d="M512,476.633c0,2.833-2.318,5.151-5.151,5.151H5.151c-2.833,0-5.151-2.318-5.151-5.151v-14.758
	c0-2.833,2.318-5.151,5.151-5.151h501.698c2.833,0,5.151,2.318,5.151,5.151V476.633z"/>
<path style="opacity:0.1;enable-background:new    ;" d="M41.722,476.633v-14.758c0-2.833,2.318-5.151,5.151-5.151H5.151
	c-2.833,0-5.151,2.318-5.151,5.151v14.758c0,2.833,2.318,5.151,5.151,5.151h41.722C44.04,481.784,41.722,479.466,41.722,476.633z"/>
<g>
</g>
<g>
</g>
<g>
</g>
<g>
</g>
<g>
</g>
<g>
</g>
<g>
</g>
<g>
</g>
<g>
</g>
<g>
</g>
<g>
</g>
<g>
</g>
<g>
</g>
<g>
</g>
<g>
</g>
</svg>
