<?xml version="1.0" encoding="iso-8859-1"?>
<!-- Generator: Adobe Illustrator 19.0.0, SVG Export Plug-In . SVG Version: 6.00 Build 0)  -->
<svg version="1.1" id="Capa_1" xmlns="http://www.w3.org/2000/svg" xmlns:xlink="http://www.w3.org/1999/xlink" x="0px" y="0px"
	 viewBox="0 0 512 512" style="enable-background:new 0 0 512 512;" xml:space="preserve">
<path style="fill:#E6E9ED;" d="M178.653,94.979C197.07,84.193,218.489,78,241.33,78h29.342c22.84,0,44.258,6.193,62.675,16.979
	c10.319-20.252,20.637-40.505,30.957-60.756c1.171-2.265-0.839-5.652-4.516-7.385c-65.705-31.01-141.87-31.01-207.575,0
	c-3.677,1.734-5.687,5.119-4.516,7.385C158.016,54.475,168.335,74.728,178.653,94.979z"/>
<path style="opacity:0.1;enable-background:new    ;" d="M178.653,94.979c7.822-4.581,16.186-8.332,24.971-11.133
	c-11.002-21.595-22.004-43.19-33.007-64.782c-6.212,2.33-12.353,4.917-18.404,7.773c-3.677,1.734-5.687,5.119-4.516,7.385
	C158.016,54.475,168.335,74.728,178.653,94.979z"/>
<path style="fill:#A2DFF9;" d="M226.394,78.899C231.292,78.311,236.275,78,241.33,78h29.342c5.054,0,10.037,0.311,14.935,0.899
	c9.436-8.25,15.405-20.369,15.405-33.888C301.011,20.152,280.859,0,256,0s-45.011,20.152-45.011,45.011
	C210.989,58.531,216.958,70.649,226.394,78.899z"/>
<path style="fill:#48C1E1;" d="M272.369,33.419H263.5v-8.868c0-4.142-3.358-7.5-7.5-7.5s-7.5,3.358-7.5,7.5v8.868h-8.869
	c-4.142,0-7.5,3.358-7.5,7.5s3.358,7.5,7.5,7.5h8.869v8.869c0,4.142,3.358,7.5,7.5,7.5s7.5-3.358,7.5-7.5v-8.869h8.869
	c4.142,0,7.5-3.358,7.5-7.5S276.511,33.419,272.369,33.419z"/>
<path style="fill:#775436;" d="M270.671,76.566H241.33c-68.6,0-124.411,55.81-124.411,124.409v112.673
	c0,3.241,2.628,5.869,5.869,5.869h70.394c-2.769-2.453-5.446-5.072-8.014-7.865c-18.672-20.309-29.381-47.555-29.381-74.75
	c0.013-10.756,0.034-25.527,0.052-33.168c0.005-2.264,1.852-4.105,4.115-4.105h90.436c16.477,0,31.82-6.53,43.206-18.389
	c0.772-0.804,1.854-1.265,2.968-1.265c1.114,0,2.195,0.461,2.968,1.265c11.387,11.858,26.723,18.389,43.184,18.389h9.33
	c2.263,0,4.109,1.842,4.115,4.106c0.017,7.632,0.038,22.409,0.052,33.169c0,27.194-10.709,54.44-29.381,74.749
	c-2.568,2.793-5.245,5.412-8.014,7.865h70.395c3.24,0,5.868-2.628,5.868-5.869V200.976
	C395.081,132.376,339.271,76.566,270.671,76.566z"/>
<g style="opacity:0.1;">
	<path d="M148.861,313.648V200.976c0-68.165,55.107-123.692,123.11-124.393c-0.434-0.004-0.866-0.017-1.3-0.017H241.33
		c-68.6,0-124.411,55.81-124.411,124.409v112.673c0,3.241,2.628,5.869,5.869,5.869h31.942
		C151.489,319.517,148.861,316.89,148.861,313.648z"/>
</g>
<g>
	<path style="fill:#FFB98A;" d="M359.422,221.654h-3.23c0.008,5.234,0.015,10.614,0.021,15.25c0,13.068-2.479,26.146-7.121,38.462
		h10.33c14.832,0,26.856-12.025,26.856-26.856C386.278,233.678,374.254,221.654,359.422,221.654z"/>
	<path style="fill:#FFB98A;" d="M155.787,236.902c0.006-4.635,0.013-10.015,0.02-15.249h-3.229
		c-14.832,0-26.856,12.024-26.856,26.856c0,14.831,12.024,26.856,26.856,26.856h10.33
		C158.267,263.049,155.787,249.971,155.787,236.902z"/>
</g>
<path style="fill:#E6E9ED;" d="M320.552,335.949h-27.006c-11.832,5.315-24.529,8.104-37.546,8.104
	c-13.017,0-25.715-2.789-37.546-8.104h-27.006c-27.829,0-50.468,22.64-50.468,50.468v119.715c0,3.241,2.627,5.868,5.868,5.868
	h218.304c3.241,0,5.868-2.627,5.868-5.868V386.417C371.02,358.588,348.381,335.949,320.552,335.949z"/>
<path style="opacity:0.1;enable-background:new    ;" d="M165.98,506.132V386.417c0-27.828,22.639-50.468,50.468-50.468h-25
	c-27.829,0-50.468,22.64-50.468,50.468v119.715c0,3.241,2.627,5.868,5.868,5.868h25C168.607,512,165.98,509.373,165.98,506.132z"/>
<path style="fill:#A2DFF9;" d="M312.553,364.253l-15.496-29.969c-12.814,6.396-26.743,9.768-41.057,9.768
	c-14.138,0-27.901-3.286-40.585-9.53l-15.938,29.77c-1.064,1.987-0.822,4.265,0.416,5.924h73.405c1.39,0,2.521,1.131,2.521,2.522
	v68.761l28.027-39.135c1.879-2.624,1.072-5.985-1.794-7.47l-13.95-7.225c-2.866-1.484-2.83-3.839,0.081-5.234l21.773-10.433
	C312.867,370.607,314.036,367.12,312.553,364.253z"/>
<path style="fill:#FFB98A;" d="M268.591,370.216l11.809-29.502c-7.909,2.204-16.09,3.339-24.4,3.339
	c-8.311,0-16.492-1.136-24.4-3.34l11.809,29.503L268.591,370.216L268.591,370.216z"/>
<path style="fill:#C5CCD3;" d="M276.819,512V372.737c0-1.936-1.584-3.522-3.521-3.522h-94.481c-1.936,0-3.52,1.585-3.52,3.522V512
	H276.819z"/>
<path style="fill:#A2DFF9;" d="M259.663,424.606c0,1.65-1.35,3-3,3h-60.036c-1.65,0-3-1.35-3-3V394c0-1.65,1.35-3,3-3h60.036
	c1.65,0,3,1.35,3,3V424.606z"/>
<path style="fill:#FFFFFF;" d="M196.626,391c-1.65,0-3,1.35-3,3v30.606c0,1.65,1.35,3,3,3h24.412V391H196.626z"/>
<g>
	<path style="fill:#E6E9ED;" d="M253.639,456.121H199.65c-4.142,0-7.5-3.358-7.5-7.5s3.358-7.5,7.5-7.5h53.989
		c4.142,0,7.5,3.358,7.5,7.5C261.139,452.763,257.781,456.121,253.639,456.121z"/>
	<path style="fill:#E6E9ED;" d="M253.639,480.769H199.65c-4.142,0-7.5-3.358-7.5-7.5s3.358-7.5,7.5-7.5h53.989
		c4.142,0,7.5,3.358,7.5,7.5C261.139,477.411,257.781,480.769,253.639,480.769z"/>
</g>
<path style="fill:#C5CCD3;" d="M359.284,398.153H345.48c-6.455,0-11.737,5.281-11.737,11.737v59.857h-30.145l0.05,0.05V512h61.505
	c3.241,0,5.868-2.627,5.868-5.868v-96.241C371.02,403.435,365.739,398.153,359.284,398.153z"/>
<path style="fill:#FFB98A;" d="M304.749,469.797l-18.481-18.479c-4.284-4.287-11.264-4.319-15.51-0.074
	c-4.245,4.246-4.211,11.225,0.072,15.51l6.41,6.409h-24.12c-6.059,0-11.018,4.959-11.018,11.018v16.8
	c0,6.06,4.958,11.018,11.018,11.018h51.629V469.797z"/>
<path style="fill:#FFD5B3;" d="M256,345.053c-26.749,0-52.166-11.621-71.568-32.724c-18.839-20.491-29.644-47.982-29.644-75.427
	c0.013-10.757,0.034-25.529,0.052-33.171c0.007-2.82,2.295-5.103,5.115-5.103h90.436c16.202,0,31.29-6.421,42.484-18.081
	c0.964-1.004,2.297-1.573,3.69-1.573c1.392,0,2.725,0.568,3.689,1.573c11.196,11.66,26.276,18.081,42.463,18.081h9.33
	c2.82,0,5.108,2.283,5.115,5.104c0.017,7.632,0.038,22.41,0.052,33.17c0,27.446-10.806,54.936-29.645,75.427
	C308.167,333.432,282.75,345.053,256,345.053z"/>
<g style="opacity:0.1;">
	<path d="M216.622,312.329c-18.839-20.491-29.644-47.982-29.644-75.427c0.013-10.757,0.034-25.529,0.052-33.171
		c0.006-2.82,2.294-5.103,5.115-5.103h-32.191c-2.82,0-5.108,2.283-5.115,5.103c-0.018,7.642-0.039,22.414-0.052,33.171
		c0,27.444,10.806,54.936,29.644,75.427c19.402,21.103,44.819,32.724,71.568,32.724c5.434,0,10.811-0.487,16.096-1.429
		C251.365,339.932,232.083,329.145,216.622,312.329z"/>
</g>
<g>
	<path style="fill:#775436;" d="M261.868,279.5h-6.585c-6.976,0-12.651-5.675-12.651-12.651v-19.496c0-4.142,3.358-7.5,7.5-7.5
		s7.5,3.358,7.5,7.5V264.5h4.236c4.142,0,7.5,3.358,7.5,7.5S266.01,279.5,261.868,279.5z"/>
	<path style="fill:#775436;" d="M256,317.18c-12.222,0-24.443-4.652-33.748-13.955c-2.929-2.929-2.929-7.678-0.001-10.607
		c2.929-2.929,7.677-2.929,10.607,0c12.76,12.76,33.521,12.759,46.281,0c2.929-2.929,7.678-2.93,10.607,0
		c2.929,2.929,2.929,7.678,0,10.606C280.443,312.528,268.222,317.18,256,317.18z"/>
	<path style="fill:#775436;" d="M207.293,258.944c-4.142,0-7.5-3.358-7.5-7.5v-21.126c0-4.142,3.358-7.5,7.5-7.5s7.5,3.358,7.5,7.5
		v21.126C214.793,255.586,211.435,258.944,207.293,258.944z"/>
	<path style="fill:#775436;" d="M304.707,258.944c-4.142,0-7.5-3.358-7.5-7.5v-21.126c0-4.142,3.358-7.5,7.5-7.5s7.5,3.358,7.5,7.5
		v21.126C312.207,255.586,308.849,258.944,304.707,258.944z"/>
</g>
<g>
</g>
<g>
</g>
<g>
</g>
<g>
</g>
<g>
</g>
<g>
</g>
<g>
</g>
<g>
</g>
<g>
</g>
<g>
</g>
<g>
</g>
<g>
</g>
<g>
</g>
<g>
</g>
<g>
</g>
</svg>
