<?xml version="1.0" encoding="iso-8859-1"?>
<!-- Generator: Adobe Illustrator 16.0.0, SVG Export Plug-In . SVG Version: 6.00 Build 0)  -->
<!DOCTYPE svg PUBLIC "-//W3C//DTD SVG 1.1//EN" "http://www.w3.org/Graphics/SVG/1.1/DTD/svg11.dtd">
<svg version="1.1" id="Capa_1" xmlns="http://www.w3.org/2000/svg" xmlns:xlink="http://www.w3.org/1999/xlink" x="0px" y="0px"
	 width="461.15px" height="461.151px" viewBox="0 0 461.15 461.151" style="enable-background:new 0 0 461.15 461.151;"
	 xml:space="preserve">
<g>
	<path d="M460.583,225.283c-1.552-7.164-17.529-43.128-50.842-76.929c-32.428-32.899-89.834-72.117-179.166-72.117
		c-89.335,0-146.742,39.219-179.169,72.12c-18.287,18.556-30.676,37.115-37.849,49.418c-3.308,5.674-6.259,11.274-8.773,16.646
		C1.312,221.837,0,225.153,0,230.576s1.312,8.737,4.783,16.153c2.513,5.371,5.465,10.972,8.774,16.647
		c7.172,12.302,19.562,30.861,37.849,49.416c32.427,32.901,89.834,72.121,179.169,72.121s146.742-39.22,179.169-72.121
		c18.287-18.555,30.676-37.114,37.849-49.417c3.31-5.676,6.262-11.275,8.773-16.646c3.472-7.417,4.784-10.731,4.784-16.154
		C461.15,228.802,460.96,227.021,460.583,225.283z M65.65,162.396c29.747-30.182,82.507-66.159,164.925-66.159
		c82.415,0,135.174,35.976,164.922,66.156c12.201,12.379,21.523,24.56,28.46,35.086c-7.005-6.281-15.667-13.028-26.104-19.66
		c-30.377-19.297-84.059-42.3-167.278-42.3c-83.225,0-136.904,23.004-167.282,42.302c-10.736,6.821-19.358,13.665-26.004,19.642
		C44.025,187.259,53.397,174.829,65.65,162.396z M232.342,186.38c5.274-5.27,19.043-0.046,30.76,11.67
		c11.716,11.714,16.941,25.486,11.668,30.759c-5.271,5.271-19.043,0.046-30.76-11.67
		C232.292,205.423,227.072,191.653,232.342,186.38z M33.844,230.576c0.219-0.3,0.473-0.643,0.767-1.035
		c2.029-2.716,4.442-5.58,7.171-8.511c6.08-6.529,16.608-16.396,32.237-26.326c23.229-14.757,61.377-31.841,118.093-37.357
		c-26.303,13.872-44.282,41.483-44.282,73.229s17.98,59.356,44.282,73.229c-56.716-5.518-94.865-22.602-118.093-37.357
		c-15.629-9.93-26.157-19.796-32.235-26.324c-2.732-2.936-5.146-5.8-7.174-8.516C34.316,231.217,34.062,230.875,33.844,230.576z
		 M395.5,298.754c-29.748,30.182-82.508,66.16-164.925,66.16S95.398,328.936,65.65,298.754
		c-12.252-12.432-21.624-24.859-28.36-35.063c6.646,5.976,15.268,12.819,26.003,19.639c30.376,19.3,84.056,42.304,167.281,42.304
		c83.225,0,136.905-23.004,167.281-42.304c10.735-6.819,19.357-13.663,26.004-19.639C417.124,273.895,407.753,286.323,395.5,298.754
		z M426.539,231.612c-2.026,2.712-4.438,5.576-7.171,8.511c-6.079,6.529-16.605,16.396-32.236,26.325
		c-23.229,14.757-61.376,31.841-118.093,37.357c26.302-13.873,44.282-41.483,44.282-73.229s-17.979-59.357-44.282-73.229
		c56.712,5.516,94.86,22.599,118.089,37.355c24.423,15.516,36.317,30.438,40.159,35.898
		C427.073,230.895,426.825,231.229,426.539,231.612z"/>
</g>
<g>
</g>
<g>
</g>
<g>
</g>
<g>
</g>
<g>
</g>
<g>
</g>
<g>
</g>
<g>
</g>
<g>
</g>
<g>
</g>
<g>
</g>
<g>
</g>
<g>
</g>
<g>
</g>
<g>
</g>
</svg>
