<svg height="511pt" viewBox="-131 1 511 511.99897" width="511pt" xmlns="http://www.w3.org/2000/svg"><path d="m249.691406 445.527344v58.785156c0 4.246094-3.417968 7.6875-7.636718 7.6875h-233.917969c-4.21875 0-7.636719-3.441406-7.636719-7.6875v-58.785156c0-29.820313 19.464844-56.097656 47.855469-64.609375l13.457031-4.035157c6.828125-2.042968 12.460938-6.5 16.085938-12.277343 2.832031-4.507813 4.4375-9.824219 4.4375-15.429688v-17.886719l78.871093-22.898437v38.78125c0 7.382813 2.78125 14.257813 7.472657 19.445313 3.441406 3.808593 7.910156 6.714843 13.050781 8.265624l20.117187 6.035157c28.390625 8.511719 47.84375 34.792969 47.84375 64.609375zm0 0" fill="#ffdba9"/><path d="m198.472656 79.894531v163.433594c-.105468 31.132813-15.882812 58.5625-39.820312 74.675781-14.21875 9.574219-31.292969 15.144532-49.679688 15.144532-49.441406 0-89.515625-40.34375-89.515625-90.109376v-163.144531zm0 0" fill="#ffdba9"/><path d="m206.929688 231.433594h-8.457032v-61.4375h8.457032c16.304687 0 29.515624 13.214844 29.515624 29.515625v2.40625c0 16.300781-13.214843 29.515625-29.515624 29.515625zm0 0" fill="#ffc473"/><path d="m65.066406 189.066406c0-4.945312-3.980468-8.953125-8.894531-8.953125s-8.898437 4.007813-8.898437 8.953125c0 4.945313 3.984374 8.957032 8.898437 8.957032s8.894531-4.011719 8.894531-8.957032zm0 0" fill="#57555c"/><path d="m136.242188 189.066406c0-4.945312-3.984376-8.953125-8.898438-8.953125s-8.894531 4.007813-8.894531 8.953125c0 4.945313 3.980469 8.957032 8.894531 8.957032s8.898438-4.011719 8.898438-8.957032zm0 0" fill="#57555c"/><path d="m135.597656 10.347656v75.503906c0 9.296876 3.667969 18.210938 10.195313 24.785157l11.519531 11.59375c7.566406 7.621093 11.816406 17.953125 11.816406 28.726562v6.113281c0 7.140626 5.75 12.925782 12.84375 12.925782h16.5v-116.046875c0-24.078125-19.390625-43.601563-43.3125-43.601563zm0 0" fill="#715539"/><path d="m249.691406 445.527344v58.785156c0 4.246094-3.417968 7.6875-7.636718 7.6875h-233.917969c-4.21875 0-7.636719-3.441406-7.636719-7.6875v-58.785156c0-29.820313 19.464844-56.097656 47.855469-64.609375l13.457031-4.035157c6.828125-2.042968 12.460938-6.5 16.085938-12.277343 11.832031 4.820312 27.996093 9.382812 47.339843 9.5 16.625.097656 31.246094-3.109375 43.441407-7.488281 3.441406 3.808593 7.910156 6.714843 13.050781 8.265624l20.117187 6.035157c28.390625 8.511719 47.84375 34.792969 47.84375 64.609375zm0 0" fill="#6dd7a7"/><path d="m201.847656 380.917969-20.117187-6.035157c-5.140625-1.550781-9.609375-4.457031-13.050781-8.265624-12.195313 4.378906-26.816407 7.585937-43.4375 7.488281-.175782 0-.34375-.007813-.519532-.007813 6.800782 7.054688 15.324219 15.378906 18.53125 16.347656l20.117188 6.035157c28.386718 8.511719 47.84375 34.789062 47.84375 64.609375v50.910156h30.84375c4.214844 0 7.636718-3.445312 7.636718-7.6875v-58.785156c-.003906-29.816406-19.457031-56.097656-47.847656-64.609375zm0 0" fill="#00bb64"/><path d="m198.472656 125.835938c-24.746094-2.667969-44.753906-5.234376-58.105468-7.035157-41.921876-5.652343-56.230469-8.839843-78.203126-5.761719-18.648437 2.609376-33.335937 8.398438-42.699218 12.796876-1.832032-19.035157-3.664063-56.882813-5.492188-75.917969-1.898437-15.191407 6.691406-29.746094 20.851563-35.335938l2.558593-1.007812c45.855469-18.097657 96.808594-18.097657 142.667969 0l3.058594 1.207031c14.308594 5.648438 22.90625 20.429688 20.800781 35.753906zm0 0" fill="#6dd7a7"/><path d="m183.113281 14.78125-3.0625-1.207031c-29.917969-11.808594-62.007812-15.910157-93.433593-12.308594 16.738281 1.917969 33.292968 6.015625 49.230468 12.308594l3.0625 1.207031c14.304688 5.648438 22.90625 20.429688 20.796875 35.753906l-5.0625 70.140625c11.933594 1.527344 26.75 3.320313 43.828125 5.160157l5.4375-75.300782c2.109375-15.324218-6.488281-30.105468-20.796875-35.753906zm0 0" fill="#00bb64"/><path d="m81.710938 86.304688c-4.265626 0-7.726563-3.484376-7.726563-7.78125v-32.082032c0-4.300781 3.460937-7.78125 7.726563-7.78125 4.269531 0 7.730468 3.484375 7.730468 7.78125v32.082032c0 4.296874-3.460937 7.78125-7.730468 7.78125zm0 0" fill="#fff"/><path d="m97.648438 70.261719h-31.871094c-4.265625 0-7.726563-3.484375-7.726563-7.78125 0-4.292969 3.460938-7.777344 7.726563-7.777344h31.871094c4.265624 0 7.726562 3.484375 7.726562 7.777344 0 4.296875-3.460938 7.78125-7.726562 7.78125zm0 0" fill="#fff"/><path d="m198.472656 157.472656v25.074219l-42.273437 53.71875c-1.523438 1.9375-3.789063 2.953125-6.066407 2.953125-1.679687 0-3.371093-.546875-4.792968-1.6875-3.347656-2.667969-3.90625-7.5625-1.257813-10.925781zm0 0" fill="#ff8900"/><path d="m198.472656 219.550781v23.777344l-35.378906 41.144531c-1.523438 1.773438-3.679688 2.6875-5.84375 2.6875-1.792969 0-3.59375-.625-5.046875-1.898437-3.234375-2.8125-3.585937-7.730469-.792969-10.976563zm0 0" fill="#ff8900"/><path d="m148.117188 215.210938c7.113281 0 13.207031 5.125 14.460937 12.175781 1.78125 9.996093 3.085937 21.570312 3.214844 34.425781.230469 22.953125-3.378907 42.183594-7.136719 56.1875-36.972656 27.433594-87.023438 24.65625-117.742188-4.421875-25.539062-24.175781-34.09375-63.109375-21.453124-98.367187zm0 0" fill="#fff"/><path d="m69.617188 313.578125c-25.539063-24.175781-34.097657-63.109375-21.453126-98.367187h-28.703124c-12.640626 35.257812-4.085938 74.191406 21.453124 98.367187 19.828126 18.769531 47.710938 26.558594 74.929688 22.363281-17.203125-2.6875-33.402344-10.222656-46.226562-22.363281zm0 0" fill="#e1e1e3"/></svg>