<svg height="512pt" viewBox="-122 0 512 512.00103" width="512pt" xmlns="http://www.w3.org/2000/svg"><path d="m267.640625 443.519531v60.621094c0 4.339844-3.503906 7.859375-7.800781 7.859375h-240.84375c-4.316406 0-7.808594-3.519531-7.808594-7.859375v-60.621094c0-30.71875 20.03125-57.792969 49.242188-66.570312l13.851562-4.152344c7.035156-2.109375 12.828125-6.699219 16.558594-12.648437 2.429687-3.863282 3.976562-8.320313 4.417968-13.046876.105469-.933593.144532-1.886718.144532-2.855468v-25.171875l81.179687-16.847657v39.953126c0 7.613281 2.851563 14.695312 7.683594 20.035156 3.535156 3.925781 8.140625 6.925781 13.429687 8.515625l20.699219 6.21875c29.222657 8.777343 49.246094 35.851562 49.246094 66.570312zm0 0" fill="#ffdba9"/><path d="m176.582031 302.230469v33.003906c-13.714843 9.261719-30.203125 14.652344-47.9375 14.652344h-11.652343c-7.503907 0-14.789063-.964844-21.734376-2.78125.105469-.9375.144532-1.890625.144532-2.859375v-25.171875zm0 0" fill="#ffc473"/><path d="m214.921875 39.914062v200.867188c0 48.019531-38.628906 86.953125-86.277344 86.953125h-11.652343c-47.660157 0-86.289063-38.933594-86.289063-86.953125v-200.867188zm0 0" fill="#ffdba9"/><path d="m224.472656 222.945312h-9.546875v-63.296874h9.546875c16.308594 0 29.53125 13.222656 29.53125 29.53125v4.234374c0 16.308594-13.222656 29.53125-29.53125 29.53125zm0 0" fill="#ffc473"/><path d="m152.125 0v75.503906c0 9.296875 3.664062 18.210938 10.183594 24.785156l11.503906 11.59375c7.558594 7.617188 11.808594 17.949219 11.808594 28.722657v3.429687c0 7.140625 5.742187 12.929688 12.824218 12.929688h16.484376v-113.363282c-.003907-24.082031-19.371094-43.601562-43.265626-43.601562zm0 0" fill="#994c00"/><path d="m38.398438 79.824219h78.128906c19.660156 0 35.597656-16.0625 35.597656-35.875v-43.949219l-149.960938 33.507812c-1.261718.28125-2.164062 1.414063-2.164062 2.71875v4.894532c0 21.375 17.191406 38.703125 38.398438 38.703125zm0 0" fill="#c06100"/><path d="m77.632812 179.296875c0-5.097656-4.097656-9.226563-9.152343-9.226563-5.058594 0-9.15625 4.128907-9.15625 9.226563 0 5.09375 4.097656 9.226563 9.15625 9.226563 5.054687 0 9.152343-4.132813 9.152343-9.226563zm0 0" fill="#57555c"/><path d="m150.878906 179.296875c0-5.097656-4.097656-9.226563-9.152344-9.226563-5.058593 0-9.15625 4.128907-9.15625 9.226563 0 5.09375 4.097657 9.226563 9.15625 9.226563 5.054688 0 9.152344-4.132813 9.152344-9.226563zm0 0" fill="#57555c"/><path d="m267.640625 443.519531v60.621094c0 4.339844-3.503906 7.859375-7.800781 7.859375h-240.84375c-4.316406 0-7.808594-3.519531-7.808594-7.859375v-60.621094c0-30.71875 20.03125-57.792969 49.242188-66.570312l13.851562-4.152344c4.046875-1.214844 7.664062-3.261719 10.726562-5.910156l44.480469 14.695312 7.339844 2.417969 7.488281-1.878906 36.210938-9.105469 10.078125-5.496094c2.183593 1.351563 4.554687 2.453125 7.089843 3.210938l20.699219 6.21875c29.222657 8.777343 49.246094 35.851562 49.246094 66.570312zm0 0" fill="#c1e4ff"/><path d="m102.917969 278.292969c-8.269531 0-14.859375-2.324219-18.050781-3.707031-3.921876-1.703126-5.730469-6.285157-4.042969-10.234376 1.691406-3.953124 6.238281-5.773437 10.15625-4.074218 3.25 1.410156 11.84375 4.304687 21.503906.734375 7.390625-2.726563 11.792969-7.953125 13.757813-10.828125 2.421874-3.539063 7.238281-4.433594 10.75-1.988282 3.515624 2.441407 4.398437 7.292969 1.972656 10.835938-3.007813 4.394531-9.757813 12.398438-21.160156 16.609375-5.28125 1.949219-10.339844 2.652344-14.886719 2.652344zm0 0" fill="#c06100"/><path d="m144.554688 384v128h-15.457032v-128c0-.839844.132813-1.660156.390625-2.417969l7.339844 2.417969 7.488281-1.878906c.15625.605468.238282 1.226562.238282 1.878906zm0 0" fill="#84caff"/><path d="m91.121094 360.144531 45.703125 23.855469-21.800781 25.40625c-2.195313 2.5625-6.128907 2.589844-8.363282.058594l-32.375-36.671875zm0 0" fill="#00a6ff"/><path d="m231.644531 481.050781v30.949219h-15.453125v-30.949219c0-4.296875 3.460938-7.789062 7.726563-7.789062 4.277343 0 7.726562 3.492187 7.726562 7.789062zm0 0" fill="#84caff"/><path d="m182.527344 360.144531-45.703125 23.855469 21.800781 25.40625c2.199219 2.5625 6.128906 2.589844 8.363281.058594l33.46875-37.902344zm0 0" fill="#00a6ff"/><path d="m66.570312 481.050781v30.949219h-15.453124v-30.949219c0-4.296875 3.460937-7.789062 7.726562-7.789062s7.726562 3.492187 7.726562 7.789062zm0 0" fill="#84caff"/><g fill="#644b32"><path d="m87.226562 209.414062h-52.875c-6.273437 0-11.375-5.140624-11.375-11.464843v-37.308594c0-6.320313 5.101563-11.460937 11.375-11.460937h52.875c6.273438 0 11.375 5.140624 11.375 11.460937v37.308594c0 6.324219-5.101562 11.464843-11.375 11.464843zm-48.792968-15.578124h44.710937v-29.082032h-44.710937zm0 0"/><path d="m179.082031 209.414062h-56.402343c-6.273438 0-11.375-5.140624-11.375-11.464843v-37.308594c0-6.320313 5.101562-11.460937 11.375-11.460937h56.402343c6.269531 0 11.375 5.140624 11.375 11.460937v37.308594c0 6.324219-5.105469 11.464843-11.375 11.464843zm-52.320312-15.578124h48.238281v-29.082032h-48.238281zm0 0"/><path d="m119.03125 177.859375h-28.15625c-4.269531 0-7.730469-3.488281-7.730469-7.789063 0-4.304687 3.460938-7.789062 7.730469-7.789062h28.15625c4.269531 0 7.730469 3.484375 7.730469 7.789062 0 4.300782-3.460938 7.789063-7.730469 7.789063zm0 0"/><path d="m214.921875 149.179688v15.578124h-36.085937c-4.273438 0-7.726563-3.488281-7.726563-7.789062 0-4.308594 3.453125-7.789062 7.726563-7.789062zm0 0"/></g></svg>