<svg height="512pt" viewBox="-87 0 512 512" width="512pt" xmlns="http://www.w3.org/2000/svg"><path d="m338.839844 446.527344v57.957031c0 4.144531-3.371094 7.515625-7.515625 7.515625h-232.054688c-4.15625 0-7.527343-3.371094-7.527343-7.515625v-57.957031c0-29.367188 19.300781-55.25 47.453124-63.632813l13.34375-3.976562c6.773438-2.011719 12.359376-6.402344 15.949219-12.09375 2.808594-4.441407 4.398438-9.675781 4.398438-15.199219v-29.285156l78.210937-10.882813v38.199219c0 7.269531 2.757813 14.042969 7.410156 19.152344 3.414063 3.75 7.84375 6.613281 12.941407 8.140625l19.949219 5.945312c28.152343 8.382813 47.441406 34.265625 47.441406 63.632813zm0 0" fill="#ffdba9"/><path d="m291.398438 382.894531-19.949219-5.949219c-5.097657-1.523437-9.527344-4.386718-12.941407-8.140624-4.652343-5.105469-7.410156-11.878907-7.410156-19.152344v-38.199219l-27.910156 3.886719v34.3125c0 7.273437 2.757812 14.046875 7.410156 19.152344 3.414063 3.753906 7.84375 6.617187 12.941406 8.140624l19.949219 5.949219c28.148438 8.382813 47.441407 34.265625 47.441407 63.632813v57.957031c0 4.144531-3.371094 7.515625-7.515626 7.515625h27.910157c4.144531 0 7.515625-3.371094 7.515625-7.515625v-57.957031c0-29.367188-19.289063-55.25-47.441406-63.632813zm0 0" fill="#ffc473"/><path d="m251.101562 311.453125v27.316406c-14.574218 10.5-32.464843 16.683594-51.800781 16.683594-9.199219 0-18.070312-1.402344-26.410156-4v-29.113281zm0 0" fill="#ffc473"/><path d="m110.558594 92.445312 27.566406-16.140624h149.933594v170.78125c0 29.6875-14.574219 55.972656-36.957032 72.074218-14.574218 10.503906-32.464843 16.683594-51.800781 16.683594-7.820312 0-15.410156-1.007812-22.636719-2.925781h-.011718c-38.039063-10.003907-66.09375-44.644531-66.09375-85.832031zm0 0" fill="#ffdba9"/><path d="m295.449219 235.65625h-7.394531v-60.511719h7.394531c16.710937 0 30.257812 13.546875 30.257812 30.257813 0 16.710937-13.546875 30.253906-30.257812 30.253906zm0 0" fill="#ffc473"/><path d="m155.769531 193.925781c0 4.875-3.949219 8.824219-8.820312 8.824219-4.871094 0-8.820313-3.949219-8.820313-8.824219 0-4.871093 3.949219-8.820312 8.820313-8.820312 4.871093 0 8.820312 3.949219 8.820312 8.820312zm0 0" fill="#57555c"/><path d="m226.34375 193.925781c0 4.875-3.949219 8.824219-8.820312 8.824219-4.871094 0-8.820313-3.949219-8.820313-8.824219 0-4.871093 3.949219-8.820312 8.820313-8.820312 4.871093 0 8.820312 3.949219 8.820312 8.820312zm0 0" fill="#57555c"/><path d="m180.132812 289.074219c-8.058593 0-14.480468-2.246094-17.589843-3.585938-4.035157-1.734375-5.894531-6.414062-4.160157-10.445312 1.738282-4.03125 6.417969-5.890625 10.445313-4.15625 3.074219 1.324219 11.214844 4.039062 20.351563.695312 6.988281-2.5625 11.152343-7.472656 13.011718-10.167969 2.496094-3.613281 7.445313-4.523437 11.058594-2.03125 3.613281 2.496094 4.523438 7.445313 2.03125 11.058594-2.933594 4.25-9.515625 11.992188-20.632812 16.066406-5.148438 1.886719-10.078126 2.566407-14.515626 2.566407zm0 0" fill="#c06100"/><path d="m338.84375 446.527344v28.269531h-46.765625v37.203125h-152.105469v-37.203125h-48.226562v-28.269531c0-29.367188 19.300781-55.25 47.453125-63.632813l13.34375-3.976562c6.773437-2.011719 12.355469-6.402344 15.949219-12.09375 11.734374 4.75 27.761718 9.242187 46.945312 9.359375 16.480469.097656 30.980469-3.0625 43.074219-7.378906 3.414062 3.753906 7.84375 6.617187 12.941406 8.140624l19.949219 5.949219c28.152344 8.382813 47.441406 34.265625 47.441406 63.632813zm0 0" fill="#ff52a1"/><path d="m263.996094 512h28.082031v-37.203125c-15.507813 0-28.082031 12.574219-28.082031 28.085937zm0 0" fill="#e80b6a"/><path d="m291.402344 382.894531-19.949219-5.949219c-5.097656-1.523437-9.527344-4.386718-12.941406-8.140624-6.394531 2.28125-13.460938 4.230468-21.136719 5.558593 1.867188 1.066407 3.867188 1.945313 5.992188 2.582031l19.949218 5.949219c28.152344 8.382813 47.441406 34.265625 47.441406 63.632813v28.269531h28.085938v-28.269531c0-29.367188-19.289062-55.25-47.441406-63.632813zm0 0" fill="#e80b6a"/><path d="m223.453125 14.945312v77.058594c0 9.488282 3.769531 18.585938 10.476563 25.292969l11.835937 11.835937c7.773437 7.773438 12.140625 18.320313 12.140625 29.316407v3.5c0 7.289062 5.910156 13.195312 13.195312 13.195312h16.953126v-115.699219c0-24.574218-19.925782-44.5-44.5-44.5zm0 0" fill="#6dd7a7"/><path d="m288.054688 119.796875h-266.0625c-12.144532 0-21.992188-9.84375-21.992188-21.992187v-3.410157c0-1.078125.871094-1.949219 1.949219-1.949219h286.105469zm0 0" fill="#ff4f18"/><path d="m1.648438 92.472656c-.933594.144532-1.648438.945313-1.648438 1.921875v3.410157c0 12.148437 9.847656 21.992187 21.992188 21.992187h266.0625v-13.675781h-266.0625c-9.1875 0-17.054688-5.640625-20.34375-13.648438zm0 0" fill="#ca1c01"/><path d="m288.054688 92.441406h-178.457032v-42.617187c0-27.519531 22.304688-49.824219 49.820313-49.824219h78.816406c27.515625 0 49.820313 22.304688 49.820313 49.824219zm0 0" fill="#ff9a01"/><g fill="#ffda2d"><path d="m237.773438 92.441406h-99.644532v-42.617187c0-27.519531 22.304688-49.824219 49.820313-49.824219s49.824219 22.304688 49.824219 49.824219zm0 0"/><path d="m179.027344 392.75c0 4.871094-3.949219 8.820312-8.820313 8.820312-4.875 0-8.824219-3.949218-8.824219-8.820312s3.949219-8.820312 8.824219-8.820312c4.871094 0 8.820313 3.949218 8.820313 8.820312zm0 0"/><path d="m191.238281 414.691406c0 4.871094-3.949219 8.820313-8.820312 8.820313-4.871094 0-8.820313-3.949219-8.820313-8.820313s3.949219-8.820312 8.820313-8.820312c4.871093 0 8.820312 3.949218 8.820312 8.820312zm0 0"/><path d="m210.785156 434.1875c0 4.871094-3.949218 8.820312-8.820312 8.820312s-8.820313-3.949218-8.820313-8.820312 3.949219-8.820312 8.820313-8.820312 8.820312 3.949218 8.820312 8.820312zm0 0"/><path d="m236.652344 434.1875c0 4.871094-3.949219 8.820312-8.820313 8.820312-4.871093 0-8.820312-3.949218-8.820312-8.820312s3.949219-8.820312 8.820312-8.820312c4.871094 0 8.820313 3.949218 8.820313 8.820312zm0 0"/><path d="m254.292969 413.179688c0 4.871093-3.949219 8.820312-8.820313 8.820312s-8.820312-3.949219-8.820312-8.820312c0-4.871094 3.949218-8.820313 8.820312-8.820313s8.820313 3.949219 8.820313 8.820313zm0 0"/><path d="m265.5 392.75c0 4.871094-3.949219 8.820312-8.820312 8.820312-4.871094 0-8.820313-3.949218-8.820313-8.820312s3.949219-8.820312 8.820313-8.820312c4.871093 0 8.820312 3.949218 8.820312 8.820312zm0 0"/></g><path d="m315.703125 272.304688c0 4.871093-3.949219 8.820312-8.820313 8.820312-4.871093 0-8.820312-3.949219-8.820312-8.820312 0-4.871094 3.949219-8.820313 8.820312-8.820313 4.871094 0 8.820313 3.949219 8.820313 8.820313zm0 0" fill="#6dd7a7"/><path d="m306.882812 256.625c-4.390624 0-7.949218-3.558594-7.949218-7.949219v-15.253906c0-4.390625 3.558594-7.949219 7.949218-7.949219 4.390626 0 7.949219 3.558594 7.949219 7.949219v15.253906c0 4.390625-3.558593 7.949219-7.949219 7.949219zm0 0" fill="#ff52a1"/></svg>