<svg height="511pt" viewBox="-120 0 511 511.9995" width="511pt" xmlns="http://www.w3.org/2000/svg"><path d="m271.179688 448.785156v55.957032c0 4.003906-3.265626 7.257812-7.265626 7.257812h-224.066406c-4.011718 0-7.269531-3.253906-7.269531-7.257812v-55.957032c0-28.359375 18.636719-53.351562 45.820313-61.449218l12.882812-3.835938c6.539062-1.945312 11.933594-6.179688 15.402344-11.675781 2.714844-4.289063 4.25-9.34375 4.25-14.675781v-28.277344l75.515625-10.511719v36.882813c0 7.023437 2.660156 13.5625 7.15625 18.496093 3.292969 3.621094 7.570312 6.386719 12.496093 7.859375l19.257813 5.742188c27.183594 8.09375 45.820313 33.085937 45.820313 61.445312zm0 0" fill="#ffdba9"/><path d="m225.359375 387.335938-19.261719-5.738282c-4.921875-1.476562-9.199218-4.238281-12.496094-7.859375-4.492187-4.933593-7.152343-11.472656-7.152343-18.496093v-36.882813l-75.519531 10.511719v9.871094l48.402343-6.738282v36.882813c0 7.023437 2.660157 13.5625 7.152344 18.496093 3.296875 3.621094 7.574219 6.386719 12.496094 7.859376l19.261719 5.742187c27.179687 8.09375 45.816406 33.085937 45.816406 61.445313v49.570312h19.851562c4.003906 0 7.265625-3.253906 7.265625-7.257812v-55.957032c.003907-28.359375-18.632812-53.351562-45.816406-61.449218zm0 0" fill="#ffc473"/><path d="m186.449219 318.359375v26.546875c-14.070313 10.132812-31.347657 16.097656-50.011719 16.097656-8.886719 0-17.449219-1.351562-25.503906-3.855468v-28.277344zm0 0" fill="#ffc473"/><path d="m136.4375 341.90625c-47.328125 0-85.695312-38.367188-85.695312-85.695312v-164.902344h171.390624v164.902344c0 47.328124-38.367187 85.695312-85.695312 85.695312zm0 0" fill="#ffdba9"/><path d="m229.277344 245.171875h-7.144532v-58.429687h7.144532c16.132812 0 29.210937 13.082031 29.210937 29.214843 0 16.136719-13.078125 29.214844-29.210937 29.214844zm0 0" fill="#ffc473"/><path d="m94.402344 204.878906c0 4.707032-3.8125 8.519532-8.515625 8.519532s-8.515625-3.8125-8.515625-8.519532c0-4.703125 3.8125-8.515625 8.515625-8.515625s8.515625 3.8125 8.515625 8.515625zm0 0" fill="#57555c"/><path d="m162.546875 204.878906c0 4.707032-3.8125 8.519532-8.515625 8.519532s-8.519531-3.8125-8.519531-8.519532c0-4.703125 3.816406-8.515625 8.519531-8.515625s8.515625 3.8125 8.515625 8.515625zm0 0" fill="#57555c"/><path d="m117.929688 296.75c-7.78125 0-13.984376-2.167969-16.988282-3.460938-3.894531-1.675781-5.691406-6.191406-4.015625-10.085937 1.679688-3.894531 6.191407-5.691406 10.085938-4.015625 2.96875 1.28125 10.824219 3.902344 19.652343.671875 6.746094-2.472656 10.765626-7.214844 12.566407-9.816406 2.40625-3.492188 7.183593-4.367188 10.675781-1.960938s4.367188 7.1875 1.957031 10.675781c-2.832031 4.105469-9.183593 11.582032-19.917969 15.515626-4.972656 1.820312-9.734374 2.476562-14.015624 2.476562zm0 0" fill="#c06100"/><path d="m271.171875 448.785156v27.292969h-45.152344v35.921875h-146.871093v-35.921875h-46.5625v-27.292969c0-28.359375 18.636718-53.351562 45.816406-61.449218l12.886718-3.835938c6.539063-1.945312 11.929688-6.179688 15.402344-11.675781 11.328125 4.582031 26.800782 8.921875 45.324219 9.035156 15.917969.089844 29.917969-2.957031 41.59375-7.121094 3.296875 3.621094 7.574219 6.386719 12.496094 7.859375l19.261719 5.738282c27.179687 8.097656 45.804687 33.089843 45.804687 61.449218zm0 0" fill="#96a0ef"/><path d="m225.359375 387.335938-19.261719-5.738282c-4.921875-1.476562-9.199218-4.238281-12.492187-7.859375-9.191407 3.277344-19.824219 5.855469-31.695313 6.765625 1.175782 2.511719 2.714844 4.835938 4.578125 6.878906 3.292969 3.621094 7.570313 6.386719 12.496094 7.859376l19.257813 5.742187c27.183593 8.09375 45.820312 33.085937 45.820312 61.445313v13.648437h27.113281v-27.292969c0-14.179687-4.65625-27.519531-12.710937-38.324218-8.058594-10.804688-19.515625-19.074219-33.105469-23.125zm0 0" fill="#7985eb"/><path d="m233.558594 86.914062v25.402344h-192.390625l.070312-25.402344c0-3.355468.203125-6.671874.613281-9.914062 2.128907-17.101562 9.691407-32.527344 20.917969-44.46875 14.492188-15.445312 35.082031-25.085938 57.9375-25.085938h33.371094c8.78125 0 17.226563 1.425782 25.117187 4.054688 6.40625 2.128906 12.453126 5.054688 18.023438 8.65625 21.867188 14.15625 36.339844 38.769531 36.339844 66.757812zm0 0" fill="#ffda2d"/><path d="m197.214844 20.160156c-5.566406-3.605468-11.613282-6.53125-18.023438-8.660156-7.886718-2.628906-16.332031-4.050781-25.113281-4.050781h-33.371094c-1.339843 0-2.667969.039062-3.992187.105469 7.378906.355468 14.492187 1.710937 21.199218 3.945312 6.40625 2.128906 12.457032 5.058594 18.023438 8.660156 21.871094 14.152344 36.34375 38.765625 36.34375 66.753906v25.402344h41.277344v-25.402344c0-27.988281-14.472656-52.601562-36.34375-66.753906zm0 0" fill="#fec002"/><g fill="#ff9a01"><path d="m88.214844 167.230469h-79.902344c-7.515625 0-10.679688-9.582031-4.644531-14.058594l23.675781-17.566406h133.632812l-18.433593 13.675781c-15.714844 11.65625-34.761719 17.949219-54.328125 17.949219zm0 0"/><path d="m106.46875 87.78125h-14.335938c-3.707031 0-6.824218-2.742188-7.335937-6.414062-1.714844-12.414063-2.070313-31.351563 7.011719-50.609376 4.21875-8.945312 9.703125-20.574218 22.507812-26.832031 20.285156-9.917969 42.089844 1.886719 45.011719 3.523438-4.972656-.257813-14.617187-.066407-23.316406 5.953125-7.429688 5.144531-12.144531 13.707031-16.070313 26.011718-5.089844 15.96875-6.207031 30.25-6.074218 40.828126.054687 4.140624-3.253907 7.539062-7.398438 7.539062zm0 0"/><path d="m188.292969 37.652344c-4.144531 12.988281-5.046875 24.613281-4.945313 33.210937.054688 3.375-2.648437 6.140625-6.015625 6.140625h-11.65625c-3.019531 0-5.558593-2.234375-5.976562-5.222656-1.394531-10.101562-1.679688-25.5 5.710937-41.171875 2.882813-6.117187 6.507813-13.792969 13.785156-19.105469 6.40625 2.128906 12.453126 5.054688 18.023438 8.65625-3.78125 4.195313-6.53125 9.988282-8.925781 17.492188zm0 0"/><path d="m60.96875 37.648438c-4.144531 12.988281-5.042969 24.613281-4.941406 33.210937.050781 3.375-2.652344 6.140625-6.019532 6.140625h-8.15625c2.128907-17.101562 9.691407-32.523438 20.917969-44.46875-.625 1.605469-1.226562 3.316406-1.800781 5.117188zm0 0"/></g><path d="m222.132812 186.742188h-12.316406c-6.957031 0-12.601562-5.640626-12.601562-12.601563v-1.84375c0-3.578125-1.40625-7.011719-3.917969-9.558594l-14.574219-14.773437c-2.511718-2.546875-3.921875-5.980469-3.921875-9.558594v-14.449219h47.335938v62.785157zm0 0" fill="#715539"/><path d="m241.621094 135.605469h-214.355469v-14.265625c0-4.984375 4.039063-9.019532 9.023437-9.019532h205.332032c4.148437 0 7.515625 3.363282 7.515625 7.511719v8.261719c0 4.148438-3.367188 7.511719-7.515625 7.511719zm0 0" fill="#ff4f18"/><path d="m241.621094 112.320312h-46.035156c4.148437 0 7.515624 3.363282 7.515624 7.511719v8.261719c0 4.148438-3.367187 7.511719-7.515624 7.511719h46.035156c4.148437 0 7.515625-3.363281 7.515625-7.511719v-8.261719c0-4.148437-3.367188-7.511719-7.515625-7.511719zm0 0" fill="#ee2500"/></svg>