<svg height="512pt" viewBox="-122 0 512 512.0006" width="512pt" xmlns="http://www.w3.org/2000/svg"><path d="m269.203125 445.785156v58.613282c0 4.195312-3.40625 7.601562-7.601563 7.601562h-234.695312c-4.207031 0-7.613281-3.40625-7.613281-7.601562v-58.613282c0-29.703125 19.523437-55.886718 47.992187-64.359375l13.5-4.03125c6.84375-2.035156 12.492188-6.46875 16.128906-12.222656 2.597657-4.101563 4.164063-8.867187 4.414063-13.914063.03125-.488281.039063-.976562.039063-1.464843v-28.820313l79.09375-11.808594v38.632813c0 7.363281 2.796874 14.207031 7.5 19.378906 3.449218 3.789063 7.933593 6.6875 13.085937 8.226563l20.179687 6.023437c28.472657 8.476563 47.976563 34.65625 47.976563 64.359375zm0 0" fill="#ffdba9"/><path d="m55.339844 388.820312c4.828125-1.433593 9.042968-4.082031 12.394531-7.527343l-.453125.132812c-7.300781 2.175781-14.011719 5.523438-19.960938 9.789063zm0 0" fill="#ffc473"/><path d="m221.222656 381.425781-20.175781-6.023437c-5.152344-1.539063-9.636719-4.433594-13.085937-8.222656-4.707032-5.171876-7.5-12.015626-7.5-19.378907v-38.632812l-79.09375 11.808593v7.625l53.652343-8.011718v38.632812c0 7.363282 2.792969 14.207032 7.496094 19.378906 3.449219 3.792969 7.933594 6.6875 13.085937 8.226563l20.179688 6.023437c28.476562 8.472657 47.980469 34.652344 47.980469 64.355469v54.792969h17.839843c4.195313 0 7.605469-3.40625 7.605469-7.601562v-58.613282c-.003906-29.703125-19.507812-55.882812-47.984375-64.359375zm0 0" fill="#ffc473"/><path d="m180.460938 309.164062v29.921876c-14.070313 9.78125-31.15625 15.515624-49.578126 15.515624h-5.609374c-8.308594 0-16.335938-1.164062-23.949219-3.34375.03125-.488281.042969-.976562.042969-1.464843v-28.820313zm0 0" fill="#ffc473"/><path d="m130.878906 333.832031h-5.605468c-48.027344 0-86.960938-38.933593-86.960938-86.960937v-175.527344l179.527344 9.90625v165.621094c0 48.027344-38.933594 86.960937-86.960938 86.960937zm0 0" fill="#ffdba9"/><path d="m226.273438 232.507812h-8.433594v-61.203124h8.433594c16.375 0 29.644531 13.273437 29.644531 29.648437v1.910156c.003906 16.371094-13.269531 29.644531-29.644531 29.644531zm0 0" fill="#ffc473"/><path d="m84.046875 190.304688c0 4.925781-3.996094 8.921874-8.921875 8.921874s-8.921875-3.996093-8.921875-8.921874c0-4.929688 3.996094-8.921876 8.921875-8.921876s8.921875 3.992188 8.921875 8.921876zm0 0" fill="#57555c"/><path d="m155.425781 190.304688c0 4.925781-3.996093 8.921874-8.921875 8.921874-4.925781 0-8.921875-3.996093-8.921875-8.921874 0-4.929688 3.996094-8.921876 8.921875-8.921876 4.925782 0 8.921875 3.992188 8.921875 8.921876zm0 0" fill="#57555c"/><path d="m108.6875 286.285156c-8.105469 0-14.566406-2.261718-17.695312-3.609375-3.949219-1.699219-5.773438-6.28125-4.074219-10.230469 1.703125-3.953124 6.285156-5.777343 10.234375-4.074218 3.136718 1.347656 11.441406 4.121094 20.765625.707031 7.136719-2.617187 11.386719-7.625 13.285156-10.378906 2.441406-3.539063 7.292969-4.429688 10.835937-1.988281 3.539063 2.445312 4.429688 7.292968 1.988282 10.835937-2.949219 4.273437-9.566406 12.058594-20.746094 16.15625-5.175781 1.898437-10.136719 2.582031-14.59375 2.582031zm0 0" fill="#c06100"/><path d="m269.207031 445.785156v28.589844h-47.296875v37.625h-153.839844v-37.625h-48.777343v-28.589844c0-29.707031 19.519531-55.882812 47.992187-64.363281l13.496094-4.019531c6.851562-2.039063 12.5-6.476563 16.132812-12.234375 11.867188 4.804687 25.140626 28.839843 44.539063 28.960937 16.671875.097656 34.273437-22.589844 46.503906-26.953125 3.453125 3.792969 7.933594 6.6875 13.089844 8.230469l20.175781 6.015625c28.472656 8.480469 47.984375 34.65625 47.984375 64.363281zm0 0" fill="#0282d1"/><path d="m221.222656 381.425781-11.601562-3.464843-8.574219-2.554688c-1.773437-.53125-3.460937-1.230469-5.058594-2.066406-3.050781-1.582032-5.765625-3.675782-8.027343-6.164063-.003907 0-.003907 0-.003907 0-6.082031 2.167969-13.492187 8.867188-21.453125 15.042969 2.683594 2.023438 5.746094 3.605469 9.097656 4.609375l20.179688 6.023437c28.472656 8.472657 47.976562 34.652344 47.976562 64.355469v17.164063h25.445313v-28.585938c0-29.703125-19.503906-55.882812-47.980469-64.359375zm0 0" fill="#0070b4"/><path d="m91.878906 138.714844h-83.695312c-7.871094 0-11.1875-10.039063-4.867188-14.726563l24.804688-18.398437h139.96875l-19.308594 14.324218c-16.457031 12.207032-36.40625 18.800782-56.902344 18.800782zm0 0" fill="#00459f"/><path d="m217.839844 171.304688h-12.902344c-7.289062 0-13.199219-5.902344-13.199219-13.1875v-1.933594c0-3.742188-1.476562-7.339844-4.109375-10.003906l-15.261718-15.460938c-2.632813-2.667969-4.109376-6.261719-4.109376-10.007812v-15.121094h49.582032zm0 0" fill="#715539"/><path d="m217.839844 83.617188c0-16.207032-9.371094-30.949219-24.042969-37.828126l-60.054687-28.167968-30.21875-12.84375c-15.414063-6.550782-32.871094-6.355469-48.136719.535156l-8.703125 3.929688c-11.300782 5.097656-18.5625 16.347656-18.5625 28.742187v67.605469h189.71875zm0 0" fill="#0282d1"/><path d="m193.796875 45.789062-60.054687-28.167968-30.21875-12.84375c-15.160157-6.441406-32.28125-6.347656-47.363282.210937l29.726563 12.632813 60.054687 28.167968c14.671875 6.878907 24.042969 21.621094 24.042969 37.824219v21.976563h47.851563v-21.972656c.003906-16.207032-9.367188-30.949219-24.039063-37.828126zm0 0" fill="#0070b4"/><path d="m70.242188 44.808594c3.449218-3.515625 8.96875-3.863282 12.753906-.710938.140625.113282.277344.230469.421875.347656 4.363281 3.519532 8.683593 5.304688 11.558593 6.230469-.109374 2.914063-.742187 9.128907-4.757812 15.566407-3.4375 5.511718-7.863281 8.800781-11.011719 10.636718-1.75 1.015625-3.90625 1.007813-5.640625-.039062-2.644531-1.601563-6.171875-4.332032-9.019531-8.726563-4.289063-6.621093-4.515625-13.140625-4.476563-15.621093 2.78125-1.515626 6.457032-3.910157 10.085938-7.59375.03125-.03125.058594-.058594.085938-.089844zm0 0" fill="#ffda2d"/><path d="m136.105469 393.863281-13.09375 118.136719h41.328125l-16.472656-118.339844c-1.226563-6.621094-10.769532-6.453125-11.761719.203125zm0 0" fill="#ffda2d"/><g fill="#00459f"><path d="m37.125 398.621094c-1.835938 0-3.679688-.648438-5.164062-1.960938-3.21875-2.851562-3.515626-7.773437-.664063-10.996094 3.058594-3.453124 6.625-6.394531 10.597656-8.738281 4.023438-2.375 8.375-4.089843 12.9375-5.09375 4.207031-.925781 8.359375 1.730469 9.28125 5.933594.925781 4.199219-1.730469 8.355469-5.929687 9.28125-2.953125.648437-5.769532 1.757813-8.371094 3.292969-2.566406 1.515625-4.875 3.417968-6.855469 5.652344-1.539062 1.742187-3.683593 2.628906-5.832031 2.628906zm0 0"/><path d="m250.597656 398.621094c-2.152344 0-4.292968-.886719-5.832031-2.625-1.980469-2.234375-4.285156-4.136719-6.855469-5.65625-2.601562-1.535156-5.417968-2.644532-8.367187-3.292969-4.203125-.925781-6.859375-5.082031-5.933594-9.28125.925781-4.203125 5.078125-6.859375 9.28125-5.933594 4.5625 1.003907 8.914063 2.71875 12.9375 5.09375 3.972656 2.34375 7.539063 5.285157 10.597656 8.738281 2.855469 3.222657 2.554688 8.144532-.664062 10.996094-1.484375 1.3125-3.328125 1.960938-5.164063 1.960938zm0 0"/><path d="m96.917969 365.171875 44.535156 23.0625-19.894531 23.007813c-2.855469 3.304687-7.964844 3.339843-10.867188.078124l-30.183594-33.917968zm0 0"/><path d="m186.210938 365.058594-44.753907 23.175781 19.894531 23.007813c2.855469 3.300781 7.964844 3.335937 10.867188.074218l31.246094-35.109375zm0 0"/></g></svg>