<svg height="512pt" viewBox="-136 0 512 512.00103" width="512pt" xmlns="http://www.w3.org/2000/svg"><path d="m239.871094 448.625v56.101562c0 4.011719-3.265625 7.273438-7.277344 7.273438h-224.628906c-4.019532 0-7.285156-3.261719-7.285156-7.273438v-56.101562c0-27.847656 17.925781-52.449219 44.261718-61.078125.554688-.183594 1.109375-.359375 1.671875-.523437l12.917969-3.847657c6.554688-1.949219 11.964844-6.195312 15.441406-11.707031 1.34375-2.113281 2.390625-4.429688 3.117188-6.875.75-2.492188 1.140625-5.128906 1.140625-7.835938v-25.527343l75.707031-13.359375v36.976562c0 3.40625.625 6.699219 1.785156 9.746094 0 .011719.011719.019531.011719.03125 1.230469 3.242188 3.054687 6.21875 5.375 8.761719 3.304687 3.632812 7.59375 6.402343 12.527344 7.878906l16.558593 4.9375 2.75.820313c.074219.019531.144532.039062.214844.0625 27.140625 8.1875 45.710938 33.179687 45.710938 61.539062zm0 0" fill="#ffc088"/><path d="m194.160156 387.085938c-.070312-.019532-.140625-.042969-.214844-.0625l-2.746093-.820313-16.5625-4.933594c-4.933594-1.480469-9.222657-4.25-12.527344-7.882812-2.316406-2.542969-4.144531-5.519531-5.375-8.761719 0-.007812-.011719-.019531-.011719-.03125-1.160156-3.046875-1.785156-6.339844-1.785156-9.746094v-36.976562l-75.707031 13.359375v3.375l50.871093-8.976563v36.976563c0 3.40625.625 6.699219 1.785157 9.746093 0 .011719.011719.023438.011719.03125 1.230468 3.242188 3.058593 6.21875 5.375 8.761719 3.304687 3.632813 7.59375 6.402344 12.527343 7.882813l16.5625 4.933594 2.746094.820312c.074219.019531.144531.042969.214844.0625 27.140625 8.1875 45.710937 33.179688 45.710937 61.539062v55.617188h17.558594c4.015625 0 7.277344-3.261719 7.277344-7.273438v-56.101562c0-28.359375-18.570313-53.351562-45.710938-61.539062zm0 0" fill="#f4a37a"/><path d="m154.9375 317.875v21.308594c-14.105469 10.167968-31.425781 16.148437-50.148438 16.148437-8.898437 0-17.484374-1.355469-25.558593-3.859375v-20.242187zm0 0" fill="#f4a37a"/><path d="m104.792969 341.476562c-47.449219 0-85.910157-38.464843-85.910157-85.910156v-165.316406h171.820313v165.316406c0 47.445313-38.460937 85.910156-85.910156 85.910156zm0 0" fill="#ffc088"/><path d="m197.863281 244.5h-7.160156v-58.574219h7.160156c16.175781 0 29.289063 13.113281 29.289063 29.289063 0 16.171875-13.113282 29.285156-29.289063 29.285156zm0 0" fill="#f4a37a"/><path d="m62.652344 204.105469c0 4.71875-3.824219 8.539062-8.539063 8.539062-4.714843 0-8.539062-3.820312-8.539062-8.539062 0-4.714844 3.824219-8.535157 8.539062-8.535157 4.714844 0 8.539063 3.820313 8.539063 8.535157zm0 0" fill="#57555c"/><path d="m130.96875 204.105469c0 4.71875-3.824219 8.539062-8.539062 8.539062-4.714844 0-8.539063-3.820312-8.539063-8.539062 0-4.714844 3.824219-8.535157 8.539063-8.535157 4.714843 0 8.539062 3.820313 8.539062 8.535157zm0 0" fill="#57555c"/><path d="m115.746094 397.632812-28.738282 13.882813-36.617187-13.882813-5.449219-10.085937c.554688-.183594 1.109375-.359375 1.671875-.523437l12.917969-3.84375c6.554688-1.953126 11.964844-6.199219 15.441406-11.707032 1.34375-2.113281 2.390625-4.433594 3.117188-6.875h.371094c2.164062-.070312 18.578124-.3125 29.378906 12.722656 6.628906 8 7.679687 16.8125 7.90625 20.3125zm0 0" fill="#96a0ef"/><path d="m194.160156 387.085938-9.273437 10.546874-36.605469 13.882813-28.75-13.882813c.226562-3.5 1.285156-12.3125 7.910156-20.316406 10.640625-12.84375 26.726563-12.792968 29.28125-12.722656 0 .011719.011719.023438.011719.03125 1.230469 3.242188 3.058594 6.21875 5.378906 8.761719 3.300781 3.632812 7.589844 6.402343 12.527344 7.882812l16.558594 4.933594 2.75.820313c.070312.019531.140625.042968.210937.0625zm0 0" fill="#96a0ef"/><path d="m86.234375 296.207031c-7.800781 0-14.015625-2.171875-17.027344-3.46875-3.90625-1.683593-5.703125-6.207031-4.023437-10.113281 1.679687-3.902344 6.210937-5.699219 10.113281-4.023438 2.972656 1.28125 10.851563 3.914063 19.695313.671876 6.765624-2.480469 10.796874-7.230469 12.597656-9.839844 2.410156-3.5 7.203125-4.378906 10.703125-1.964844 3.496093 2.410156 4.378906 7.203125 1.964843 10.703125-2.839843 4.113281-9.207031 11.605469-19.972656 15.550781-4.980468 1.828125-9.757812 2.484375-14.050781 2.484375zm0 0" fill="#c06100"/><path d="m239.871094 448.625v27.363281h-45.269532v36.011719h-147.238281v-36.011719h-46.683593v-27.363281c0-28.429688 18.683593-53.484375 45.933593-61.601562l12.917969-3.847657c9.019531 4.996094 29.804688 14.9375 57.949219 14.4375 27.976562-.503906 48.304687-11.050781 57.15625-16.34375l19.308593 5.753907c27.25 8.117187 45.925782 33.171874 45.925782 61.601562zm0 0" fill="#f7f7f7"/><path d="m190.703125 185.925781h-12.34375c-6.980469 0-12.636719-5.652343-12.636719-12.625v-1.847656c0-3.585937-1.410156-7.023437-3.929687-9.578125l-14.609375-14.796875c-2.519532-2.550781-3.933594-5.992187-3.933594-9.574219v-14.476562h47.453125zm0 0" fill="#715539"/><path d="m208.914062 23.867188c-.457031-13.40625-11.835937-23.867188-25.25-23.867188h-158.378906c-13.527344 0-24.96875 10.628906-25.2773435 24.152344-.2109375 9.257812 4.6679685 17.390625 12.0312495 21.804687 4.25 2.546875 6.839844 7.144531 6.839844 12.097657v96.421874h171.824219v-96.824218c0-4.8125 2.417969-9.355469 6.511719-11.894532 7.257812-4.5 12.015625-12.652343 11.699218-21.890624zm0 0" fill="#efefef"/><path d="m208.914062 23.867188c-.457031-13.40625-11.835937-23.867188-25.25-23.867188h-32.210937c13.414063 0 24.789063 10.460938 25.246094 23.867188.316406 9.242187-4.441407 17.390624-11.699219 21.890624-4.089844 2.539063-6.507812 7.082032-6.507812 11.894532v96.824218h32.210937v-96.824218c0-4.8125 2.417969-9.355469 6.511719-11.894532 7.257812-4.5 12.015625-12.652343 11.699218-21.890624zm0 0" fill="#e1e1e3"/><path d="m18.882812 114.335938h171.820313v40.136718h-171.820313zm0 0" fill="#e1e1e3"/><path d="m158.476562 114.335938h32.214844v40.136718h-32.214844zm0 0" fill="#c8c6cd"/><g fill="#fff"><path d="m169.765625 139.136719v15.335937h-15.390625v-15.335937c0-4.25 3.445312-7.695313 7.691406-7.695313 4.25 0 7.699219 3.445313 7.699219 7.695313zm0 0"/><path d="m141.128906 139.136719v15.335937h-15.390625v-15.335937c0-4.25 3.4375-7.695313 7.695313-7.695313 4.25 0 7.695312 3.445313 7.695312 7.695313zm0 0"/><path d="m112.484375 139.136719v15.335937h-15.390625v-15.335937c0-4.25 3.445312-7.695313 7.695312-7.695313 4.257813 0 7.695313 3.445313 7.695313 7.695313zm0 0"/><path d="m83.847656 139.136719v15.335937h-15.390625v-15.335937c0-4.25 3.449219-7.695313 7.695313-7.695313s7.695312 3.445313 7.695312 7.695313zm0 0"/><path d="m55.210938 139.136719v15.335937h-15.390626v-15.335937c0-4.25 3.449219-7.695313 7.695313-7.695313 4.25 0 7.695313 3.445313 7.695313 7.695313zm0 0"/></g><path d="m239.871094 448.625v27.363281h-45.269532v36.011719h-116.140624v-73.171875c0-3.59375 2.914062-6.484375 6.503906-6.484375 11.011718-.011719 33.910156-1.316406 52.152344-11.03125 26.902343-14.3125 37.519531-40.042969 37.519531-40.042969l10.90625 3.25 8.402343 2.503907c27.25 8.117187 45.925782 33.171874 45.925782 61.601562zm0 0" fill="#e1e1e3"/><path d="m239.871094 448.625v27.363281h-45.269532v36.011719h-107.59375v-65.417969c0-3.589843 2.914063-6.484375 6.503907-6.484375 11.007812-.007812 33.910156-1.3125 52.152343-11.027344 21.800782-11.59375 35.476563-35.789062 39.878907-44.550781l8.40625 2.503907c27.246093 8.117187 45.921875 33.171874 45.921875 61.601562zm0 0" fill="#f7f7f7"/><path d="m112.515625 456.0625c0 4.714844-3.820313 8.539062-8.539063 8.539062-4.714843 0-8.535156-3.824218-8.535156-8.539062s3.820313-8.539062 8.535156-8.539062c4.71875 0 8.539063 3.824218 8.539063 8.539062zm0 0" fill="#96a0ef"/><path d="m112.515625 485.566406c0 4.714844-3.820313 8.539063-8.539063 8.539063-4.714843 0-8.535156-3.824219-8.535156-8.539063s3.820313-8.535156 8.535156-8.535156c4.71875 0 8.539063 3.820312 8.539063 8.535156zm0 0" fill="#96a0ef"/><path d="m194.160156 387.085938c-.070312-.019532-.140625-.042969-.214844-.0625l-2.746093-.820313-16.5625-4.933594c-4.144531 2.476563-10.804688 6.105469-19.585938 9.320313l11.3125 3.371094 2.746094.820312c.074219.019531.144531.039062.214844.0625 27.140625 8.183594 45.710937 33.179688 45.710937 61.539062v19.605469h24.835938v-27.363281c0-28.359375-18.570313-53.351562-45.710938-61.539062zm0 0" fill="#e1e1e3"/></svg>