<svg height="512pt" viewBox="-123 0 512 512" width="512pt" xmlns="http://www.w3.org/2000/svg"><path d="m266.320312 441.4375v62.460938c0 4.46875-3.632812 8.101562-8.101562 8.101562h-250.105469c-4.480469 0-8.113281-3.632812-8.113281-8.101562v-62.460938c0-31.652344 20.800781-59.558594 51.144531-68.59375l14.386719-4.277344c7.296875-2.167968 13.3125-6.90625 17.191406-13.03125 2.761719-4.375 4.429688-9.457031 4.695313-14.839844.035156-.515624.042969-1.03125.042969-1.546874v-26.9375l84.292968-16.363282v41.171875c0 7.84375 2.976563 15.140625 7.984375 20.640625 3.683594 4.050782 8.453125 7.136719 13.957031 8.78125l21.488282 6.402344c30.34375 9.039062 51.136718 36.941406 51.136718 68.59375zm0 0" fill="#ffdba9"/><path d="m171.753906 295.847656v32.511719c-14.332031 9.640625-31.578125 15.257813-50.144531 15.257813h-11.367187c-7.886719 0-15.539063-1.007813-22.824219-2.921876.035156-.515624.042969-1.03125.042969-1.546874v-26.9375zm0 0" fill="#ffc473"/><path d="m211.585938 103.035156v129.125c0 49.691406-40.28125 89.972656-89.972657 89.972656h-11.371093c-49.691407 0-89.972657-40.28125-89.972657-89.972656v-136.5l44.234375-60.125zm0 0" fill="#ffdba9"/><path d="m221.492188 214.15625h-9.90625v-65.21875h9.90625c16.941406 0 30.671874 13.730469 30.671874 30.671875v3.875c0 16.941406-13.730468 30.671875-30.671874 30.671875zm0 0" fill="#ffc473"/><path d="m69.007812 169.183594c0 5.25-4.257812 9.503906-9.507812 9.503906s-9.507812-4.253906-9.507812-9.503906c0-5.253906 4.257812-9.507813 9.507812-9.507813s9.507812 4.253907 9.507812 9.507813zm0 0" fill="#57555c"/><path d="m266.320312 441.4375v62.460938c0 4.46875-3.632812 8.101562-8.101562 8.101562h-250.105469c-4.480469 0-8.113281-3.632812-8.113281-8.101562v-62.460938c0-31.652344 20.800781-59.558594 51.144531-68.59375l14.386719-4.277344c7.296875-2.167968 13.3125-6.90625 17.191406-13.03125l47.910156 17.546875 49.105469-15.421875c3.683594 4.050782 8.457031 7.136719 13.957031 8.78125l21.492188 6.402344c30.339844 9.039062 51.132812 36.941406 51.132812 68.59375zm0 0" fill="#57555c"/><path d="m100.367188 380.886719 27.769531-8.71875-45.414063-16.632813c-3.765625 5.949219-9.5625 10.570313-16.578125 12.820313zm0 0" fill="#3c3b41"/><path d="m215.1875 372.84375-21.492188-6.402344c-5.5-1.644531-10.273437-4.726562-13.957031-8.78125l-29.003906 9.109375c3.488281 3.40625 7.800781 6.015625 12.695313 7.476563l21.488281 6.40625c30.34375 9.035156 51.136719 36.9375 51.136719 68.59375v62.457031c0 .101563-.011719.199219-.015626.296875h22.179688c4.472656 0 8.101562-3.632812 8.101562-8.101562v-62.457032c0-31.65625-20.792968-59.558594-51.132812-68.597656zm0 0" fill="#3c3b41"/><path d="m145.070312 169.183594c0 5.25-4.253906 9.503906-9.503906 9.503906s-9.507812-4.253906-9.507812-9.503906c0-5.253906 4.257812-9.507813 9.507812-9.507813s9.503906 4.253907 9.503906 9.507813zm0 0" fill="#57555c"/><path d="m182.832031 360.636719-11.722656 151.363281h-78.046875l-14.378906-151.363281 43.890625 10.511719 8.058593 1.933593 8.0625-1.925781zm0 0" fill="#ffb1d7"/><path d="m138.695312 371.15625v140.84375h-16.121093v-140.851562l8.058593 1.933593zm0 0" fill="#ff90c2"/><path d="m95.261719 271.222656c-8.589844 0-15.4375-2.398437-18.757813-3.824218-4.085937-1.761719-5.972656-6.503907-4.210937-10.589844 1.761719-4.089844 6.503906-5.972656 10.589843-4.214844 3.367188 1.453125 12.285157 4.429688 22.304688.757812 7.664062-2.808593 12.230469-8.1875 14.273438-11.144531 2.527343-3.664062 7.542968-4.585937 11.207031-2.058593 3.664062 2.527343 4.585937 7.546874 2.058593 11.210937-3.125 4.53125-10.140624 12.78125-21.988281 17.125-5.492187 2.011719-10.746093 2.738281-15.476562 2.738281zm0 0" fill="#c06100"/><path d="m85.578125 349.742188 45.0625 23.335937-15.421875 17.832031c-2.042969 2.363282-5.683594 2.441406-7.824219.171875l-28.714843-30.441406zm0 0" fill="#ff52a1"/><path d="m174.519531 349.742188-43.882812 23.335937 15.4375 17.847656c2.035156 2.359375 5.664062 2.441407 7.808593.183594l28.953126-30.46875zm0 0" fill="#ff52a1"/><path d="m78.679688 360.640625 28.757812 151.359375h-14.378906l-35.632813-80.84375c-.90625-2.054688-.929687-4.390625-.0625-6.464844l5.226563-12.503906c1.089844-2.601562.761718-5.578125-.859375-7.882812l-19.757813-28.03125zm0 0" fill="#78777f"/><path d="m64.503906 60.710938c-9.371094 1.429687-23.609375 12.878906-44.238281 46.4375v-11.488282c0-26.605468 10.863281-50.671875 28.398437-68.003906 2.695313 9.285156 10.585938 24.800781 15.839844 33.054688zm0 0" fill="#715539"/><path d="m182.835938 360.640625-26.101563 151.359375h14.378906l35.636719-80.84375c.90625-2.054688.929688-4.390625.0625-6.464844l-5.230469-12.503906c-1.085937-2.601562-.761719-5.578125.863281-7.882812l20.265626-28.753907zm0 0" fill="#78777f"/><path d="m211.585938 95.660156v53.277344c-12.007813 0-22.269532-8.707031-24.152344-20.566406-2.152344-13.570313-6.789063-30.417969-16.761719-39.285156-18.40625-16.367188-78.726563-2.054688-101.667969-23.523438-10.003906-9.367188-16.351562-24.175781-20.339844-37.90625 17.277344-17.105469 41.035157-27.65625 67.261719-27.65625 26.421875 0 50.328125 10.703125 67.636719 28.023438 17.320312 17.308593 28.023438 41.214843 28.023438 67.636718zm0 0" fill="#a17852"/><path d="m183.5625 28.023438c-17.308594-17.320313-41.214844-28.023438-67.636719-28.023438-6.121093 0-12.105469.582031-17.90625 1.679688 19.234375 3.644531 36.429688 13.035156 49.726563 26.34375 17.152344 17.136718 27.804687 40.746093 28.015625 66.851562 6.542969 9.316406 9.925781 22.484375 11.671875 33.496094 1.882812 11.859375 12.144531 20.566406 24.152344 20.566406v-53.277344c0-26.421875-10.703126-50.328125-28.023438-67.636718zm0 0" fill="#8a6745"/></svg>