<svg height="512pt" viewBox="-117 0 512 512.00103" width="512pt" xmlns="http://www.w3.org/2000/svg"><path d="m210.027344 375.519531c0-14.199219-27.582032-25.714843-61.609375-25.714843-34.027344 0-61.613281 11.515624-61.613281 25.714843 0 14.203125 27.585937 25.714844 61.613281 25.714844 34.027343 0 61.609375-11.511719 61.609375-25.714844zm0 0" fill="#4b5be5"/><path d="m267.617188 449.6875v55.152344c0 3.953125-3.207032 7.160156-7.160157 7.160156h-220.871093c-3.953126 0-7.160157-3.207031-7.160157-7.160156v-55.152344c0-27.964844 18.371094-52.597656 45.164063-60.574219l12.699218-3.789062c6.445313-1.914063 11.761719-6.085938 15.183594-11.503907 2.679688-4.226562 4.1875-9.207031 4.1875-14.472656v-24.992187l74.441406-13.238281v36.355468c0 6.925782 2.625 13.371094 7.054688 18.230469 3.25 3.574219 7.464844 6.292969 12.3125 7.75l18.992188 5.660156c26.792968 7.976563 45.15625 32.609375 45.15625 60.574219zm0 0" fill="#ffdba9"/><path d="m65.199219 397.039062c4.949219-1.472656 9.222656-4.28125 12.492187-7.953124l-.101562.027343c-7.460938 2.222657-14.269532 5.738281-20.210938 10.257813zm0 0" fill="#ffc473"/><path d="m222.460938 389.113281-18.992188-5.660156c-4.847656-1.457031-9.0625-4.175781-12.308594-7.75-4.433594-4.859375-7.058594-11.304687-7.058594-18.230469v-36.355468l-74.441406 13.242187v7.246094l49.351563-8.777344v36.355469c0 6.925781 2.628906 13.371094 7.058593 18.230468 3.246094 3.574219 7.464844 6.292969 12.3125 7.75l18.992188 5.660157c26.792969 7.976562 45.152344 32.609375 45.152344 60.574219v50.601562h17.929687c3.953125 0 7.160157-3.207031 7.160157-7.160156v-55.152344c0-27.964844-18.363282-52.597656-45.15625-60.574219zm0 0" fill="#ffc473"/><path d="m184.101562 321.117188v26.152343c-13.625 9.695313-30.296874 15.390625-48.292968 15.390625h-2.023438c-8.394531 0-16.488281-1.234375-24.125-3.546875v-24.753906zm0 0" fill="#ffc473"/><path d="m50.328125 122.183594v-24.878906h168.945313v163.558593c0 46.101563-37.371094 83.464844-83.464844 83.464844h-2.023438c-46.09375 0-83.457031-37.363281-83.457031-83.464844zm0 0" fill="#ffdba9"/><path d="m226.65625 248.976562h-7.382812v-57.597656h7.382812c15.714844 0 28.453125 12.738282 28.453125 28.453125v.691407c0 15.710937-12.738281 28.453124-28.453125 28.453124zm0 0" fill="#ffc473"/><path d="m93.363281 209.257812c0 4.636719-3.757812 8.394532-8.394531 8.394532s-8.394531-3.757813-8.394531-8.394532c0-4.636718 3.757812-8.398437 8.394531-8.398437s8.394531 3.761719 8.394531 8.398437zm0 0" fill="#57555c"/><path d="m160.535156 209.257812c0 4.636719-3.757812 8.394532-8.394531 8.394532s-8.394531-3.757813-8.394531-8.394532c0-4.636718 3.757812-8.398437 8.394531-8.398437s8.394531 3.761719 8.394531 8.398437zm0 0" fill="#57555c"/><path d="m116.554688 299.890625c-7.6875 0-13.808594-2.144531-16.773438-3.421875-3.875-1.667969-5.664062-6.160156-3.996094-10.035156 1.667969-3.875 6.164063-5.660156 10.035156-3.992188 2.917969 1.257813 10.640626 3.835938 19.316407.65625 6.632812-2.429687 10.585937-7.089844 12.355469-9.648437 2.394531-3.472657 7.148437-4.34375 10.621093-1.949219 3.472657 2.394531 4.347657 7.152344 1.949219 10.621094-2.792969 4.054687-9.070312 11.433594-19.667969 15.320312-4.910156 1.796875-9.613281 2.449219-13.839843 2.449219zm0 0" fill="#c06100"/><path d="m267.617188 449.6875v26.90625h-44.511719v35.40625h-144.78125v-35.40625h-45.898438v-26.90625c0-27.964844 18.371094-52.597656 45.164063-60.574219l12.699218-3.789062c6.445313-1.914063 41.539063 3.648437 59.796876 3.761719 15.683593.089843 48.535156-7.089844 53.382812-5.632813l18.992188 5.660156c26.792968 7.976563 45.15625 32.609375 45.15625 60.574219zm0 0" fill="#96a0ef"/><path d="m222.460938 389.113281-18.992188-5.660156c-4.847656-1.457031-10.726562 1.835937-13.976562-1.738281-8.4375 3.003906-10.660157 3.652344-21.386719 4.695312 1.035156 1.890625-3.488281-.585937-2.035157 1.003906 3.246094 3.574219 7.460938 6.292969 12.308594 7.75l18.992188 5.660157c26.792968 7.976562 45.15625 32.609375 45.15625 60.574219v15.191406h25.089844v-26.902344c0-27.964844-18.363282-52.597656-45.15625-60.574219zm0 0" fill="#7985eb"/><path d="m196.75 380.398438c-1.855469 3.113281-6.132812 7.453124-16.242188 15.449218-15.511718 12.25-18.25 12.289063-22.621093 17.769532-.761719.957031-1.535157 2.046874-2.289063 3.289062-2.945312 4.859375-5.511718 12.066406-5.511718 22.871094 0-10.875-2.59375-18.09375-5.558594-22.964844-.742188-1.199219-1.496094-2.257812-2.238282-3.195312-4.371093-5.480469-7.109374-5.519532-22.617187-17.769532-13.085937-10.347656-16.40625-14.574218-17.355469-17.957031 1.183594-1.25 2.242188-2.617187 3.15625-4.070313 11.171875 4.519532 26.429688 8.796876 44.6875 8.910157 15.683594.089843 29.480469-2.925781 41-7.027344 1.628906 1.792969 3.511719 3.382813 5.589844 4.695313zm0 0" fill="#fff"/><path d="m263.09375 122.242188c2.832031-3.789063 4.523438-8.480469 4.523438-13.582032 0-12.515625-10.152344-22.671875-22.667969-22.671875-1.285157 0-2.527344.113281-3.75.316407.480469-1.832032.746093-3.765626.746093-5.753907 0-8.226562-4.390624-15.425781-10.949218-19.398437.019531-.367188.03125-.722656.03125-1.089844 0-11.910156-9.171875-21.65625-20.835938-22.585938-1.3125-10.257812-10.054687-18.1875-20.664062-18.1875-4.519532 0-8.6875 1.453126-12.097656 3.898438-1.375-13.03125-12.394532-23.1875-25.792969-23.1875-11.167969 0-20.683594 7.058594-24.339844 16.957031-4.84375-3.644531-10.867187-5.804687-17.394531-5.804687-13.125 0-24.203125 8.71875-27.777344 20.679687-1.777344-.445312-3.636719-.691406-5.554688-.691406-12.320312 0-22.332031 9.828125-22.648437 22.070313-3.144531-2.425782-7.078125-3.890626-11.351563-3.890626-10.265624 0-18.597656 8.328126-18.597656 18.59375 0 1.222657.132813 2.425782.355469 3.585938-.121094 0-.234375-.019531-.355469-.019531-10.265625 0-18.585937 8.320312-18.585937 18.59375 0 7.179687 4.085937 13.402343 10.042969 16.5-8.757813 1.496093-15.429688 9.113281-15.429688 18.296875 0 9.15625 6.609375 16.742187 15.316406 18.292968-5.90625 3.113282-9.929687 9.304688-9.929687 16.445313 0 10.265625 8.320312 18.585937 18.585937 18.585937 1.660156 0 3.269532-.234374 4.796875-.640624 0 .210937-.03125.425781-.03125.640624 0 10.265626 8.320313 18.59375 18.597657 18.59375 1.015624 0 2.015624-.082031 2.992187-.242187v-66.101563c0-8.261718 0-8.261718 0-8.261718 11.523437 4.28125 26.121094-4.019532 30.246094-9.632813 4.144531 4.5625 10.132812 7.425781 16.78125 7.425781 10.621093 0 19.53125-7.304687 21.988281-17.160156 4.082031 5.988282 10.957031 9.917969 18.746094 9.917969 7.148437 0 13.523437-3.308594 17.679687-8.480469 4.03125 6.242188 11.046875 10.375 19.03125 10.375.9375 0 1.867188-.0625 2.773438-.171875 2.382812 9.96875 11.34375 17.382813 22.035156 17.382813 2.636719 0 5.175781-.457032 7.539063-1.285156-1.449219 2.976562-2.25 6.316406-2.25 9.847656 0 6.691406 2.898437 12.710937 7.523437 16.855468-4.621094 4.15625-7.523437 10.164063-7.523437 16.863282 0 9.59375 5.957031 17.789062 14.378906 21.101562 2.566406 1.015625 5.363281 1.566406 8.289062 1.566406 12.515625 0 22.667969-10.152343 22.667969-22.667968 0-3.207032-.671875-6.253906-1.863281-9.011719 2.128906.664063 4.386718 1.019531 6.738281 1.019531 12.515625 0 22.671875-10.144531 22.671875-22.660156 0-9.71875-6.109375-17.996094-14.6875-21.226562zm0 0" fill="#6dd7a7"/><path d="m98.289062 13.574219c-1.273437.558593-2.496093 1.210937-3.664062 1.941406.726562.453125 1.441406.929687 2.125 1.445313.429688-1.171876.949219-2.300782 1.539062-3.386719zm0 0" fill="#8adcb2"/><path d="m263.09375 122.242188c3.195312-4.273438 4.9375-9.699219 4.4375-15.5625-.96875-11.410157-10.601562-20.40625-22.050781-20.683594-1.472657-.035156-2.890625.078125-4.28125.308594.480469-1.832032.746093-3.765626.746093-5.753907 0-8.226562-4.390624-15.425781-10.949218-19.398437.019531-.367188.03125-.722656.03125-1.089844 0-11.910156-9.171875-21.65625-20.835938-22.589844-1.3125-10.253906-10.054687-18.183594-20.664062-18.183594-4.519532 0-8.6875 1.453126-12.097656 3.898438-1.375-13.03125-12.394532-23.1875-25.792969-23.1875-5.710938 0-10.984375 1.855469-15.269531 4.984375 2.238281 1.636719 4.203124 3.621094 5.820312 5.875 3.855469 5.382813 10.03125 8.472656 16.652344 8.429687h.136718c6.554688 0 12.398438 3.027344 16.214844 7.761719 4.496094 5.578125 9.835938 10.359375 15.6875 14.492188 5.808594 4.101562 9.597656 10.863281 9.597656 18.519531 0 .367188-.011718.722656-.03125 1.089844 6.558594 3.972656 10.949219 11.171875 10.949219 19.398437 0 .582031-.023437 1.164063-.070312 1.734375-.152344 2.003906 1.421875 3.675782 3.433593 3.707032.058594 0 .113282.003906.171876.003906 11.449218.277344 21.082031 9.269531 22.050781 20.679687.011719.113281.019531.222657.027343.332031.644532 9.085938 3.351563 17.828126 7.609376 25.882813 2.023437 3.824219 2.980468 8.300781 2.484374 13.035156-1.132812 10.765625-10.027343 19.347657-20.828124 20.136719-.074219.003906-.152344.007812-.226563.015625-3.644531.230469-6.582031 3.214844-6.394531 6.859375.019531.390625.03125.785156.03125 1.179688 0 6.632812-2.851563 12.597656-7.394532 16.746093 2.027344 1.847657 4.386719 3.335938 6.984376 4.355469 2.882812 1.144531 6.0625 1.695312 9.378906 1.542969 11.230468-.523438 20.546875-9.484375 21.496094-20.6875.332031-3.925781-.347657-7.652344-1.78125-10.96875 2.640624.820312 5.488281 1.171875 8.457031.957031 10.796875-.789062 19.691406-9.371094 20.824219-20.140625 1.132812-10.753906-5.265626-20.179687-14.554688-23.679687zm0 0" fill="#00bb64"/><g fill="#4b5be5"><path d="m150.085938 439.777344c0 1.007812-.019532 2.046875-.070313 3.125-1.433594-5.242188-3.757813-10.964844-7.636719-16.199219-1.355468-1.835937-2.902344-3.605469-4.675781-5.277344-10.730469-10.109375-19.285156-9.46875-36.445313-17.179687-5-2.25-15.824218-7.105469-25.449218-14.570313-8.605469-6.660156-16.242188-15.398437-17.851563-26.183593-.304687-2.058594-1.671875-12.78125 5.296875-22.015626 8.125-10.773437 21.496094-11.476562 23.644532-11.558593l22.761718 10.863281v18.566406c-3.261718 3.332032-8.535156 9.734375-7.648437 17.007813.058593.507812.152343 1.007812.304687 1.535156.949219 3.382813 4.265625 7.609375 17.351563 17.957031 15.511719 12.25 18.25 12.289063 22.617187 17.769532.746094.9375 1.5 1.996093 2.242188 3.195312 2.964844 4.867188 5.558594 12.089844 5.558594 22.964844zm0 0"/><path d="m242.207031 363.492188c-1.605469 10.796874-9.265625 19.542968-17.871093 26.210937-9.613282 7.445313-20.425782 12.304687-25.417969 14.542969-17.160157 7.710937-25.722657 7.070312-36.445313 17.179687-1.835937 1.722657-3.433594 3.566407-4.816406 5.46875-3.800781 5.171875-6.070312 10.835938-7.496094 16.007813-.050781-1.078125-.070312-2.117188-.070312-3.125 0-10.804688 2.566406-18.015625 5.507812-22.871094.753906-1.242188 1.527344-2.332031 2.292969-3.289062 4.367187-5.480469 7.105469-5.519532 22.617187-17.773438 10.109376-7.992188 14.390626-12.332031 16.242188-15.449219.925781-1.546875 1.25-2.789062 1.40625-4.042969.894531-7.269531-5.164062-16.679687-14.054688-18.878906v-28.523437l12.210938-10.589844c2.136719.082031 29.949219 5.132813 40.613281 23.117187 6.964844 9.234376 5.597657 19.960938 5.28125 22.015626zm0 0"/><path d="m157.652344 422.109375v89.890625h-15.273438v-89.890625c0-2.058594.8125-3.921875 2.148438-5.296875 2.964844 4.871094 5.558594 12.089844 5.558594 22.964844 0-10.804688 2.566406-18.011719 5.511718-22.871094 1.273438 1.363281 2.054688 3.1875 2.054688 5.203125zm0 0"/></g></svg>