<svg height="512pt" viewBox="-132 0 512 512.00103" width="512pt" xmlns="http://www.w3.org/2000/svg"><path d="m247.511719 447.851562v56.785157c0 4.0625-3.300781 7.363281-7.363281 7.363281h-227.371094c-4.074219 0-7.375-3.300781-7.375-7.363281v-56.785157c0-28.777343 18.910156-54.140624 46.496094-62.355468l13.074218-3.890625c6.636719-1.976563 12.109375-6.273438 15.628906-11.851563 2.171876-3.425781 3.59375-7.332031 4.101563-11.484375.136719-1.125.207031-2.265625.207031-3.410156v-23.695313l76.632813-15.664062v37.429688c0 7.125 2.703125 13.757812 7.261719 18.765624 3.34375 3.675782 7.683593 6.480469 12.679687 7.976563l19.546875 5.824219c27.582031 8.214844 46.480469 33.578125 46.480469 62.355468zm0 0" fill="#ffdba9"/><path d="m161.542969 315.5v30.386719c-14.277344 10.304687-31.820313 16.359375-50.761719 16.359375-9.085938 0-17.839844-1.394532-26.078125-3.976563.136719-1.125.210937-2.265625.210937-3.410156v-23.695313zm0 0" fill="#ffc473"/><path d="m110.785156 339.394531c-48.027344 0-86.964844-38.933593-86.964844-86.960937v-167.335938h173.925782v167.335938c0 48.027344-38.933594 86.960937-86.960938 86.960937zm0 0" fill="#ffdba9"/><path d="m204.992188 241.234375h-7.246094v-59.292969h7.246094c16.375 0 29.648437 13.273438 29.648437 29.644532-.003906 16.375-13.277344 29.648437-29.648437 29.648437zm0 0" fill="#ffc473"/><path d="m160.691406 130.050781v85.761719c0 14.042969-11.382812 25.421875-25.421875 25.421875h-109.84375c-.542969 0-1.070312-.019531-1.601562-.050781-13.292969-.820313-23.824219-11.871094-23.824219-25.371094v-85.761719zm0 0" fill="#84caff"/><path d="m160.691406 130.050781v85.761719c0 14.042969-11.382812 25.421875-25.421875 25.421875h-109.84375c-.542969 0-1.070312-.019531-1.601562-.050781v-111.132813zm0 0" fill="#a3d9f5"/><path d="m68.128906 200.34375c0 4.777344-3.867187 8.644531-8.640625 8.644531-4.773437 0-8.644531-3.867187-8.644531-8.644531 0-4.773438 3.871094-8.640625 8.644531-8.640625 4.773438 0 8.640625 3.867187 8.640625 8.640625zm0 0" fill="#7fc7f1"/><path d="m137.28125 200.34375c0 4.777344-3.871094 8.644531-8.644531 8.644531-4.773438 0-8.644531-3.867187-8.644531-8.644531 0-4.773438 3.871093-8.640625 8.644531-8.640625 4.773437 0 8.644531 3.867187 8.644531 8.640625zm0 0" fill="#7fc7f1"/><path d="m92 293.574219c-7.894531 0-14.1875-2.203125-17.238281-3.515625-3.949219-1.699219-5.773438-6.28125-4.074219-10.234375 1.703125-3.949219 6.285156-5.773438 10.234375-4.074219 3.015625 1.296875 10.988281 3.960938 19.941406.679688 6.847657-2.507813 10.929688-7.316407 12.75-9.960938 2.445313-3.539062 7.292969-4.429688 10.835938-1.988281 3.539062 2.441406 4.429687 7.292969 1.988281 10.832031-2.875 4.167969-9.320312 11.75-20.214844 15.742188-5.042968 1.851562-9.875 2.519531-14.222656 2.519531zm0 0" fill="#c06100"/><path d="m247.511719 447.851562v27.695313h-45.820313v36.453125h-149.035156v-36.453125h-47.253906v-27.695313c0-28.777343 18.910156-54.140624 46.496094-62.355468l.757812-.226563 12.316406-3.667969c3.5625-1.058593 6.789063-2.792968 9.5625-5.035156 2.390625-1.933594 4.4375-4.238281 6.066406-6.8125 11.496094 4.652344 27.199219 9.054688 45.996094 9.167969 16.148438.09375 30.355469-3 42.207032-7.226563 2.574218 2.832032 5.742187 5.140626 9.34375 6.738282 1.070312.480468 2.191406.894531 3.335937 1.234375l19.542969 5.828125c.210937.0625.425781.125.632812.195312 27.242188 8.414063 45.851563 33.601563 45.851563 62.160156zm0 0" fill="#0282d1"/><path d="m209.335938 80.640625v25.777344h-195.230469l.074219-25.777344c0-44.542969 36.109374-80.640625 80.640624-80.640625h33.863282c8.914062 0 17.480468 1.445312 25.488281 4.113281 6.5 2.160157 12.636719 5.128907 18.289063 8.785157 22.191406 14.363281 36.875 39.339843 36.875 67.742187zm0 0" fill="#ff3c62"/><path d="m172.460938 12.898438c-5.652344-3.65625-11.789063-6.625-18.289063-8.785157-8.007813-2.667969-16.574219-4.113281-25.488281-4.113281h-33.863282c-.757812 0-1.507812.0351562-2.261718.0585938 7.894531.2695312 15.5 1.6679682 22.65625 4.0546872 6.5 2.160157 12.640625 5.128907 18.289062 8.785157 22.195313 14.363281 36.878906 39.339843 36.878906 67.742187v25.777344h38.953126v-25.777344c0-28.402344-14.683594-53.378906-36.875-67.742187zm0 0" fill="#ff0535"/><path d="m201.660156 385.695312v126.304688h-149.003906v-126.730469l12.316406-3.667969c3.5625-1.058593 6.789063-2.792968 9.5625-5.035156v49.246094c0 11.289062 9.148438 20.4375 20.441406 20.4375h62.734376c11.289062 0 20.441406-9.148438 20.441406-20.4375v-47.378906c1.066406.480468 2.191406.894531 3.332031 1.238281l19.546875 5.824219c.207031.0625.421875.125.628906.199218zm0 0" fill="#ffda2d"/><path d="m89.378906 63.816406c0 9.175782-7.4375 16.613282-16.613281 16.613282s-16.613281-7.4375-16.613281-16.613282c0-9.175781 7.4375-16.613281 16.613281-16.613281s16.613281 7.4375 16.613281 16.613281zm0 0" fill="#ffda2d"/><path d="m217.519531 106.417969h-208.367187c-5.054688 0-9.152344 4.097656-9.152344 9.152343v14.480469h141.113281c6.164063 0 11.160157 4.996094 11.160157 11.160157v6.21875c0 6.164062 4.996093 11.160156 11.160156 11.160156h23.152344c6.164062 0 11.160156-4.996094 11.160156-11.160156v-6.21875c0-6.164063 4.996094-11.160157 11.160156-11.160157h8.613281c4.210938 0 7.625-3.414062 7.625-7.625v-8.382812c0-4.210938-3.414062-7.625-7.625-7.625zm0 0" fill="#990010"/><path d="m217.519531 106.417969h-49.941406c4.210937 0 7.625 3.414062 7.625 7.625v8.378906c0 4.210937-3.414063 7.625-7.625 7.625h-8.617187c-3.652344 0-6.886719 1.765625-8.921876 4.480469 1.394532 1.863281 2.234376 4.171875 2.234376 6.679687v6.222657c0 6.164062 4.996093 11.160156 11.160156 11.160156h23.152344c6.164062 0 11.160156-4.996094 11.160156-11.160156v-6.222657c0-6.164062 4.996094-11.160156 11.160156-11.160156h8.613281c4.210938 0 7.625-3.414063 7.625-7.625v-8.378906c0-4.210938-3.414062-7.625-7.625-7.625zm0 0" fill="#860011"/><path d="m183.84375 129.058594c0 4.773437-3.867188 8.640625-8.640625 8.640625s-8.644531-3.867188-8.644531-8.640625c0-4.777344 3.871094-8.644532 8.644531-8.644532s8.640625 3.867188 8.640625 8.644532zm0 0" fill="#ff3c62"/></svg>