<svg height="512pt" viewBox="-105 0 512 512" width="512pt" xmlns="http://www.w3.org/2000/svg"><path d="m299.207031 442.660156v61.382813c0 4.386719-3.566406 7.957031-7.957031 7.957031h-245.773438c-4.398437 0-7.96875-3.570312-7.96875-7.957031v-61.382813c0-31.101562 20.4375-58.515625 50.253907-67.394531l14.140625-4.210937c7.171875-2.132813 13.089844-6.78125 16.886718-12.8125 2.640626-4.160157 4.253907-8.976563 4.597657-14.085938.039062-.664062.0625-1.335938.0625-2.007812v-21.609376l82.835937-20.9375v40.453126c0 7.703124 2.917969 14.875 7.84375 20.285156 3.621094 3.976562 8.308594 7.007812 13.710938 8.621094l21.125 6.304687c29.816406 8.878906 50.242187 36.292969 50.242187 67.394531zm0 0" fill="#ffdba9"/><path d="m299.207031 442.660156v61.320313c0 4.429687-3.589843 8.019531-8.019531 8.019531h-245.660156c-4.429688 0-8.019532-3.589844-8.019532-8.019531v-61.320313c0-31.101562 20.4375-58.515625 50.253907-67.394531l14.136719-4.210937c7.171874-2.132813 13.09375-6.78125 16.890624-12.8125 12.429688 5.027343 29.402344 9.789062 49.71875 9.914062 17.457032.101562 32.816407-3.238281 45.621094-7.816406 3.621094 3.976562 8.308594 7.007812 13.710938 8.621094l21.121094 6.304687c29.820312 8.878906 50.246093 36.292969 50.246093 67.394531zm0 0" fill="#ffda2d"/><path d="m206.28125 299.601562v32.859376c-13.640625 8.972656-29.96875 14.1875-47.523438 14.1875h-14.675781c-7.128906 0-14.0625-.859376-20.695312-2.492188.039062-.664062.058593-1.335938.058593-2.007812v-21.609376zm0 0" fill="#ffc473"/><path d="m78.085938 397.316406 15.835937-4.71875c8.03125-2.386718 14.664063-7.589844 18.917969-14.347656 13.921875 5.632812 32.929687 10.964844 55.683594 11.105469 19.554687.113281 36.757812-3.628907 51.097656-8.753907 4.058594 4.453126 9.308594 7.847657 15.359375 9.65625l23.65625 7.058594c14.90625 4.441406 27.710937 13.023438 37.328125 24.253906-6.871094-21.851562-24.179688-39.507812-47-46.304687l-21.125-6.304687c-5.402344-1.613282-10.089844-4.644532-13.710938-8.621094-12.800781 4.578125-28.160156 7.917968-45.621094 7.816406-20.316406-.125-37.289062-4.886719-49.71875-9.914062-3.796874 6.03125-9.714843 10.679687-16.886718 12.8125l-14.140625 4.210937c-22.820313 6.796875-40.136719 24.460937-47.011719 46.316406 9.621094-11.238281 22.429688-19.824219 37.335938-24.265625zm0 0" fill="#ff7a53"/><path d="m245.421875 143.070312v95.699219c0 47.863281-38.796875 86.664063-86.664063 86.664063h-14.675781c-47.863281 0-86.652343-38.796875-86.652343-86.664063v-95.699219c0-13.992187 3.101562-27.25 8.683593-39.144531 14.726563-31.53125 46.726563-53.371093 83.828125-53.371093h2.972656c37.101563 0 69.101563 21.839843 83.847657 53.371093 5.554687 11.894531 8.660156 25.152344 8.660156 39.144531zm0 0" fill="#ffdba9"/><path d="m255.757812 219.324219h-10.335937v-64.089844h10.335937c16.316407 0 29.542969 13.226563 29.542969 29.542969v5.003906c0 16.316406-13.226562 29.542969-29.542969 29.542969zm0 0" fill="#ffc473"/><path d="m105.316406 175.128906c0 5.160156-4.183594 9.339844-9.34375 9.339844-5.15625 0-9.339844-4.179688-9.339844-9.339844s4.183594-9.34375 9.339844-9.34375c5.160156 0 9.34375 4.183594 9.34375 9.34375zm0 0" fill="#57555c"/><path d="m180.0625 175.128906c0 5.160156-4.183594 9.339844-9.34375 9.339844-5.15625 0-9.339844-4.179688-9.339844-9.339844s4.183594-9.34375 9.339844-9.34375c5.160156 0 9.34375 4.183594 9.34375 9.34375zm0 0" fill="#57555c"/><path d="m133.566406 283.277344c-.796875 0-1.59375-.019532-2.398437-.066406-22.425781-1.226563-34.226563-19.175782-35.496094-21.21875-2.265625-3.640626-1.152344-8.425782 2.484375-10.691407 3.640625-2.265625 8.425781-1.152343 10.691406 2.484375.335938.535156 8.328125 13.113282 23.167969 13.925782 10.527344.578124 20.640625-4.761719 26.394531-13.933594 2.277344-3.632813 7.066406-4.730469 10.699219-2.453125 3.632813 2.277343 4.730469 7.070312 2.449219 10.699219-8.316406 13.261718-22.710938 21.253906-37.992188 21.253906zm0 0" fill="#c06100"/><path d="m207.796875 243.148438c1.539063.144531 1.921875 2.222656.539063 2.914062-9.839844 4.90625-33.96875 15.179688-56.058594 10.785156-10.003906-1.988281-18.46875-8.269531-18.46875-18.46875 0-8.386718 7.601562-19.757812 18.46875-18.472656 12.59375 1.492188 18.648437 14.390625 42.332031 20.894531 5.359375 1.472657 9.605469 2 13.1875 2.347657zm0 0" fill="#57555c"/><path d="m59.820312 243.148438c-1.539062.144531-1.921874 2.222656-.539062 2.914062 9.839844 4.90625 33.96875 15.179688 56.058594 10.785156 10.003906-1.988281 18.46875-8.269531 18.46875-18.46875 0-8.386718-7.601563-19.757812-18.46875-18.472656-12.59375 1.492188-18.652344 14.390625-42.332032 20.894531-5.359374 1.472657-9.601562 2-13.1875 2.347657zm0 0" fill="#57555c"/><path d="m245.421875 143.070312v8.113282c-25.820313 3.972656-58.480469 6.34375-94 6.34375-35.507813 0-68.171875-2.371094-93.992187-6.34375v-8.113282c0-13.992187 3.105468-27.25 8.683593-39.144531 24.289063-3.21875 53.671875-5.101562 85.308594-5.101562 31.660156 0 61.039063 1.882812 85.339844 5.101562 5.554687 11.894531 8.660156 25.152344 8.660156 39.144531zm0 0" fill="#ffc473"/><path d="m302.84375 108.511719c0-16.207031-67.792969-29.347657-151.421875-29.347657s-151.421875 13.140626-151.421875 29.347657c0 16.210937 67.792969 29.351562 151.421875 29.351562s151.421875-13.140625 151.421875-29.351562zm0 0" fill="#c06100"/><path d="m245.421875 93.992188v6.507812c-24.226563 5.578125-55.480469 10.503906-92.015625 10.671875-38.332031.1875-70.996094-4.914063-95.976562-10.671875 0-3.484375 0-4.542969 0-4.542969v-1.964843c0-8.570313 1.148437-16.882813 3.300781-24.765626h.007812c10.859375-39.894531 47.339844-69.226562 90.683594-69.226562 25.953125 0 49.457031 10.515625 66.472656 27.53125 11.382813 11.390625 19.871094 25.695312 24.214844 41.695312l.011719.011719c2.152344 7.886719 3.300781 16.183594 3.300781 24.753907zm0 0" fill="#c06100"/><path d="m242.109375 69.226562v.011719l-.007813-.011719c-10.546874 2.347657-22.34375 4.535157-35.261718 6.261719-.070313-1.84375-.328125-3.695312-.773438-5.558593-.0625-.246094-.117187-.476563-.175781-.691407l-.011719-.011719c-4.347656-16-12.832031-30.304687-24.21875-41.695312-12.945312-12.949219-29.640625-22.117188-48.320312-25.769531 5.859375-1.140625 11.890625-1.761719 18.082031-1.761719 25.953125 0 49.457031 10.515625 66.472656 27.53125 11.382813 11.390625 19.871094 25.695312 24.214844 41.695312zm0 0" fill="#994c00"/><path d="m244.109375 78.273438c-.527344-3.066407-1.191406-6.074219-2-9.035157h.011719c.808594 2.957031 1.480468 5.96875 1.988281 9.035157zm0 0" fill="#29292b"/><path d="m245.421875 93.992188v6.507812c-24.226563 5.578125-55.480469 10.503906-92.015625 10.671875-38.332031.1875-70.996094-4.914063-95.976562-10.671875 0-3.484375 0-4.542969 0-4.542969v-1.964843c0-8.570313 1.148437-16.882813 3.300781-24.765626h.007812c24.53125 5.429688 56 10.097657 92.667969 9.921876 34.890625-.152344 64.972656-4.65625 88.707031-9.921876l.007813.007813c2.152344 7.890625 3.300781 16.1875 3.300781 24.757813zm0 0" fill="#6dd7a7"/><path d="m245.421875 93.992188v6.507812c-24.238281 5.578125-55.492187 10.503906-92.023437 10.671875h-2.039063c-1.367187 0-2.722656-.011719-4.066406-.019531-1.675781-.011719-3.355469-.042969-5.011719-.082032-1.53125-.03125-3.042969-.074218-4.554688-.125-1.457031-.042968-2.898437-.09375-4.335937-.15625-.050781 0-.101563-.011718-.144531-.011718 17.636718-.753906 33.863281-2.574219 48.457031-4.914063 15.089844-2.421875 25.777344-15.710937 25.136719-30.375 12.917968-1.730469 24.714844-3.914062 35.261718-6.261719l.007813.007813c.808594 2.960937 1.46875 5.972656 2 9.035156.859375 5.113281 1.3125 10.363281 1.3125 15.722657zm0 0" fill="#00bb64"/><path d="m181.703125 105.863281c-14.59375 2.339844-30.820313 4.160157-48.457031 4.914063-29.699219-1.28125-55.335938-5.554688-75.828125-10.273438 0-3.488281 0-4.546875 0-4.546875v-1.964843c0-8.570313 1.160156-16.878907 3.300781-24.765626h.011719c24.539062 5.433594 56 10.101563 92.667969 9.925782 19.382812-.082032 37.289062-1.511719 53.441406-3.664063.644531 14.664063-10.046875 27.953125-25.136719 30.375zm0 0" fill="#6dd7a7"/><path d="m118.789062 358.242188v153.757812h-73.261718c-4.429688 0-8.019532-3.589844-8.019532-8.019531v-61.320313c0-31.101562 20.4375-58.515625 50.253907-67.394531l14.136719-4.210937c7.171874-2.132813 13.09375-6.78125 16.890624-12.8125zm0 0" fill="#6d76e7"/><path d="m299.207031 442.660156v61.320313c0 4.429687-3.589843 8.019531-8.019531 8.019531h-77.058594v-151.660156c3.621094 3.976562 8.308594 7.007812 13.710938 8.621094l15.453125 4.617187 5.667969 1.6875c29.820312 8.878906 50.246093 36.292969 50.246093 67.394531zm0 0" fill="#6d76e7"/><g fill="#a6aff2"><path d="m118.789062 358.242188v70.011718h-26.015624c-2.765626 0-5.011719-2.242187-5.011719-5.011718v-47.976563l14.140625-4.210937c7.167968-2.132813 13.089844-6.78125 16.886718-12.8125zm0 0"/><path d="m245.953125 374.777344v48.464844c0 2.765624-2.246094 5.011718-5.011719 5.011718h-26.8125v-67.914062c3.621094 3.976562 8.308594 7.007812 13.710938 8.621094l15.453125 4.617187zm0 0"/></g></svg>