<svg height="512pt" viewBox="-111 0 512 512.00103" width="512pt" xmlns="http://www.w3.org/2000/svg"><path d="m290.375 435.0625v68.105469c0 4.871093-3.960938 8.832031-8.832031 8.832031h-272.699219c-4.882812 0-8.84375-3.960938-8.84375-8.832031v-68.105469c0-34.511719 22.683594-64.929688 55.761719-74.78125l15.683593-4.671875c7.957032-2.363281 14.523438-7.523437 18.746094-14.210937 3.300782-5.21875 5.167969-11.371094 5.167969-17.859376v-20.699218l91.90625-26.507813v44.890625c0 8.542969 3.238281 16.503906 8.707031 22.507813 4.011719 4.410156 9.21875 7.769531 15.207032 9.566406l23.441406 6.988281c33.082031 9.847656 55.753906 40.265625 55.753906 74.777344zm0 0" fill="#b78b6e"/><path d="m48.359375 362.914062c-6.054687 2.484376-11.6875 5.6875-16.8125 9.488282l2.328125-.691406c5.644531-1.679688 10.582031-4.761719 14.484375-8.796876zm0 0" fill="#ffc473"/><path d="m234.621094 360.28125-23.4375-6.988281c-5.992188-1.792969-11.199219-5.15625-15.210938-9.566407-5.464844-6.003906-8.703125-13.960937-8.703125-22.507812v-44.890625l-91.910156 26.507813v5.265624l54.339844-15.671874v44.890624c0 8.542969 3.238281 16.503907 8.707031 22.507813 4.011719 4.410156 9.214844 7.769531 15.207031 9.566406l23.441407 6.984375c33.082031 9.855469 55.75 40.269532 55.75 74.785156v60.835938h28.738281c4.867187 0 8.832031-3.960938 8.832031-8.832031v-68.105469c0-34.511719-22.671875-64.929688-55.753906-74.78125zm0 0" fill="#916d59"/><path d="m127.136719 304.988281h-1.484375c-57.191406 0-103.554688-46.367187-103.554688-103.558593v-97.132813c0-57.601563 46.695313-104.296875 104.296875-104.296875 57.601563 0 104.296875 46.695312 104.296875 104.296875v97.132813c0 57.195312-46.363281 103.558593-103.554687 103.558593zm0 0" fill="#b78b6e"/><path d="m126.394531 0c-6.328125 0-12.523437.5625-18.539062 1.644531 48.753906 8.746094 85.757812 51.378907 85.757812 102.652344v97.132813c0 51.125-37.046875 93.589843-85.757812 102.027343 5.78125 1 11.730469 1.53125 17.796875 1.53125h1.480468c57.195313 0 103.558594-46.367187 103.558594-103.558593v-97.132813c0-57.601563-46.695312-104.296875-104.296875-104.296875zm0 0" fill="#916d59"/><path d="m244.296875 187.257812h-13.605469v-71.109374h13.605469c16.921875 0 30.640625 13.71875 30.640625 30.640624v9.828126c0 16.921874-13.71875 30.640624-30.640625 30.640624zm0 0" fill="#916d59"/><path d="m73.460938 138.222656c0 4.742188-3.847657 8.585938-8.589844 8.585938-4.742188 0-8.585938-3.84375-8.585938-8.585938 0-4.742187 3.84375-8.589844 8.585938-8.589844 4.742187 0 8.589844 3.847657 8.589844 8.589844zm0 0" fill="#57555c"/><path d="m156.394531 138.222656c0 4.742188-3.84375 8.585938-8.585937 8.585938-4.742188 0-8.589844-3.84375-8.589844-8.585938 0-4.742187 3.847656-8.589844 8.589844-8.589844 4.742187 0 8.585937 3.847657 8.585937 8.589844zm0 0" fill="#57555c"/><path d="m290.375 435.0625v33.21875h-54.953125v43.71875h-178.75v-43.71875h-56.671875v-33.21875c0-34.511719 22.683594-64.929688 55.761719-74.78125l15.683593-4.671875c7.957032-2.363281 14.523438-7.523437 18.746094-14.210937 13.789063 5.582031 32.621094 10.863281 55.164063 11 19.367187.113281 36.40625-3.601563 50.617187-8.667969 4.011719 4.40625 9.21875 7.769531 15.210938 9.5625l23.4375 6.988281c33.082031 9.851562 55.753906 40.269531 55.753906 74.78125zm0 0" fill="#ff9a01"/><path d="m153.203125 352.226562c1.378906 2.765626 3.128906 5.324219 5.203125 7.601563 4.011719 4.410156 9.214844 7.769531 15.207031 9.566406l23.441407 6.984375c33.082031 9.855469 55.75 40.269532 55.75 74.785156v17.117188h37.570312v-33.21875c0-.003906 0-.003906 0-.007812-.003906-34.511719-22.671875-64.925782-55.753906-74.777344l-23.441406-6.984375c-1.496094-.449219-2.945313-.996094-4.339844-1.632813-2.785156-1.273437-5.347656-2.90625-7.640625-4.832031-.574219-.484375-1.128907-.984375-1.667969-1.5-.535156-.515625-1.058594-1.050781-1.558594-1.605469-12.257812 4.378906-26.621094 7.734375-42.769531 8.503906zm0 0" fill="#ff8900"/><path d="m230.695312 116.144531h-.054687c.019531-.753906.03125-1.429687.03125-2.019531.011719.578125.011719 1.246094.023437 2.019531zm0 0" fill="#715539"/><path d="m230.671875 114.125c0-1.890625.011719-2.75.042969-2.75.011718 0 0 .976562-.042969 2.75zm0 0" fill="#715539"/><path d="m206.832031 312.941406c-.652343 1.011719-1.363281 2.09375-2.132812 3.253906-3.75 5.59375-8.953125 12.804688-16.101563 19.867188-4.960937 4.917969-10.863281 9.757812-17.863281 13.953125-4.257813 2.566406-8.9375 4.875-14.058594 6.816406-.675781.257813-1.351562.503907-2.039062.742188-6.589844 2.316406-13.363281 3.820312-20.191407 4.582031-5.355468.601562-10.742187.742188-16.101562.449219-7.09375-.375-14.144531-1.5-20.980469-3.304688-5.527343-1.457031-10.917969-3.359375-16.101562-5.667969-7.257813-3.230468-14.105469-7.253906-20.308594-11.96875-.226563-.160156-.449219-.332031-.664063-.503906-5.722656-4.410156-10.875-9.410156-15.4375-14.886718-21.96875-26.339844-30.222656-63.671876-20.90625-99.941407 6.933594-2.15625 19.105469-3.886719 31.414063-10.3125 6.464844-3.371093 10.808594-6.828125 14.019531-10.273437 4.832032-5.183594 11.722656-7.964844 18.816406-7.964844h35.589844c4.59375 0 9.113282 1.191406 13.066406 3.53125 5.878907 3.46875 13.414063 7.160156 22.519532 10.015625 7.339844 2.304687 14.144531 3.585937 20.070312 4.261719 6.023438.683594 11.699219-2.824219 13.8125-8.503906 3.425782-9.230469 6.699219-19.417969 9.542969-30.492188 3.917969-15.253906 6.332031-29.539062 7.773437-42.484375 1.136719-10.21875 9.785157-17.933594 20.070313-17.96875-.183594 11.699219-.644531 42.914063.054687 71.121094 1.566407 63.339843-3.695312 94.683593-23.863281 125.679687zm0 0" fill="#57555c"/><path d="m107.597656 254.386719c-11.785156 0-20.863281-4.136719-26.453125-7.652344-3.761719-2.367187-4.894531-7.335937-2.527343-11.101563 2.371093-3.761718 7.339843-4.894531 11.101562-2.527343 3.175781 2 9.828125 5.355469 18.492188 5.171875 7.722656-.136719 13.667968-2.886719 17.292968-5.167969 3.761719-2.371094 8.734375-1.242187 11.101563 2.523437 2.371093 3.761719 1.242187 8.730469-2.523438 11.101563-5.359375 3.371094-14.148437 7.441406-25.585937 7.640625-.300782.007812-.601563.011719-.898438.011719zm0 0" fill="#b78b6e"/><g fill="#3c3b3f"><path d="m60.953125 250.601562v91.066407c-.226563-.160157-.449219-.335938-.664063-.503907-5.722656-4.414062-10.875-9.414062-15.4375-14.890624v-75.671876c0-4.441406 3.609376-8.050781 8.050782-8.050781 4.445312 0 8.050781 3.609375 8.050781 8.050781zm0 0"/><path d="m97.359375 281.191406v78.109375c-5.527344-1.457031-10.914063-3.359375-16.097656-5.667969v-72.441406c0-4.441406 3.605469-8.046875 8.046875-8.046875 4.457031 0 8.050781 3.605469 8.050781 8.046875zm0 0"/><path d="m134.445312 281.191406v80.964844c-5.355468.601562-10.746093.742188-16.101562.449219v-81.414063c0-4.441406 3.609375-8.046875 8.050781-8.046875 4.445313 0 8.050781 3.605469 8.050781 8.046875zm0 0"/><path d="m170.734375 250.601562v99.414063c-4.257813 2.566406-8.9375 4.875-14.058594 6.816406-.675781.257813-1.351562.503907-2.039062.742188v-106.972657c0-4.441406 3.605469-8.050781 8.050781-8.050781 4.441406 0 8.046875 3.609375 8.046875 8.050781zm0 0"/><path d="m204.699219 250.601562v65.59375c-3.75 5.59375-8.953125 12.804688-16.101563 19.867188v-85.460938c0-4.441406 3.605469-8.050781 8.050782-8.050781 4.441406 0 8.050781 3.609375 8.050781 8.050781zm0 0"/></g></svg>