<svg height="512pt" viewBox="-124 0 512 512.00116" width="512pt" xmlns="http://www.w3.org/2000/svg"><path d="m51.136719 250.585938c-28.242188 0-51.136719-22.894532-51.136719-51.136719 0-28.242188 22.894531-51.136719 51.136719-51.136719 28.242187 0 51.136719 22.894531 51.136719 51.136719 0 28.242187-22.894532 51.136719-51.136719 51.136719zm0 0" fill="#57555c"/><path d="m260.628906 445.832031v58.574219c0 4.191406-3.398437 7.59375-7.59375 7.59375h-234.535156c-4.195312 0-7.605469-3.402344-7.605469-7.59375v-58.574219c0-29.679687 19.507813-55.835937 47.957031-64.320312l13.488282-4.011719c6.84375-2.035156 12.492187-6.472656 16.117187-12.226562 2.84375-4.480469 4.449219-9.773438 4.449219-15.351563v-23.398437l79.050781-17.207032v38.609375c0 7.351563 2.78125 14.191407 7.484375 19.355469 3.453125 3.796875 7.929688 6.6875 13.082032 8.226562l20.160156 6.007813c28.449218 8.480469 47.945312 34.636719 47.945312 64.316406zm0 0" fill="#ffdba9"/><path d="m212.683594 381.511719-20.160156-6.003907c-5.152344-1.539062-9.628907-4.429687-13.082032-8.226562-4.703125-5.164062-7.484375-12.007812-7.484375-19.359375v-38.605469l-79.050781 17.207032v7.394531l50.667969-11.027344v38.609375c0 7.351562 2.777343 14.191406 7.484375 19.355469 3.449218 3.796875 7.929687 6.6875 13.082031 8.226562l20.160156 6.007813c28.445313 8.480468 47.945313 34.636718 47.945313 64.316406v52.59375h20.785156c4.195312 0 7.597656-3.402344 7.597656-7.59375v-58.574219c0-29.679687-19.496094-55.835937-47.945312-64.320312zm0 0" fill="#ffc473"/><path d="m171.957031 309.316406v28.242188c-13.652343 9.304687-30.144531 14.734375-47.914062 14.734375h-8.886719c-7.699219 0-15.152344-1.019531-22.25-2.941407v-22.828124zm0 0" fill="#ffc473"/><path d="m124.042969 333.960938h-8.886719c-47.085938 0-85.253906-38.167969-85.253906-85.253907v-192.847656h179.398437v192.847656c0 47.085938-38.171875 85.253907-85.257812 85.253907zm0 0" fill="#ffdba9"/><path d="m148.140625 17.296875v72.953125c0 8.980469 3.570313 17.59375 9.921875 23.945312l11.199219 11.203126c7.363281 7.363281 11.496093 17.34375 11.496093 27.753906v3.316406c0 6.898438 5.59375 12.492188 12.492188 12.492188h16.050781v-109.535157c0-23.269531-18.863281-42.128906-42.128906-42.128906zm0 0" fill="#994c00"/><path d="m37.394531 94.421875h76.082031c19.144532 0 34.664063-15.519531 34.664063-34.660156v-42.464844l-146.03125 32.375c-1.234375.273437-2.109375 1.367187-2.109375 2.628906v4.726563c0 20.652344 16.742188 37.394531 37.394531 37.394531zm0 0" fill="#c06100"/><path d="m75.601562 190.535156c0 4.925782-3.988281 8.914063-8.914062 8.914063-4.921875 0-8.914062-3.988281-8.914062-8.914063 0-4.921875 3.992187-8.914062 8.914062-8.914062 4.925781 0 8.914062 3.992187 8.914062 8.914062zm0 0" fill="#57555c"/><path d="m146.929688 190.535156c0 4.925782-3.988282 8.914063-8.914063 8.914063-4.921875 0-8.914063-3.988281-8.914063-8.914063 0-4.921875 3.992188-8.914062 8.914063-8.914062 4.925781 0 8.914063 3.992187 8.914063 8.914062zm0 0" fill="#57555c"/><path d="m260.628906 445.832031v58.574219c0 4.191406-3.398437 7.59375-7.59375 7.59375h-234.535156c-4.195312 0-7.605469-3.402344-7.605469-7.59375v-58.574219c0-29.679687 19.507813-55.835937 47.957031-64.320312l13.488282-4.011719 60.90625 10.824219 59.277344-12.816407 20.160156 6.003907c28.449218 8.484375 47.945312 34.640625 47.945312 64.320312zm0 0" fill="#c1e4ff"/><path d="m212.683594 381.511719-20.160156-6.003907-38.34375 8.289063c2.886718 2.351563 6.246093 4.175781 9.960937 5.285156l20.160156 6.007813c28.449219 8.480468 47.945313 34.636718 47.945313 64.316406v52.59375h20.789062c4.195313 0 7.59375-3.402344 7.59375-7.59375v-58.574219c0-29.679687-19.496094-55.835937-47.945312-64.320312zm0 0" fill="#84caff"/><path d="m127.769531 392.933594-17.105469 119.066406h47.175782l-19.410156-119.140625c-.980469-6.085937-9.761719-6.027344-10.660157.074219zm0 0" fill="#7985eb"/><path d="m100.222656 286.300781c-8.070312 0-14.503906-2.25-17.621094-3.59375-3.871093-1.667969-5.660156-6.160156-3.992187-10.03125 1.667969-3.875 6.160156-5.660156 10.035156-3.996093 3.152344 1.359374 11.488281 4.144531 20.859375.710937 7.167969-2.625 11.4375-7.65625 13.34375-10.421875 2.394532-3.472656 7.148438-4.347656 10.621094-1.949219 3.472656 2.394531 4.347656 7.148438 1.953125 10.621094-2.9375 4.257813-9.527344 12.007813-20.660156 16.089844-5.15625 1.890625-10.097657 2.570312-14.539063 2.570312zm0 0" fill="#c06100"/><path d="m88.738281 365.277344 44.503907 23.046875-19.371094 22.40625c-3.125 3.609375-8.710938 3.648437-11.886719.082031l-29.644531-33.3125zm0 0" fill="#00a6ff"/><path d="m177.75 365.277344-44.507812 23.046875 19.375 22.402343c3.125 3.613282 8.710937 3.652344 11.886718.085938l30.703125-34.503906zm0 0" fill="#00a6ff"/><path d="m64.9375 482.109375v29.890625h-15.269531v-29.890625c0-4.226563 3.421875-7.636719 7.636719-7.636719 4.214843 0 7.632812 3.410156 7.632812 7.636719zm0 0" fill="#84caff"/><path d="m225.695312 482.109375v29.890625h-15.273437v-29.890625c0-4.226563 3.421875-7.636719 7.636719-7.636719 4.21875 0 7.636718 3.410156 7.636718 7.636719zm0 0" fill="#84caff"/><path d="m131.179688 318.339844c-3.621094 0-6.835938-2.589844-7.503907-6.277344-.753906-4.148438 2-8.121094 6.152344-8.875 7.328125-1.328125 21.382813-5.398438 33.136719-17.738281 14.738281-15.464844 16.554687-34.058594 16.648437-41.335938.054688-4.21875 3.515625-7.613281 7.738281-7.535156 4.214844.054687 7.589844 3.519531 7.535157 7.734375-.121094 9.082031-2.394531 32.289062-20.867188 51.671875-14.742187 15.472656-32.308593 20.570313-41.46875 22.230469-.460937.085937-.917969.125-1.371093.125zm0 0" fill="#aeadb3"/><path d="m213.0625 149.046875c-.175781 4.105469-3.554688 7.320313-7.628906 7.320313-.109375 0-.210938 0-.324219-.007813-4.214844-.175781-7.484375-3.738281-7.308594-7.953125 1.128907-26.675781-2.773437-65.386719-27.757812-98.304688-4.683594-6.179687-11.25-14.84375-21.898438-22.09375-2.902343-1.972656-6.109375-3.847656-9.664062-5.539062-1.546875-.730469-3.09375-1.402344-4.632813-2.003906-30.199218-11.859375-58.695312.417968-59.949218.96875-10.933594 4.816406-19.160157 11.585937-25.066407 17.878906l-23 5.109375c1.953125-3.117187 3.828125-5.78125 4.691407-6.945313 9.753906-13.203124 22.625-23.589843 37.203124-30.015624 3.972657-1.75 39.863282-16.59375 77.3125 1.210937 19.945313 9.492187 30.726563 23.703125 37.171876 32.207031 27.722656 36.53125 32.082031 78.988282 30.851562 108.167969zm0 0" fill="#ffda2d"/><path d="m120.585938 330.664062h-26.414063c-5.855469 0-10.601563-4.746093-10.601563-10.605468v-9.203125c0-5.855469 4.746094-10.605469 10.601563-10.605469h26.414063c5.855468 0 10.601562 4.75 10.601562 10.605469v9.203125c.003906 5.859375-4.746094 10.605468-10.601562 10.605468zm0 0" fill="#57555c"/><path d="m211.976562 250.585938c-28.242187 0-51.136718-22.894532-51.136718-51.136719 0-28.242188 22.894531-51.136719 51.136718-51.136719 28.242188 0 51.136719 22.894531 51.136719 51.136719 0 28.242187-22.894531 51.136719-51.136719 51.136719zm0 0" fill="#57555c"/><path d="m211.976562 148.3125c-4.785156 0-9.40625.671875-13.796874 1.898438 21.535156 6.023437 37.335937 25.78125 37.335937 49.238281 0 23.460937-15.800781 43.214843-37.335937 49.238281 4.390624 1.230469 9.011718 1.898438 13.796874 1.898438 28.242188 0 51.136719-22.894532 51.136719-51.136719 0-28.242188-22.894531-51.136719-51.136719-51.136719zm0 0" fill="#3c3b41"/><path d="m230.882812 199.449219c0 10.445312-8.464843 18.910156-18.90625 18.910156-10.441406 0-18.90625-8.464844-18.90625-18.910156 0-10.441407 8.464844-18.90625 18.90625-18.90625 10.441407 0 18.90625 8.464843 18.90625 18.90625zm0 0" fill="#ffda2d"/></svg>