<svg height="512pt" viewBox="-121 0 512 512.00103" width="512pt" xmlns="http://www.w3.org/2000/svg"><path d="m269.738281 443.519531v60.621094c0 4.339844-3.519531 7.859375-7.863281 7.859375h-242.722656c-4.351563 0-7.871094-3.519531-7.871094-7.859375v-60.621094c0-14.925781 4.765625-28.984375 13.03125-40.515625 8.765625-12.191406 21.457031-21.539062 36.597656-26.042968l13.957032-4.167969c.550781-.164063 1.101562-.339844 1.640624-.546875.042969-.023438.09375-.03125.136719-.054688 2.242188-.808594 4.339844-1.886718 6.261719-3.175781 3.488281-2.328125 6.429688-5.359375 8.648438-8.871094 2.753906-4.351562 4.382812-9.417969 4.582031-14.796875.011719-.363281.019531-.726562.019531-1.101562v-25.929688l81.804688-16.089844v39.964844c0 7.601563 2.890624 14.683594 7.75 20.03125 1.390624 1.527344 2.949218 2.917969 4.640624 4.144532 2.648438 1.898437 5.640626 3.394531 8.902344 4.371093l5.785156 1.722657 15.078126 4.5c15.722656 4.683593 28.808593 14.578124 37.582031 27.476562 7.65625 11.25 12.039062 24.769531 12.039062 39.082031zm0 0" fill="#ffdba9"/><path d="m257.703125 404.4375c-8.777344-12.898438-21.863281-22.792969-37.585937-27.476562l-15.078126-4.5-5.785156-1.722657c-3.261718-.976562-6.253906-2.472656-8.898437-4.371093-1.695313-1.226563-3.253907-2.617188-4.644531-4.144532-4.859376-5.347656-7.746094-12.429687-7.746094-20.03125v-39.964844l-81.804688 16.089844v8.902344l58.4375-11.488281v39.960937c0 7.601563 2.886719 14.683594 7.746094 20.035156 1.390625 1.527344 2.949219 2.917969 4.644531 4.140626 2.644531 1.902343 5.636719 3.398437 8.898438 4.375l5.785156 1.722656 15.078125 4.496094c15.722656 4.683593 28.808594 14.582031 37.585938 27.480468 7.652343 11.246094 12.035156 24.769532 12.035156 39.078125v54.980469h15.503906c4.34375 0 7.863281-3.519531 7.863281-7.859375v-60.621094c0-14.3125-4.382812-27.832031-12.035156-39.082031zm0 0" fill="#ffc473"/><path d="m177.964844 302.226562v31.230469c-13.8125 9.25-30.429688 14.640625-48.3125 14.640625h-11.746094c-7.519531 0-14.8125-.953125-21.769531-2.75.011719-.363281.019531-.726562.019531-1.101562v-25.929688zm0 0" fill="#ffc473"/><path d="m129.65625 327.738281h-11.75c-48.027344 0-86.960938-38.933593-86.960938-86.964843v-200.859376h185.671876v200.863282c0 48.027344-38.933594 86.960937-86.960938 86.960937zm0 0" fill="#ffdba9"/><path d="m226.355469 222.945312h-9.738281v-63.296874h9.738281c16.375 0 29.648437 13.273437 29.648437 29.648437v4.003906c-.003906 16.371094-13.273437 29.644531-29.648437 29.644531zm0 0" fill="#ffc473"/><path d="m153.320312 0v75.503906c0 9.296875 3.691407 18.210938 10.265626 24.785156l11.59375 11.59375c7.617187 7.617188 11.898437 17.949219 11.898437 28.722657v6.113281c0 7.140625 5.789063 12.929688 12.929687 12.929688h16.609376v-116.046876c0-24.078124-19.519532-43.601562-43.601563-43.601562zm0 0" fill="#715539"/><path d="m38.703125 79.824219h78.742187c19.8125 0 35.875-16.0625 35.875-35.875v-43.949219l-151.136718 33.507812c-1.277344.285157-2.183594 1.414063-2.183594 2.71875v4.894532c0 21.375 17.328125 38.703125 38.703125 38.703125zm0 0" fill="#a17852"/><path d="m78.246094 179.296875c0 5.09375-4.132813 9.226563-9.226563 9.226563-5.097656 0-9.226562-4.132813-9.226562-9.226563 0-5.097656 4.128906-9.226563 9.226562-9.226563 5.09375 0 9.226563 4.128907 9.226563 9.226563zm0 0" fill="#57555c"/><path d="m152.066406 179.296875c0 5.09375-4.128906 9.226563-9.226562 9.226563-5.09375 0-9.226563-4.132813-9.226563-9.226563 0-5.097656 4.132813-9.226563 9.226563-9.226563 5.097656 0 9.226562 4.128907 9.226562 9.226563zm0 0" fill="#57555c"/><path d="m269.738281 443.519531v60.621094c0 4.339844-3.519531 7.859375-7.863281 7.859375h-242.722656c-4.351563 0-7.871094-3.519531-7.871094-7.859375v-60.621094c0-14.925781 4.765625-28.984375 13.03125-40.515625 8.765625-12.191406 21.457031-21.539062 36.597656-26.042968l13.957032-4.167969c.550781-.164063 1.101562-.339844 1.640624-.546875.042969-.023438.09375-.03125.136719-.054688 2.242188-.808594 4.339844-1.886718 6.261719-3.175781l54.75 5.273437 2.855469.273438 2.472656-.40625 47.371094-7.789062c2.644531 1.898437 5.636719 3.394531 8.898437 4.371093l5.785156 1.722657 15.078126 4.5c15.722656 4.683593 28.808593 14.578124 37.585937 27.476562 7.652344 11.25 12.035156 24.769531 12.035156 39.082031zm0 0" fill="#c1e4ff"/><path d="m257.707031 404.4375c-8.773437-12.898438-21.859375-22.792969-37.585937-27.476562l-15.078125-4.5-5.785157-1.722657c-3.261718-.976562-6.25-2.472656-8.898437-4.371093l-31.210937 5.132812c.941406 1.5 2.011718 2.914062 3.199218 4.222656 1.394532 1.527344 2.949219 2.917969 4.644532 4.144532 2.648437 1.898437 5.640624 3.394531 8.898437 4.371093l5.785156 1.722657 15.078125 4.5c15.726563 4.683593 28.8125 14.578124 37.585938 27.476562 7.652344 11.25 12.035156 24.769531 12.035156 39.082031v54.980469h15.507812c4.339844 0 7.859376-3.523438 7.859376-7.863281v-60.617188c0-14.3125-4.382813-27.832031-12.035157-39.082031zm0 0" fill="#84caff"/><path d="m103.726562 278.296875c-8.335937 0-14.976562-2.324219-18.191406-3.710937-3.949218-1.703126-5.773437-6.285157-4.070312-10.234376 1.699218-3.949218 6.28125-5.773437 10.234375-4.070312 3.269531 1.410156 11.9375 4.300781 21.671875.734375 7.445312-2.726563 11.882812-7.957031 13.867187-10.828125 2.441407-3.542969 7.289063-4.433594 10.832031-1.988281 3.542969 2.441406 4.433594 7.292969 1.988282 10.832031-3.03125 4.398438-9.832032 12.402344-21.328125 16.613281-5.320313 1.945313-10.421875 2.652344-15.003907 2.652344zm0 0" fill="#c06100"/><path d="m114.0625 425.355469v86.644531h-54.761719v-63.992188c-.925781-5.402343-3.300781-14.863281-10.09375-24.53125-8.671875-12.335937-19.699219-18.132812-24.882812-20.460937l-.011719-.007813c8.765625-12.191406 21.457031-21.539062 36.597656-26.046874l13.957032-4.164063c.550781-.167969 1.101562-.34375 1.640624-.550781.042969-.019532.09375-.03125.136719-.050782l3.441407-1.433593c-.132813 4.164062-2.953126 19.480469 6.300781 32.285156 8.058593 11.144531 18.671875 15.910156 24.476562 17.84375 1.910157.632813 3.199219 2.441406 3.199219 4.464844zm0 0" fill="#7985eb"/><path d="m257.703125 404.4375c-5.183594 2.328125-13.253906 6.699219-21.914063 19.039062-6.804687 9.667969-9.171874 19.128907-10.105468 24.53125v63.992188h-58.730469v-86.644531c0-2.023438 1.289063-3.832031 3.199219-4.464844 5.804687-1.933594 16.417968-6.699219 24.480468-17.84375 9.25-12.804687 7.660157-27.34375 7.523438-31.507813l2.882812.921876 15.078126 4.5c15.722656 4.683593 28.808593 14.582031 37.585937 27.476562zm0 0" fill="#7985eb"/><path d="m189.269531 397.125-48.765625-15.597656v-16.160156l48.578125-16.828126c6.984375-2.421874 13.679688 5.378907 13.679688 15.9375v16.644532c0 10.445312-6.558594 18.21875-13.492188 16.003906zm0 0" fill="#ff52a1"/><path d="m91.75 397.125 48.765625-15.597656v-16.160156l-48.578125-16.828126c-6.988281-2.421874-13.679688 5.378907-13.679688 15.9375v16.644532c0 10.445312 6.554688 18.21875 13.492188 16.003906zm0 0" fill="#ff52a1"/><path d="m148.292969 381.53125v130.46875h-15.578125v-130.46875c0-3.304688 2.042968-6.117188 4.941406-7.242188.882812-.363281 1.839844-.546874 2.847656-.546874.871094 0 1.703125.144531 2.480469.414062 3.085937 1.027344 5.308594 3.9375 5.308594 7.375zm0 0" fill="#84caff"/><path d="m158.136719 374.554688c0 9.734374-7.890625 17.625-17.625 17.625-9.730469 0-17.621094-7.890626-17.621094-17.625 0-9.730469 7.890625-17.621094 17.621094-17.621094 9.734375 0 17.625 7.890625 17.625 17.621094zm0 0" fill="#e80b6a"/></svg>