<svg height="512pt" viewBox="-137 0 512 512.00103" width="512pt" xmlns="http://www.w3.org/2000/svg"><path d="m119.796875 16.3125c0 9.011719-7.304687 16.316406-16.316406 16.316406-9.007813 0-16.3125-7.304687-16.3125-16.316406 0-9.007812 7.304687-16.3125 16.3125-16.3125 9.011719 0 16.316406 7.304688 16.316406 16.3125zm0 0" fill="#ca1c01"/><path d="m238.234375 448.878906v55.875c0 3.996094-3.25 7.246094-7.246094 7.246094h-223.730469c-4.007812 0-7.257812-3.25-7.257812-7.246094v-55.875c0-28.316406 18.609375-53.273437 45.75-61.355468l12.867188-3.832032c6.527343-1.941406 11.914062-6.171875 15.378906-11.660156 2.707031-4.28125 4.238281-9.328125 4.238281-14.652344v-16.984375l75.40625-21.746093v36.828124c0 7.011719 2.660156 13.542969 7.144531 18.46875 3.289063 3.617188 7.5625 6.375 12.476563 7.847657l19.230469 5.730469c27.144531 8.082031 45.742187 33.039062 45.742187 61.355468zm0 0" fill="#ffc088"/><path d="m192.492188 387.523438-19.230469-5.734376c-4.914063-1.46875-9.1875-4.230468-12.476563-7.847656-4.488281-4.925781-7.144531-11.453125-7.144531-18.464844v-36.828124l-75.40625 21.746093v1.910157l45.332031-13.074219v36.832031c0 7.007812 2.65625 13.539062 7.140625 18.464844 3.289063 3.617187 7.5625 6.375 12.476563 7.847656l19.234375 5.730469c27.140625 8.085937 45.738281 33.039062 45.738281 61.355469v52.539062h22.832031c3.996094 0 7.246094-3.25 7.246094-7.246094v-55.875c0-28.316406-18.597656-53.273437-45.742187-61.355468zm0 0" fill="#f4a37a"/><path d="m18.128906 155.910156v100.6875c0 19.363282 6.4375 37.226563 17.289063 51.5625 11.394531 15.0625 27.664062 26.242188 46.464843 31.179688 1.1875.328125 2.390626.613281 3.597657.867187 5.875 1.277344 11.96875 1.953125 18.222656 1.953125 6.835937 0 13.488281-.808594 19.863281-2.320312 10.996094-2.617188 21.171875-7.359375 30.074219-13.777344 9.246094-6.640625 17.125-15.113281 23.09375-24.859375 7.953125-12.988281 12.539063-28.257813 12.539063-44.605469v-144.015625h-171.144532zm0 0" fill="#ffc088"/><path d="m196.398438 245.570312h-7.128907v-58.34375h7.128907c16.109374 0 29.171874 13.0625 29.171874 29.171876 0 16.113281-13.0625 29.171874-29.171874 29.171874zm0 0" fill="#f4a37a"/><path d="m61.726562 205.335938c0 4.699218-3.804687 8.503906-8.503906 8.503906-4.695312 0-8.503906-3.804688-8.503906-8.503906 0-4.695313 3.808594-8.503907 8.503906-8.503907 4.699219 0 8.503906 3.808594 8.503906 8.503907zm0 0" fill="#57555c"/><path d="m129.769531 205.335938c0 4.699218-3.804687 8.503906-8.503906 8.503906-4.695313 0-8.503906-3.804688-8.503906-8.503906 0-4.695313 3.808593-8.503907 8.503906-8.503907 4.699219 0 8.503906 3.808594 8.503906 8.503907zm0 0" fill="#57555c"/><path d="m85.21875 297.070312c-7.773438 0-13.964844-2.164062-16.964844-3.457031-3.886718-1.671875-5.679687-6.183593-4.007812-10.070312 1.675781-3.886719 6.1875-5.679688 10.074218-4.007813 2.964844 1.277344 10.808594 3.898438 19.617188.667969 6.734375-2.46875 10.753906-7.199219 12.546875-9.800781 2.40625-3.484375 7.179687-4.359375 10.664063-1.957032 3.484374 2.40625 4.355468 7.179688 1.953124 10.664063-2.828124 4.097656-9.171874 11.558594-19.890624 15.488281-4.960938 1.816406-9.71875 2.472656-13.992188 2.472656zm0 0" fill="#c06100"/><path d="m238.234375 448.878906v27.253906h-45.085937v35.867188h-146.652344v-35.867188h-46.496094v-27.253906c0-28.316406 18.609375-53.273437 45.75-61.355468l12.867188-3.832032c8.980468 4.976563 29.6875 14.878906 57.71875 14.378906 27.867187-.496093 48.113281-11.007812 56.925781-16.28125l19.230469 5.734376c27.144531 8.082031 45.742187 33.039062 45.742187 61.355468zm0 0" fill="#00b7be"/><path d="m208.15625 476.132812h30.078125v-27.253906c0-28.320312-18.597656-53.273437-45.738281-61.355468l-19.234375-5.734376c-5.175781 3.097657-14.300781 8-26.597657 11.621094l15.753907 4.695313c27.140625 8.085937 45.738281 33.039062 45.738281 61.355469zm0 0" fill="#01989e"/><path d="m189.269531 187.226562h-12.296875c-6.953125 0-12.585937-5.628906-12.585937-12.574218v-1.839844c0-3.570312-1.40625-6.996094-3.914063-9.539062l-14.550781-14.738282c-2.511719-2.542968-3.917969-5.964844-3.917969-9.535156v-14.417969h47.265625zm0 0" fill="#c06100"/><path d="m18.128906 112.582031v-7.777343c0-41.816407 29.992188-76.621094 69.640625-84.089844.285157-.0625.574219-.113282.867188-.15625 1.351562-.246094 2.71875-.457032 4.089843-.632813.039063 0 .070313 0 .109376-.011719 1.410156-.183593 2.84375-.324218 4.273437-.429687 2.144531-.160156 4.320313-.253906 6.507813-.253906 5.324218-.011719 10.535156.480469 15.59375 1.410156 39.855468 7.285156 70.0625 42.195313 70.0625 84.164063v51.105468h-171.148438v-43.328125zm0 0" fill="#ff4f18"/><path d="m103.617188 19.230469c-5.84375.007812-11.546876.601562-17.058594 1.722656 39.027344 7.945313 68.40625 42.464844 68.40625 83.847656v51.105469h34.304687v-51.105469c0-47.292969-38.363281-85.617187-85.652343-85.570312zm0 0" fill="#ff3201"/><path d="m202.855469 120.398438v27.691406c0 4.3125-3.507813 7.816406-7.820313 7.816406h-180.003906c-4.3125 0-7.816406-3.503906-7.816406-7.816406v-27.691406c0-4.324219 3.503906-7.816407 7.816406-7.816407h180.003906c4.3125 0 7.820313 3.492188 7.820313 7.816407zm0 0" fill="#ca1c01"/><path d="m195.035156 112.582031h-33.746094c4.3125 0 7.820313 3.492188 7.820313 7.816407v27.691406c0 4.3125-3.507813 7.816406-7.820313 7.816406h33.746094c4.3125 0 7.820313-3.503906 7.820313-7.816406v-27.691406c0-4.324219-3.507813-7.816407-7.820313-7.816407zm0 0" fill="#901"/><path d="m116.171875 481.617188c-4.234375 0-7.664063-3.433594-7.664063-7.664063v-14.890625c0-4.234375 3.429688-7.664062 7.664063-7.664062s7.664063 3.433593 7.664063 7.664062v14.890625c0 4.230469-3.429688 7.664063-7.664063 7.664063zm0 0" fill="#ca1c01"/><path d="m168.40625 140.632812v15.273438h-15.328125v-15.273438c0-4.234374 3.433594-7.664062 7.664063-7.664062 4.238281 0 7.664062 3.433594 7.664062 7.664062zm0 0" fill="#ff4f18"/><path d="m139.886719 140.632812v15.273438h-15.332031v-15.273438c0-4.234374 3.433593-7.664062 7.664062-7.664062s7.667969 3.433594 7.667969 7.664062zm0 0" fill="#ff4f18"/><path d="m111.363281 140.632812v15.273438h-15.328125v-15.273438c0-4.234374 3.433594-7.664062 7.664063-7.664062s7.664062 3.433594 7.664062 7.664062zm0 0" fill="#ff4f18"/><path d="m82.84375 140.632812v15.273438h-15.328125v-15.273438c0-4.234374 3.421875-7.664062 7.664063-7.664062 4.230468 0 7.664062 3.433594 7.664062 7.664062zm0 0" fill="#ff4f18"/><path d="m149.4375 481.617188c-4.234375 0-7.664062-3.433594-7.664062-7.664063v-14.890625c0-4.234375 3.429687-7.664062 7.664062-7.664062 4.230469 0 7.664062 3.433593 7.664062 7.664062v14.890625c0 4.230469-3.429687 7.664063-7.664062 7.664063zm0 0" fill="#ca1c01"/><path d="m54.320312 140.632812v15.273438h-15.328124v-15.273438c0-4.234374 3.425781-7.664062 7.664062-7.664062 4.230469 0 7.664062 3.433594 7.664062 7.664062zm0 0" fill="#ff4f18"/><path d="m153.542969 461.789062h-41.476563c-1.964844 0-3.558594-1.59375-3.558594-3.558593v-68.203125h48.59375v68.203125c0 1.964843-1.59375 3.558593-3.558593 3.558593zm0 0" fill="#901"/><path d="m176.734375 301.199219v69.019531c0 10.507812-5.621094 20.195312-14.714844 25.425781-1.125.644531-2.269531 1.289063-3.453125 1.921875-4.601562 2.472656-9.660156 4.820313-15.332031 6.792969-4.414063 1.535156-9.183594 2.84375-14.398437 3.78125-4.699219.859375-9.765626 1.429687-15.226563 1.605469-2.207031.082031-4.464844.101562-6.804687.042968-2.6875-.0625-5.332032-.214843-7.917969-.441406-5.253907-.449218-10.289063-1.214844-15.09375-2.207031-5.230469-1.082031-10.1875-2.441406-14.859375-3.984375-5.351563-1.757812-10.320313-3.75-14.867188-5.835938-.695312-.316406-1.390625-.632812-2.0625-.960937-10.167968-4.84375-16.585937-15.144531-16.585937-26.40625v-61.792969c15.613281 20.652344 40.394531 33.996094 68.28125 33.996094 30.914062 0 57.992187-16.386719 73.035156-40.957031zm0 0" fill="#ff4f18"/><g fill="#ca1c01"><path d="m69.394531 354.535156v46.035156c0 .910157-.152343 1.777344-.457031 2.585938-5.355469-1.757812-10.324219-3.75-14.871094-5.835938v-42.785156c0-4.242187 3.425782-7.664062 7.664063-7.664062 4.230469-.003906 7.664062 3.421875 7.664062 7.664062zm0 0"/><path d="m99.121094 361.441406v46.046875c0 .644531-.082032 1.265625-.234375 1.859375-5.253907-.449218-10.289063-1.214844-15.09375-2.207031v-45.699219c0-4.230468 3.425781-7.664062 7.664062-7.664062 4.230469 0 7.664063 3.433594 7.664063 7.664062zm0 0"/><path d="m128.839844 363.78125v44.359375c-4.703125.859375-9.769532 1.429687-15.226563 1.605469-.074219-.398438-.101562-.796875-.101562-1.214844v-44.75c0-4.230469 3.433593-7.664062 7.664062-7.664062 4.238281 0 7.664063 3.433593 7.664063 7.664062zm0 0"/><path d="m158.566406 354.535156v43.03125c-4.601562 2.472656-9.660156 4.820313-15.332031 6.792969v-49.824219c0-4.242187 3.4375-7.664062 7.664063-7.664062 4.234374-.003906 7.667968 3.421875 7.667968 7.664062zm0 0"/></g></svg>