<svg height="512pt" viewBox="-137 0 512 512.00097" width="512pt" xmlns="http://www.w3.org/2000/svg"><path d="m233.835938 450.042969v54.84375c0 3.921875-3.1875 7.113281-7.109376 7.113281h-219.605468c-3.929688 0-7.121094-3.191406-7.121094-7.113281v-54.84375c0-27.792969 18.265625-52.289063 44.90625-60.222657l12.628906-3.757812c6.410156-1.90625 11.695313-6.058594 15.09375-11.445312 2.660156-4.203126 4.164063-9.160157 4.164063-14.382813v-16.671875l74.011719-21.34375v36.148438c0 6.878906 2.609374 13.289062 7.011718 18.125 3.230469 3.550781 7.421875 6.257812 12.246094 7.703124l18.878906 5.625c26.640625 7.933594 44.894532 32.429688 44.894532 60.222657zm0 0" fill="#ffdba9"/><path d="m43.101562 390.398438c-6.570312 2.175781-12.605468 5.363281-17.945312 9.367187l5.734375-1.707031c4.8125-1.429688 8.988281-4.125 12.210937-7.660156zm0 0" fill="#ffc473"/><path d="m188.941406 389.820312-18.875-5.625c-4.824218-1.445312-9.019531-4.152343-12.25-7.703124-4.402344-4.835938-7.007812-11.246094-7.007812-18.125v-36.148438l-74.015625 21.34375v4.316406l47.371093-13.664062v36.148437c0 6.882813 2.605469 13.292969 7.011719 18.125 3.230469 3.550781 7.421875 6.261719 12.246094 7.703125l18.875 5.628906c26.640625 7.933594 44.898437 32.429688 44.898437 60.222657v49.957031h19.53125c3.921876 0 7.109376-3.191406 7.109376-7.113281v-54.84375c0-27.792969-18.253907-52.289063-44.894532-60.222657zm0 0" fill="#ffc473"/><path d="m185.78125 115.300781v146.007813c0 16.050781-4.503906 31.035156-12.308594 43.785156-14.765625 24.109375-41.34375 40.199219-71.6875 40.199219-27.371094 0-51.695312-13.097657-67.023437-33.371094-10.652344-14.070313-16.96875-31.605469-16.96875-50.613281v-122.78125zm0 0" fill="#ffdba9"/><path d="m192.773438 250.488281h-7v-57.265625h7c15.816406 0 28.632812 12.816406 28.632812 28.632813 0 15.8125-12.820312 28.632812-28.632812 28.632812zm0 0" fill="#ffc473"/><path d="m60.589844 210.996094c0 4.613281-3.738282 8.347656-8.347656 8.347656-4.609376 0-8.347657-3.734375-8.347657-8.347656 0-4.609375 3.738281-8.347656 8.347657-8.347656 4.609374 0 8.347656 3.738281 8.347656 8.347656zm0 0" fill="#57555c"/><path d="m127.375 210.996094c0 4.613281-3.734375 8.347656-8.347656 8.347656-4.609375 0-8.347656-3.734375-8.347656-8.347656 0-4.609375 3.738281-8.347656 8.347656-8.347656 4.613281 0 8.347656 3.738281 8.347656 8.347656zm0 0" fill="#57555c"/><path d="m233.835938 450.042969v26.75h-44.253907v35.207031h-143.941406v-35.207031h-45.640625v-26.75c0-27.792969 18.265625-52.289063 44.90625-60.222657l12.628906-3.757812c8.816406 4.882812 29.140625 14.601562 56.652344 14.109375 27.351562-.484375 47.226562-10.800781 55.878906-15.976563l18.875 5.625c26.640625 7.933594 44.894532 32.429688 44.894532 60.222657zm0 0" fill="#ef5361"/><path d="m188.941406 389.820312-18.875-5.625c-5.253906 3.140626-14.65625 8.179688-27.347656 11.757813.234375.078125.464844.167969.703125.238281l18.875 5.628906c26.640625 7.933594 44.894531 32.425782 44.894531 60.21875v14.753907h26.644532v-26.75c0-27.792969-18.253907-52.289063-44.894532-60.222657zm0 0" fill="#dc4250"/><path d="m185.773438 193.222656h-12.070313c-6.820313 0-12.351563-5.527344-12.351563-12.34375v-1.804687c0-3.503907-1.378906-6.867188-3.839843-9.363281l-14.285157-14.46875c-2.460937-2.492188-3.84375-5.855469-3.84375-9.359376v-14.152343h46.390626zm0 0" fill="#beccd3"/><path d="m101.703125 28.324219c-46.355469.046875-83.90625 37.636719-83.90625 83.992187v50.160156h167.976563v-50.160156c0-46.417968-37.652344-84.035156-84.070313-83.992187zm0 0" fill="#ef5361"/><path d="m101.703125 28.324219c-3.070313.003906 11.960937 19.53125 8.976563 19.855469 42.082031 4.558593 56.792968 20.835937 56.792968 64.136718v50.160156h18.300782v-50.160156c0-46.417968-37.652344-84.035156-84.070313-83.992187zm0 0" fill="#dc4250"/><path d="m199.101562 128.054688v26.320312c0 4.476562-3.621093 8.097656-8.097656 8.097656h-175.816406c-4.476562 0-8.097656-3.621094-8.097656-8.097656v-26.320312c0-4.480469 3.621094-8.097657 8.097656-8.097657h175.816406c4.476563 0 8.097656 3.617188 8.097656 8.097657zm0 0" fill="#dae6ed"/><g fill="#beccd3"><path d="m165.71875 147.484375v14.988281h-15.878906v-14.988281c0-4.386719 3.554687-7.941406 7.9375-7.941406 4.386718 0 7.941406 3.554687 7.941406 7.941406zm0 0"/><path d="m137.726562 147.484375v14.988281h-15.878906v-14.988281c0-4.386719 3.546875-7.941406 7.9375-7.941406 4.382813 0 7.941406 3.554687 7.941406 7.941406zm0 0"/><path d="m109.722656 147.484375v14.988281h-15.878906v-14.988281c0-4.386719 3.554688-7.941406 7.9375-7.941406 4.394531 0 7.941406 3.554687 7.941406 7.941406zm0 0"/><path d="m81.730469 147.484375v14.988281h-15.882813v-14.988281c0-4.386719 3.558594-7.941406 7.941406-7.941406 4.382813 0 7.941407 3.554687 7.941407 7.941406zm0 0"/><path d="m53.734375 147.484375v14.988281h-15.878906v-14.988281c0-4.386719 3.546875-7.941406 7.941406-7.941406 4.382813 0 7.9375 3.554687 7.9375 7.941406zm0 0"/></g><path d="m132.652344 51.464844 81.671875 20.117187c1.839843.449219 3.058593-1.859375 1.648437-3.121093l-62.820312-56.21875c-18.035156-16.140626-45.261719-16.34375-63.539063-.472657l-45.71875 39.699219" fill="#ef5361"/><path d="m215.972656 68.460938-62.820312-56.21875c-12.746094-11.40625-30.082032-14.84375-45.609375-10.28125 6.664062 1.960937 12.988281 5.382812 18.464843 10.28125l57.949219 51.859374 30.367188 7.480469c1.839843.449219 3.058593-1.859375 1.648437-3.121093zm0 0" fill="#dc4250"/><path d="m238.683594 74.445312c0 9.054688-7.34375 16.398438-16.398438 16.398438-9.058594 0-16.398437-7.34375-16.398437-16.398438 0-9.058593 7.339843-16.398437 16.398437-16.398437 9.054688 0 16.398438 7.339844 16.398438 16.398437zm0 0" fill="#dae6ed"/><path d="m222.285156 58.046875c-2.359375 0-4.59375.503906-6.617187 1.398437 5.757812 2.546876 9.78125 8.296876 9.78125 14.996094 0 6.703125-4.023438 12.453125-9.78125 15 2.023437.894532 4.257812 1.398438 6.617187 1.398438 9.054688 0 16.398438-7.339844 16.398438-16.398438 0-9.054687-7.34375-16.394531-16.398438-16.394531zm0 0" fill="#beccd3"/><path d="m170.890625 193.222656c-.71875 14.808594-2.71875 32.546875-7.367187 52.113282-2.269532 9.554687-4.882813 18.332031-7.617188 26.296874-1.683594 4.898438-6.21875 7.917969-11.023438 7.328126-4.722656-.582032-10.15625-1.679688-16.015624-3.667969-7.261719-2.464844-13.269532-5.648438-17.964844-8.640625-3.15625-2.015625-6.761719-3.046875-10.425782-3.046875h-28.40625c-5.660156 0-11.15625 2.398437-15.011718 6.875-2.558594 2.96875-6.027344 5.945312-11.179688 8.851562-9.828125 5.542969-19.542968 7.039063-25.074218 8.898438-8.972657 37.765625 2.492187 76.875 29 99.003906 20.828124 17.382813 50.832031 24.195313 76.917968 13.511719 22.414063-9.179688 34.148438-28.09375 40.019532-37.835938 16.097656-26.730468 19.035156-53.90625 19.035156-108.371094 0-61.316406 0-61.316406 0-61.316406zm0 0" fill="#dae6ed"/><path d="m170.890625 193.222656c-.59375 12.214844-2.0625 26.433594-5.167969 42.019532v19.292968c0 54.46875-2.941406 81.640625-19.035156 108.371094-5.867188 9.746094-17.605469 28.65625-40.023438 37.839844-5.335937 2.183594-10.835937 3.625-16.386718 4.40625 12.144531 1.65625 24.691406.40625 36.445312-4.40625 22.414063-9.183594 34.152344-28.09375 40.019532-37.839844 16.097656-26.730469 19.039062-53.902344 19.039062-108.371094 0-61.3125 0-61.3125 0-61.3125zm0 0" fill="#beccd3"/><path d="m83.238281 320.652344c-.804687 0-1.609375-.019532-2.421875-.066406-22.644531-1.238282-34.554687-19.363282-35.839844-21.425782-2.316406-3.722656-1.175781-8.621094 2.546876-10.9375 3.722656-2.320312 8.617187-1.179687 10.9375 2.546875.332031.535157 8.34375 13.144531 23.226562 13.960938 10.574219.578125 20.691406-4.777344 26.457031-13.976563 2.332031-3.714844 7.234375-4.835937 10.949219-2.503906 3.714844 2.328125 4.835938 7.230469 2.507812 10.945312-8.402343 13.390626-22.933593 21.457032-38.363281 21.457032zm0 0" fill="#aeadb3"/><path d="m157.976562 280.121094c1.550782.148437 1.9375 2.242187.542969 2.933594-9.910156 4.941406-34.199219 15.285156-56.4375 10.863281-10.074219-2.003907-18.597656-8.324219-18.597656-18.597657 0-8.441406 7.652344-19.890624 18.597656-18.597656 12.675781 1.503906 18.773438 14.488282 42.617188 21.035156 5.394531 1.484376 9.667969 2.015626 13.277343 2.363282zm0 0" fill="#beccd3"/><path d="m8.988281 280.121094c-1.550781.148437-1.9375 2.242187-.542969 2.933594 9.910157 4.941406 34.199219 15.285156 56.441407 10.863281 10.070312-2.003907 18.59375-8.324219 18.59375-18.597657 0-8.441406-7.652344-19.890624-18.59375-18.597656-12.679688 1.503906-18.777344 14.488282-42.621094 21.035156-5.394531 1.484376-9.667969 2.015626-13.277344 2.363282zm0 0" fill="#beccd3"/><path d="m109.636719 486.355469c-.933594 0-1.886719-.164063-2.8125-.515625-4.097657-1.554688-6.164063-6.140625-4.609375-10.238282l11.105468-29.300781c1.554688-4.101562 6.140626-6.164062 10.238282-4.613281 4.101562 1.554688 6.167968 6.140625 4.613281 10.242188l-11.109375 29.300781c-1.199219 3.171875-4.21875 5.125-7.425781 5.125zm0 0" fill="#fff"/><path d="m129.84375 477.261719c-.9375 0-1.886719-.167969-2.816406-.519531l-29.300782-11.105469c-4.097656-1.554688-6.164062-6.140625-4.609374-10.242188 1.550781-4.097656 6.140624-6.164062 10.238281-4.609375l29.300781 11.109375c4.101562 1.554688 6.167969 6.136719 4.613281 10.238281-1.203125 3.171876-4.222656 5.128907-7.425781 5.128907zm0 0" fill="#fff"/></svg>