<svg height="512pt" viewBox="-123 0 512 512.00129" width="512pt" xmlns="http://www.w3.org/2000/svg"><path d="m265.40625 441.683594v62.242187c0 4.460938-3.613281 8.074219-8.066406 8.074219h-249.261719c-4.453125 0-8.078125-3.613281-8.078125-8.074219v-62.242187c0-28.980469 17.480469-54.796875 43.773438-65.777344 2.335937-.988281 4.734374-1.839844 7.195312-2.574219l14.335938-4.277343c2.605468-.78125 5.035156-1.867188 7.265624-3.25 4.015626-2.449219 7.390626-5.8125 9.871094-9.734376 2.917969-4.621093 4.621094-10.050781 4.714844-15.78125.007812-.183593.007812-.363281.007812-.546874v-30.675782l84.007813-12.476562v41.042968c0 7.804688 2.960937 15.070313 7.953125 20.574219 3.664062 4.027344 8.429688 7.097657 13.910156 8.738281l1.089844.320313 20.332031 6.0625c3.5 1.050781 6.875 2.335937 10.113281 3.863281 24.640626 11.636719 40.835938 36.601563 40.835938 64.492188zm0 0" fill="#ffdba9"/><path d="m224.566406 377.191406c-3.238281-1.527344-6.613281-2.8125-10.109375-3.859375l-20.335937-6.0625-1.089844-.324219c-5.480469-1.640624-10.246094-4.710937-13.910156-8.738281-4.992188-5.5-7.949219-12.769531-7.949219-20.574219v-41.042968l-84.007813 12.476562v11.320313l57.710938-8.570313v41.042969c0 7.804687 2.957031 15.070313 7.949219 20.570313 3.664062 4.03125 8.429687 7.101562 13.910156 8.742187l1.089844.320313 20.335937 6.0625c3.5 1.046874 6.871094 2.335937 10.109375 3.863281 24.644531 11.636719 40.835938 36.597656 40.835938 64.492187v55.089844h18.234375c4.453125 0 8.0625-3.613281 8.0625-8.074219v-62.242187c.003906-27.890625-16.191406-52.855469-40.835938-64.492188zm0 0" fill="#ffc473"/><path d="m171.171875 296.589844v30.082031c-15.652344 11.273437-34.867187 17.914063-55.636719 17.914063-9.882812 0-19.414062-1.503907-28.382812-4.296876.011718-.1875.011718-.363281.011718-.550781v-30.671875zm0 0" fill="#ffc473"/><path d="m115.527344 322.789062c-52.648438 0-95.328125-42.679687-95.328125-95.328124v-183.4375h190.65625v183.4375c0 52.648437-42.675781 95.328124-95.328125 95.328124zm0 0" fill="#ffdba9"/><path d="m221.667969 215.183594h-10.808594v-64.996094h10.808594c16.367187 0 29.632812 13.265625 29.632812 29.628906v5.734375c0 16.367188-13.265625 29.632813-29.632812 29.632813zm0 0" fill="#ffc473"/><path d="m67.597656 170.363281c0 4.585938-3.714844 8.304688-8.304687 8.304688-4.585938 0-8.300781-3.71875-8.300781-8.304688 0-4.585937 3.714843-8.304687 8.300781-8.304687 4.589843 0 8.304687 3.71875 8.304687 8.304687zm0 0" fill="#57555c"/><path d="m143.402344 170.363281c0 4.585938-3.714844 8.304688-8.300782 8.304688-4.589843 0-8.304687-3.71875-8.304687-8.304688 0-4.585937 3.714844-8.304687 8.304687-8.304687 4.585938 0 8.300782 3.71875 8.300782 8.304687zm0 0" fill="#57555c"/><path d="m94.933594 271.808594c-8.519532 0-15.304688-2.375-18.59375-3.792969-3.949219-1.703125-5.769532-6.28125-4.070313-10.230469 1.699219-3.949218 6.28125-5.773437 10.230469-4.070312 3.382812 1.457031 12.34375 4.449218 22.414062.757812 7.699219-2.820312 12.289063-8.226562 14.335938-11.199218 2.441406-3.539063 7.289062-4.429688 10.832031-1.988282 3.539063 2.441406 4.429688 7.292969 1.988281 10.832032-3.101562 4.492187-10.054687 12.671874-21.800781 16.976562-5.4375 1.992188-10.648437 2.714844-15.335937 2.714844zm0 0" fill="#c06100"/><path d="m224.5625 377.195312v134.804688h-180.789062v-136.097656c2.335937-.980469 4.734374-1.832032 7.199218-2.570313l14.332032-4.273437c2.601562-.777344 5.035156-1.878906 7.261718-3.253906v38.648437c0 33.570313 27.203125 60.777344 60.777344 60.777344 16.773438 0 31.96875-6.804688 42.976562-17.800781 10.992188-10.996094 17.796876-26.191407 17.796876-42.976563v-37.1875l20.335937 6.070313c3.5 1.042968 6.878906 2.332031 10.109375 3.859374zm0 0" fill="#6dd7a7"/><path d="m20.199219 127.382812v-123.984374c0-1.601563 1.824219-2.527344 3.117187-1.570313l19.554688 14.429687c.6875.507813 1.632812.507813 2.320312 0l21.511719-15.875c.6875-.511718 1.628906-.511718 2.320313 0l21.511718 15.875c.6875.507813 1.628906.507813 2.320313 0l21.511719-15.875c.6875-.511718 1.628906-.511718 2.320312 0l21.511719 15.875c.6875.507813 1.628906.507813 2.320312 0l21.507813-15.875c.691406-.511718 1.632812-.511718 2.324218 0l21.507813 15.875c.691406.507813 1.632813.507813 2.324219 0l19.554687-14.429687c1.289063-.957031 3.117188-.03125 3.117188 1.570313v142.25l-29.542969-11.601563c-10.234375-4.019531-16.960938-13.894531-16.960938-24.890625v-2.609375c0-16.953125-16.710937-28.851563-32.734374-23.304687l-23.808594 8.238281c-8.960938 3.101562-18.691406 3.175781-27.699219.203125l-27.519531-9.082032c-15.957032-5.265624-32.394532 6.617188-32.394532 23.421876v21.359374zm0 0" fill="#ffa91f"/><path d="m25.976562 3.789062-2.660156-1.960937c-1.289062-.957031-3.117187-.03125-3.117187 1.570313v4.65625zm0 0" fill="#ff9a01"/><path d="m207.742188 1.828125-19.554688 14.429687c-.691406.507813-1.632812.507813-2.324219 0l-11.113281-8.203124v90.238281c0 19.722656 11.9375 37.488281 30.195312 44.949219 3.535157 1.445312 5.914063 2.40625 5.914063 2.40625v-142.25c-.003906-1.601563-1.828125-2.527344-3.117187-1.570313zm0 0" fill="#ff9a01"/><path d="m134.117188 476.714844c40.703124 0 73.699218-32.996094 73.699218-73.699219v-31.664063l-13.699218-4.085937v37.1875c0 16.785156-6.804688 31.980469-17.800782 42.976563-11.003906 10.996093-26.199218 17.796874-42.976562 17.796874-33.570313 0-60.773438-27.203124-60.773438-60.773437v-38.648437c-2.230468 1.375-4.660156 2.472656-7.261718 3.253906l-4.886719 1.457031v32.5c0 40.703125 32.996093 73.699219 73.699219 73.699219zm0 0" fill="#00989e"/></svg>