<svg height="512pt" viewBox="-107 0 512 512" width="512pt" xmlns="http://www.w3.org/2000/svg"><path d="m294.484375 443.757812v60.40625c0 4.328126-3.511719 7.835938-7.835937 7.835938h-241.894532c-4.324218 0-7.84375-3.507812-7.84375-7.835938v-60.40625c0-30.613281 20.117188-57.59375 49.46875-66.328124l13.910156-4.152344c6.300782-1.871094 11.621094-5.722656 15.335938-10.75.457031-.601563.882812-1.222656 1.285156-1.855469 2.929688-4.625 4.585938-10.066406 4.585938-15.832031v-29.300782l81.53125-12.582031v39.824219c0 7.046875 2.472656 13.640625 6.726562 18.8125h.011719c.308594.394531.640625.777344.980469 1.152344 3.5625 3.910156 8.175781 6.890625 13.496094 8.484375l20.792968 6.199219c29.339844 8.734374 49.449219 35.714843 49.449219 66.328124zm0 0" fill="#ffdba9"/><path d="m203.027344 302.953125v28.667969c-15.195313 10.941406-33.84375 17.386718-53.992188 17.386718-9.59375 0-18.847656-1.457031-27.539062-4.167968v-29.300782zm0 0" fill="#ffc473"/><path d="m149.027344 328.378906c-51.09375 0-92.511719-41.421875-92.511719-92.515625v-85.503906c0-51.09375 41.417969-92.511719 92.511719-92.511719 51.097656 0 92.515625 41.417969 92.515625 92.511719v85.503906c0 51.09375-41.417969 92.515625-92.515625 92.515625zm0 0" fill="#ffdba9"/><path d="m251.246094 223.949219h-9.703125v-63.078125h9.703125c16.316406 0 29.542968 13.226562 29.542968 29.542968v3.992188c0 16.316406-13.226562 29.542969-29.542968 29.542969zm0 0" fill="#ffc473"/><path d="m103.652344 180.449219c0 5.078125-4.117188 9.195312-9.195313 9.195312s-9.195312-4.117187-9.195312-9.195312 4.117187-9.191407 9.195312-9.191407 9.195313 4.113282 9.195313 9.191407zm0 0" fill="#57555c"/><path d="m177.21875 180.449219c0 5.078125-4.117188 9.195312-9.195312 9.195312-5.078126 0-9.195313-4.117187-9.195313-9.195312s4.117187-9.191407 9.195313-9.191407c5.078124 0 9.195312 4.113282 9.195312 9.191407zm0 0" fill="#57555c"/><path d="m131.457031 287.015625c-.789062 0-1.578125-.023437-2.367187-.066406-22.136719-1.210938-33.78125-18.925781-35.035156-20.945313-2.265626-3.636718-1.152344-8.425781 2.488281-10.6875 3.636719-2.265625 8.425781-1.152344 10.691406 2.488282.324219.523437 8.15625 12.847656 22.703125 13.644531 10.292969.5625 20.222656-4.667969 25.863281-13.660157 2.277344-3.628906 7.070313-4.726562 10.699219-2.449218 3.632812 2.277344 4.730469 7.066406 2.453125 10.699218-8.210937 13.089844-22.414063 20.976563-37.496094 20.976563zm0 0" fill="#c06100"/><path d="m235.199219 114.890625c-24.328125-3.347656-54.0625-5.316406-86.171875-5.316406-32.105469 0-61.84375 1.964843-86.171875 5.316406h-62.855469v23.570313c0 15.953124 66.722656 28.886718 149.027344 28.886718 82.308594 0 149.03125-12.933594 149.03125-28.886718v-23.570313zm0 0" fill="#3c3b41"/><g fill="#57555c"><path d="m204.511719 247.394531c1.515625.144531 1.894531 2.191407.53125 2.867188-9.683594 4.828125-33.429688 14.941406-55.171875 10.617187-9.84375-1.957031-18.175782-8.136718-18.175782-18.175781 0-8.253906 7.480469-19.445313 18.175782-18.179687 12.394531 1.46875 18.355468 14.160156 41.664062 20.5625 5.273438 1.449218 9.449219 1.96875 12.976563 2.308593zm0 0"/><path d="m58.875 247.394531c-1.515625.144531-1.894531 2.191407-.53125 2.867188 9.6875 4.828125 33.433594 14.941406 55.171875 10.617187 9.847656-1.957031 18.179687-8.136718 18.179687-18.175781 0-8.253906-7.484374-19.445313-18.179687-18.179687-12.394531 1.46875-18.355469 14.160156-41.664063 20.5625-5.273437 1.449218-9.449218 1.96875-12.976562 2.308593zm0 0"/><path d="m298.058594 114.890625c0-15.953125-66.722656-28.886719-149.03125-28.886719-82.304688 0-149.027344 12.933594-149.027344 28.886719s66.722656 28.882813 149.027344 28.882813c82.308594 0 149.03125-12.929688 149.03125-28.882813zm0 0"/><path d="m241.546875 15.246094v91.753906c-23.847656 5.488281-54.613281 10.339844-90.566406 10.507812-37.722657.183594-69.878907-4.84375-94.46875-10.507812v-91.753906c0-8.425782 6.828125-15.246094 15.253906-15.246094h154.535156c8.414063 0 15.246094 6.820312 15.246094 15.246094zm0 0"/></g><path d="m241.546875 15.246094v59.476562l-3.261719 1.5c-10.679687 2.378906-22.664062 4.585938-35.816406 6.292969 2.203125-5.726563 3.414062-11.933594 3.414062-18.382813v-48.886718c0-8.425782-6.832031-15.246094-15.246093-15.246094h35.664062c8.425781 0 15.246094 6.820312 15.246094 15.246094zm0 0" fill="#3c3b41"/><path d="m294.484375 443.757812v60.40625c0 4.328126-3.511719 7.835938-7.835937 7.835938h-241.894532c-4.324218 0-7.84375-3.507812-7.84375-7.835938v-60.40625c0-30.613281 20.117188-57.59375 49.46875-66.328124l13.910156-4.152344c6.300782-1.871094 11.621094-5.722656 15.335938-10.75h.023438l41.042968 21.257812 5.113282 2.648438 5.890624-3.054688 42.058594-21.785156h.011719c.308594.394531.640625.777344.980469 1.148438 3.5625 3.914062 8.175781 6.894531 13.496094 8.488281l20.792968 6.199219c29.339844 8.734374 49.449219 35.714843 49.449219 66.328124zm0 0" fill="#b5efac"/><path d="m184.65625 512h-41.191406l12.9375-127.039062c.0625-.421876.15625-.816407.289062-1.179688l5.113282 2.648438 5.890624-3.050782c.195313.425782.328126.878906.421876 1.375zm0 0" fill="#ffb74f"/><path d="m241.546875 74.722656v32.277344c-23.847656 5.484375-54.613281 10.339844-90.566406 10.503906h-2.03125c-1.40625 0-2.792969-.007812-4.179688-.019531-.21875 0-.433593 0-.640625-.011719-2.484375-.03125-4.949218-.082031-7.378906-.152344-1.097656-.03125-2.195312-.0625-3.28125-.105468-.777344-.03125-1.554688-.0625-2.320312-.09375 10.453124-.453125 20.410156-1.28125 29.808593-2.378906 19.226563-2.226563 34.886719-15.058594 41.507813-32.226563 13.15625-1.707031 25.140625-3.914063 35.820312-6.292969zm0 0" fill="#beccd3"/><path d="m202.46875 82.515625c-6.625 17.167969-22.285156 30-41.511719 32.226563-9.398437 1.097656-19.355469 1.925781-29.804687 2.378906-29.238282-1.261719-54.480469-5.484375-74.640625-10.121094v-31.386719l3.25.609375c24.144531 5.351563 55.128906 9.945313 91.21875 9.769532 18.636719-.082032 35.878906-1.429688 51.488281-3.476563zm0 0" fill="#dae6ed"/><path d="m115.648438 362.523438 46.160156 23.902343-21.5625 24.9375c-2.953125 3.414063-8.234375 3.453125-11.234375.078125l-32.863281-36.925781zm0 0" fill="#37cd90"/><path d="m209.757812 361.597656-47.949218 24.828125 21.5625 24.9375c2.949218 3.414063 8.234375 3.453125 11.234375.078125l34.496093-38.765625zm0 0" fill="#37cd90"/><path d="m92.535156 481.167969v30.832031h-15.523437v-30.832031c0-4.292969 3.480469-7.761719 7.761719-7.761719 4.285156 0 7.761718 3.46875 7.761718 7.761719zm0 0" fill="#37cd90"/><path d="m258.34375 481.167969v30.832031h-15.523438v-30.832031c0-4.292969 3.476563-7.761719 7.761719-7.761719 4.285157 0 7.761719 3.46875 7.761719 7.761719zm0 0" fill="#37cd90"/></svg>