<svg height="512pt" viewBox="-131 0 512 512.00103" width="512pt" xmlns="http://www.w3.org/2000/svg"><path d="m230.851562 417.410156h-211.792968v-312.105468c0-58.160157 47.148437-105.304688 105.304687-105.304688h1.183594c58.15625 0 105.304687 47.144531 105.304687 105.304688zm0 0" fill="#8a6745"/><path d="m199.832031 417.410156h-149.757812v-220.691406c0-41.125 33.339843-74.460938 74.460937-74.460938h.839844c41.121094 0 74.457031 33.335938 74.457031 74.460938zm0 0" fill="#715539"/><path d="m250.425781 445.644531v58.734375c0 4.203125-3.414062 7.621094-7.617187 7.621094h-235.183594c-4.203125 0-7.62109375-3.417969-7.62109375-7.621094v-58.734375c0-29.765625 19.55468775-56.003906 48.08984375-64.5l13.527344-4.027343c6.855468-2.042969 12.523437-6.484376 16.15625-12.253907 2.171875-3.429687 3.625-7.320312 4.183594-11.449219.183593-1.292968.277343-2.613281.277343-3.957031v-34.761719l79.261719-5.949218v38.710937c0 7.371094 2.800781 14.238281 7.519531 19.417969 3.457031 3.800781 7.949219 6.703125 13.109375 8.25l20.21875 6.019531c28.535156 8.5 48.078125 34.734375 48.078125 64.5zm0 0" fill="#ffdba9"/><path d="m202.347656 381.144531-20.21875-6.019531c-5.160156-1.546875-9.652344-4.449219-13.109375-8.25-4.71875-5.179688-7.519531-12.046875-7.519531-19.417969v-38.710937l-79.261719 5.949218v16.382813l49.917969-3.746094v38.707031c0 7.375 2.800781 14.238282 7.519531 19.421876 3.457031 3.800781 7.949219 6.699218 13.109375 8.25l20.214844 6.019531c28.539062 8.496093 48.082031 34.730469 48.082031 64.5v47.769531h21.726563c4.203125 0 7.621094-3.417969 7.621094-7.617188v-58.738281c-.003907-29.765625-19.546876-56-48.082032-64.5zm0 0" fill="#ffc473"/><path d="m161.5 308.75v31.902344c-14.761719 10.632812-32.894531 16.902344-52.488281 16.902344-9.425781 0-18.511719-1.445313-27.050781-4.140626.183593-1.292968.277343-2.613281.277343-3.953124v-34.765626zm0 0" fill="#ffc473"/><path d="m109.007812 333.460938c-49.675781 0-89.949218-40.273438-89.949218-89.949219v-121.253907h133.652344c25.539062 0 46.246093 20.707032 46.246093 46.246094v75.007813c0 49.675781-40.273437 89.949219-89.949219 89.949219zm0 0" fill="#ffdba9"/><path d="m202.15625 229.957031h-3.199219v-57.386719h3.199219c15.847656 0 28.691406 12.847657 28.691406 28.691407.003906 15.847656-12.84375 28.695312-28.691406 28.695312zm0 0" fill="#ffc473"/><path d="m64.886719 189.636719c0 4.9375-4 8.9375-8.9375 8.9375s-8.941407-4-8.941407-8.9375 4.003907-8.941407 8.941407-8.941407 8.9375 4.003907 8.9375 8.941407zm0 0" fill="#57555c"/><path d="m136.414062 189.636719c0 4.9375-4.003906 8.9375-8.9375 8.9375-4.9375 0-8.941406-4-8.941406-8.9375s4.003906-8.941407 8.941406-8.941407c4.933594 0 8.9375 4.003907 8.9375 8.941407zm0 0" fill="#57555c"/><path d="m89.578125 285.75c-8.113281 0-14.574219-2.257812-17.703125-3.605469-3.929688-1.691406-5.742188-6.25-4.050781-10.175781 1.691406-3.929688 6.246093-5.738281 10.175781-4.050781 3.148438 1.355469 11.484375 4.140625 20.855469.710937 7.160156-2.625 11.429687-7.65625 13.339843-10.421875 2.425782-3.519531 7.25-4.40625 10.769532-1.976562 3.519531 2.429687 4.40625 7.253906 1.976562 10.773437-2.953125 4.277344-9.574218 12.066406-20.757812 16.164063-5.179688 1.898437-10.144532 2.582031-14.605469 2.582031zm0 0" fill="#c06100"/><path d="m250.429688 504.378906v-58.734375c0-29.765625-19.550782-56-48.082032-64.496093l-14.238281-4.246094-52.699219 52.699218c-5.597656 5.597657-14.699218 5.503907-20.183594-.203124l-51.0625-53.167969c-.828124.332031-1.679687.628906-2.546874.890625l-13.523438 4.027344c-28.53125 8.496093-48.09375 34.726562-48.09375 64.496093v58.734375c0 4.203125 3.417969 7.617188 7.628906 7.617188h235.183594c4.207031 0 7.617188-3.410156 7.617188-7.617188zm0 0" fill="#ff73af"/><path d="m202.347656 381.148438-6.402344-1.910157-7.835937-2.332031-21.054687 21.050781 5.945312 1.773438c28.539062 8.496093 48.082031 34.730469 48.082031 64.496093v47.769532h21.730469c1.050781 0 2.050781-.214844 2.960938-.597656 2.734374-1.160157 4.652343-3.867188 4.652343-7.019532v-58.734375c0-8.875-1.746093-17.429687-4.941406-25.300781-7.523437-18.527344-23.113281-33.230469-43.136719-39.195312zm0 0" fill="#ff52a1"/><path d="m167.648438 101.019531v13.152344c0 16.195313-13.128907 29.324219-29.324219 29.324219h-28.925781c-3.1875 0-6.203126-1.429688-8.21875-3.894532l-14.171876-17.34375-13.1875 17.105469c-2.007812 2.609375-5.113281 4.132813-8.40625 4.132813h-17.027343c-16.199219 0-29.328125-13.128906-29.328125-29.324219v-13.152344" fill="#8a6745"/></svg>