<svg height="512pt" viewBox="-71 0 512 512" width="512pt" xmlns="http://www.w3.org/2000/svg"><path d="m184.632812 377.507812c-101.96875 0-184.632812-82.664062-184.632812-184.632812v-8.242188c0-101.96875 82.664062-184.632812 184.632812-184.632812s184.628907 82.664062 184.628907 184.632812v8.242188c0 101.96875-82.660157 184.632812-184.628907 184.632812zm0 0" fill="#57555c"/><path d="m184.632812 0c-9.558593 0-18.945312.726562-28.109374 2.125 88.628906 13.539062 156.523437 90.09375 156.523437 182.507812v8.242188c0 92.414062-67.894531 168.96875-156.523437 182.507812 9.164062 1.398438 18.550781 2.125 28.109374 2.125 101.96875 0 184.628907-82.664062 184.628907-184.632812v-8.242188c0-101.96875-82.660157-184.632812-184.628907-184.632812zm0 0" fill="#3c3b41"/><path d="m302.222656 443.566406v60.574219c0 4.328125-3.523437 7.859375-7.859375 7.859375h-242.554687c-4.335938 0-7.867188-3.53125-7.867188-7.859375v-60.574219c0-26.988281 15.589844-51.148437 39.335938-62.566406 3.273437-1.570312 27.226562-9.136719 28.640625-9.816406 5.089843-2.449219 9.304687-6.269532 12.246093-10.9375 2.15625-3.40625 3.625-7.265625 4.253907-11.367188.226562-1.476562.339843-2.980468.339843-4.511718v-27.265626l81.753907-14.722656v39.921875c0 7.601563 2.878906 14.683594 7.742187 20.019531 3.570313 3.925782 8.195313 6.917969 13.535156 8.507813l1.023438.3125 19.820312 5.90625c3.636719 1.082031 7.125 2.433594 10.460938 4.046875 23.640625 11.449219 39.128906 35.558594 39.128906 62.472656zm0 0" fill="#b78b6e"/><path d="m162.679688 297.664062h-12.628907c-47.746093 0-86.453125-38.707031-86.453125-86.453124v-41.417969c0-49.679688 40.273438-89.949219 89.949219-89.949219h5.636719c49.679687 0 89.949218 40.269531 89.949218 89.949219v41.417969c0 47.746093-38.707031 86.453124-86.453124 86.453124zm0 0" fill="#6d76e7"/><path d="m210.507812 302.378906v34.804688c-13.699218 9.128906-30.136718 14.433594-47.824218 14.433594h-12.625c-7.476563 0-14.722656-.949219-21.640625-2.734376.226562-1.476562.339843-2.984374.339843-4.515624v-27.265626zm0 0" fill="#916d59"/><path d="m162.679688 327.867188h-12.628907c-47.746093 0-86.453125-38.707032-86.453125-86.457032v-41.417968c0-49.675782 40.273438-89.949219 89.949219-89.949219h5.636719c49.679687 0 89.949218 40.273437 89.949218 89.949219v41.417968c0 47.75-38.707031 86.457032-86.453124 86.457032zm0 0" fill="#b78b6e"/><path d="m253.332031 221.117188h-4.199219v-59.183594h4.199219c15.847657 0 28.695313 12.84375 28.695313 28.691406v1.800781c0 15.847657-12.847656 28.691407-28.695313 28.691407zm0 0" fill="#916d59"/><path d="m110.863281 179.535156c0 5.089844-4.128906 9.21875-9.21875 9.21875-5.09375 0-9.21875-4.128906-9.21875-9.21875 0-5.09375 4.125-9.222656 9.21875-9.222656 5.089844 0 9.21875 4.128906 9.21875 9.222656zm0 0" fill="#57555c"/><path d="m184.632812 179.535156c0 5.089844-4.128906 9.21875-9.222656 9.21875-5.089844 0-9.21875-4.128906-9.21875-9.21875 0-5.09375 4.128906-9.222656 9.21875-9.222656 5.09375 0 9.222656 4.128906 9.222656 9.222656zm0 0" fill="#57555c"/><path d="m136.324219 278.421875c-8.320313 0-14.949219-2.324219-18.160157-3.707031-3.929687-1.691406-5.742187-6.246094-4.046874-10.175782 1.691406-3.925781 6.246093-5.738281 10.175781-4.046874 3.273437 1.414062 11.941406 4.308593 21.6875.738281 7.449219-2.734375 11.890625-7.964844 13.871093-10.835938 2.425782-3.523437 7.25-4.410156 10.773438-1.980469 3.519531 2.429688 4.40625 7.25 1.976562 10.769532-3.027343 4.390625-9.816406 12.378906-21.292968 16.585937-5.316406 1.949219-10.40625 2.652344-14.984375 2.652344zm0 0" fill="#c06100"/><path d="m172.359375 473.21875c-4.277344 0-7.746094-3.464844-7.746094-7.742188v-15.851562c0-4.277344 3.46875-7.742188 7.746094-7.742188 4.273437 0 7.742187 3.464844 7.742187 7.742188v15.851562c0 4.277344-3.46875 7.742188-7.742187 7.742188zm0 0" fill="#916d59"/><path d="m263.089844 381.09375v130.90625h-179.8125v-131c3.273437-1.566406 6.699218-2.890625 10.261718-3.953125l13.949219-4.152344c1.539063-.453125 3.015625-1.03125 4.429688-1.710937v33.84375c0 33.386718 27.046875 60.449218 60.4375 60.449218 16.6875 0 31.800781-6.773437 42.753906-17.707031 10.9375-10.933593 17.699219-26.050781 17.699219-42.742187v-33.886719l19.820312 5.90625c3.636719 1.085937 7.128906 2.4375 10.460938 4.046875zm0 0" fill="#6d76e7"/><path d="m226.871094 512h-108.0625c0-14.3125 11.601562-25.917969 25.917968-25.917969h56.226563c14.316406 0 25.917969 11.605469 25.917969 25.917969zm0 0" fill="#e2e4f8"/></svg>