<svg height="511pt" viewBox="-130 0 511 511.99998" width="511pt" xmlns="http://www.w3.org/2000/svg"><path d="m47.230469 285.550781v124.398438l198.234375 14.925781-1.496094-194.117188zm0 0" fill="#3c3b41"/><path d="m251.984375 445.367188v58.984374c0 4.214844-3.433594 7.648438-7.652344 7.648438h-236.171875c-4.226562 0-7.660156-3.433594-7.660156-7.648438v-58.984374c0-29.894532 19.640625-56.234376 48.296875-64.761719l13.582031-4.054688c6.882813-2.046875 12.570313-6.511719 16.230469-12.300781 2.863281-4.515625 4.472656-9.851562 4.472656-15.472656v-25.742188l79.597657-15.140625v38.875c0 7.402344 2.8125 14.296875 7.546874 19.496094 3.472657 3.816406 7.980469 6.730469 13.167969 8.28125l2.710938.804687 17.59375 5.253907c28.644531 8.527343 48.285156 34.867187 48.285156 64.761719zm0 0" fill="#ffc088"/><path d="m186.105469 375.351562-41.742188 8.09375c-.199219-.203124-.402343-.421874-.601562-.640624-4.734375-5.199219-7.546875-12.09375-7.546875-19.496094v-38.875l-53.132813 10.109375v-11.507813l79.597657-15.140625v38.875c0 7.402344 2.8125 14.296875 7.546874 19.496094 3.472657 3.816406 7.980469 6.730469 13.167969 8.28125zm0 0" fill="#ffc473"/><path d="m162.679688 307.894531v26.191407c-13.921876 9.574218-30.773438 15.167968-48.945313 15.167968h-7.535156c-8.003907 0-15.753907-1.085937-23.117188-3.132812v-23.082032zm0 0" fill="#f4a37a"/><path d="m113.730469 332.714844h-7.535157c-47.804687 0-86.558593-38.753906-86.558593-86.558594v-177.578125h180.652343v177.578125c0 47.804688-38.753906 86.558594-86.558593 86.558594zm0 0" fill="#ffc088"/><path d="m65.660156 188.285156c0 4.960938-4.019531 8.980469-8.976562 8.980469-4.960938 0-8.976563-4.019531-8.976563-8.980469 0-4.957031 4.015625-8.976562 8.976563-8.976562 4.957031 0 8.976562 4.019531 8.976562 8.976562zm0 0" fill="#57555c"/><path d="m137.488281 188.285156c0 4.960938-4.019531 8.980469-8.980469 8.980469-4.957031 0-8.976562-4.019531-8.976562-8.980469 0-4.957031 4.019531-8.976562 8.976562-8.976562 4.960938 0 8.980469 4.019531 8.980469 8.976562zm0 0" fill="#57555c"/><path d="m90.453125 284.78125c-8.140625 0-14.625-2.269531-17.769531-3.621094-3.933594-1.691406-5.746094-6.253906-4.054688-10.1875 1.695313-3.933594 6.253906-5.746094 10.1875-4.054687 3.164063 1.363281 11.546875 4.164062 20.960938.714843 7.199218-2.640624 11.488281-7.695312 13.40625-10.472656 2.429687-3.527344 7.257812-4.414062 10.78125-1.980468 3.527344 2.429687 4.410156 7.257812 1.980468 10.785156-2.960937 4.292968-9.605468 12.109375-20.832031 16.226562-5.199219 1.902344-10.179687 2.589844-14.660156 2.589844zm0 0" fill="#c06100"/><path d="m251.984375 445.367188v58.984374c0 4.214844-3.433594 7.648438-7.652344 7.648438h-236.171875c-4.226562 0-7.660156-3.433594-7.660156-7.648438v-58.984374c0-29.894532 19.640625-56.234376 48.296875-64.761719l13.582031-4.054688 53.691406 9.550781 7.628907 1.355469 7.605469-1.476562 54.800781-10.628907 17.59375 5.253907c28.644531 8.527343 48.285156 34.867187 48.285156 64.761719zm0 0" fill="#c1e4ff"/><g fill="#84caff"><path d="m251.984375 445.367188v58.984374c0 4.214844-3.433594 7.648438-7.652344 7.648438h-18.8125v-50.09375c0-29.894531-19.640625-56.234375-48.285156-64.761719l-17.59375-5.253906-2.710937-.804687c-4.886719-1.457032-9.179688-4.136719-12.566407-7.640626l41.742188-8.09375 17.59375 5.253907c28.644531 8.527343 48.285156 34.867187 48.285156 64.761719zm0 0"/><path d="m131.449219 387.457031v124.542969h-15.503907v-124.542969c0-.464843.042969-.921875.125-1.355469l7.628907 1.355469 7.609375-1.476562c.089844.472656.140625.96875.140625 1.476562zm0 0"/><path d="m54.988281 481.886719v30.113281h-15.507812v-30.113281c0-4.277344 3.464843-7.75 7.753906-7.75 4.28125 0 7.753906 3.472656 7.753906 7.75zm0 0"/><path d="m216.867188 481.886719v30.113281h-15.503907v-30.113281c0-4.277344 3.472657-7.75 7.75-7.75 4.28125 0 7.753907 3.472656 7.753907 7.75zm0 0"/></g><path d="m78.675781 364.140625 45.027344 23.316406-19.332031 22.351563c-3.238282 3.746094-9.035156 3.789062-12.328125.089844l-29.667969-33.34375zm0 0" fill="#00a6ff"/><path d="m168.519531 364.246094-44.816406 23.210937 19.332031 22.351563c3.238282 3.746094 9.035156 3.789062 12.328125.089844l30.738281-34.542969zm0 0" fill="#00a6ff"/><path d="m88.144531 19.148438c-9.558593-2.292969-28.769531-5.175782-45.925781 4.878906-28.941406 16.957031-31.351562 58.59375-27.671875 81.402344 1.265625 7.835937 3.367187 14.183593 5.09375 18.589843 12.070313-3.332031 19.761719-8.65625 24.710937-13.246093 10.515626-9.746094 19.074219-25.828126 19.074219-25.828126zm0 0" fill="#3c3b41"/><path d="m244.65625 313.433594c-4.484375-1.121094-26-13.136719-33.949219-21.472656-34.148437-35.804688-5.292969-85.71875-28.753906-120.507813-6.984375-10.355469-17.796875-22.375-47.726563-28.929687l-2.894531-.664063c-7.503906.023437-76.230469-11.496094-82.6875-60.613281-4.316406-32.832032 21.882813-62.03125 46.988281-73.886719 0 0 30.871094-17.054687 75.808594.761719 58.878906 23.339844 74.363282 75.308594 73.214844 222.636718-.203125 26.121094 0 82.675782 0 82.675782zm0 0" fill="#57555c"/></svg>