<svg height="512pt" viewBox="-100 0 512 512" width="512pt" xmlns="http://www.w3.org/2000/svg"><path d="m312.527344 161.414062c0-9.515624-5.207032-17.800781-12.917969-22.1875-1.777344-1.011718-2.40625-3.285156-1.453125-5.097656 2.191406-4.152344 3.277344-8.980468 2.839844-14.105468-1.089844-12.839844-11.929688-22.960938-24.808594-23.269532-.066406-.003906-.132812-.003906-.199219-.003906-2.257812-.035156-4.03125-1.910156-3.855469-4.164062.050782-.644532.074219-1.300782.074219-1.957032 0-9.257812-4.9375-17.359375-12.316406-21.828125.023437-.410156.035156-.8125.035156-1.226562 0-11.4375-7.519531-21.105469-17.886719-24.339844-3.171874-.988281-5.722656-3.34375-6.90625-6.445313-3.367187-8.820312-11.894531-15.085937-21.898437-15.085937-2.570313 0-5.039063.414063-7.347656 1.183594-3.1875 1.0625-6.6875-.460938-7.828125-3.617188-4.058594-11.238281-14.816406-19.269531-27.453125-19.269531-9.660157 0-18.222657 4.695312-23.535157 11.929688-2.53125 3.441406-7.0625 4.695312-11.011718 3.066406-3.824219-1.578125-8.015625-2.449219-12.410156-2.449219-12.425782 0-23.222657 6.949219-28.726563 17.171875-1.742187 3.230469-5.035156 5.324219-8.707031 5.320312h-.066406c-11.074219 0-20.492188 7.054688-24.011719 16.917969-1.253907 3.519531-5.039063 5.3125-8.636719 4.300781-2.632812-.738281-5.476562-.972656-8.421875-.582031-10.46875 1.386719-18.105469 10.648438-18.105469 21.207031 0 1.960938-1.285156 3.703126-3.171875 4.242188-5.574219 1.59375-16.644531 6.46875-17.738281 20.21875-.355469 4.425781 1.070312 8.546875 3.539062 11.933594 2.445313 3.359375 1.988282 8.058594-1.320312 10.566406-5.03125 3.8125-8.28125 9.847656-8.28125 16.648438 0 7.089843 3.523438 13.347656 8.914062 17.125 2.988282 2.089843 3.75 6.285156 1.515626 9.167968-2.738282 3.535156-4.367188 7.972656-4.367188 12.789063 0 7.511719 3.957031 14.089843 9.902344 17.773437 3.0625 1.894532 4.183594 5.855469 2.53125 9.054688-1.90625 3.6875-2.984375 7.875-2.984375 12.316406 0 8.871094 4.296875 16.738281 10.921875 21.636719 2.929687 2.167969 3.835937 6.15625 2.117187 9.371093-2.371093 4.445313-3.53125 9.632813-3.035156 15.128907 1.136719 12.59375 11.167969 22.851562 23.734375 24.238281 16.226562 1.785156 29.957031-10.871094 29.957031-26.734375 0-11.46875-7.179687-21.253906-17.289062-25.125 4.582031-4.824219 7.398437-11.339844 7.398437-18.515625 0-9.640625-5.074218-18.089844-12.695312-22.84375 0 0 29.390625-62.933594 34.03125-69.246094 4.664062 5.132813 11.398437 8.351563 18.882812 8.351563 11.949219 0 21.972656-8.214844 24.734375-19.304688 4.597657 6.738281 12.328125 11.160157 21.09375 11.160157 8.042969 0 15.214844-3.726563 19.890625-9.542969 4.535156 7.023437 12.429688 11.671875 21.414063 11.671875 1.054687 0 2.097656-.066406 3.117187-.195313 2.679688 11.21875 12.761719 19.558594 24.792969 19.558594 2.96875 0 5.820313-.515625 8.476563-1.441406-1.625 3.34375-2.53125 7.101562-2.53125 11.078125 0 7.527344 3.265624 14.296875 8.46875 18.960937-5.203126 4.675781-12.273438 59.785157-12.273438 71.378907 0 2.980468.492188 5.84375 1.386719 8.523437-8.640625 4.730469-14.40625 14.066406-13.984375 24.703125.539062 13.648438 11.53125 24.914062 25.164062 25.761719 15.632813.972656 28.617188-11.421875 28.617188-26.847657 0-1.867187-.191406-3.6875-.554688-5.441406-.40625-1.96875.398438-4.003906 2.152344-4.984375 5.996094-3.359375 10.597656-12.949219 11.046875-20.074219.105469-1.675781.847656-3.257812 2.160156-4.308593 5.433594-4.367188 8.917969-11.0625 8.917969-18.578125 0-1.382813-.121094-2.742188-.351562-4.0625-.359376-2.082032.453124-4.15625 2.136718-5.4375 5.703125-4.351563 9.386719-11.21875 9.386719-18.949219 0-3.554687-.777344-6.925781-2.171875-9.953125-1.089844-2.363281-.527344-5.195312 1.5625-6.746094 6.273438-4.644531 10.339844-12.09375 10.339844-20.496094zm0 0" fill="#a17852"/><path d="m302.1875 181.910156c6.273438-4.644531 10.339844-12.09375 10.339844-20.496094 0-9.515624-5.207032-17.800781-12.917969-22.1875-1.777344-1.011718-2.40625-3.285156-1.453125-5.097656 2.191406-4.152344 3.277344-8.980468 2.839844-14.105468-1.089844-12.839844-11.929688-22.960938-24.808594-23.269532-.066406-.003906-.132812-.003906-.199219-.003906-2.257812-.035156-4.03125-1.910156-3.855469-4.164062.050782-.644532.074219-1.300782.074219-1.957032 0-9.257812-4.9375-17.359375-12.316406-21.828125.023437-.410156.035156-.8125.035156-1.226562 0-11.4375-7.519531-21.105469-17.886719-24.339844-3.171874-.988281-5.722656-3.34375-6.90625-6.445313-3.367187-8.820312-11.894531-15.085937-21.898437-15.085937-2.570313 0-5.039063.414063-7.347656 1.183594-3.1875 1.0625-6.6875-.460938-7.828125-3.617188-4.058594-11.238281-14.816406-19.269531-27.453125-19.269531-3.597657 0-7.042969.652344-10.222657 1.84375 60.394532 33.488281 101.28125 97.875 101.28125 171.828125 0 46.191406-15.960937 88.652344-42.65625 122.183594 4.574219 6.488281 11.929688 10.917969 20.277344 11.4375 15.632813.972656 28.617188-11.421875 28.617188-26.847657 0-1.867187-.191406-3.6875-.554688-5.441406-.40625-1.96875.402344-4.003906 2.152344-4.984375 5.996094-3.359375 10.597656-12.949219 11.046875-20.074219.105469-1.675781.847656-3.257812 2.160156-4.308593 5.433594-4.367188 8.917969-11.0625 8.917969-18.578125 0-1.386719-.121094-2.742188-.351562-4.0625-.359376-2.082032.453124-4.15625 2.136718-5.4375 5.703125-4.351563 9.386719-11.21875 9.386719-18.949219 0-3.554687-.777344-6.925781-2.171875-9.953125-1.089844-2.367188-.527344-5.195312 1.5625-6.746094zm0 0" fill="#715539"/><path d="m292.84375 443.289062v60.820313c0 4.34375-3.535156 7.890625-7.886719 7.890625h-243.546875c-4.351562 0-7.898437-3.546875-7.898437-7.890625v-60.820313c0-27.097656 15.65625-51.355468 39.5-62.820312 3.285156-1.574219 6.726562-2.902344 10.300781-3.972656l12.347656-3.667969 1.660156-.496094c1.542969-.457031 3.027344-1.039062 4.445313-1.722656 5.113281-2.457031 9.34375-6.292969 12.296875-10.976563 1.460938-2.324218 2.613281-4.839843 3.398438-7.515624.789062-2.6875 1.214843-5.515626 1.214843-8.429688v-25.824219l82.082031-16.335937v40.085937c0 3.691407.675782 7.257813 1.929688 10.566407 1.335938 3.535156 3.328125 6.769531 5.84375 9.535156 3.589844 3.941406 8.230469 6.949218 13.589844 8.542968l1.027344.3125 5.371093 1.597657 14.535157 4.332031c3.648437 1.085938 7.152343 2.445312 10.5 4.0625 23.738281 11.496094 39.289062 35.703125 39.289062 62.726562zm0 0" fill="#ffdba9"/><path d="m253.554688 380.5625c-3.347657-1.617188-6.851563-2.976562-10.5-4.066406l-14.535157-4.332032-5.371093-1.597656-1.027344-.308594c-5.359375-1.597656-10-4.605468-13.589844-8.542968-2.519531-2.769532-4.507812-6.003906-5.84375-9.539063-1.253906-3.304687-1.929688-6.871093-1.929688-10.5625v-40.089843l-82.082031 16.339843v8.128907l56.964844-11.335938v40.085938c0 3.691406.671875 7.257812 1.925781 10.566406 1.339844 3.535156 3.328125 6.769531 5.847656 9.535156 3.585938 3.941406 8.230469 6.949219 13.589844 8.542969l1.027344.3125 5.371094 1.59375 14.535156 4.335937c3.648438 1.085938 7.152344 2.445313 10.5 4.0625 23.738281 11.496094 39.289062 35.703125 39.289062 62.726563v55.582031h17.230469c4.355469 0 7.890625-3.546875 7.890625-7.890625v-60.820313c-.003906-27.023437-15.554687-51.230468-39.292968-62.726562zm0 0" fill="#ffc473"/><path d="m152.738281 296.792969h-12.679687c-47.941406 0-86.804688-38.863281-86.804688-86.804688v-41.589843c0-49.878907 40.433594-90.3125 90.316406-90.3125h5.660157c49.878906 0 90.316406 40.433593 90.316406 90.3125v41.589843c-.003906 47.941407-38.867187 86.804688-86.808594 86.804688zm0 0" fill="#ff73af"/><path d="m200.757812 301.527344v29.242187c-13.746093 9.164063-30.261718 14.496094-48.019531 14.496094h-12.675781c-7.382812 0-14.546875-.925781-21.386719-2.667969v-24.734375zm0 0" fill="#ffc473"/><path d="m152.738281 327.117188h-12.679687c-47.941406 0-86.804688-38.863282-86.804688-86.804688v-41.589844c0-49.878906 40.433594-90.3125 90.316406-90.3125h5.660157c49.878906 0 90.316406 40.433594 90.316406 90.3125v41.589844c-.003906 47.941406-38.867187 86.804688-86.808594 86.804688zm0 0" fill="#ffdba9"/><path d="m243.757812 219.933594h-4.214843v-59.425782h4.214843c15.914063 0 28.8125 12.902344 28.8125 28.8125v1.804688c0 15.910156-12.898437 28.808594-28.8125 28.808594zm0 0" fill="#ffc473"/><path d="m100.710938 178.179688c0 5.113281-4.144532 9.257812-9.257813 9.257812s-9.257813-4.144531-9.257813-9.257812c0-5.109376 4.144532-9.253907 9.257813-9.253907s9.257813 4.144531 9.257813 9.253907zm0 0" fill="#57555c"/><path d="m174.777344 178.179688c0 5.113281-4.144532 9.257812-9.257813 9.257812-5.109375 0-9.253906-4.144531-9.253906-9.257812 0-5.109376 4.144531-9.253907 9.253906-9.253907 5.113281 0 9.257813 4.144531 9.257813 9.253907zm0 0" fill="#57555c"/><path d="m126.273438 277.46875c-8.355469 0-15.011719-2.328125-18.234376-3.71875-3.945312-1.699219-5.761718-6.273438-4.0625-10.21875 1.699219-3.941406 6.273438-5.761719 10.21875-4.0625 3.285157 1.417969 11.988282 4.324219 21.773438.738281 7.480469-2.742187 11.9375-7.992187 13.929688-10.878906 2.4375-3.535156 7.28125-4.421875 10.816406-1.988281 3.53125 2.441406 4.421875 7.28125 1.984375 10.816406-3.039063 4.40625-9.859375 12.429688-21.378907 16.652344-5.335937 1.957031-10.449218 2.660156-15.046874 2.660156zm0 0" fill="#c06100"/><path d="m292.84375 443.289062v29.671876h-49.074219v39.039062h-159.636719v-39.039062h-50.621093v-29.671876c0-23.988281 12.265625-45.746093 31.621093-58.382812 5.523438-3.597656 11.621094-6.460938 18.179688-8.410156l14.007812-4.164063c9.785157 5.421875 32.324219 16.191407 62.832032 15.652344 30.332031-.550781 52.371094-11.984375 61.972656-17.726563l20.929688 6.238282c5.027343 1.492187 9.785156 3.527344 14.222656 6.011718 21.625 12.140626 35.566406 35.195313 35.566406 60.78125zm0 0" fill="#96a0ef"/><g fill="#7985eb"><path d="m253.554688 380.5625c-3.347657-1.617188-6.851563-2.976562-10.5-4.066406l-14.535157-4.332032-5.371093-1.597656-1.027344-.308594c-5.449219 3.257813-14.910156 8.351563-27.617188 12.246094.816406.324219 1.644532.628906 2.5.882813l1.027344.3125 5.371094 1.59375 14.53125 4.335937c3.648437 1.085938 7.15625 2.445313 10.503906 4.0625 23.738281 11.496094 39.289062 35.703125 39.289062 62.726563v16.539062h25.117188v-29.667969c0-27.023437-15.550781-51.230468-39.289062-62.726562zm0 0"/><path d="m158.265625 387.996094-7.070313 6.582031-9.589843 2.851563-40.429688-16.328126-5.515625-8.273437 1.660156-.496094c1.542969-.457031 3.027344-1.035156 4.449219-1.722656 5.109375-2.453125 9.339844-6.292969 12.292969-10.976563 1.460938-2.324218 2.613281-4.839843 3.402344-7.515624l.390625.070312c2.703125-.070312 16.90625-.175781 28.476562 10.925781 10.152344 9.738281 11.640625 21.726563 11.933594 24.882813zm0 0"/><path d="m228.519531 372.164062-8.25 8.9375-40.429687 16.324219-9.589844-2.851562-7.070312-6.582031c.289062-3.152344 1.78125-15.144532 11.933593-24.878907 10.601563-10.179687 23.4375-10.9375 27.574219-10.9375 1.335938 3.535157 3.328125 6.769531 5.847656 9.539063 3.585938 3.9375 8.230469 6.945312 13.589844 8.539062l1.023438.3125zm0 0"/></g><path d="m257.277344 382.511719c-12.90625 8.71875-49.75 36.03125-105.625 32.382812-42.535156-2.777343-72.929688-20.730469-86.511719-29.980469l-.007813-.007812c5.523438-3.597656 11.621094-6.460938 18.179688-8.410156l14.007812-4.164063c9.785157 5.421875 32.324219 16.191407 62.832032 15.652344 30.332031-.550781 52.371094-11.984375 61.972656-17.726563l20.929688 6.238282c5.027343 1.492187 9.785156 3.527344 14.222656 6.015625zm0 0" fill="#e1e4fb"/></svg>