<svg height="512pt" viewBox="-139 0 512 512.00154" width="512pt" xmlns="http://www.w3.org/2000/svg"><path d="m215.832031 423.566406h-198.011719v-291.242187c0-54.679688 44.328126-99.007813 99.003907-99.007813 54.679687 0 99.007812 44.328125 99.007812 99.007813zm0 0" fill="#57555c"/><path d="m186.832031 423.566406h-140.011719v-205.941406c0-38.660156 31.34375-70.003906 70.003907-70.003906 38.664062 0 70.007812 31.34375 70.007812 70.003906zm0 0" fill="#3c3b41"/><path d="m234.136719 449.960938v54.921874c0 3.917969-3.191407 7.117188-7.121094 7.117188h-219.882813c-3.933593 0-7.132812-3.199219-7.132812-7.117188v-54.921874c0-27.828126 18.296875-52.347657 44.960938-60.292969l12.652343-3.769531c6.417969-1.90625 11.703125-6.066407 15.109375-11.460938 2.476563-3.902344 3.949219-8.472656 4.136719-13.292969.019531-.371093.03125-.734375.03125-1.105469v-26.324218l74.113281-11.742188v36.199219c0 6.882813 2.609375 13.300781 7.015625 18.140625 3.230469 3.5625 7.429688 6.273438 12.261719 7.71875l18.902344 5.632812c26.675781 7.949219 44.953125 32.464844 44.953125 60.296876zm0 0" fill="#ffdba9"/><path d="m189.183594 389.667969-18.902344-5.636719c-4.832031-1.445312-9.03125-4.15625-12.261719-7.71875-4.40625-4.839844-7.015625-11.257812-7.015625-18.140625v-36.199219l-74.113281 11.742188v10.667968l50.25-7.964843v36.203125c0 6.882812 2.609375 13.300781 7.015625 18.140625 3.230469 3.558593 7.429688 6.273437 12.261719 7.71875l18.902343 5.632812c26.679688 7.945313 44.953126 32.464844 44.953126 60.296875v47.589844h16.742187c3.933594 0 7.121094-3.199219 7.121094-7.117188v-54.921874c0-27.832032-18.277344-52.347657-44.953125-60.292969zm0 0" fill="#ffc473"/><path d="m151.003906 321.972656v27.160156c-13.808594 9.945313-30.761718 15.808594-49.089844 15.808594-8.730468 0-17.136718-1.332031-25.054687-3.796875.023437-.371093.03125-.734375.03125-1.105469v-26.324218zm0 0" fill="#ffc473"/><path d="m101.917969 345.082031c-46.445313 0-84.097657-37.652343-84.097657-84.097656v-113.363281h123.210938c24.84375 0 44.980469 20.140625 44.980469 44.984375v68.378906c0 46.445313-37.648438 84.097656-84.09375 84.097656zm0 0" fill="#ffdba9"/><path d="m189.003906 248.3125h-2.992187v-53.652344h2.992187c14.816406 0 26.828125 12.007813 26.828125 26.824219s-12.011719 26.828125-26.828125 26.828125zm0 0" fill="#ffc473"/><path d="m60.667969 210.613281c0 4.617188-3.742188 8.359375-8.355469 8.359375-4.617188 0-8.359375-3.742187-8.359375-8.359375 0-4.617187 3.742187-8.359375 8.359375-8.359375 4.613281 0 8.355469 3.742188 8.355469 8.359375zm0 0" fill="#57555c"/><path d="m127.539062 210.613281c0 4.617188-3.742187 8.359375-8.355468 8.359375-4.617188 0-8.359375-3.742187-8.359375-8.359375 0-4.617187 3.742187-8.359375 8.359375-8.359375 4.613281 0 8.355468 3.742188 8.355468 8.359375zm0 0" fill="#57555c"/><path d="m83.753906 300.976562c-7.671875 0-13.789062-2.140624-16.75-3.414062-3.925781-1.691406-5.738281-6.246094-4.046875-10.171875 1.6875-3.925781 6.242188-5.738281 10.167969-4.046875 2.890625 1.246094 10.539062 3.800781 19.128906.652344 6.566406-2.40625 10.484375-7.019532 12.234375-9.554688 2.425781-3.519531 7.246094-4.40625 10.761719-1.976562 3.519531 2.425781 4.40625 7.246094 1.976562 10.765625-2.792968 4.046875-9.058593 11.421875-19.644531 15.300781-4.90625 1.796875-9.601562 2.445312-13.828125 2.445312zm0 0" fill="#c06100"/><path d="m234.136719 504.878906v-54.917968c0-27.828126-18.277344-52.351563-44.953125-60.296876l-13.3125-3.96875-52.46875 52.46875c-3.476563 3.476563-9.128906 3.417969-12.535156-.128906l-50.875-52.96875c-.773438.308594-1.566407.589844-2.378907.832032l-12.644531 3.765624c-26.675781 7.945313-44.96484375 32.46875-44.96484375 60.296876v54.917968c0 3.929688 3.18749975 7.121094 7.12109375 7.121094h219.894531c3.929688 0 7.117188-3.191406 7.117188-7.121094zm0 0" fill="#6dd7a7"/><path d="m189.183594 389.667969-13.3125-3.96875-16.609375 16.605469 6.0625 1.808593c26.675781 7.945313 44.949219 32.464844 44.949219 60.292969v47.589844h16.746093c1.558594 0 2.992188-.503906 4.167969-1.355469 1.785156-1.296875 2.949219-3.390625 2.949219-5.757813v-54.921874c0-27.832032-18.277344-52.347657-44.953125-60.292969zm0 0" fill="#00bb64"/><path d="m156.742188 140.058594c0 15.144531-12.273438 27.417968-27.417969 27.417968h-27.042969c-2.976562 0-5.796875-1.335937-7.683594-3.640624l-13.25-16.214844-12.328125 15.992187c-1.878906 2.4375-4.78125 3.863281-7.859375 3.863281h-15.921875c-15.140625 0-27.417969-12.273437-27.417969-27.417968v-12.292969" fill="#57555c"/><path d="m215.832031 194.660156c-3.371093-9.566406-24.597656-67.097656-78.769531-86.054687-32.625-11.417969-67.042969-5.289063-78.992188-3.160157-16.917968 3.011719-30.542968 7.894532-39.996093 11.910157-1.714844-17.710938-3.429688-52.929688-5.144531-70.640625-1.777344-14.136719 6.269531-27.675782 19.535156-32.878906l2.394531-.941407c10.917969-5.09375 32.035156-13.199219 59.667969-12.8867185 0 0 31.964844.3632815 59.554687 14.3320315 45.355469 22.960937 73.632813 95.855468 61.75 180.320312zm0 0" fill="#6dd7a7"/><path d="m154.085938 14.339844c-27.59375-13.96875-59.558594-14.3281252-59.558594-14.3281252-6.503906-.0742188-12.644532.3203122-18.378906 1.0312502 11.855468 1.453125 29.929687 4.9375 46.445312 13.296875 35.914062 18.183594 61.113281 67.675781 64.148438 129.429687 18.46875 21.742188 27.050781 45.097657 29.089843 50.886719 11.882813-84.460938-16.394531-157.355469-61.746093-180.316406zm0 0" fill="#00bb64"/><g fill="#fff"><path d="m76.386719 81.070312c-4.273438 0-7.738281-3.464843-7.738281-7.738281v-29.855469c0-4.273437 3.464843-7.738281 7.738281-7.738281 4.273437 0 7.738281 3.464844 7.738281 7.738281v29.855469c0 4.273438-3.464844 7.738281-7.738281 7.738281zm0 0"/><path d="m91.3125 66.144531h-29.851562c-4.277344 0-7.742188-3.464843-7.742188-7.738281s3.464844-7.738281 7.742188-7.738281h29.851562c4.273438 0 7.738281 3.464843 7.738281 7.738281s-3.464843 7.738281-7.738281 7.738281zm0 0"/></g></svg>