<svg height="512pt" viewBox="-87 0 512 512" width="512pt" xmlns="http://www.w3.org/2000/svg"><path d="m338.84375 446.53125v57.953125c0 4.144531-3.371094 7.515625-7.511719 7.515625h-232.058593c-4.152344 0-7.523438-3.371094-7.523438-7.515625v-57.953125c0-29.371094 19.300781-55.253906 47.453125-63.636719l13.34375-3.976562c6.769531-2.011719 12.355469-6.398438 15.949219-12.089844 2.566406-4.0625 4.125-8.796875 4.355468-13.800781.035157-.464844.042969-.933594.042969-1.398438v-24.398437l78.210938-15.773438v38.199219c0 7.273438 2.753906 14.046875 7.40625 19.152344 3.414062 3.753906 7.84375 6.617187 12.941406 8.140625l19.949219 5.949219c28.152344 8.378906 47.441406 34.261718 47.441406 63.632812zm0 0" fill="#ffdba9"/><path d="m251.105469 311.457031v28.882813c-14.574219 10.515625-32.476563 16.691406-51.808594 16.691406-9.210937 0-18.089844-1.398438-26.441406-4.003906.03125-.46875.039062-.933594.039062-1.398438v-24.402344zm0 0" fill="#ffc473"/><path d="m199.300781 335.835938c-49.015625 0-88.75-39.734376-88.75-88.75v-170.777344h177.5v170.777344c0 49.015624-39.734375 88.75-88.75 88.75zm0 0" fill="#ffdba9"/><path d="m296.003906 183.097656v44.601563c12.042969-.296875 21.753906-10.1875 21.753906-22.300781-.003906-12.113282-9.710937-22.003907-21.753906-22.300782zm0 0"/><path d="m155.769531 193.925781c0 4.871094-3.949219 8.820313-8.820312 8.820313-4.871094 0-8.820313-3.949219-8.820313-8.820313 0-4.871093 3.949219-8.820312 8.820313-8.820312 4.871093 0 8.820312 3.949219 8.820312 8.820312zm0 0" fill="#57555c"/><path d="m226.34375 193.925781c0 4.871094-3.949219 8.820313-8.820312 8.820313-4.875 0-8.820313-3.949219-8.820313-8.820313 0-4.871093 3.945313-8.820312 8.820313-8.820312 4.871093 0 8.820312 3.949219 8.820312 8.820312zm0 0"/><path d="m180.132812 289.074219c-8.058593 0-14.480468-2.246094-17.59375-3.585938-4.03125-1.738281-5.890624-6.414062-4.15625-10.445312 1.738282-4.03125 6.410157-5.890625 10.445313-4.160157 3.074219 1.324219 11.210937 4.042969 20.347656.695313 6.988281-2.5625 11.15625-7.46875 13.015625-10.167969 2.492188-3.613281 7.441406-4.519531 11.058594-2.027344 3.613281 2.492188 4.519531 7.441407 2.027344 11.058594-2.933594 4.25-9.511719 11.992188-20.628906 16.0625-5.148438 1.886719-10.082032 2.570313-14.515626 2.570313zm0 0" fill="#c06100"/><path d="m338.839844 446.527344v28.265625h-46.761719v37.203125h-152.105469v-37.203125h-48.226562v-28.265625c0-29.371094 19.300781-55.253906 47.453125-63.636719l13.34375-3.976563c6.769531-2.011718 12.355469-6.398437 15.949219-12.089843 11.734374 4.746093 27.757812 9.242187 46.945312 9.355469 16.480469.097656 30.980469-3.0625 43.074219-7.375 3.410156 3.75 7.839843 6.613281 12.941406 8.140624l19.945313 5.945313c28.152343 8.382813 47.441406 34.265625 47.441406 63.636719zm0 0" fill="#ff52a1"/><g fill="#ffda2d"><path d="m179.023438 392.746094c0 4.871094-3.949219 8.820312-8.820313 8.820312s-8.820313-3.949218-8.820313-8.820312 3.949219-8.820313 8.820313-8.820313 8.820313 3.949219 8.820313 8.820313zm0 0"/><path d="m191.238281 414.6875c0 4.871094-3.949219 8.820312-8.820312 8.820312-4.871094 0-8.820313-3.949218-8.820313-8.820312s3.949219-8.820312 8.820313-8.820312c4.871093 0 8.820312 3.949218 8.820312 8.820312zm0 0"/><path d="m210.785156 434.1875c0 4.871094-3.949218 8.820312-8.820312 8.820312s-8.820313-3.949218-8.820313-8.820312c0-4.875 3.949219-8.820312 8.820313-8.820312s8.820312 3.945312 8.820312 8.820312zm0 0"/><path d="m236.652344 434.1875c0 4.871094-3.949219 8.820312-8.820313 8.820312-4.871093 0-8.820312-3.949218-8.820312-8.820312 0-4.875 3.949219-8.820312 8.820312-8.820312 4.871094 0 8.820313 3.945312 8.820313 8.820312zm0 0"/><path d="m254.292969 413.175781c0 4.871094-3.949219 8.820313-8.820313 8.820313s-8.820312-3.949219-8.820312-8.820313c0-4.871093 3.949218-8.820312 8.820312-8.820312s8.820313 3.949219 8.820313 8.820312zm0 0"/><path d="m265.5 392.746094c0 4.871094-3.949219 8.820312-8.820312 8.820312-4.871094 0-8.820313-3.949218-8.820313-8.820312s3.949219-8.820313 8.820313-8.820313c4.871093 0 8.820312 3.949219 8.820312 8.820313zm0 0"/></g><path d="m315.699219 272.304688c0 4.871093-3.949219 8.820312-8.820313 8.820312s-8.820312-3.949219-8.820312-8.820312c0-4.871094 3.949218-8.820313 8.820312-8.820313s8.820313 3.949219 8.820313 8.820313zm0 0"/><path d="m306.878906 256.625c-4.390625 0-7.949218-3.558594-7.949218-7.949219v-15.253906c0-4.390625 3.558593-7.949219 7.949218-7.949219s7.949219 3.558594 7.949219 7.949219v15.253906c0 4.390625-3.558594 7.949219-7.949219 7.949219zm0 0"/><path d="m275.039062 295.398438c-.945312 1.761718-1.867187 3.476562-2.765624 5.152343-7.378907 13.714844-18.378907 31.988281-34.300782 52.125-1.90625 2.417969-5.722656.296875-4.683594-2.597656 10.683594-29.644531 10.84375-53.9375 6.273438-73.660156-2.066406-8.917969-5.066406-16.707031-8.679688-23.734375-19.164062-37.339844-55.675781-53.28125-63.191406-102.171875-1.855468-12.03125-1.949218-26.097657.308594-39.144531 2.976562-17.234376 10.066406-32.699219 22.628906-39.40625 28.183594-15.050782 78.390625 16.925781 101.453125 54.289062 3.402344 5.488281 8.183594 14.308594 11.871094 26.316406 2.332031 7.609375 3.816406 15.175782 4.601563 22.679688 4.789062 45.84375-16.8125 88.925781-33.515626 120.152344zm0 0" fill="#7985eb"/><path d="m275.039062 295.398438c-.316406-.5625-.648437-1.125-.976562-1.675782-11.902344-20.007812-27.3125-31.277344-43.179688-41.039062-19.164062-37.339844-55.675781-53.28125-63.191406-102.171875-1.855468-12.03125-1.949218-26.097657.308594-39.144531 23.921875-19.289063 78.398438-4.175782 110.472656 23.328124 4.894532 4.207032 12.136719 11.148438 19.300782 21.472657 4.292968 6.179687 7.84375 12.5625 10.78125 19.078125 4.789062 45.84375-16.8125 88.925781-33.515626 120.152344zm0 0" fill="#4b5be5"/><path d="m288.050781 119.796875c4.90625 4.207031 12.140625 11.152344 19.304688 21.472656 33.808593 48.734375 22.382812 109.945313 14.789062 150.609375-2.859375 15.3125-7.78125 36.058594-16.828125 60.082032-1.085937 2.882812-5.367187 2.027343-5.253906-1.050782 1.164062-31.484375-6.0625-54.683594-16.414062-72.082031-29.523438-49.613281-80.574219-45.472656-106.734376-98.113281-12.570312-25.292969-19.472656-63.859375-2.015624-81.804688 22.277343-22.902344 79.824218-7.699218 113.152343 20.886719zm0 0" fill="#ff52a1"/><path d="m288.050781 119.796875h-266.058593c-12.144532 0-21.992188-9.847656-21.992188-21.992187v-3.414063c0-1.074219.871094-1.945313 1.949219-1.945313h286.101562zm0 0" fill="#6dd7a7"/><path d="m1.648438 92.472656c-.933594.144532-1.648438.945313-1.648438 1.917969v3.414063c0 12.144531 9.847656 21.992187 21.992188 21.992187h266.058593v-13.675781h-266.058593c-9.191407 0-17.054688-5.640625-20.34375-13.648438zm0 0" fill="#00bb64"/><path d="m288.050781 92.441406h-178.457031v-42.621094c0-27.515624 22.308594-49.820312 49.824219-49.820312h78.8125c27.515625 0 49.820312 22.304688 49.820312 49.820312zm0 0" fill="#00b7be"/><path d="m237.773438 92.441406h-99.644532v-42.621094c0-27.515624 22.304688-49.820312 49.820313-49.820312s49.824219 22.304688 49.824219 49.820312zm0 0" fill="#9dfdff"/><path d="m268.355469 221.835938c-.914063 0-1.847657-.160157-2.757813-.496094-14.882812-5.511719-28.617187-14.375-39.726562-25.632813-12-12.164062-21.085938-27.230469-26.277344-43.570312-1.328125-4.183594.988281-8.652344 5.171875-9.984375 4.183594-1.328125 8.652344.988281 9.984375 5.171875 3.089844 9.734375 9.492188 24.097656 22.4375 37.214843 9.484375 9.617188 21.214844 17.183594 33.929688 21.890626 4.117187 1.523437 6.21875 6.097656 4.695312 10.214843-1.1875 3.207031-4.226562 5.191407-7.457031 5.191407zm0 0" fill="#e80d6a"/><path d="m299.292969 248.730469c-.242188 0-.488281-.011719-.734375-.035157-4.371094-.402343-7.589844-4.269531-7.191406-8.644531 1.308593-14.230469-.625-28.835937-5.589844-42.230469-4.910156-13.265624-12.855469-25.507812-22.976563-35.402343-3.140625-3.070313-3.195312-8.101563-.125-11.242188 3.066407-3.140625 8.097657-3.199219 11.238281-.128906 11.792969 11.53125 21.050782 25.792969 26.773438 41.25 5.785156 15.609375 8.035156 32.625 6.515625 49.207031-.382813 4.125-3.847656 7.226563-7.910156 7.226563zm0 0" fill="#e80d6a"/></svg>