<svg height="511pt" viewBox="-120 0 511 511.9995" width="511pt" xmlns="http://www.w3.org/2000/svg"><path d="m257.890625 213.0625c-.050781 48.898438-1.269531 91.296875-.839844 120.035156v.234375c.171875 11.1875-8.851562 20.550781-20.039062 20.816407-29.289063.707031-8.605469-.316407-166.425781-.664063-10.5625-.023437-19.273438-8.691406-19.332032-19.261719-.453125-84.09375.082032-141.148437.082032-202.707031l26.035156.582031 156.183594 3.511719c13.179687 29.921875 24.335937 55.386719 24.335937 74.421875zm0 0" fill="#715539"/><path d="m271.171875 448.785156v55.957032c0 4.003906-3.253906 7.257812-7.253906 7.257812h-224.066407c-4.011718 0-7.265624-3.253906-7.265624-7.257812v-55.957032c0-28.359375 18.636718-53.351562 45.816406-61.449218l12.886718-3.835938c6.539063-1.945312 11.933594-6.183594 15.402344-11.675781 2.394532-3.789063 3.867188-8.167969 4.1875-12.816407.039063-.613281.058594-1.238281.058594-1.863281v-30.414062l75.519531-8.371094v36.882813c0 7.023437 2.660157 13.5625 7.152344 18.492187 3.296875 3.625 7.574219 6.386719 12.496094 7.859375l19.261719 5.742188c27.179687 8.097656 45.804687 33.089843 45.804687 61.449218zm0 0" fill="#ffdba9"/><path d="m225.367188 387.335938-19.261719-5.738282c-4.925781-1.476562-9.199219-4.238281-12.496094-7.859375-4.492187-4.933593-7.15625-11.472656-7.15625-18.496093v-36.882813l-75.515625 8.371094v11.320312l48.398438-5.363281v36.882812c0 7.023438 2.660156 13.5625 7.15625 18.496094 3.292968 3.621094 7.570312 6.382813 12.496093 7.859375l19.257813 5.738281c27.183594 8.097657 45.808594 33.085938 45.808594 61.445313v48.890625h19.863281c4 0 7.253906-3.253906 7.253906-7.257812v-55.957032c0-28.359375-18.625-53.351562-45.804687-61.449218zm0 0" fill="#ffc473"/><path d="m186.457031 318.359375v28.421875c-14.074219 10.140625-31.347656 16.105469-50.015625 16.105469-8.902344 0-17.488281-1.359375-25.5625-3.878907.039063-.613281.058594-1.238281.058594-1.863281v-30.414062zm0 0" fill="#ffc473"/><path d="m136.4375 341.90625c-47.328125 0-85.695312-38.367188-85.695312-85.695312v-164.902344h171.390624v164.902344c0 47.328124-38.367187 85.695312-85.695312 85.695312zm0 0" fill="#ffdba9"/><path d="m229.273438 245.171875h-7.140626v-58.429687h7.140626c16.136718 0 29.214843 13.082031 29.214843 29.214843 0 16.136719-13.078125 29.214844-29.214843 29.214844zm0 0" fill="#ffc473"/><path d="m94.40625 204.882812c0 4.703126-3.816406 8.515626-8.519531 8.515626s-8.515625-3.8125-8.515625-8.515626c0-4.707031 3.8125-8.519531 8.515625-8.519531s8.519531 3.8125 8.519531 8.519531zm0 0" fill="#57555c"/><path d="m162.550781 204.882812c0 4.703126-3.816406 8.515626-8.519531 8.515626s-8.515625-3.8125-8.515625-8.515626c0-4.707031 3.8125-8.519531 8.515625-8.519531s8.519531 3.8125 8.519531 8.519531zm0 0" fill="#57555c"/><path d="m117.929688 296.75c-7.78125 0-13.984376-2.167969-16.988282-3.460938-3.894531-1.675781-5.691406-6.191406-4.015625-10.085937s6.191407-5.6875 10.085938-4.015625c2.96875 1.277344 10.824219 3.90625 19.648437.671875 6.746094-2.472656 10.769532-7.214844 12.570313-9.820313 2.40625-3.488281 7.183593-4.363281 10.675781-1.957031 3.488281 2.410157 4.367188 7.191407 1.957031 10.679688-2.832031 4.105469-9.1875 11.578125-19.917969 15.511719-4.972656 1.820312-9.734374 2.476562-14.015624 2.476562zm0 0" fill="#c06100"/><path d="m257.890625 210.03125c-2.742187-13.292969-14.511719-23.28125-28.617187-23.28125h-7.960938c-15.78125 0-31.296875-4.167969-44.957031-12.066406l-3.503907-2.015625c-6.84375-3.949219-14.171874-6.992188-21.796874-9.027344l-73.683594-19.648437v-11.894532l156.179687 3.511719c13.183594 29.925781 24.339844 55.386719 24.339844 74.421875zm0 0" fill="#a17852"/><path d="m271.171875 448.785156v27.292969h-45.152344v35.921875h-146.871093v-35.921875h-46.5625v-27.292969c0-28.359375 18.636718-53.351562 45.816406-61.449218l12.882812-3.835938c6.542969-1.945312 11.933594-6.183594 15.402344-11.675781 11.332031 4.582031 26.804688 8.921875 45.328125 9.035156 15.914063.089844 29.914063-2.957031 41.59375-7.125 3.296875 3.625 7.570313 6.386719 12.496094 7.859375l19.261719 5.742188c27.179687 8.097656 45.804687 33.089843 45.804687 61.449218zm0 0" fill="#96a0ef"/><path d="m225.363281 387.335938-19.257812-5.742188c-4.925781-1.472656-9.203125-4.234375-12.496094-7.859375-9.269531 3.308594-20.003906 5.902344-31.992187 6.792969 1.203124 2.765625 2.847656 5.316406 4.875 7.535156 3.292968 3.625 7.570312 6.386719 12.496093 7.859375l19.257813 5.742187c27.183594 8.09375 45.808594 33.085938 45.808594 61.445313v12.96875h27.117187v-27.296875c0-28.355469-18.625-53.347656-45.808594-61.445312zm0 0" fill="#7985eb"/><path d="m233.554688 86.914062v25.402344h-192.394532l.074219-25.402344c0-3.355468.203125-6.671874.613281-9.914062 2.128906-17.101562 9.691406-32.515625 20.917969-44.457031 14.480469-15.445313 35.082031-25.097657 57.9375-25.097657h33.371094c8.78125 0 17.226562 1.425782 25.117187 4.054688 6.40625 2.128906 12.453125 5.054688 18.019532 8.65625 21.871093 14.15625 36.34375 38.769531 36.34375 66.757812zm0 0" fill="#ffda2d"/><path d="m197.210938 20.160156c-5.566407-3.605468-11.613282-6.53125-18.019532-8.660156-7.890625-2.628906-16.335937-4.050781-25.117187-4.050781h-33.371094c-1.621094 0-3.222656.058593-4.820313.15625 7.074219.417969 13.902344 1.746093 20.351563 3.894531 6.410156 2.128906 12.457031 5.058594 18.023437 8.660156 21.871094 14.152344 36.34375 38.765625 36.34375 66.753906v25.402344h42.953126v-25.402344c0-27.988281-14.472657-52.601562-36.34375-66.753906zm0 0" fill="#fec002"/><g fill="#ff9a01"><path d="m88.214844 167.230469h-79.902344c-7.515625 0-10.679688-9.582031-4.644531-14.058594l23.675781-17.566406h133.632812l-18.433593 13.675781c-15.714844 11.65625-34.761719 17.949219-54.328125 17.949219zm0 0"/><path d="m106.46875 87.78125h-14.335938c-3.707031 0-6.824218-2.742188-7.335937-6.414062-1.714844-12.414063-2.070313-31.351563 7.011719-50.609376 4.21875-8.941406 9.703125-20.574218 22.507812-26.832031 20.285156-9.917969 42.089844 1.886719 45.011719 3.523438-4.972656-.257813-14.617187-.066407-23.316406 5.953125-7.429688 5.144531-12.144531 13.707031-16.070313 26.015625-5.089844 15.960937-6.207031 30.246093-6.074218 40.820312.054687 4.140625-3.253907 7.542969-7.398438 7.542969zm0 0"/><path d="m188.292969 37.652344c-4.144531 12.988281-5.046875 24.613281-4.945313 33.207031.054688 3.378906-2.648437 6.140625-6.015625 6.140625h-11.65625c-3.019531 0-5.558593-2.230469-5.976562-5.21875-1.394531-10.101562-1.679688-25.503906 5.710937-41.171875 2.882813-6.117187 6.507813-13.796875 13.785156-19.105469 6.40625 2.128906 12.453126 5.054688 18.023438 8.65625-3.777344 4.195313-6.53125 9.988282-8.925781 17.492188zm0 0"/><path d="m60.964844 37.648438c-4.144532 12.988281-5.042969 24.613281-4.941406 33.207031.050781 3.378906-2.652344 6.140625-6.019532 6.140625h-8.15625c2.128906-17.101563 9.691406-32.511719 20.917969-44.457032-.632813 1.609376-1.226563 3.308594-1.800781 5.109376zm0 0"/></g><path d="m241.621094 135.605469h-214.355469v-14.265625c0-4.984375 4.039063-9.019532 9.023437-9.019532h205.332032c4.148437 0 7.515625 3.363282 7.515625 7.511719v8.261719c-.003907 4.148438-3.367188 7.511719-7.515625 7.511719zm0 0" fill="#ff4f18"/></svg>