<svg height="512pt" viewBox="-103 0 512 512.00103" width="512pt" xmlns="http://www.w3.org/2000/svg"><path d="m64.863281 155.90625c-7.277343 5.289062-16.484375 13.785156-21.386719 26.542969-6.105468 15.867187.039063 23.800781-2.59375 42.78125-3.421874 24.65625-15.464843 23.371093-23.335937 51.210937-7.964844 28.152344 3.621094 32.046875-5.710937 56.960938-2.507813 6.691406-5.960938 13.398437-9.550782 19.492187-6.429687 10.902344 1.480469 24.65625 14.136719 24.65625h274.144531c11.324219 0 19.199219-11.195312 15.429688-21.871093-1.53125-4.335938-2.875-9.082032-3.871094-14.214844-5.429688-28.066406 6.007812-34.890625-.648438-55.945313-7.40625-23.441406-25.007812-25.839843-27.871093-50.5625-1.195313-10.304687 1.5625-12.457031 1.296875-22.257812-.382813-13.871094-6.5625-33.347657-33.136719-56.792969zm0 0" fill="#715539"/><path d="m166.523438 16.3125c0 9.011719-7.300782 16.316406-16.3125 16.316406-9.007813 0-16.3125-7.304687-16.3125-16.316406 0-9.007812 7.304687-16.3125 16.3125-16.3125 9.011718 0 16.3125 7.304688 16.3125 16.3125zm0 0" fill="#ca1c01"/><path d="m150.210938 0c-2.167969 0-4.234376.433594-6.128907 1.203125 5.96875 2.421875 10.183594 8.269531 10.183594 15.109375s-4.214844 12.6875-10.183594 15.113281c1.894531.769531 3.960938 1.203125 6.128907 1.203125 9.011718 0 16.316406-7.304687 16.316406-16.316406-.003906-9.007812-7.304688-16.3125-16.316406-16.3125zm0 0" fill="#901"/><path d="m284.964844 448.878906v55.875c0 3.996094-3.25 7.246094-7.246094 7.246094h-223.730469c-4.007812 0-7.257812-3.25-7.257812-7.246094v-55.875c0-28.316406 18.609375-53.273437 45.75-61.355468l12.867187-3.832032c6.53125-1.941406 11.914063-6.171875 15.378906-11.660156 2.707032-4.28125 4.242188-9.328125 4.242188-14.652344v-16.984375l75.40625-21.746093v36.828124c0 7.011719 2.65625 13.542969 7.140625 18.464844 3.292969 3.617188 7.5625 6.378906 12.476563 7.851563l19.234374 5.730469c27.140626 8.082031 45.738282 33.039062 45.738282 61.355468zm0 0" fill="#ffdba9"/><path d="m239.226562 387.523438-19.234374-5.730469c-4.914063-1.472657-9.1875-4.234375-12.476563-7.851563-4.488281-4.921875-7.144531-11.453125-7.144531-18.464844v-36.828124l-75.40625 21.746093v9.316407l47.742187-13.765626v36.828126c0 7.007812 2.65625 13.539062 7.140625 18.464843 3.292969 3.617188 7.5625 6.375 12.480469 7.847657l19.230469 5.734374c27.140625 8.082032 45.738281 33.039063 45.738281 61.351563v45.828125h20.421875c3.996094 0 7.246094-3.25 7.246094-7.246094v-55.875c0-28.316406-18.597656-53.273437-45.738282-61.355468zm0 0" fill="#ffc473"/><path d="m236.003906 132.960938v123.632812c0 16.351562-4.589844 31.617188-12.539062 44.605469-15.042969 24.566406-42.121094 40.957031-73.035156 40.957031-27.886719 0-52.667969-13.34375-68.28125-33.996094-10.851563-14.335937-17.292969-32.199218-17.292969-51.566406v-123.632812zm0 0" fill="#ffdba9"/><path d="m243.128906 245.570312h-7.128906v-58.34375h7.128906c16.113282 0 29.171875 13.0625 29.171875 29.171876 0 16.109374-13.0625 29.171874-29.171875 29.171874zm0 0" fill="#ffc473"/><path d="m108.460938 205.335938c0 4.699218-3.808594 8.507812-8.507813 8.507812-4.695313 0-8.503906-3.808594-8.503906-8.507812 0-4.695313 3.808593-8.503907 8.503906-8.503907 4.699219 0 8.507813 3.808594 8.507813 8.503907zm0 0" fill="#57555c"/><path d="m176.5 205.335938c0 4.699218-3.804688 8.507812-8.503906 8.507812-4.695313 0-8.503906-3.808594-8.503906-8.507812 0-4.695313 3.808593-8.503907 8.503906-8.503907 4.699218 0 8.503906 3.808594 8.503906 8.503907zm0 0" fill="#57555c"/><path d="m131.949219 297.070312c-7.769531 0-13.960938-2.164062-16.960938-3.457031-3.890625-1.671875-5.683593-6.183593-4.011719-10.070312 1.675782-3.886719 6.183594-5.679688 10.074219-4.007813 2.964844 1.277344 10.808594 3.898438 19.617188.667969 6.738281-2.46875 10.753906-7.199219 12.546875-9.800781 2.402344-3.484375 7.179687-4.359375 10.660156-1.957032 3.484375 2.402344 4.359375 7.175782 1.957031 10.660157-2.828125 4.097656-9.171875 11.5625-19.890625 15.488281-4.960937 1.820312-9.714844 2.476562-13.992187 2.476562zm0 0" fill="#c06100"/><path d="m284.964844 448.878906v27.253906h-45.085938v35.867188h-146.652344v-35.867188h-46.496093v-27.253906c0-28.316406 18.609375-53.273437 45.75-61.355468l12.867187-3.832032c8.984375 4.976563 29.6875 14.878906 57.71875 14.378906 27.867188-.496093 48.113282-11.007812 56.925782-16.28125l19.234374 5.734376c27.140626 8.082031 45.738282 33.039062 45.738282 61.355468zm0 0" fill="#e1b5ec"/><path d="m257.300781 476.132812h27.664063v-27.253906c0-28.316406-18.597656-53.273437-45.738282-61.355468l-19.234374-5.730469c-6.308594 3.773437-18.472657 10.226562-35.097657 13.773437 2.25 1.507813 4.738281 2.714844 7.433594 3.519532l19.230469 5.734374c27.140625 8.082032 45.738281 33.035157 45.738281 61.351563v9.960937zm0 0" fill="#ca80de"/><path d="m249.582031 187.226562h-25.878906c-6.953125 0-12.585937-5.628906-12.585937-12.574218v-1.839844c0-3.570312-1.40625-6.996094-3.914063-9.539062l-14.550781-14.738282c-2.507813-2.542968-3.917969-5.96875-3.917969-9.535156v-14.417969h47.265625zm0 0" fill="#715539"/><path d="m162.902344 484.339844c-4.234375 0-7.664063-3.429688-7.664063-7.664063v-14.890625c0-4.230468 3.429688-7.660156 7.664063-7.660156s7.664062 3.429688 7.664062 7.660156v14.890625c0 4.234375-3.429687 7.664063-7.664062 7.664063zm0 0" fill="#ca1c01"/><path d="m64.863281 112.578125v-7.777344c0-40.007812 27.46875-73.617187 64.582031-82.96875 1.664063-.429687 3.351563-.796875 5.058594-1.113281v-.011719c.859375-.160156 1.726563-.304687 2.59375-.4375.777344-.132812 1.566406-.246093 2.351563-.335937.09375-.011719.183593-.023438.277343-.03125.867188-.113282 1.738282-.214844 2.605469-.289063.835938-.089843 1.675781-.152343 2.523438-.203125.070312-.007812.144531-.007812.214843-.007812.859376-.0625 1.714844-.105469 2.574219-.125.898438-.03125 1.796875-.050782 2.699219-.050782 1.226562 0 2.441406.019532 3.644531.082032 4.070313.164062 8.0625.613281 11.957031 1.328125 39.855469 7.304687 70.050782 42.195312 70.050782 84.164062v51.105469h-171.136719v-43.328125zm0 0" fill="#ff4f18"/><path d="m150.347656 19.230469c-7.210937.007812-14.210937.917969-20.898437 2.605469 37.105469 9.359374 64.574219 42.949218 64.574219 82.964843v51.105469h41.976562v-51.105469c0-47.292969-38.363281-85.617187-85.652344-85.570312zm0 0" fill="#ff3201"/><path d="m249.578125 120.394531v27.691407c0 4.324218-3.492187 7.816406-7.816406 7.816406h-179.996094c-4.324219 0-7.820313-3.492188-7.820313-7.816406v-27.691407c0-4.3125 3.496094-7.816406 7.820313-7.816406h179.996094c4.324219 0 7.816406 3.503906 7.816406 7.816406zm0 0" fill="#ca1c01"/><path d="m241.761719 112.578125h-43.304688c4.320313 0 7.816407 3.503906 7.816407 7.816406v27.691407c0 4.324218-3.492188 7.816406-7.816407 7.816406h43.304688c4.320312 0 7.816406-3.492188 7.816406-7.816406v-27.691407c0-4.3125-3.492187-7.816406-7.816406-7.816406zm0 0" fill="#901"/><path d="m215.140625 140.628906v15.277344h-15.328125v-15.277344c0-4.230468 3.433594-7.664062 7.664062-7.664062 4.230469 0 7.664063 3.433594 7.664063 7.664062zm0 0" fill="#ff4f18"/><path d="m186.621094 140.628906v15.277344h-15.332032v-15.277344c0-4.230468 3.425782-7.664062 7.664063-7.664062 4.234375-.003906 7.667969 3.433594 7.667969 7.664062zm0 0" fill="#ff4f18"/><path d="m158.097656 140.628906v15.277344h-15.328125v-15.277344c0-4.230468 3.425781-7.664062 7.664063-7.664062 4.230468-.003906 7.664062 3.433594 7.664062 7.664062zm0 0" fill="#ff4f18"/><path d="m129.566406 140.628906v15.277344h-15.328125v-15.277344c0-4.230468 3.433594-7.664062 7.664063-7.664062 4.242187-.003906 7.664062 3.433594 7.664062 7.664062zm0 0" fill="#ff4f18"/><path d="m196.167969 484.339844c-4.234375 0-7.664063-3.429688-7.664063-7.664063v-14.890625c0-4.230468 3.429688-7.660156 7.664063-7.660156 4.230469 0 7.664062 3.429688 7.664062 7.660156v14.890625c0 4.234375-3.429687 7.664063-7.664062 7.664063zm0 0" fill="#ca1c01"/><path d="m101.046875 140.628906v15.277344h-15.328125v-15.277344c0-4.230468 3.433594-7.664062 7.664062-7.664062 4.230469 0 7.664063 3.433594 7.664063 7.664062zm0 0" fill="#ff4f18"/><path d="m155.238281 390.027344h48.59375v71.757812h-48.59375zm0 0" fill="#901"/><path d="m223.46875 301.195312v74.609376c0 6.714843-3.464844 12.9375-9.167969 16.492187-2.796875 1.75-5.78125 3.535156-9 5.265625-4.363281 2.347656-9.15625 4.585938-14.492187 6.496094-4.636719 1.667968-9.695313 3.085937-15.234375 4.089844-4.710938.855468-9.769531 1.429687-15.226563 1.601562-2.195312.074219-4.464844.09375-6.804687.03125-2.699219-.058594-5.335938-.210938-7.929688-.4375-5.253906-.449219-10.292969-1.207031-15.09375-2.207031-5.234375-1.074219-10.199219-2.433594-14.859375-3.964844-5.355468-1.769531-10.320312-3.773437-14.867187-5.855469-4.90625-2.25-9.332031-4.589844-13.214844-6.847656-3.371094-1.960938-5.425781-5.570312-5.425781-9.472656v-72.839844c15.613281 20.652344 40.394531 33.996094 68.28125 33.996094 30.914062 0 57.992187-16.390625 73.035156-40.957032zm0 0" fill="#ff4f18"/><g fill="#ca1c01"><path d="m116.121094 354.527344v46.046875c0 .910156-.164063 1.789062-.460938 2.597656-5.355468-1.769531-10.320312-3.773437-14.867187-5.855469v-42.789062c0-4.230469 3.433593-7.660156 7.660156-7.660156 4.242187-.003907 7.667969 3.429687 7.667969 7.660156zm0 0"/><path d="m145.847656 361.445312v46.039063c0 .640625-.082031 1.265625-.234375 1.859375-5.253906-.449219-10.292969-1.207031-15.09375-2.207031v-45.691407c0-4.230468 3.433594-7.660156 7.664063-7.660156 4.226562 0 7.664062 3.429688 7.664062 7.660156zm0 0"/><path d="m175.574219 363.789062v44.359376c-4.710938.855468-9.769531 1.429687-15.226563 1.601562-.070312-.398438-.101562-.804688-.101562-1.226562v-44.734376c0-4.242187 3.433594-7.664062 7.664062-7.664062 4.230469 0 7.664063 3.421875 7.664063 7.664062zm0 0"/><path d="m205.300781 354.527344v43.035156c-4.363281 2.347656-9.15625 4.585938-14.492187 6.496094-.53125-1.042969-.835938-2.226563-.835938-3.484375v-46.046875c0-4.230469 3.421875-7.660156 7.664063-7.660156 4.230469-.003907 7.664062 3.429687 7.664062 7.660156zm0 0"/></g></svg>