<svg height="511pt" viewBox="-100 1 511 511.99957" width="511pt" xmlns="http://www.w3.org/2000/svg"><path d="m66.414062 105.589844c-7.390624 5.378906-16.75 14.011718-21.734374 26.972656-6.203126 16.128906.042968 24.1875-2.632813 43.480469-3.476563 25.058593-15.714844 23.75-23.71875 52.046875-8.089844 28.609375 3.683594 32.566406-5.800781 57.886718-2.546875 6.800782-6.058594 13.617188-9.707032 19.808594-6.53125 11.078125 1.503907 25.054688 14.367188 25.054688h278.605469c11.507812 0 19.511719-11.375 15.683593-22.226563-1.554687-4.402343-2.921874-9.226562-3.933593-14.445312-5.519531-28.523438 6.101562-35.457031-.660157-56.855469-7.527343-23.820312-25.414062-26.261719-28.328124-51.386719-1.214844-10.472656 1.589843-12.65625 1.316406-22.621093-.382813-14.097657-6.664063-33.886719-33.675782-57.714844zm0 0" fill="#3c3b41"/><path d="m297.597656 445.78125v58.621094c0 4.1875-3.410156 7.59375-7.59375 7.59375h-234.707031c-4.195313 0-7.613281-3.40625-7.613281-7.59375v-58.621094c0-29.703125 19.527344-55.886719 48-64.359375l13.492187-4.019531c6.855469-2.035156 12.503907-6.480469 16.140625-12.234375 2.40625-3.8125 3.933594-8.214844 4.328125-12.886719.085938-.820312.117188-1.652344.117188-2.484375v-29.410156l79.101562-11.214844v38.632813c0 7.351562 2.785157 14.207031 7.488281 19.367187 3.457032 3.789063 7.933594 6.6875 13.097657 8.234375l20.167969 6.015625c28.476562 8.472656 47.980468 34.65625 47.980468 64.359375zm0 0" fill="#846351"/><path d="m249.617188 381.421875-20.167969-6.011719c-5.164063-1.550781-9.640625-4.445312-13.097657-8.238281-4.703124-5.160156-7.488281-12.011719-7.488281-19.367187v-38.632813l-79.101562 11.21875v12.601563l50.808593-7.203126v38.632813c0 7.351563 2.78125 14.207031 7.488282 19.367187 3.457031 3.792969 7.933594 6.6875 13.09375 8.234376l20.167968 6.015624c28.476563 8.472657 47.980469 34.652344 47.980469 64.355469v49.601563h20.703125c4.1875 0 7.59375-3.40625 7.59375-7.59375v-58.621094c0-29.703125-19.503906-55.886719-47.980468-64.359375zm0 0" fill="#684e41"/><path d="m208.863281 309.171875v30.949219c-14.070312 9.792968-31.15625 15.523437-49.589843 15.523437h-5.605469c-8.332031 0-16.390625-1.171875-24.023438-3.363281.085938-.820312.117188-1.652344.117188-2.484375v-29.410156zm0 0" fill="#684e41"/><path d="m159.273438 333.832031h-5.605469c-48.027344 0-86.960938-38.933593-86.960938-86.960937v-175.527344l179.527344 34.246094v141.28125c0 48.027344-38.933594 86.960937-86.960937 86.960937zm0 0" fill="#846351"/><path d="m254.667969 232.507812h-8.433594v-61.203124h8.433594c16.375 0 29.648437 13.273437 29.648437 29.644531v1.910156c0 16.375-13.273437 29.648437-29.648437 29.648437zm0 0" fill="#684e41"/><path d="m112.441406 190.304688c0 4.925781-3.992187 8.917968-8.921875 8.917968-4.925781 0-8.921875-3.992187-8.921875-8.917968 0-4.929688 3.996094-8.921876 8.921875-8.921876 4.929688 0 8.921875 3.992188 8.921875 8.921876zm0 0" fill="#37363a"/><path d="m183.820312 190.304688c0 4.925781-3.992187 8.917968-8.921874 8.917968-4.925782 0-8.917969-3.992187-8.917969-8.917968 0-4.929688 3.992187-8.921876 8.917969-8.921876 4.929687 0 8.921874 3.992188 8.921874 8.921876zm0 0" fill="#37363a"/><path d="m137.082031 286.28125c-8.101562 0-14.5625-2.257812-17.691406-3.605469-3.953125-1.699219-5.777344-6.28125-4.078125-10.230469 1.703125-3.953124 6.28125-5.773437 10.234375-4.078124 3.140625 1.351562 11.445313 4.125 20.769531.707031 7.132813-2.613281 11.382813-7.621094 13.28125-10.375 2.445313-3.542969 7.296875-4.429688 10.835938-1.988281 3.539062 2.441406 4.429687 7.292968 1.988281 10.835937-2.949219 4.273437-9.566406 12.058594-20.746094 16.152344-5.171875 1.898437-10.132812 2.582031-14.59375 2.582031zm0 0" fill="#4c3930"/><path d="m297.601562 445.78125v28.589844h-47.296874v37.628906h-153.839844v-37.628906h-48.777344v-28.589844c0-29.703125 19.523438-55.882812 47.992188-64.359375l13.496093-4.019531c6.851563-2.039063 12.5-6.476563 16.136719-12.234375 11.867188 4.804687 25.136719 28.839843 44.539062 28.957031 16.667969.097656 34.273438-22.589844 46.503907-26.953125 3.449219 3.796875 7.933593 6.691406 13.089843 8.234375l20.171876 6.015625c28.472656 8.476563 47.984374 34.65625 47.984374 64.359375zm0 0" fill="#0282d1"/><path d="m249.613281 381.421875-20.167969-6.011719c-5.160156-1.550781-9.636718-4.445312-13.097656-8.234375-7.289062 2.601563-16.484375 11.707031-26.253906 18.621094 3.117188 2.800781 6.851562 4.96875 11.054688 6.226563l20.167968 6.015624c28.476563 8.472657 47.980469 34.652344 47.980469 64.355469v11.976563h28.292969v-28.589844c0-29.703125-19.5-55.886719-47.976563-64.359375zm0 0" fill="#0070b4"/><path d="m120.273438 138.714844h-83.695313c-7.871094 0-11.1875-10.039063-4.863281-14.726563l24.800781-18.398437h139.972656l-19.308593 14.320312c-16.460938 12.210938-36.410157 18.804688-56.90625 18.804688zm0 0" fill="#00459f"/><path d="m261.164062 171.304688h-27.828124c-7.292969 0-13.203126-5.90625-13.203126-13.191407v-1.929687c0-3.746094-1.472656-7.339844-4.105468-10.007813l-15.265625-15.460937c-2.628907-2.664063-4.105469-6.261719-4.105469-10.003906v-15.121094h49.578125" fill="#3c3b41"/><path d="m246.234375 83.613281c0-16.203125-9.371094-30.945312-24.042969-37.824219l-60.054687-28.167968-30.21875-12.84375c-15.414063-6.550782-32.871094-6.355469-48.136719.535156l-8.703125 3.929688c-11.300781 5.097656-18.5625 16.347656-18.5625 28.742187v67.605469h189.71875zm0 0" fill="#0282d1"/><path d="m222.195312 45.789062-60.058593-28.167968-30.21875-12.84375c-15.414063-6.550782-32.871094-6.355469-48.136719.535156l-.171875.078125 28.78125 12.230469 60.058594 28.167968c14.667969 6.878907 24.039062 21.621094 24.039062 37.824219v21.976563h49.746094v-21.976563c0-16.203125-9.371094-30.945312-24.039063-37.824219zm0 0" fill="#0070b4"/><path d="m98.636719 44.808594c3.449219-3.519532 8.96875-3.863282 12.753906-.710938.140625.113282.28125.230469.421875.34375 4.363281 3.523438 8.683594 5.308594 11.5625 6.234375-.113281 2.914063-.746094 9.125-4.761719 15.566407-3.4375 5.511718-7.859375 8.800781-11.011719 10.632812-1.75 1.019531-3.90625 1.011719-5.640624-.039062-2.644532-1.601563-6.171876-4.328126-9.019532-8.722657-4.289062-6.621093-4.511718-13.144531-4.476562-15.621093 2.785156-1.515626 6.457031-3.910157 10.089844-7.59375.027343-.03125.054687-.058594.082031-.089844zm0 0" fill="#ffda2d"/><path d="m125.3125 365.167969 44.539062 23.066406-20.515624 23.722656c-2.527344 2.925781-7.050782 2.957031-9.617188.070313l-30.8125-34.625zm0 0" fill="#00459f"/><path d="m214.390625 365.167969-44.539063 23.066406 20.515626 23.722656c2.527343 2.925781 7.050781 2.957031 9.617187.070313l31.875-35.820313zm0 0" fill="#00459f"/><path d="m164.503906 393.863281-13.097656 118.136719h41.332031l-16.476562-118.339844c-1.222657-6.621094-10.765625-6.457031-11.757813.203125zm0 0" fill="#ffda2d"/><g fill="#00459f"><path d="m66.558594 398.03125c-1.835938 0-3.679688-.644531-5.164063-1.960938-3.21875-2.851562-3.515625-7.773437-.664062-10.992187 3.0625-3.457031 6.625-6.394531 10.597656-8.738281 4.023437-2.375 8.375-4.089844 12.9375-5.09375 4.207031-.933594 8.359375 1.730468 9.28125 5.933594.925781 4.199218-1.730469 8.355468-5.929687 9.277343-2.953126.652344-5.769532 1.761719-8.367188 3.296875-2.570312 1.515625-4.878906 3.417969-6.859375 5.652344-1.539063 1.738281-3.679687 2.625-5.832031 2.625zm0 0"/><path d="m278.996094 398.011719c-2.152344 0-4.292969-.886719-5.835938-2.621094-1.980468-2.238281-4.285156-4.140625-6.855468-5.65625-2.601563-1.535156-5.417969-2.644531-8.367188-3.292969-4.203125-.925781-6.859375-5.082031-5.933594-9.28125.925782-4.203125 5.082032-6.859375 9.28125-5.933594 4.5625 1.003907 8.917969 2.71875 12.9375 5.09375 3.972656 2.34375 7.539063 5.285157 10.597656 8.738282 2.855469 3.21875 2.554688 8.140625-.664062 10.992187-1.480469 1.316407-3.324219 1.960938-5.160156 1.960938zm0 0"/></g></svg>