<svg height="512pt" viewBox="-122 0 512 512.00028" width="512pt" xmlns="http://www.w3.org/2000/svg"><path d="m51.722656 242.1875c-28.566406 0-51.722656-23.15625-51.722656-51.71875 0-28.566406 23.15625-51.722656 51.722656-51.722656 28.5625 0 51.722656 23.15625 51.722656 51.722656s-23.160156 51.71875-51.722656 51.71875zm0 0" fill="#57555c"/><path d="m242.953125 417.652344h-211.242187v-311.300782c0-58.007812 47.023437-105.03125 105.03125-105.03125h1.179687c58.007813 0 105.03125 47.027344 105.03125 105.03125zm0 0" fill="#c06100"/><path d="m212.019531 417.652344h-149.371093v-220.121094c0-41.015625 33.25-74.265625 74.265624-74.265625h.835938c41.019531 0 74.269531 33.25 74.269531 74.265625zm0 0" fill="#994c00"/><path d="m262.488281 445.8125v58.585938c0 4.191406-3.410156 7.601562-7.601562 7.601562h-234.578125c-4.203125 0-7.609375-3.410156-7.609375-7.601562v-58.585938c0-29.6875 19.515625-55.855469 47.964843-64.328125l11.382813-3.390625 2.109375-.625c6.847656-2.039062 12.492188-6.46875 16.128906-12.226562 2.5-3.953126 4.042969-8.535157 4.386719-13.386719.039063-.660157.058594-1.320313.058594-1.976563v-28.351562l79.058593-12.253906v38.617187c0 7.34375 2.792969 14.191406 7.488282 19.359375 3.449218 3.789062 7.929687 6.683594 13.085937 8.230469l2.566407.757812 17.597656 5.242188c28.453125 8.476562 47.960937 34.644531 47.960937 64.332031zm0 0" fill="#ffdba9"/><path d="m214.527344 381.484375-17.597656-5.242187-2.5625-.761719c-5.160157-1.546875-9.640626-4.4375-13.089844-8.230469-4.695313-5.167969-7.488282-12.015625-7.488282-19.359375v-38.617187l-79.054687 12.253906v10.496094l53.742187-8.332032v38.617188c0 7.34375 2.792969 14.191406 7.488282 19.363281 3.449218 3.789063 7.929687 6.679687 13.085937 8.226563l2.566407.761718 17.597656 5.242188c28.453125 8.472656 47.957031 34.640625 47.957031 64.328125v51.769531h17.714844c4.191406 0 7.601562-3.410156 7.601562-7.601562v-58.585938c0-29.6875-19.507812-55.855469-47.960937-64.328125zm0 0" fill="#ffc473"/><path d="m173.789062 309.273438v30.574218c-13.890624 9.585938-30.726562 15.191406-48.871093 15.191406h-6.972657c-8.066406 0-15.871093-1.101562-23.273437-3.183593.039063-.660157.058594-1.320313.058594-1.976563v-28.351562zm0 0" fill="#ffc473"/><path d="m124.914062 333.921875h-6.972656c-47.625 0-86.230468-38.605469-86.230468-86.230469v-124.425781h133.308593c25.472657 0 46.125 20.648437 46.125 46.125v78.300781c0 47.621094-38.605469 86.230469-86.230469 86.230469zm0 0" fill="#ffdba9"/><path d="m214.335938 230.683594h-3.191407v-57.238282h3.191407c15.804687 0 28.617187 12.8125 28.617187 28.621094 0 15.804688-12.8125 28.617188-28.617187 28.617188zm0 0" fill="#fff"/><path d="m214.335938 238.410156h-3.191407c-4.265625 0-7.722656-3.460937-7.722656-7.726562v-57.238282c0-4.265624 3.457031-7.722656 7.722656-7.722656h3.191407c20.039062 0 36.339843 16.304688 36.339843 36.34375 0 20.039063-16.300781 36.34375-36.339843 36.34375zm4.53125-56.746094v40.800782c9.351562-2.074219 16.363281-10.433594 16.363281-20.398438 0-9.96875-7.011719-18.328125-16.363281-20.402344zm0 0"/><path d="m77.421875 190.46875c0 4.921875-3.992187 8.914062-8.917969 8.914062-4.925781 0-8.914062-3.992187-8.914062-8.914062 0-4.925781 3.988281-8.917969 8.914062-8.917969 4.925782 0 8.917969 3.992188 8.917969 8.917969zm0 0" fill="#57555c"/><path d="m148.761719 190.46875c0 4.921875-3.992188 8.914062-8.914063 8.914062-4.925781 0-8.917968-3.992187-8.917968-8.914062 0-4.925781 3.992187-8.917969 8.917968-8.917969 4.921875 0 8.914063 3.992188 8.914063 8.917969zm0 0" fill="#57555c"/><path d="m102.046875 286.335938c-8.089844 0-14.535156-2.253907-17.65625-3.597657-3.917969-1.6875-5.726563-6.234375-4.042969-10.148437 1.691406-3.921875 6.234375-5.726563 10.148438-4.042969 3.144531 1.355469 11.460937 4.132813 20.800781.707031 7.148437-2.617187 11.40625-7.632812 13.308594-10.390625 2.421875-3.511719 7.230469-4.394531 10.742187-1.972656 3.511719 2.421875 4.394532 7.234375 1.972656 10.742187-2.945312 4.269532-9.546874 12.039063-20.707031 16.125-5.164062 1.894532-10.113281 2.578126-14.566406 2.578126zm0 0" fill="#c06100"/><path d="m179.917969 102.082031v13.117188c0 16.152343-13.097657 29.25-29.25 29.25h-28.851563c-3.175781 0-6.1875-1.429688-8.195312-3.886719l-14.136719-17.296875-13.152344 17.058594c-2.003906 2.601562-5.101562 4.125-8.382812 4.125h-16.988281c-16.152344 0-29.25-13.097657-29.25-29.25v-13.117188" fill="#c06100"/><path d="m134.265625 315.5625c-3.664063 0-6.914063-2.617188-7.589844-6.347656-.761719-4.195313 2.023438-8.214844 6.21875-8.976563 7.414063-1.34375 21.628907-5.460937 33.519531-17.9375 14.90625-15.644531 16.796876-38.714843 16.894532-46.074219.058594-4.265624 3.519531-3.417968 7.769531-3.359374 4.265625.058593 7.675781 3.558593 7.621094 7.828124-.121094 9.179688-2.421875 32.65625-21.105469 52.261719-14.910156 15.648438-32.679688 20.804688-41.945312 22.480469-.460938.085938-.925782.125-1.382813.125zm0 0" fill="#aeadb3"/><path d="m217.042969 144.875c-.445313 3.945312-3.792969 6.859375-7.671875 6.859375-.289063 0-.578125-.011719-.867188-.042969-4.242187-.472656-7.765625-.0625-7.289062-4.292968 2.039062-18.25 3.902344-68.605469-27.1875-102.589844-7.382813-8.082032-22.769532-24.898438-47.710938-28.628906-15.707031-2.347657-28.453125 1.421874-34.664062 3.871093-21.214844 8.394531-38.789063 23.257813-44.796875 31.9375-.054688.078125-.089844.152344-.132813.226563-7.011718 11.625-11.832031 24.722656-13.882812 38.71875-3.644532-2.195313-8.949219-21.367188 2.8125-45.394532 6.230468-12.695312 26.9375-30.605468 50.328125-39.851562 7.640625-3.027344 23.332031-7.664062 42.609375-4.777344 1.050781.152344 2.09375.328125 3.113281.535156 28.535156 5.382813 46.082031 24.570313 53.722656 32.933594 35.363281 38.65625 33.890625 90.148438 31.617188 110.496094zm0 0" fill="#ffda2d"/><path d="m215.984375 247.039062c-28.5625 0-51.722656-23.15625-51.722656-51.722656s23.160156-51.722656 51.722656-51.722656c28.566406 0 51.722656 23.15625 51.722656 51.722656s-23.15625 51.722656-51.722656 51.722656zm0 0" fill="#57555c"/><path d="m123.550781 328.027344h-26.71875c-5.921875 0-10.722656-4.800782-10.722656-10.722656v-9.3125c0-5.921876 4.800781-10.722657 10.722656-10.722657h26.71875c5.921875 0 10.722657 4.800781 10.722657 10.722657v9.3125c0 5.921874-4.800782 10.722656-10.722657 10.722656zm0 0" fill="#57555c"/><path d="m235.109375 195.316406c0 10.5625-8.5625 19.125-19.125 19.125s-19.121094-8.5625-19.121094-19.125 8.558594-19.125 19.121094-19.125 19.125 8.5625 19.125 19.125zm0 0" fill="#ffda2d"/><path d="m262.488281 445.8125v58.585938c0 4.191406-3.410156 7.601562-7.601562 7.601562h-234.578125c-4.203125 0-7.609375-3.410156-7.609375-7.601562v-58.585938c0-29.6875 19.515625-55.855469 47.964843-64.328125l11.382813-3.390625 61.644531 10.414062 63.238282-12.265624 17.597656 5.242187c28.453125 8.472656 47.960937 34.640625 47.960937 64.328125zm0 0" fill="#c1e4ff"/><path d="m214.527344 381.484375-17.597656-5.242187-38.820313 7.527343c3.089844 2.753907 6.789063 4.882813 10.941406 6.128907l2.566407.761718 17.597656 5.238282c28.453125 8.476562 47.957031 34.644531 47.957031 64.332031v51.769531h17.714844c4.191406 0 7.601562-3.410156 7.601562-7.601562v-58.585938c0-29.6875-19.507812-55.855469-47.960937-64.328125zm0 0" fill="#84caff"/><path d="m130.476562 391.292969-18.199218 120.703125h44.621094l-19.953126-120.746094c-.609374-3.683594-5.914062-3.648438-6.46875.042969zm0 0" fill="#84caff"/><g fill="#00a6ff"><path d="m90.285156 365.242188 43.410156 23.265624-22.316406 25.804688c-1.855468 2.144531-5.175781 2.167969-7.0625.050781l-32.269531-36.265625zm0 0"/><path d="m179.339844 364.871094-45.644532 23.636718 22.316407 25.804688c1.855469 2.144531 5.175781 2.167969 7.058593.050781l33.933594-38.132812zm0 0"/></g></svg>