<svg height="512pt" viewBox="-102 0 512 512" width="512pt" xmlns="http://www.w3.org/2000/svg"><path d="m307.71875 378.652344c.273438 4.265625-2.214844 8.21875-6.179688 9.824218-31.421874 12.734376-82.730468 28.765626-147.5 28.792969-64.945312.027344-116.382812-16.046875-147.839843-28.796875-3.957031-1.601562-6.445313-5.550781-6.1796878-9.816406 5.1601568-82.914062 10.3203128-165.832031 15.4804688-248.746094 4.542969-73.015625 65.085938-129.910156 138.242188-129.910156 73.101562 0 133.621093 56.808594 138.234374 129.765625zm0 0" fill="#57555c"/><path d="m255.835938 402.753906c.179687 2.824219-1.46875 5.445313-4.097657 6.511719-20.824219 8.4375-54.832031 19.0625-97.757812 19.082031-43.042969.015625-77.132813-10.636718-97.980469-19.085937-2.625-1.0625-4.273438-3.679688-4.097656-6.503907 3.417968-54.957031 6.839844-109.910156 10.257812-164.863281 3.011719-48.394531 43.136719-86.101562 91.625-86.101562 48.449219 0 88.558594 37.652343 91.617188 86.007812zm0 0" fill="#3c3b41"/><path d="m283.765625 445.410156v58.945313c0 4.214843-3.429687 7.644531-7.636719 7.644531h-236.015625c-4.226562 0-7.65625-3.429688-7.65625-7.644531v-58.945313c0-29.871094 19.625-56.199218 48.265625-64.726562l13.570313-4.039063c6.890625-2.042969 12.570312-6.507812 16.226562-12.300781 1.554688-2.464844 2.746094-5.167969 3.5-8.027344.632813-2.386718.964844-4.882812.964844-7.429687v-25.09375l79.550781-15.761719v38.855469c0 7.386719 2.800782 14.277343 7.535156 19.476562 3.472657 3.816407 7.976563 6.726563 13.160157 8.28125l20.285156 6.039063c28.636719 8.527344 48.25 34.855468 48.25 64.726562zm0 0" fill="#ffdba9"/><path d="m235.515625 380.683594-20.289063-6.039063c-5.179687-1.554687-9.6875-4.46875-13.15625-8.28125-4.734374-5.199219-7.535156-12.089843-7.535156-19.476562v-38.855469l-79.550781 15.757812v12.769532l50.988281-10.101563v38.855469c0 7.386719 2.796875 14.277344 7.53125 19.480469 3.472656 3.8125 7.980469 6.722656 13.160156 8.277343l20.285157 6.039063c28.640625 8.527344 48.253906 34.855469 48.253906 64.726563v48.164062h20.925781c4.207032 0 7.636719-3.429688 7.636719-7.644531v-58.945313c0-29.871094-19.613281-56.199218-48.25-64.726562zm0 0" fill="#ffc473"/><path d="m145.355469 277.1875h-7.015625c-47.914063 0-86.757813-38.84375-86.757813-86.761719v-57.574219c1.421875-8.246093 6.597657-31.820312 27.308594-51.664062 25.308594-24.253906 55.828125-25.703125 63.097656-25.855469 6.191407-.210937 36.605469-.59375 62.222657 22.785157 23.195312 21.175781 27.105468 47.832031 27.902343 54.734374v57.574219c.003907 47.917969-38.839843 86.761719-86.757812 86.761719zm0 0" fill="#efefef"/><path d="m204.210938 78.117188c-25.617188-23.378907-56.03125-22.996094-62.222657-22.785157-2.75.058594-8.828125.300781-16.6875 1.894531 12.097657 2.511719 27.417969 8.191407 41.328125 20.890626 23.199219 21.175781 27.109375 47.832031 27.90625 54.734374v57.574219c0 42.699219-30.855468 78.167969-71.476562 85.390625 4.964844.882813 10.066406 1.371094 15.28125 1.371094h7.015625c47.917969 0 86.761719-38.84375 86.761719-86.761719v-57.574219c-.800782-6.902343-4.710938-33.558593-27.90625-54.734374zm0 0" fill="#e1e1e3"/><path d="m194.535156 308.03125v36.460938c-13.976562 9.636718-30.925781 15.28125-49.183594 15.28125h-7.015624c-8.441407 0-16.597657-1.199219-24.316407-3.460938.632813-2.382812.964844-4.878906.964844-7.429688v-25.09375zm0 0" fill="#ffc473"/><path d="m145.355469 332.832031h-7.015625c-47.914063 0-86.757813-38.84375-86.757813-86.757812v-57.574219c0-49.855469 40.414063-90.265625 90.265625-90.265625 49.855469 0 90.265625 40.414063 90.265625 90.265625v57.574219c0 47.914062-38.839843 86.757812-86.757812 86.757812zm0 0" fill="#ffdba9"/><path d="m235.324219 228.960938h-3.210938v-57.589844h3.210938c15.902343 0 28.796875 12.894531 28.796875 28.796875 0 15.902343-12.890625 28.792969-28.796875 28.792969zm0 0" fill="#ffc473"/><path d="m97.574219 188.5c0 4.953125-4.019531 8.96875-8.972657 8.96875-4.957031 0-8.972656-4.015625-8.972656-8.96875 0-4.957031 4.015625-8.972656 8.972656-8.972656 4.953126 0 8.972657 4.015625 8.972657 8.972656zm0 0" fill="#57555c"/><path d="m169.351562 188.5c0 4.953125-4.015624 8.96875-8.972656 8.96875-4.953125 0-8.96875-4.015625-8.96875-8.96875 0-4.957031 4.015625-8.972656 8.96875-8.972656 4.957032 0 8.972656 4.015625 8.972656 8.972656zm0 0" fill="#57555c"/><path d="m122.351562 284.953125c-8.140624 0-14.625-2.265625-17.765624-3.621094-3.945313-1.695312-5.765626-6.269531-4.066407-10.207031 1.695313-3.945312 6.269531-5.761719 10.210938-4.066406 3.160156 1.363281 11.527343 4.15625 20.925781.710937 7.191406-2.636719 11.476562-7.679687 13.390625-10.457031 2.433594-3.53125 7.273437-4.417969 10.808594-1.984375 3.53125 2.4375 4.417969 7.277344 1.980469 10.808594-2.960938 4.296875-9.605469 12.113281-20.832032 16.226562-5.195312 1.902344-10.175781 2.589844-14.652344 2.589844zm0 0" fill="#c06100"/><path d="m256.328125 391.074219c-29.859375 34.363281-73.652344 53.019531-117.871094 48.777343-40.53125-3.890624-69.117187-25.832031-85.578125-42.828124-12.75 12.417968-20.421875 29.710937-20.421875 48.386718v58.945313c0 4.214843 3.425781 7.640625 7.652344 7.640625h236.015625c4.214844 0 7.644531-3.425782 7.644531-7.640625v-58.945313c0-21.890625-10.542969-41.863281-27.441406-54.335937zm0 0" fill="#57555c"/><path d="m257.414062 391.875c-.363281-.269531-.722656-.535156-1.082031-.800781-7.242187 8.332031-15.304687 15.730469-23.992187 22.113281 14.203125 12.535156 22.863281 30.808594 22.863281 50.648438v48.164062h20.925781c1.84375 0 3.535156-.65625 4.855469-1.746094 1.699219-1.40625 2.785156-3.527344 2.785156-5.898437v-58.945313c0-21.421875-10.089843-41.015625-26.355469-53.535156zm0 0" fill="#3c3b41"/><path d="m184.980469 443.03125h-14.402344v-12.183594c0-1.328125-1.078125-2.40625-2.410156-2.40625h-20.113281c-1.328126 0-2.40625 1.078125-2.40625 2.40625v12.183594h-14.40625c-1.328126 0-2.40625 1.078125-2.40625 2.40625v20.117188c0 1.328124 1.078124 2.40625 2.40625 2.40625h14.40625v41.628906c0 1.332031 1.078124 2.40625 2.40625 2.40625h20.113281c1.332031 0 2.410156-1.074219 2.410156-2.40625v-41.628906h14.402344c1.332031 0 2.410156-1.078126 2.410156-2.40625v-20.117188c0-1.328125-1.078125-2.40625-2.410156-2.40625zm0 0" fill="#c06100"/><path d="m157.578125 436.210938c-1.28125 0-2.5625-.035157-3.84375-.105469-31.539063-1.746094-59.066406-24.941407-66.9375-56.40625-1.042969-4.164063 1.488281-8.382813 5.652344-9.425781 4.164062-1.042969 8.382812 1.488281 9.425781 5.652343 6.234375 24.925781 27.914062 43.289063 52.71875 44.664063 27.460938 1.511718 53.007812-18.175782 59.472656-45.808594.976563-4.179688 5.15625-6.78125 9.335938-5.796875 4.179687.976563 6.773437 5.15625 5.796875 9.335937-3.992188 17.054688-13.835938 32.28125-27.71875 42.871094-12.796875 9.757813-28.253907 15.019532-43.902344 15.019532zm0 0" fill="#fff"/></svg>