<svg height="512pt" viewBox="-125 0 512 512" width="512pt" xmlns="http://www.w3.org/2000/svg"><path d="m262.320312 130.640625-.085937 310.808594h-242.265625l.085938-310.808594c0-4.085937.171874-8.117187.527343-12.109375 1.058594-12.636719 3.808594-24.753906 7.980469-36.085938 17.78125-48.296874 61.503906-82.445312 112.625-82.445312 33.445312 0 63.734375 14.621094 85.644531 38.257812 21.933594 23.644532 35.488281 56.304688 35.488281 92.382813zm0 0" fill="#57555c"/><path d="m209.515625 230.5625-.066406 210.886719h-189.480469l.066406-210.886719c0-2.773438.136719-5.507812.414063-8.214844.828125-8.574218 2.976562-16.796875 6.242187-24.488281 13.90625-32.769531 48.101563-55.9375 88.085938-55.9375 26.160156 0 49.847656 9.917969 66.984375 25.957031 17.152343 16.042969 27.753906 38.203125 27.753906 62.683594zm0 0" fill="#3c3b41"/><path d="m213.277344 27.390625c-.125-3.570313-4.597656-5.054687-6.863282-2.292969-4.734374 5.773438-10.324218 11.914063-16.875 18.113282-10.394531 9.828124-20.546874 17.273437-29.25 22.828124l38.066407 40.933594c5.03125-11.726562 10.550781-27.925781 13.292969-47.78125 1.625-11.78125 1.953124-22.511718 1.628906-31.800781zm0 0" fill="#ff4f18"/><path d="m213.277344 27.390625c-.125-3.570313-4.597656-5.054687-6.863282-2.292969-2.46875 3.011719-5.175781 6.121094-8.125 9.289063-.019531 7.550781-.503906 15.875-1.738281 24.804687-1.9375 14.042969-5.269531 26.246094-8.832031 36.34375l10.636719 11.4375c5.03125-11.726562 10.550781-27.925781 13.292969-47.78125 1.625-11.78125 1.953124-22.511718 1.628906-31.800781zm0 0" fill="#ca1c01"/><path d="m12.398438 26.652344c-2.03125-2.476563-6.039063-1.144532-6.152344 2.054687-.289063 8.324219.003906 17.945313 1.460937 28.503907 2.457031 17.796874 8.015625 32.222656 16.039063 44.121093l34.863281-34.417969c-13.035156-6.273437-21.765625-15.21875-31.082031-24.03125-5.875-5.550781-10.886719-11.058593-15.128906-16.230468zm0 0" fill="#ff4f18"/><path d="m27.523438 42.882812c-5.871094-5.554687-10.882813-11.058593-15.128907-16.234374-2.035156-2.480469-6.035156-1.140626-6.148437 2.0625-.203125 5.839843-.109375 12.328124.460937 19.316406 4.238281 4 8.550781 7.914062 13.40625 11.476562 5.941407 4.355469 6.660157 12.941406 1.417969 18.117188l-6.792969 6.703125c2.503907 6.195312 5.519531 11.839843 9.003907 17.007812l34.863281-34.417969c-13.03125-6.273437-21.761719-15.21875-31.082031-24.03125zm0 0" fill="#ca1c01"/><path d="m224.4375 164.972656c0 4.824219-4.230469 8.667969-9.183594 8.015625-4.050781-.535156-6.980468-4.171875-6.988281-8.257812-.054687-25.601563-8.429687-49.058594-24.230469-67.882813-13.011718-15.484375-30.964844-27.546875-49.273437-33.101562-21.675781-6.566406-43.421875-4.171875-64.664063 7.105468-18.558594 9.855469-35.863281 26.429688-48.738281 46.65625-.238281.367188-.496094.710938-.777344 1.023438.011719-.125.023438-.25.035157-.378906 2.089843-24.21875 15.726562-46.121094 36.59375-58.59375 1.753906-1.050782 3.523437-2.046875 5.304687-2.992188 24.789063-13.164062 51.390625-16.035156 76.933594-8.292968 21.230469 6.4375 42 20.347656 56.964843 38.183593 18.332032 21.820313 28.023438 48.972657 28.023438 78.515625zm0 0" fill="#ffda2d"/><path d="m262.320312 442.496094v61.523437c0 4.398438-3.582031 7.980469-7.980468 7.980469h-246.351563c-4.410156 0-7.988281-3.582031-7.988281-7.980469v-61.523437c0-31.183594 20.496094-58.660156 50.375-67.554688l14.167969-4.226562c7.195312-2.132813 13.125-6.792969 16.941406-12.828125 2.769531-4.402344 4.429687-9.535157 4.648437-14.957031.007813-.398438.019532-.789063.019532-1.1875v-22.632813l83.027344-20.011719v40.550782c0 7.722656 2.921874 14.914062 7.859374 20.335937 3.621094 3.980469 8.324219 7.019531 13.738282 8.636719l2.824218.839844 18.351563 5.480468c29.890625 8.894532 50.367187 36.371094 50.367187 67.554688zm0 0" fill="#ffdba9"/><g fill="#ffc473"><path d="m211.953125 374.941406-18.351563-5.476562-2.824218-.839844c-5.414063-1.617188-10.117188-4.660156-13.738282-8.636719-4.9375-5.425781-7.859374-12.617187-7.859374-20.335937v-40.554688l-83.027344 20.015625v5.515625l53.214844-12.828125v40.550781c0 7.722657 2.921874 14.914063 7.859374 20.335938 3.625 3.980469 8.324219 7.023438 13.738282 8.636719l2.824218.84375 18.351563 5.476562c29.890625 8.894531 50.367187 36.371094 50.367187 67.550781v56.804688h21.832032c4.398437 0 7.976562-3.582031 7.976562-7.980469v-61.523437c.003906-31.183594-20.472656-58.660156-50.363281-67.554688zm0 0"/><path d="m208.402344 217.292969h-1.375v-61.558594h1.375c17 0 30.78125 13.78125 30.78125 30.78125s-13.78125 30.777344-30.78125 30.777344zm0 0"/><path d="m169.179688 299.097656v31.28125c-14.523438 9.984375-32.113282 15.816406-51.066407 15.816406h-7.859375c-8.359375 0-16.445312-1.132812-24.121094-3.265624.007813-.398438.019532-.789063.019532-1.1875v-22.632813zm0 0"/></g><path d="m19.96875 136.039062v98.660157c0 49.863281 40.421875 90.289062 90.289062 90.289062h7.855469c49.867188 0 90.289063-40.429687 90.289063-90.292969 0-29.359374 0-54.535156 0-54.535156v-24.425781l-37.058594-13.308594c-18.996094-4.015625-34.964844-16.800781-43.042969-34.457031l-6.242187-13.640625-8.304688 9.964844c-19.789062 23.753906-50.078125 36.136719-80.839844 33.046875zm0 0" fill="#ffdba9"/><path d="m67.972656 174.335938c0 5.171874-4.195312 9.363281-9.363281 9.363281-5.171875 0-9.367187-4.191407-9.367187-9.363281 0-5.171876 4.195312-9.363282 9.367187-9.363282 5.167969 0 9.363281 4.191406 9.363281 9.363282zm0 0" fill="#57555c"/><path d="m142.890625 174.335938c0 5.171874-4.191406 9.363281-9.363281 9.363281s-9.363282-4.191407-9.363282-9.363281c0-5.171876 4.191407-9.363282 9.363282-9.363282s9.363281 4.191406 9.363281 9.363282zm0 0" fill="#57555c"/><path d="m93.832031 274.992188c-8.492187 0-15.257812-2.371094-18.535156-3.78125-4.101563-1.765626-5.996094-6.523438-4.226563-10.625 1.765626-4.105469 6.527344-5.996094 10.625-4.226563 3.300782 1.421875 12.039063 4.339844 21.863282.742187 7.507812-2.75 11.984375-8.027343 13.984375-10.925781 2.535156-3.671875 7.574219-4.597656 11.25-2.0625 3.675781 2.539063 4.601562 7.574219 2.0625 11.25-3.089844 4.480469-10.023438 12.632813-21.730469 16.925781-5.421875 1.984376-10.621094 2.703126-15.292969 2.703126zm0 0" fill="#c06100"/><path d="m262.320312 442.496094v61.523437c0 4.398438-3.582031 7.980469-7.980468 7.980469h-246.351563c-4.410156 0-7.988281-3.582031-7.988281-7.980469v-61.523437c0-31.183594 20.496094-58.660156 50.375-67.554688l14.167969-4.226562 56.015625 9.964844 7.957031 1.410156 7.9375-1.542969 57.148437-11.082031 18.351563 5.476562c29.890625 8.894532 50.367187 36.371094 50.367187 67.554688zm0 0" fill="#ff738e"/><path d="m211.953125 374.941406-18.351563-5.476562-40.902343 7.933594c2.5 1.683593 5.269531 3.03125 8.265625 3.925781l2.824218.839843 18.351563 5.480469c29.890625 8.894531 50.363281 36.367188 50.363281 67.550781v56.800782h21.832032c4.402343 0 7.980468-3.578125 7.980468-7.976563v-61.527343c.003906-31.179688-20.472656-58.65625-50.363281-67.550782zm0 0" fill="#ff3d62"/><path d="m136.605469 382.089844v129.910156h-16.175781v-129.910156c0-.484375.042968-.949219.128906-1.410156l7.957031 1.410156 7.9375-1.542969c.097656.5.152344 1.015625.152344 1.542969zm0 0" fill="#ffa7b8"/><path d="m81.769531 357.878906 46.746094 24.210938-21.539063 24.910156c-2.652343 3.0625-7.390624 3.097656-10.082031.070312l-32.347656-36.351562zm0 0" fill="#ff0535"/><path d="m175.265625 357.878906-46.75 24.210938 21.542969 24.910156c2.648437 3.0625 7.386718 3.097656 10.078125.070312l33.464843-37.605468zm0 0" fill="#ff0535"/><path d="m56.835938 480.589844v31.410156h-16.175782v-31.410156c0-4.464844 3.621094-8.085938 8.085938-8.085938s8.089844 3.621094 8.089844 8.085938zm0 0" fill="#ffa7b8"/><path d="m225.691406 480.589844v31.410156h-16.175781v-31.410156c0-4.464844 3.621094-8.085938 8.085937-8.085938 4.476563 0 8.089844 3.621094 8.089844 8.085938zm0 0" fill="#ffa7b8"/></svg>