<svg height="512pt" viewBox="-105 0 512 512.00103" width="512pt" xmlns="http://www.w3.org/2000/svg"><path d="m63.660156 154.480469c-7.140625 5.195312-16.175781 13.535156-20.992187 26.054687-5.992188 15.574219.039062 23.359375-2.542969 41.988282-3.359375 24.203124-15.179688 22.9375-22.90625 50.265624-7.8125 27.628907 3.554688 31.449219-5.601562 55.902344-2.460938 6.570313-5.851563 13.152344-9.375 19.132813-6.308594 10.699219 1.453124 24.195312 13.875 24.195312h269.066406c11.113281 0 18.84375-10.984375 15.140625-21.464843-1.5-4.253907-2.820313-8.910157-3.796875-13.953126-5.332032-27.542968 5.894531-34.238281-.636719-54.90625-7.269531-23.003906-24.542969-25.363281-27.359375-49.628906-1.171875-10.113281 1.539062-12.222656 1.273438-21.84375-.375-13.613281-8.40625-32.734375-34.488282-55.746094zm0 0" fill="#715539"/><path d="m284.480469 448.625v56.101562c0 4.011719-3.261719 7.273438-7.273438 7.273438h-224.628906c-4.023437 0-7.285156-3.261719-7.285156-7.273438v-56.101562c0-27.847656 17.921875-52.449219 44.261719-61.078125.550781-.183594 1.105468-.359375 1.671874-.523437l12.917969-3.847657c6.554688-1.949219 11.960938-6.195312 15.4375-11.707031 1.34375-2.113281 2.390625-4.429688 3.121094-6.875.75-2.492188 1.136719-5.128906 1.136719-7.835938v-25.527343l75.707031-13.359375v36.976562c0 3.40625.625 6.699219 1.785156 9.746094 0 .011719.011719.019531.011719.03125 1.230469 3.242188 3.058594 6.21875 5.375 8.761719 3.304688 3.632812 7.59375 6.402343 12.527344 7.878906l16.5625 4.9375 2.746094.820313c.074218.019531.144531.039062.21875.0625 27.136718 8.1875 45.707031 33.179687 45.707031 61.539062zm0 0" fill="#ffdba9"/><path d="m238.773438 387.085938c-.070313-.019532-.144532-.042969-.214844-.0625l-2.75-.820313-16.558594-4.933594c-4.933594-1.480469-9.222656-4.25-12.527344-7.882812-2.320312-2.542969-4.144531-5.519531-5.378906-8.761719 0-.007812-.007812-.019531-.007812-.03125-1.160157-3.046875-1.785157-6.339844-1.785157-9.746094v-36.976562l-75.707031 13.359375v3.375l50.871094-8.976563v36.976563c0 3.40625.625 6.699219 1.785156 9.746093 0 .011719.011719.023438.011719.03125 1.230469 3.242188 3.054687 6.21875 5.375 8.761719 3.304687 3.632813 7.59375 6.402344 12.527343 7.882813l16.558594 4.933594 2.75.820312c.074219.019531.144532.042969.214844.0625 27.140625 8.1875 45.710938 33.179688 45.710938 61.539062v55.617188h17.558593c4.011719 0 7.277344-3.261719 7.277344-7.273438v-56.101562c-.003906-28.359375-18.574219-53.351562-45.710937-61.539062zm0 0" fill="#ffc473"/><path d="m199.550781 317.875v21.308594c-14.109375 10.167968-31.425781 16.148437-50.152343 16.148437-8.894532 0-17.480469-1.355469-25.558594-3.859375v-20.242187zm0 0" fill="#ffc473"/><path d="m149.402344 341.476562c-47.445313 0-85.910156-38.464843-85.910156-85.910156v-165.316406h171.824218v165.316406c0 47.445313-38.464844 85.910156-85.914062 85.910156zm0 0" fill="#ffdba9"/><path d="m242.476562 244.5h-7.160156v-58.574219h7.160156c16.171876 0 29.285157 13.113281 29.285157 29.285157 0 16.175781-13.109375 29.289062-29.285157 29.289062zm0 0" fill="#ffc473"/><path d="m107.265625 204.105469c0 4.71875-3.824219 8.539062-8.539063 8.539062-4.714843 0-8.539062-3.820312-8.539062-8.539062 0-4.714844 3.824219-8.535157 8.539062-8.535157 4.714844 0 8.539063 3.820313 8.539063 8.535157zm0 0" fill="#57555c"/><path d="m175.578125 204.105469c0 4.71875-3.820313 8.539062-8.535156 8.539062-4.71875 0-8.539063-3.820312-8.539063-8.539062 0-4.714844 3.820313-8.535157 8.539063-8.535157 4.714843 0 8.535156 3.820313 8.535156 8.535157zm0 0" fill="#57555c"/><path d="m160.355469 397.632812-28.738281 13.882813-36.617188-13.882813-5.445312-10.085937c.550781-.183594 1.105468-.359375 1.671874-.523437l12.917969-3.847657c6.554688-1.949219 11.960938-6.195312 15.4375-11.707031 1.34375-2.113281 2.390625-4.429688 3.121094-6.875h.367187c2.167969-.066406 18.578126-.3125 29.382813 12.726562 6.625 7.996094 7.679687 16.8125 7.902344 20.3125zm0 0" fill="#ff52a1"/><path d="m238.773438 387.085938-9.273438 10.546874-36.609375 13.882813-28.746094-13.882813c.226563-3.5 1.28125-12.3125 7.910157-20.316406 10.640624-12.84375 26.726562-12.792968 29.28125-12.722656 0 .011719.011718.023438.011718.03125 1.230469 3.242188 3.054688 6.21875 5.375 8.761719 3.304688 3.632812 7.59375 6.402343 12.527344 7.882812l16.558594 4.933594 2.75.820313c.070312.019531.144531.042968.214844.0625zm0 0" fill="#ff52a1"/><path d="m130.847656 296.207031c-7.800781 0-14.019531-2.171875-17.03125-3.46875-3.902344-1.683593-5.703125-6.207031-4.023437-10.113281 1.683593-3.902344 6.210937-5.699219 10.113281-4.023438 2.976562 1.28125 10.851562 3.914063 19.695312.671876 6.769532-2.480469 10.800782-7.230469 12.597657-9.839844 2.414062-3.5 7.207031-4.378906 10.703125-1.964844 3.5 2.410156 4.378906 7.203125 1.96875 10.703125-2.839844 4.113281-9.207032 11.605469-19.972656 15.550781-4.984376 1.828125-9.757813 2.484375-14.050782 2.484375zm0 0" fill="#c06100"/><path d="m284.480469 448.625v27.363281h-45.265625v36.011719h-147.238282v-36.011719h-46.683593v-27.363281c0-28.429688 18.683593-53.484375 45.933593-61.601562l12.917969-3.847657c9.015625 4.996094 29.804688 14.9375 57.949219 14.4375 27.976562-.503906 48.300781-11.050781 57.15625-16.34375l19.308594 5.753907c27.25 8.117187 45.921875 33.171874 45.921875 61.601562zm0 0" fill="#f7f7f7"/><path d="m236.773438 185.925781h-13.804688c-6.976562 0-12.632812-5.652343-12.632812-12.625v-1.847656c0-3.585937-1.414063-7.027344-3.933594-9.578125l-14.609375-14.796875c-2.519531-2.550781-3.929688-5.992187-3.929688-9.578125v-14.472656h47.453125zm0 0" fill="#715539"/><path d="m253.523438 23.867188c-.457032-13.40625-11.832032-23.867188-25.246094-23.867188h-158.382813c-13.527343 0-24.964843 10.628906-25.277343 24.152344-.210938 9.257812 4.667968 17.390625 12.035156 21.804687 4.25 2.546875 6.839844 7.144531 6.839844 12.097657v96.421874h171.824218v-96.824218c0-4.8125 2.414063-9.355469 6.507813-11.894532 7.257812-4.5 12.015625-12.652343 11.699219-21.890624zm0 0" fill="#efefef"/><path d="m253.523438 23.867188c-.457032-13.40625-11.832032-23.867188-25.246094-23.867188h-32.214844c13.414062 0 24.792969 10.460938 25.25 23.867188.3125 9.242187-4.441406 17.390624-11.699219 21.890624-4.09375 2.539063-6.511719 7.082032-6.511719 11.894532v96.824218h32.214844v-96.824218c0-4.8125 2.414063-9.355469 6.507813-11.894532 7.257812-4.5 12.015625-12.652343 11.699219-21.890624zm0 0" fill="#e1e1e3"/><path d="m63.492188 114.335938h171.824218v40.136718h-171.824218zm0 0" fill="#e1e1e3"/><path d="m203.089844 114.335938h32.210937v40.136718h-32.210937zm0 0" fill="#c8c6cd"/><g fill="#fff"><path d="m214.375 139.136719v15.335937h-15.390625v-15.335937c0-4.25 3.449219-7.695313 7.695313-7.695313 4.246093 0 7.695312 3.445313 7.695312 7.695313zm0 0"/><path d="m185.738281 139.136719v15.335937h-15.386719v-15.335937c0-4.25 3.4375-7.695313 7.691407-7.695313 4.25 0 7.695312 3.445313 7.695312 7.695313zm0 0"/><path d="m157.09375 139.136719v15.335937h-15.390625v-15.335937c0-4.25 3.449219-7.695313 7.695313-7.695313 4.257812 0 7.695312 3.445313 7.695312 7.695313zm0 0"/><path d="m128.460938 139.136719v15.335937h-15.390626v-15.335937c0-4.25 3.445313-7.695313 7.695313-7.695313 4.246094 0 7.695313 3.445313 7.695313 7.695313zm0 0"/><path d="m99.824219 139.136719v15.335937h-15.390625v-15.335937c0-4.25 3.449218-7.695313 7.695312-7.695313s7.695313 3.445313 7.695313 7.695313zm0 0"/></g><path d="m284.480469 448.625v27.363281h-45.265625v36.011719h-116.144532v-73.171875c0-3.59375 2.914063-6.484375 6.507813-6.484375 11.007813-.011719 33.90625-1.316406 52.148437-11.03125 26.902344-14.3125 37.519532-40.042969 37.519532-40.042969l10.90625 3.25 8.40625 2.503907c27.25 8.117187 45.921875 33.171874 45.921875 61.601562zm0 0" fill="#e1e1e3"/><path d="m284.480469 448.625v27.363281h-45.265625v36.011719h-107.59375v-65.417969c0-3.589843 2.914062-6.484375 6.503906-6.484375 11.007812-.007812 33.90625-1.3125 52.148438-11.027344 21.804687-11.59375 35.480468-35.789062 39.882812-44.550781l8.402344 2.503907c27.25 8.117187 45.921875 33.171874 45.921875 61.601562zm0 0" fill="#f7f7f7"/><path d="m157.128906 456.0625c0 4.714844-3.824218 8.539062-8.539062 8.539062s-8.539063-3.824218-8.539063-8.539062 3.824219-8.539062 8.539063-8.539062 8.539062 3.824218 8.539062 8.539062zm0 0" fill="#ff52a1"/><path d="m157.128906 485.566406c0 4.714844-3.824218 8.539063-8.539062 8.539063s-8.539063-3.824219-8.539063-8.539063 3.824219-8.539062 8.539063-8.539062 8.539062 3.824218 8.539062 8.539062zm0 0" fill="#ff52a1"/><path d="m238.773438 387.085938c-.070313-.019532-.144532-.042969-.214844-.0625l-2.75-.820313-16.558594-4.933594c-4.144531 2.476563-10.804688 6.105469-19.589844 9.320313l11.3125 3.371094 2.75.820312c.070313.019531.144532.039062.214844.0625 27.136719 8.183594 45.707031 33.179688 45.707031 61.539062v19.605469h24.835938v-27.363281c0-28.359375-18.570313-53.351562-45.707031-61.539062zm0 0" fill="#e1e1e3"/></svg>