<svg height="512pt" viewBox="-129 0 511 512" width="512pt" xmlns="http://www.w3.org/2000/svg"><path d="m252.628906 504.351562-138.308594-79.957031-47.832031-37.417969c-29.554687-23.121093-46.824219-58.566406-46.8125-96.09375l.042969-165.289062c0-69.363281 52.140625-125.59375 116.457031-125.59375 64.316407 0 116.453125 56.230469 116.453125 125.59375zm0 0" fill="#ff9a01"/><path d="m162.65625 338.804688c-3.121094 25.355468 2.125 42.097656 7.496094 52.722656 9.050781 17.902344 18.855468 19.125 29.792968 41.226562v.007813l-.105468 71.589843-81.839844-47.550781-28.445312-22.246093c-17.570313-13.753907-27.84375-34.828126-27.832032-57.148438l.019532-148.574219c0-41.25 31.015624-24.414062 69.257812-24.414062 17.183594 0 32.921875-3.402344 45.027344-3.402344 14.824218 0 24.226562 5.101563 24.226562 27.8125l-.136718 90.050781zm0 0" fill="#ff8505"/><path d="m252.628906 445.378906v58.96875c0 4.222656-4.121094 7.652344-8.339844 7.652344h-236.128906c-4.230468 0-7.660156-3.429688-7.660156-7.652344v-58.96875c0-29.886718 19.644531-56.226562 48.285156-64.757812l13.578125-4.042969c6.894531-2.042969 12.574219-6.511719 16.234375-12.304687 1.566406-2.46875 2.746094-5.171876 3.515625-8.035157.632813-2.382812.960938-4.882812.960938-7.433593v-26.96875l79.582031-13.902344v38.875c0 7.390625 2.808594 14.28125 7.535156 19.488281 3.484375 3.8125 7.984375 6.726563 13.175782 8.28125l20.296874 6.042969c28.644532 8.53125 48.964844 34.871094 48.964844 64.757812zm0 0" fill="#ffdba9"/><path d="m203.664062 380.621094-20.296874-6.042969c-5.191407-1.554687-9.691407-4.46875-13.175782-8.28125-4.726562-5.207031-7.535156-12.097656-7.535156-19.488281v-38.875l-79.582031 13.902344v11.351562l53.582031-9.359375v38.875c0 7.390625 2.8125 14.28125 7.539062 19.488281 3.480469 3.8125 7.980469 6.726563 13.171876 8.28125l20.300781 6.042969c28.640625 8.53125 48.273437 34.871094 48.273437 64.757813v50.726562h18.347656c4.21875 0 8.339844-3.429688 8.339844-7.652344v-58.96875c0-29.886718-20.320312-56.226562-48.964844-64.757812zm0 0" fill="#ffc473"/><path d="m162.65625 307.933594v36.476562c-13.984375 9.652344-30.929688 15.292969-49.195312 15.292969h-7.019532c-8.449218 0-16.617187-1.203125-24.328125-3.464844.632813-2.382812.964844-4.878906.964844-7.429687v-26.972656zm0 0" fill="#ffc473"/><path d="m200.253906 171.207031v74.738281c0 47.941407-38.851562 86.804688-86.796875 86.804688h-7.015625c-47.945312 0-86.804687-38.863281-86.804687-86.804688v-97.773437l57.976562-44.472656 102 56.144531zm0 0" fill="#ffdba9"/><path d="m203.472656 228.828125h-3.214844v-57.617187h3.214844c15.910156 0 28.808594 12.898437 28.808594 28.808593 0 15.910157-12.898438 28.808594-28.808594 28.808594zm0 0" fill="#ffc473"/><path d="m65.652344 188.34375c0 4.957031-4.019532 8.976562-8.976563 8.976562s-8.972656-4.019531-8.972656-8.976562 4.015625-8.972656 8.972656-8.972656 8.976563 4.015625 8.976563 8.972656zm0 0" fill="#57555c"/><path d="m137.464844 188.34375c0 4.957031-4.015625 8.976562-8.972656 8.976562-4.957032 0-8.976563-4.019531-8.976563-8.976562s4.019531-8.972656 8.976563-8.972656c4.957031 0 8.972656 4.015625 8.972656 8.972656zm0 0" fill="#57555c"/><path d="m90.441406 284.847656c-8.144531 0-14.632812-2.269531-17.773437-3.625-3.945313-1.695312-5.765625-6.269531-4.066407-10.214844 1.695313-3.941406 6.269532-5.761718 10.214844-4.066406 3.164063 1.363282 11.535156 4.160156 20.9375.714844 7.191406-2.636719 11.476563-7.6875 13.394532-10.464844 2.4375-3.53125 7.277343-4.421875 10.816406-1.984375 3.53125 2.441407 4.417968 7.28125 1.980468 10.816407-2.964843 4.296874-9.613281 12.113281-20.839843 16.230468-5.199219 1.90625-10.183594 2.59375-14.664063 2.59375zm0 0" fill="#c06100"/><g fill="#00a6ff"><path d="m73.945312 219.972656h-53.191406c-6.3125 0-11.445312-5.132812-11.445312-11.445312v-37.238282c0-6.308593 5.132812-11.445312 11.445312-11.445312h53.191406c6.3125 0 11.445313 5.136719 11.445313 11.445312v37.238282c0 6.3125-5.132813 11.445312-11.445313 11.445312zm-49.085937-15.550781h44.980469v-29.027344h-44.980469zm0 0"/><path d="m166.351562 219.972656h-56.742187c-6.308594 0-11.441406-5.132812-11.441406-11.445312v-37.238282c0-6.308593 5.132812-11.445312 11.441406-11.445312h56.742187c6.308594 0 11.445313 5.136719 11.445313 11.445312v37.238282c0 6.3125-5.136719 11.445312-11.445313 11.445312zm-52.636718-15.550781h48.53125v-29.027344h-48.53125zm0 0"/><path d="m105.941406 188.472656h-28.328125c-4.292969 0-7.773437-3.480468-7.773437-7.773437s3.480468-7.773438 7.773437-7.773438h28.328125c4.296875 0 7.773438 3.480469 7.773438 7.773438s-3.480469 7.773437-7.773438 7.773437zm0 0"/><path d="m200.253906 171.207031v4.1875h-34.15625c-4.289062 0-7.773437-3.484375-7.773437-7.777343 0-4.289063 3.484375-7.773438 7.773437-7.773438h13.519532zm0 0"/></g><path d="m203.664062 380.625-18.808593-5.605469v136.980469h59.4375c4.214843 0 8.339843-3.429688 8.339843-7.648438v-58.972656c-.003906-29.886718-20.324218-56.222656-48.96875-64.753906zm0 0" fill="#00989e"/><path d="m58.597656 377.703125-9.808594 2.921875c-28.644531 8.53125-48.285156 34.871094-48.285156 64.753906v58.972656c0 4.21875 3.429688 7.644532 7.660156 7.644532h50.433594zm0 0" fill="#00989e"/><path d="m58.597656 430.664062h126.257813v81.335938h-126.257813zm0 0" fill="#9dfdff"/><path d="m58.597656 430.664062h126.257813v16.601563h-126.257813zm0 0" fill="#fff"/><path d="m45.238281 47.140625c6.453125 17.3125 27.003907 65.339844 78.664063 97.347656 29.824218 18.484375 58.550781 24.515625 76.355468 26.722657" fill="#ff9a01"/><path d="m77.613281 103.699219c-4.105469 7.242187-13.472656 21.285156-28.671875 31.59375-11.148437 7.5625-21.835937 11.113281-29.078125 12.878906l-.222656-15.863281zm0 0" fill="#ff9a01"/><path d="m200.121094 318.878906-.175782 113.875c-10.9375-22.101562-20.742187-23.324218-29.792968-41.226562-5.371094-10.625-10.617188-27.367188-7.496094-52.722656zm0 0" fill="#ff8505"/><path d="m252.628906 291.316406v220.683594h-39.832031c.996094-9.351562 1.472656-22.089844-.570313-36.945312-1.085937-7.917969-3.398437-23.851563-11.765624-41.234376-.175782-.363281-.339844-.71875-.515626-1.058593v-.011719l.175782-113.871094zm0 0" fill="#ff9a01"/></svg>