<svg height="512pt" viewBox="-103 0 512 512.00103" width="512pt" xmlns="http://www.w3.org/2000/svg"><path d="m306.886719 221.253906c0 35.175782-28.515625 63.691406-63.695313 63.691406-35.175781 0-63.691406-28.515624-63.691406-63.691406 0-35.175781 28.515625-63.695312 63.691406-63.695312 35.179688 0 63.695313 28.519531 63.695313 63.695312zm0 0" fill="#3c3b41"/><path d="m150.339844 248.097656c-54.015625 15.199219-113.90625-3.277344-130.617188-67.542968 0-23.90625.011719-47.808594.011719-71.703126 0-57.347656 41.113281-104.328124 93.289063-108.542968 2.523437-.203125 5.066406-.308594 7.640624-.308594 6.375.320312 12.570313.96875 18.574219 1.949219 21.703125 3.574219 40.839844 11.609375 56.335938 24.839843 19.773437 16.871094 33.613281 42.203126 39.292969 77.464844 11.261718 69.871094-25.96875 127.367188-84.527344 143.84375zm0 0" fill="#57555c"/><path d="m258.167969 443.59375v60.550781c0 4.332031-3.523438 7.855469-7.855469 7.855469h-242.445312c-4.34375 0-7.867188-3.523438-7.867188-7.855469v-60.550781c0-30.683594 20.167969-57.730469 49.578125-66.488281l13.941406-4.152344c7.078125-2.097656 12.910157-6.683594 16.667969-12.632813 2.4375-3.851562 4-8.28125 4.460938-12.972656.09375-.960937.136718-1.929687.136718-2.90625v-23.257812l81.707032-18.710938v39.914063c0 7.589843 2.886718 14.664062 7.738281 20.007812 3.566406 3.917969 8.195312 6.910157 13.53125 8.503907l20.839843 6.207031c29.40625 8.757812 49.566407 35.804687 49.566407 66.488281zm0 0" fill="#ffc088"/><path d="m208.601562 377.105469-20.839843-6.207031c-5.332031-1.59375-9.960938-4.585938-13.527344-8.503907-4.855469-5.34375-7.738281-12.417969-7.738281-20.007812v-39.914063l-81.710938 18.710938v9.601562l52.367188-11.992187v39.914062c0 7.589844 2.886718 14.667969 7.738281 20.007813 3.566406 3.917968 8.195313 6.910156 13.527344 8.507812l20.84375 6.203125c29.40625 8.761719 49.5625 35.804688 49.5625 66.492188v52.082031h21.488281c4.332031 0 7.855469-3.519531 7.855469-7.851562v-60.550782c0-30.6875-20.160157-57.734375-49.566407-66.492187zm0 0" fill="#f4a37a"/><path d="m139.238281 1.949219c-13.378906 6.691406-36.230469 25.371093-46.148437 48.171875-7.972656 18.335937-7.6875 44.890625-6.910156 53.578125.394531 4.382812-2.839844 8.269531-7.226563 8.664062-.242187.019531-.488281.03125-.734375.03125-4.074219 0-7.566406-3.117187-7.9375-7.269531-1.097656-12.195312-.800781-40.734375 8.171875-61.371094 7.492187-17.230468 21.160156-32.566406 34.570313-43.445312 2.523437-.203125 5.066406-.308594 7.640624-.308594 6.375.320312 12.570313.96875 18.574219 1.949219zm0 0" fill="#3c3b41"/><path d="m166.496094 302.472656v32.484375c-14.359375 9.910157-31.761719 15.699219-50.511719 15.699219h-7.207031c-8.367188 0-16.453125-1.148438-24.128906-3.308594.097656-.960937.140624-1.929687.140624-2.90625v-23.257812zm0 0" fill="#f4a37a"/><path d="m205.101562 162.09375c-16.230468-2.175781-41-7.464844-68.027343-21.621094-24.566407-12.867187-42.152344-28.429687-53.652344-40.539062-2.609375-2.75-7.058594-2.371094-9.1875.761718-4.9375 7.277344-12.75 16.570313-24.496094 24.523438-11.558593 7.820312-22.636719 11.441406-30.085937 13.222656v100.386719c0 49.222656 39.902344 89.125 89.121094 89.125h7.207031c49.21875 0 89.121093-39.902344 89.121093-89.125zm0 0" fill="#ffc088"/><path d="m208.398438 221.253906h-3.296876v-59.160156h3.296876c16.335937 0 29.582031 13.242188 29.582031 29.578125s-13.242188 29.582031-29.582031 29.582031zm0 0" fill="#f4a37a"/><path d="m66.894531 179.6875c0 5.089844-4.125 9.214844-9.214843 9.214844-5.089844 0-9.214844-4.125-9.214844-9.214844s4.125-9.214844 9.214844-9.214844c5.089843 0 9.214843 4.125 9.214843 9.214844zm0 0" fill="#57555c"/><path d="m140.628906 179.6875c0 5.089844-4.125 9.214844-9.214844 9.214844-5.089843 0-9.214843-4.125-9.214843-9.214844s4.125-9.214844 9.214843-9.214844c5.089844 0 9.214844 4.125 9.214844 9.214844zm0 0" fill="#57555c"/><path d="m92.347656 278.769531c-8.363281 0-15.023437-2.332031-18.25-3.71875-4.050781-1.746093-5.917968-6.441406-4.175781-10.488281 1.742187-4.050781 6.4375-5.917969 10.488281-4.175781 3.25 1.398437 11.84375 4.269531 21.5.730469 7.382813-2.707032 11.785156-7.890626 13.75-10.742188 2.503906-3.628906 7.476563-4.539062 11.105469-2.035156s4.539063 7.472656 2.035156 11.101562c-3.042969 4.410156-9.867187 12.441406-21.398437 16.667969-5.335938 1.953125-10.453125 2.660156-15.054688 2.660156zm0 0" fill="#c06100"/><path d="m208.597656 377.109375-14.136718-4.214844v43.78125c0 17.992188-14.585938 32.582031-32.582032 32.582031h-70.492187c-17.992188 0-32.582031-14.589843-32.582031-32.582031v-42.3125l-9.222657 2.746094c-29.410156 8.757813-49.57812475 35.800781-49.57812475 66.488281v60.550782c0 4.328124 3.52343775 7.847656 7.86328175 7.847656h242.445312c4.328125 0 7.851562-3.519532 7.851562-7.847656v-60.550782c0-30.6875-20.152343-57.726562-49.566406-66.488281zm0 0" fill="#ef5361"/><path d="m208.597656 377.109375-14.136718-4.214844v27.125c20.929687 12.230469 34.363281 34.847657 34.363281 59.894531v52.082032h21.488281c4.328125 0 7.851562-3.519532 7.851562-7.847656v-60.550782c0-30.6875-20.15625-57.726562-49.566406-66.488281zm0 0" fill="#dc4250"/><path d="m101.378906 426.90625c-16.515625-17.675781-31.160156-35.171875-44.152344-52.070312l-7.644531 2.273437c-29.410156 8.761719-49.57812475 35.804687-49.57812475 66.488281v60.550782c0 4.328124 3.52343775 7.851562 7.86328175 7.851562h188.695312c-30.230469-22.511719-62.867188-50.507812-95.183594-85.09375zm0 0" fill="#ffda2d"/><path d="m66.457031 435.476562c28.335938 30.328126 56.917969 55.585938 83.90625 76.523438h46.199219c-30.234375-22.511719-62.867188-50.507812-95.183594-85.09375-16.515625-17.675781-31.160156-35.167969-44.152344-52.070312l-7.644531 2.277343c-8.515625 2.535157-16.25 6.613281-22.953125 11.859375 11.898438 15.164063 25.117188 30.761719 39.828125 46.503906zm0 0" fill="#ff9a01"/></svg>