<svg height="512pt" viewBox="-65 0 512 512" width="512pt" xmlns="http://www.w3.org/2000/svg"><path d="m308.347656 322.289062c-8.019531 3.160157-17.238281 6.417969-27.566406 9.425782-23.363281 6.804687-52.351562 12.339844-85.738281 12.59375-36.914063.277344-68.675781-5.964844-93.601563-13.488282-10.605468-3.203124-19.964844-6.632812-27.964844-9.894531-7.480468-3.058593-12.328124-10.449219-12.070312-18.542969 2.894531-91.761718 41.535156-152.875 41.535156-218.945312l99.820313-4.628906 41.597656-1.929688 22.460937-1.039062c11.488282 26.085937 43.21875 175.234375 53.492188 224.316406 1.953125 9.320312-3.117188 18.640625-11.964844 22.132812zm0 0" fill="#c06100"/><path d="m280.785156 331.710938c-23.363281 6.808593-52.355468 12.339843-85.738281 12.597656-36.917969.277344-68.679687-5.964844-93.605469-13.488282-.769531-2.773437-1.160156-5.820312-1.097656-8.972656 2.023438-99.648437 29.054688-166.015625 29.054688-237.761718l73.367187-5.277344 41.308594-2.964844c.09375.328125.183593.675781.285156 1.035156 8.265625 31.023438 30.039063 189.875 37.144531 242.554688.574219 4.25.273438 8.5-.71875 12.277344zm0 0" fill="#994c00"/><path d="m312.75 448.585938v56.132812c0 4.015625-3.261719 7.28125-7.277344 7.28125h-224.757812c-4.023438 0-7.289063-3.265625-7.289063-7.28125v-56.132812c0-28.445313 18.695313-53.511719 45.960938-61.632813l12.925781-3.851563c6.558594-1.949218 11.96875-6.199218 15.449219-11.710937 1.570312-2.484375 2.75-5.226563 3.460937-8.128906.523438-2.128907.800782-4.335938.800782-6.59375v-23.847657l75.75-15.058593v36.996093c0 7.042969 2.667968 13.605469 7.175781 18.550782 3.304687 3.636718 7.59375 6.40625 12.53125 7.886718l19.320312 5.757813c27.265625 8.121094 45.949219 33.1875 45.949219 61.632813zm0 0" fill="#ffdba9"/><path d="m266.800781 386.953125-19.320312-5.761719c-4.9375-1.476562-9.226563-4.25-12.53125-7.882812-4.507813-4.949219-7.175781-11.507813-7.175781-18.550782v-36.996093l-75.75 15.058593v11.015626l48.546874-9.648438v36.996094c0 7.042968 2.667969 13.601562 7.175782 18.550781 3.304687 3.632813 7.59375 6.40625 12.53125 7.882813l19.320312 5.757812c27.265625 8.121094 45.949219 33.191406 45.949219 61.636719v46.984375h19.925781c4.011719 0 7.277344-3.261719 7.277344-7.277344v-56.132812c0-28.445313-18.683594-53.511719-45.949219-61.632813zm0 0" fill="#ffc473"/><path d="m227.769531 317.761719v33.46875c-14.113281 10.171875-31.441406 16.15625-50.164062 16.15625-9.199219 0-18.070313-1.449219-26.386719-4.125.523438-2.128907.800781-4.335938.800781-6.59375v-23.847657zm0 0" fill="#ffc473"/><path d="m177.601562 341.382812c-47.476562 0-85.960937-38.488281-85.960937-85.960937v-165.40625h171.917969v165.40625c0 47.476563-38.484375 85.960937-85.957032 85.960937zm0 0" fill="#ffdba9"/><path d="m270.722656 244.351562h-7.164062v-58.609374h7.164062c16.183594 0 29.304688 13.121093 29.304688 29.304687s-13.121094 29.304687-29.304688 29.304687zm0 0" fill="#ffc473"/><path d="m135.4375 203.933594c0 4.71875-3.824219 8.542968-8.542969 8.542968s-8.542969-3.824218-8.542969-8.542968 3.824219-8.542969 8.542969-8.542969 8.542969 3.824219 8.542969 8.542969zm0 0" fill="#57555c"/><path d="m203.792969 203.933594c0 4.71875-3.828125 8.542968-8.546875 8.542968-4.714844 0-8.542969-3.824218-8.542969-8.542968s3.828125-8.542969 8.542969-8.542969c4.71875 0 8.546875 3.824219 8.546875 8.542969zm0 0" fill="#57555c"/><path d="m159.03125 296.089844c-7.8125 0-14.027344-2.179688-17.039062-3.476563-3.90625-1.683593-5.707032-6.214843-4.023438-10.117187 1.683594-3.90625 6.214844-5.707032 10.117188-4.023438 2.976562 1.285156 10.855468 3.914063 19.707031.667969 6.769531-2.480469 10.804687-7.230469 12.601562-9.84375 2.417969-3.5 7.210938-4.378906 10.710938-1.96875 3.5 2.414063 4.382812 7.210937 1.96875 10.710937-2.839844 4.117188-9.210938 11.613282-19.984375 15.5625-4.988282 1.828126-9.765625 2.488282-14.058594 2.488282zm0 0" fill="#c06100"/><path d="m381.457031 136.679688c0-20.417969-85.394531-36.96875-190.730469-36.96875-105.335937 0-190.726562 16.550781-190.726562 36.96875 0 20.417968 85.390625 36.96875 190.726562 36.96875 105.335938 0 190.730469-16.550782 190.730469-36.96875zm0 0" fill="#ffb1d7"/><path d="m309.125 118.394531v8.203125c-30.507812 7.011719-69.886719 13.21875-115.898438 13.433594-48.277343.226562-89.421874-6.199219-120.898437-13.433594 0-4.394531 0-5.730468 0-5.730468v-2.472657c0-10.800781 1.449219-21.261719 4.167969-31.199219 13.675781-50.25 59.644531-87.195312 114.226562-87.195312 32.695313 0 62.292969 13.253906 83.726563 34.675781 14.351562 14.351563 25.027343 32.371094 30.507812 52.519531 2.722657 9.9375 4.167969 20.398438 4.167969 31.199219zm0 0" fill="#ffb1d7"/><path d="m304.957031 87.195312c-11.609375 2.578126-24.429687 5.011719-38.339843 7.035157-.132813-2.074219-.453126-4.160157-.964844-6.253907-.0625-.265624-.132813-.53125-.203125-.777343-5.472657-20.152344-16.148438-38.167969-30.5-52.519531-17.03125-17.019532-39.207031-28.867188-63.988281-33.027344 6.425781-1.085938 13.027343-1.652344 19.761718-1.652344 32.695313 0 62.292969 13.253906 83.726563 34.675781 14.351562 14.351563 25.027343 32.367188 30.507812 52.519531zm0 0" fill="#ff90c2"/><path d="m309.125 118.394531v8.203125c-30.507812 7.011719-69.886719 13.21875-115.898438 13.433594-7.535156.03125-14.875-.113281-22.050781-.378906 23.375-.882813 44.820313-3.242188 63.996094-6.332032 19.25-3.101562 32.707031-20.328124 31.445313-39.09375 13.910156-2.019531 26.730468-4.453124 38.339843-7.03125 2.722657 9.9375 4.167969 20.398438 4.167969 31.199219zm0 0" fill="#ff328e"/><g fill="#ff52a1"><path d="m182.207031 139.957031c-.21875-.003906-.429687-.007812-.648437-.011719.21875.003907.433594.007813.648437.011719zm0 0"/><path d="m186.171875 140.007812c-1.328125-.011718-2.648437-.03125-3.964844-.050781 1.316407.023438 2.640625.035157 3.964844.050781zm0 0"/><path d="m193.226562 140.03125c-2.371093.011719-4.71875-.003906-7.054687-.023438 2.339844.019532 4.683594.035157 7.054687.023438zm0 0"/><path d="m235.171875 133.320312c-19.175781 3.089844-40.621094 5.449219-63.996094 6.332032 3.421875.128906 6.882813.226562 10.382813.292968-43.25-.757812-80.324219-6.703124-109.230469-13.347656 0-4.394531 0-5.730468 0-5.730468v-2.472657c0-10.800781 1.449219-21.261719 4.167969-31.195312 30.902344 6.84375 70.546875 12.726562 116.730468 12.5 26.878907-.121094 51.492188-2.289063 73.390626-5.46875 1.261718 18.761719-12.195313 35.988281-31.445313 39.089843zm0 0"/></g><path d="m286.617188 396.84375c-28.433594 32.726562-70.136719 50.492188-112.246094 46.449219-38.597656-3.703125-65.820313-24.597657-81.496094-40.78125-12.140625 11.828125-19.449219 28.292969-19.449219 46.078125v56.132812c0 4.011719 3.265625 7.277344 7.289063 7.277344h224.757812c4.011719 0 7.277344-3.265625 7.277344-7.277344v-56.132812c0-20.84375-10.039062-39.867188-26.132812-51.746094zm0 0" fill="#b0ddff"/><path d="m312.75 448.585938v56.132812c0 4.015625-3.261719 7.28125-7.277344 7.28125h-224.757812c-4.023438 0-7.289063-3.265625-7.289063-7.28125v-56.132812c0-6.054688.855469-11.96875 2.457031-17.59375 20.941407 18.261718 52.015626 37.316406 93.085938 41.257812 50.722656 4.867188 100.984375-14.8125 137.253906-51.851562 4.207032 8.570312 6.527344 18.167968 6.527344 28.1875zm0 0" fill="#b0ddff"/><path d="m306.222656 420.398438c-4.519531-9.28125-11.253906-17.378907-19.609375-23.550782-28.433593 32.71875-70.132812 50.488282-112.242187 46.441406-38.601563-3.695312-65.824219-24.59375-81.488282-40.773437-8.007812 7.789063-13.910156 17.605469-17 28.476563 20.941407 18.261718 52.015626 37.316406 93.085938 41.257812 50.726562 4.867188 100.984375-14.8125 137.253906-51.851562zm0 0" fill="#00a6ff"/><path d="m306.4375 420.796875c-.082031-.132813-.152344-.265625-.214844-.398437-.113281-.238282-.226562-.472657-.316406-.710938.171875.371094.355469.742188.53125 1.109375zm0 0" fill="#ffc473"/><path d="m312.75 448.585938v56.132812c0 4.015625-3.261719 7.28125-7.277344 7.28125h-19.925781v-46.988281c0-8.160157-1.539063-16.035157-4.375-23.3125 8.902344-6.261719 17.300781-13.386719 25.050781-21.300781.058594.132812.132813.265624.214844.402343 0 .007813.007812.007813.007812.019531 4.066407 8.46875 6.304688 17.910157 6.304688 27.765626zm0 0" fill="#84caff"/><path d="m306.222656 420.398438c-7.753906 7.914062-16.148437 15.039062-25.050781 21.300781-3.613281-9.300781-9.351563-17.628907-16.710937-24.300781 8.007812-5.953126 15.449218-12.839844 22.15625-20.550782h.027343c8.140625 6.015625 14.734375 13.859375 19.261719 22.839844.089844.238281.203125.472656.316406.710938zm0 0" fill="#08f"/><path d="m235.699219 99.113281c0 9.824219-7.964844 17.792969-17.792969 17.792969s-17.792969-7.96875-17.792969-17.792969c0-9.828125 7.964844-17.796875 17.792969-17.796875s17.792969 7.96875 17.792969 17.796875zm0 0" fill="#ffd400"/></svg>