<svg height="512pt" viewBox="-110 0 512 512.00067" width="512pt" xmlns="http://www.w3.org/2000/svg"><path d="m292.308594 444.070312v60.132813c0 4.296875-3.503906 7.796875-7.796875 7.796875h-240.753907c-4.304687 0-7.804687-3.5-7.804687-7.796875v-60.132813c0-26.648437 15.316406-50.535156 38.707031-61.925781 3.347656-1.628906 6.859375-3 10.515625-4.089843l12.363281-3.679688 1.480469-.441406c1.433594-.433594 2.824219-.957032 4.140625-1.585938 5.171875-2.421875 9.445313-6.261718 12.414063-10.960937 2.914062-4.613281 4.5625-10.042969 4.5625-15.769531v-24.832032l81.144531-16.839844v39.625c0 7.539063 2.855469 14.574219 7.683594 19.867188 3.535156 3.894531 8.136718 6.859375 13.421875 8.445312l1.070312.320313 3.175781.949219 16.449219 4.902344c3.644531 1.089843 7.15625 2.460937 10.503907 4.078124 23.394531 11.382813 38.722656 35.28125 38.722656 61.9375zm0 0" fill="#ffdba9"/><g fill="#ffc473"><path d="m253.585938 382.132812c-3.347657-1.617187-6.859376-2.988281-10.503907-4.078124l-16.449219-4.902344-3.175781-.949219-1.070312-.320313c-5.285157-1.585937-9.886719-4.550781-13.421875-8.445312-4.828125-5.292969-7.683594-12.328125-7.683594-19.867188v-39.625l-81.144531 16.839844v10.300782l53.851562-11.175782v39.625c0 7.539063 2.851563 14.574219 7.683594 19.867188 3.53125 3.894531 8.136719 6.863281 13.417969 8.445312l1.074218.320313 3.171876.949219 16.449218 4.902343c3.648438 1.09375 7.160156 2.460938 10.507813 4.078125 23.390625 11.382813 38.71875 35.28125 38.71875 61.9375v51.964844h19.496093c4.296876 0 7.796876-3.5 7.796876-7.796875v-60.132813c.003906-26.65625-15.324219-50.554687-38.71875-61.9375zm0 0"/><path d="m201.28125 303.945312v28.519532c-13.699219 9.179687-30.179688 14.535156-47.917969 14.535156h-11.648437c-7.457032 0-14.6875-.949219-21.578125-2.730469v-23.484375zm0 0"/><path d="m249.273438 225.304688h-9.660157v-62.777344h9.660157c16.238281 0 29.402343 13.164062 29.402343 29.402344v3.972656c0 16.238281-13.164062 29.402344-29.402343 29.402344zm0 0"/></g><path d="m239.609375 59.992188v182.992187c0 47.640625-38.617187 86.257813-86.246094 86.257813h-11.648437c-47.636719 0-86.253906-38.617188-86.253906-86.257813v-182.992187zm0 0" fill="#ffdba9"/><path d="m127.644531 280.199219c-8.265625 0-14.851562-2.300781-18.039062-3.679688-3.917969-1.6875-5.726563-6.230469-4.039063-10.148437 1.6875-3.917969 6.234375-5.726563 10.152344-4.039063 3.246094 1.398438 11.835938 4.269531 21.496094.730469 7.386718-2.707031 11.785156-7.894531 13.75-10.742188 2.421875-3.511718 7.230468-4.394531 10.746094-1.972656 3.511718 2.421875 4.394531 7.234375 1.972656 10.746094-3.007813 4.359375-9.753906 12.296875-21.152344 16.472656-5.28125 1.9375-10.339844 2.632813-14.886719 2.632813zm0 0" fill="#c06100"/><path d="m119.761719 116.101562c-43.851563-17.847656-63.285157-34.28125-94.421875-32.574218-2.578125.140625-4.410156-2.464844-3.371094-4.828125l5.628906-12.796875c1.148438-2.613282-1.179687-5.421875-3.960937-4.773438l-19.363281 4.492188c-2.742188.632812-5.089844-2.09375-4-4.6875 5.191406-12.367188 27.46875-37.984375 55.707031-49.742188 39.503906-16.453125 99.425781-17.527344 125.3125 15.691406 11.882812 15.242188 10.109375 40.324219 10.109375 40.324219 0 36.195313-35.945313 62.101563-69.902344 49.570313-.582031-.214844-1.160156-.441406-1.738281-.675782zm0 0" fill="#c06100"/><path d="m292.308594 444.070312v60.132813c0 4.296875-3.503906 7.796875-7.796875 7.796875h-240.753907c-4.304687 0-7.804687-3.5-7.804687-7.796875v-60.132813c0-26.636718 15.304687-50.523437 38.6875-61.914062.011719 0 .011719-.011719.019531-.011719 3.347656-1.628906 6.859375-2.996093 10.515625-4.089843l4.914063-1.460938 7.449218-2.214844 64.003907 11.800782 22.464843-4.5 42.625-8.527344 10.863282 3.234375 5.585937 1.667969c3.417969 1.019531 6.714844 2.285156 9.867188 3.78125.214843.089843.433593.195312.636719.296874 23.394531 11.382813 38.722656 35.28125 38.722656 61.9375zm0 0" fill="#ffb1d7"/><path d="m292.308594 444.070312v60.132813c0 4.296875-3.503906 7.796875-7.796875 7.796875h-19.5v-51.964844c0-26.65625-15.328125-50.554687-38.71875-61.9375-3.347657-1.617187-6.859375-2.984375-10.507813-4.078125l-16.449218-4.902343-3.171876-.949219-1.070312-.320313c-4.195312-1.253906-7.941406-3.398437-11.085938-6.167968l42.625-8.527344 10.867188 3.234375 5.582031 1.667969c3.421875 1.019531 6.714844 2.285156 9.867188 3.78125.214843.089843.433593.195312.640625.296874 23.390625 11.382813 38.71875 35.28125 38.71875 61.9375zm0 0" fill="#ff90c2"/><path d="m176.832031 21.304688v59.160156c0 9.21875 3.664063 18.058594 10.183594 24.578125l11.5 11.5c7.554687 7.558593 11.800781 17.804687 11.800781 28.492187v3.402344c0 7.082031 5.742188 12.820312 12.824219 12.820312h16.472656v-96.707031c0-23.886719-19.363281-43.246093-43.246093-43.246093zm0 0" fill="#994c00"/><path d="m115.105469 362.136719 46.433593 24.046875-22.785156 26.347656c-1.894531 2.191406-5.285156 2.214844-7.210937.054688l-34-38.210938zm0 0" fill="#ff52a1"/><path d="m207.882812 362.183594-46.34375 24 22.785157 26.351562c1.894531 2.191406 5.285156 2.214844 7.210937.050782l35.09375-39.4375zm0 0" fill="#ff52a1"/><path d="m102.507812 173.660156c0 21.378906-17.332031 38.710938-38.710937 38.710938-21.382813 0-38.714844-17.332032-38.714844-38.710938s17.332031-38.710937 38.714844-38.710937c21.378906 0 38.710937 17.332031 38.710937 38.710937zm0 0" fill="#3c3b41"/><path d="m63.796875 220.097656c-25.605469 0-46.4375-20.832031-46.4375-46.4375 0-25.605468 20.832031-46.4375 46.4375-46.4375s46.433594 20.832032 46.433594 46.4375c0 25.605469-20.828125 46.4375-46.433594 46.4375zm0-77.425781c-17.089844 0-30.988281 13.902344-30.988281 30.988281 0 17.085938 13.902344 30.988282 30.988281 30.988282 17.082031 0 30.984375-13.902344 30.984375-30.988282 0-17.085937-13.902344-30.988281-30.984375-30.988281zm0 0" fill="#57555c"/><path d="m205.160156 173.660156c0 21.378906-17.332031 38.710938-38.714844 38.710938-21.378906 0-38.710937-17.332032-38.710937-38.710938s17.332031-38.710937 38.710937-38.710937c21.382813 0 38.714844 17.332031 38.714844 38.710937zm0 0" fill="#3c3b41"/><path d="m166.445312 220.097656c-25.605468 0-46.4375-20.832031-46.4375-46.4375 0-25.605468 20.832032-46.4375 46.4375-46.4375 25.605469 0 46.4375 20.832032 46.4375 46.4375 0 25.605469-20.832031 46.4375-46.4375 46.4375zm0-77.425781c-17.085937 0-30.984374 13.902344-30.984374 30.988281 0 17.085938 13.898437 30.988282 30.984374 30.988282 17.085938 0 30.988282-13.902344 30.988282-30.988282 0-17.085937-13.902344-30.988281-30.988282-30.988281zm0 0" fill="#57555c"/><path d="m128.640625 173.03125c-2.101563 0-4.195313-.851562-5.71875-2.53125-.730469-.800781-3.4375-3.4375-7.675781-3.65625-4.582032-.261719-7.734375 2.5625-8.320313 3.128906-3.070312 2.960938-7.960937 2.867188-10.921875-.207031-2.960937-3.070313-2.867187-7.960937.203125-10.921875 1.957031-1.882812 9.164063-7.96875 19.839844-7.429688 9.863281.511719 16.089844 6.253907 18.3125 8.699219 2.867187 3.160157 2.632813 8.046875-.527344 10.914063-1.476562 1.34375-3.335937 2.003906-5.191406 2.003906zm0 0" fill="#57555c"/><path d="m18.621094 159.992188c3.007812-.070313 6.019531-.140626 9.027344-.210938" fill="#fff"/><path d="m18.617188 167.714844c-4.183594 0-7.621094-3.339844-7.71875-7.542969-.101563-4.265625 3.277343-7.804687 7.542968-7.902344l9.027344-.210937c4.25-.105469 7.804688 3.277344 7.902344 7.542968.097656 4.265626-3.28125 7.804688-7.546875 7.902344l-9.023438.210938c-.0625 0-.125 0-.183593 0zm0 0" fill="#57555c"/><path d="m239.613281 162.527344h-.003906v-7.722656h-.125c-1.511719 0-10.84375-.71875-17.675781-1.246094-12.027344-.925782-17.5-1.328125-19.199219-1.289063-4.265625.09375-7.671875 3.636719-7.570313 7.902344.105469 4.203125 3.511719 7.550781 7.695313 7.550781.0625 0 .09375-.042968.183594-.011718 1.515625 0 10.878906.722656 17.707031 1.246093 11.476562.886719 16.957031 1.296875 18.914062 1.296875h.070313v-7.726562zm0 0" fill="#57555c"/><path d="m90.089844 376.59375v135.40625h-15.449219v-129.847656c.011719 0 .011719-.007813.019531-.007813 3.347656-1.628906 6.859375-3 10.515625-4.089843zm0 0" fill="#fff"/><path d="m252.949219 381.835938v130.164062h-15.453125v-135.613281l5.585937 1.667969c3.417969 1.019531 6.714844 2.285156 9.867188 3.78125zm0 0" fill="#fff"/><path d="m252.949219 381.835938v130.164062h-15.453125v-135.613281l5.585937 1.667969c3.417969 1.019531 6.714844 2.285156 9.867188 3.78125zm0 0" fill="#fff"/><path d="m170.058594 438.554688c0 4.703124-3.8125 8.515624-8.519532 8.515624-4.703124 0-8.515624-3.8125-8.515624-8.515624 0-4.703126 3.8125-8.519532 8.515624-8.519532 4.707032 0 8.519532 3.816406 8.519532 8.519532zm0 0" fill="#ff52a1"/><path d="m170.058594 476.492188c0 4.703124-3.8125 8.515624-8.519532 8.515624-4.703124 0-8.515624-3.8125-8.515624-8.515624 0-4.707032 3.8125-8.519532 8.515624-8.519532 4.707032 0 8.519532 3.8125 8.519532 8.519532zm0 0" fill="#ff52a1"/></svg>