<svg height="512pt" viewBox="-111 0 512 512" width="512pt" xmlns="http://www.w3.org/2000/svg"><path d="m290.375 435.066406v68.105469c0 4.871094-3.96875 8.828125-8.835938 8.828125h-272.691406c-4.890625 0-8.847656-3.957031-8.847656-8.828125v-68.105469c0-31.390625 18.765625-59.394531 47.050781-71.617187 2.8125-1.214844 5.71875-2.273438 8.710938-3.167969l15.679687-4.671875c2.429688-.71875 4.722656-1.703125 6.863282-2.90625 4.878906-2.742187 8.949218-6.65625 11.890624-11.308594 2.542969-4.03125 4.234376-8.609375 4.867188-13.480469.199219-1.429687.292969-2.894531.292969-4.378906v-30.894531l91.90625-16.3125v44.890625c0 8.546875 3.242187 16.511719 8.714843 22.511719 3.796876 4.175781 8.679688 7.425781 14.296876 9.273437.289062.105469.601562.199219.902343.289063l23.449219 6.988281c2.988281.894531 5.886719 1.941406 8.699219 3.167969 28.296875 12.210937 47.050781 40.214843 47.050781 71.617187zm0 0" fill="#ffdba9"/><g fill="#ffc473"><path d="m243.324219 363.449219c-2.8125-1.226563-5.710938-2.277344-8.699219-3.167969l-23.449219-6.988281c-.300781-.09375-.613281-.1875-.902343-.289063-5.617188-1.851562-10.5-5.101562-14.296876-9.273437-5.472656-6.003907-8.714843-13.96875-8.714843-22.511719v-44.890625l-91.90625 16.3125v10.871094l59.542969-10.570313v44.890625c0 8.542969 3.242187 16.507813 8.714843 22.511719 3.796875 4.171875 8.679688 7.421875 14.296875 9.273438.289063.101562.601563.195312.902344.289062l23.449219 6.988281c2.988281.894531 5.886719 1.941407 8.699219 3.167969 28.296874 12.210938 47.050781 40.214844 47.050781 71.617188v60.316406h23.527343c4.867188 0 8.835938-3.953125 8.835938-8.824219v-68.109375c0-31.398438-18.753906-59.402344-47.050781-71.613281zm0 0"/><path d="m187.261719 276.328125v36.933594c-16.945313 12.121093-37.703125 19.242187-60.132813 19.242187h-1.472656c-10.644531 0-20.925781-1.609375-30.59375-4.589844.199219-1.429687.292969-2.894531.292969-4.378906v-30.894531zm0 0"/><path d="m237.027344 187.257812h-6.335938v-71.109374h6.335938c17.769531 0 32.171875 14.402343 32.171875 32.167968v6.773438c0 17.765625-14.402344 32.167968-32.171875 32.167968zm0 0"/></g><path d="m127.136719 304.988281h-1.484375c-57.191406 0-103.554688-46.363281-103.554688-103.554687v-97.136719c0-57.601563 46.695313-104.296875 104.296875-104.296875 57.601563 0 104.296875 46.695312 104.296875 104.296875v97.132813c0 57.195312-46.363281 103.558593-103.554687 103.558593zm0 0" fill="#ffdba9"/><path d="m73.457031 156.648438c0 4.742187-3.84375 8.585937-8.585937 8.585937-4.742188 0-8.585938-3.84375-8.585938-8.585937 0-4.742188 3.84375-8.585938 8.585938-8.585938 4.742187 0 8.585937 3.84375 8.585937 8.585938zm0 0" fill="#57555c"/><path d="m156.394531 156.648438c0 4.742187-3.847656 8.585937-8.589843 8.585937-4.742188 0-8.585938-3.84375-8.585938-8.585937 0-4.742188 3.84375-8.585938 8.585938-8.585938 4.742187 0 8.589843 3.84375 8.589843 8.585938zm0 0" fill="#57555c"/><path d="m243.324219 363.449219v148.550781h-196.273438v-148.550781c2.8125-1.214844 5.722657-2.277344 8.710938-3.167969l15.679687-4.671875c2.429688-.71875 4.726563-1.703125 6.863282-2.910156v42.542969c0 36.449218 29.542968 65.980468 65.980468 65.980468 18.210938 0 34.710938-7.394531 46.664063-19.324218 11.933593-11.941407 19.324219-28.433594 19.324219-46.65625v-42.242188c.292968.105469.605468.199219.90625.292969l23.445312 6.988281c2.988281.894531 5.886719 1.941406 8.699219 3.167969zm0 0" fill="#00a6ff"/><path d="m210.960938 380.0625c13.164062 5.679688 24.257812 14.78125 32.363281 26.050781v-42.664062c-2.8125-1.226563-5.710938-2.277344-8.699219-3.167969l-23.449219-6.988281c-.300781-.09375-.613281-.1875-.902343-.289063v26.773438c.226562.09375.460937.1875.6875.285156zm0 0" fill="#08f"/><path d="m229.265625 116.148438h-205.742187c-5.164063 0-9.351563-4.1875-9.351563-9.351563v-36.277344c0-5.164062 4.1875-9.351562 9.351563-9.351562h205.742187c5.164063 0 9.351563 4.1875 9.351563 9.351562v36.277344c0 5.164063-4.1875 9.351563-9.351563 9.351563zm0 0" fill="#6dd7a7"/><path d="m229.265625 61.167969h-57.109375c5.164062 0 9.351562 4.1875 9.351562 9.351562v36.277344c0 5.164063-4.1875 9.351563-9.351562 9.351563h57.109375c5.164063 0 9.351563-4.183594 9.351563-9.351563v-36.277344c0-5.164062-4.1875-9.351562-9.351563-9.351562zm0 0" fill="#00bb64"/><path d="m14.171875 77.648438h224.445313v22.019531h-224.445313zm0 0" fill="#c7efda"/><path d="m105.21875 250.667969c-8.523438 0-15.3125-2.375-18.601562-3.792969-3.953126-1.699219-5.773438-6.28125-4.074219-10.234375 1.703125-3.949219 6.28125-5.769531 10.234375-4.070313 3.386718 1.457032 12.347656 4.449219 22.421875.757813 7.703125-2.820313 12.292969-8.230469 14.34375-11.203125 2.441406-3.539062 7.292969-4.429688 10.832031-1.984375 3.542969 2.441406 4.429688 7.292969 1.988281 10.832031-3.101562 4.496094-10.058593 12.675782-21.804687 16.980469-5.441406 1.996094-10.652344 2.714844-15.339844 2.714844zm0 0" fill="#c06100"/></svg>