<svg height="512pt" viewBox="-123 0 512 512.0018" width="512pt" xmlns="http://www.w3.org/2000/svg"><path d="m265.316406 441.714844v62.214844c0 4.460937-3.609375 8.070312-8.074218 8.070312h-249.148438c-4.460938 0-8.0820312-3.609375-8.0820312-8.070312v-62.214844c0-28.972656 17.4804692-54.777344 43.7539062-65.753906 2.335937-.988282 4.730469-1.835938 7.199219-2.574219l14.332031-4.273438c2.59375-.78125 5.023437-1.871093 7.25-3.25 4.015625-2.449219 7.390625-5.808593 9.871094-9.730469 2.394531-3.789062 3.972656-8.125 4.511719-12.722656.144531-1.183594.21875-2.386718.21875-3.601562v-29.746094l83.960937-13.375v41.015625c0 7.800781 2.96875 15.074219 7.949219 20.5625 3.671875 4.027344 8.425781 7.097656 13.902344 8.738281l1.089843.320313 20.328125 6.0625c3.496094 1.046875 6.878906 2.332031 10.105469 3.859375 24.632813 11.632812 40.832031 36.585937 40.832031 64.46875zm0 0" fill="#ffdba9"/><g fill="#ffc473"><path d="m224.484375 377.246094c-3.226563-1.523438-6.609375-2.8125-10.105469-3.859375l-20.328125-6.058594-1.085937-.324219c-5.480469-1.636718-10.230469-4.710937-13.90625-8.734375-4.980469-5.488281-7.949219-12.761719-7.949219-20.566406v-41.015625l-83.960937 13.375v11.800781l53.8125-8.574219v41.015626c0 7.804687 2.964843 15.078124 7.945312 20.566406 3.675781 4.027344 8.425781 7.097656 13.90625 8.734375l1.089844.324219 20.324218 6.058593c3.496094 1.046875 6.878907 2.335938 10.109376 3.859375 24.632812 11.632813 40.828124 36.589844 40.828124 64.46875v53.683594h22.078126c4.464843 0 8.074218-3.609375 8.074218-8.070312v-62.214844c0-27.882813-16.199218-52.835938-40.832031-64.46875zm0 0"/><path d="m171.109375 296.6875v33.171875c-15.644531 11.269531-34.863281 17.910156-55.613281 17.910156-9.953125 0-19.550782-1.527343-28.566406-4.359375.144531-1.183594.21875-2.386718.21875-3.601562v-29.746094zm0 0"/><path d="m221.59375 215.304688h-10.808594v-64.96875h10.808594c16.355469 0 29.617188 13.261718 29.617188 29.621093v5.730469c0 16.355469-13.261719 29.617188-29.617188 29.617188zm0 0"/></g><path d="m210.789062 139.511719v88.070312c0 52.628907-42.667968 95.285157-95.292968 95.285157-52.628906 0-95.296875-42.65625-95.296875-95.285157v-88.070312c0-33.339844 17.121093-62.671875 43.050781-79.699219 15.003906-9.867188 32.957031-15.59375 52.246094-15.59375 11.246094 0 22.039062 1.949219 32.050781 5.53125 13.425781 4.78125 25.453125 12.5 35.328125 22.378906 17.246094 17.246094 27.914062 41.066406 27.914062 67.382813zm0 0" fill="#ffdba9"/><path d="m67.585938 170.503906c0 4.582032-3.714844 8.300782-8.300782 8.300782-4.582031 0-8.300781-3.71875-8.300781-8.300782 0-4.585937 3.71875-8.300781 8.300781-8.300781 4.585938 0 8.300782 3.714844 8.300782 8.300781zm0 0" fill="#57555c"/><path d="m143.359375 170.503906c0 4.582032-3.71875 8.300782-8.300781 8.300782-4.585938 0-8.300782-3.71875-8.300782-8.300782 0-4.585937 3.714844-8.300781 8.300782-8.300781 4.582031 0 8.300781 3.714844 8.300781 8.300781zm0 0" fill="#57555c"/><path d="m210.789062 139.511719v10.820312h-16.601562c-7.128906 0-12.917969-5.777343-12.917969-12.917969v-3.421874c0-10.761719-4.273437-21.085938-11.878906-28.703126l-11.59375-11.578124c-6.566406-6.566407-10.25-15.480469-10.25-24.765626v-19.199218c13.425781 4.785156 25.453125 12.503906 35.328125 22.382812 17.246094 17.246094 27.914062 41.066406 27.914062 67.382813zm0 0" fill="#d1b28c"/><path d="m63.25 59.8125v9.128906c0 9.289063-3.683594 18.199219-10.25 24.769532l-11.589844 11.578124c-7.605468 7.617188-11.878906 17.941407-11.878906 28.699219v3.425781c0 5.894532-3.945312 10.855469-9.328125 12.410157v-10.316407c0-33.335937 17.117187-62.667968 43.046875-79.695312zm0 0" fill="#d1b28c"/><path d="m94.910156 271.90625c-8.515625 0-15.300781-2.375-18.589844-3.789062-3.945312-1.699219-5.769531-6.28125-4.066406-10.226563 1.699219-3.945313 6.277344-5.769531 10.222656-4.070313 3.382813 1.460938 12.339844 4.449219 22.40625.761719 7.699219-2.820312 12.285157-8.226562 14.332032-11.195312 2.441406-3.539063 7.289062-4.425781 10.828125-1.988281 3.535156 2.441406 4.425781 7.289062 1.984375 10.828124-3.097656 4.488282-10.046875 12.667969-21.789063 16.96875-5.433593 1.992188-10.644531 2.710938-15.328125 2.710938zm0 0" fill="#c06100"/><path d="m117.460938 3.800781c-43.007813 17.503907-62.070313 33.621094-92.609376 31.949219-2.527343-.140625-4.324218 2.414062-3.304687 4.734375l5.519531 12.546875c1.128906 2.566406-1.15625 5.316406-3.882812 4.683594l-18.992188-4.402344c-2.6875-.625-4.992187 2.050781-3.921875 4.59375 5.09375 12.128906 26.941407 37.253906 54.632813 48.785156 38.746094 16.136719 97.519531 17.191406 122.90625-15.390625 11.652344-14.949219 9.917968-39.546875 9.917968-39.546875 0-35.5-35.257812-60.90625-68.5625-48.617187-.570312.210937-1.136718.433593-1.703124.664062zm0 0" fill="#c06100"/><path d="m187.726562 51.753906c0-28.398437-22.570312-50.316406-48.648437-51.6640622 5.921875 8.3515622 9.484375 18.6015622 9.484375 29.8750002 0 0 1.738281 24.597656-9.914062 39.546875-23.261719 29.851562-74.539063 31.457031-112.769532 19.109375 8.363282 7.035156 18.246094 13.585937 29.023438 18.074218 38.746094 16.132813 97.519531 17.1875 122.90625-15.390624 11.652344-14.953126 9.917968-39.550782 9.917968-39.550782zm0 0" fill="#994c00"/><path d="m265.3125 503.933594v-62.222656c0-27.875-16.191406-52.832032-40.828125-64.460938-3.226563-1.523438-6.605469-2.8125-10.105469-3.859375l-20.328125-6.066406-1.085937-.316407c-3.472656-1.042968-6.652344-2.660156-9.449219-4.730468-4.03125 7.457031-11.503906 16.691406-25.25 23.417968-23.570313 11.53125-26.152344 43.617188-26.425781 51.648438-.035156 1.03125-.886719 1.839844-1.917969 1.839844s-1.878906-.808594-1.914063-1.839844c-.273437-8.03125-2.855468-40.117188-26.425781-51.648438-13.394531-6.554687-20.832031-15.488281-24.933593-22.839843-1.273438 1.109375-2.644532 2.121093-4.097657 3.011719-2.230469 1.375-4.660156 2.472656-7.261719 3.25l-14.324218 4.273437c-2.464844.738281-4.863282 1.589844-7.195313 2.570313-26.277343 10.980468-43.7617185 36.785156-43.7617185 65.75v62.222656c0 4.453125 3.6249995 8.066406 8.0820315 8.066406h249.152344c4.457031 0 8.070312-3.613281 8.070312-8.066406zm0 0" fill="#7985eb"/><path d="m224.484375 377.246094c-3.226563-1.523438-6.609375-2.8125-10.105469-3.859375l-20.328125-6.058594-1.089843-.324219c-3.472657-1.035156-6.648438-2.65625-9.449219-4.722656-3.605469 6.664062-9.972657 14.746094-21.101563 21.191406.132813.039063.265625.09375.402344.132813l1.085938.324219 20.328124 6.058593c3.496094 1.046875 6.878907 2.335938 10.105469 3.859375 24.632813 11.632813 40.832031 36.589844 40.832031 64.46875v53.683594h22.078126c.859374 0 1.683593-.132812 2.460937-.382812 3.253906-1.039063 5.609375-4.085938 5.609375-7.683594v-62.222656c0-.023438 0-.050782 0-.078126-.03125-27.847656-16.21875-52.765624-40.828125-64.386718zm0 0" fill="#4b5be5"/></svg>