<svg height="511pt" viewBox="-106 1 511 511.9987" width="511pt" xmlns="http://www.w3.org/2000/svg"><path d="m299.589844 447.046875v57.496094c0 4.105469-3.347656 7.453125-7.457032 7.453125h-230.21875c-4.121093 0-7.457031-3.347656-7.457031-7.453125v-57.496094c0-29.140625 19.148438-54.816406 47.066407-63.125l13.242187-3.941406c6.71875-2.003907 12.253906-6.351563 15.820313-12.003907 2.453124-3.882812 3.984374-8.386718 4.308593-13.152343.042969-.636719.0625-1.28125.0625-1.929688v-28.605469l77.582031-11.242187v37.898437c0 7.207032 2.742188 13.933594 7.351563 19 3.390625 3.726563 7.78125 6.5625 12.839844 8.074219l19.792969 5.902344c27.929687 8.308594 47.066406 33.984375 47.066406 63.125zm0 0" fill="#ffdba9"/><path d="m252.523438 383.921875-19.792969-5.90625c-5.058594-1.511719-9.449219-4.347656-12.839844-8.070313-4.609375-5.070312-7.351563-11.796874-7.351563-19.003906v-37.898437l-77.578124 11.242187v17.058594l51.441406-7.457031v37.902343c0 7.207032 2.742187 13.933594 7.351562 19 3.390625 3.722657 7.78125 6.558594 12.839844 8.074219l19.792969 5.902344c27.929687 8.3125 47.066406 33.988281 47.066406 63.125v44.109375h18.679687c4.109376 0 7.457032-3.347656 7.457032-7.457031v-57.496094c0-29.140625-19.136719-54.816406-47.066406-63.125zm0 0" fill="#ffc473"/><path d="m212.539062 313.042969v29.390625c-14.289062 10.1875-31.765624 16.1875-50.652343 16.1875h-1.460938c-8.886719 0-17.460937-1.324219-25.53125-3.796875.042969-.636719.0625-1.28125.0625-1.929688v-28.605469zm0 0" fill="#ffc473"/><path d="m256.785156 237.851562h-8.53125v-60.03125h8.53125c16.441406 0 29.769532 13.328126 29.769532 29.769532v.488281c0 16.445313-13.328126 29.773437-29.769532 29.773437zm0 0" fill="#ffc473"/><path d="m249.207031 63.605469v186.3125c0 48.226562-39.097656 87.320312-87.320312 87.320312h-1.460938c-48.226562 0-87.320312-39.09375-87.320312-87.320312v-186.3125zm0 0" fill="#ffdba9"/><path d="m118.546875 4.195312c-43.441406 17.679688-62.578125 33.953126-93.539063 32.085938-2.351562-.144531-3.8125 2.628906-2.863281 4.785156l5.546875 12.613282c1.132813 2.574218-1.160156 5.34375-3.902344 4.707031l-19.089843-4.429688c-2.722657-.632812-5.011719 2.085938-3.921875 4.664063 5.152344 12.207031 27.089844 37.414062 54.894531 48.992187 38.945313 16.214844 99.058594 18.0625 123.53125-15.46875 6.140625-8.414062 8.753906-17.289062 9.96875-24.0625l10.304687-20.261719-10.304687-21.417968c-11.082031-21.082032-43.277344-33.335938-70.625-22.207032zm0 0" fill="#a17852"/><path d="m189.167969 26.402344v71.613281c0 8.8125 3.503906 17.269531 9.738281 23.503906l10.996094 10.996094c7.222656 7.226563 11.285156 17.023437 11.285156 27.242187v5.800782c0 6.769531 5.488281 12.261718 12.261719 12.261718h15.753906v-110.0625c0-22.839843-18.515625-41.355468-41.355469-41.355468zm0 0" fill="#715539"/><path d="m117.96875 196.453125c0 4.832031-3.917969 8.75-8.753906 8.75-4.832032 0-8.75-3.917969-8.75-8.75s3.917968-8.75 8.75-8.75c4.835937 0 8.753906 3.917969 8.753906 8.75zm0 0" fill="#c06100"/><path d="m187.980469 196.453125c0 4.832031-3.917969 8.75-8.75 8.75s-8.75-3.917969-8.75-8.75 3.917969-8.75 8.75-8.75 8.75 3.917969 8.75 8.75zm0 0" fill="#c06100"/><path d="m299.585938 447.046875v28.042969h-46.390626v36.910156h-150.902343v-36.910156h-47.839844v-28.042969c0-29.132813 19.144531-54.8125 47.074219-63.128906l13.238281-3.945313c6.71875-1.996094 12.261719-6.351562 15.824219-11.996094 9.628906 3.894532 35.179687 46.570313 43.734375 61.21875 1.238281 2.117188 4.3125 2.058594 5.460937-.105468 7.691406-14.488282 30.238282-55.628906 40.109375-59.148438 3.382813 3.722656 7.78125 6.5625 12.835938 8.074219l19.789062 5.902344c27.929688 8.316406 47.066407 33.992187 47.066407 63.128906zm0 0" fill="#ef5361"/><path d="m252.523438 383.921875-19.796876-5.90625c-5.058593-1.511719-9.445312-4.347656-12.835937-8.070313-4.925781 1.761719-13.007813 12.882813-20.820313 25.386719 2.28125 1.511719 4.800782 2.714844 7.519532 3.53125l19.796875 5.902344c27.925781 8.3125 47.0625 33.988281 47.0625 63.125v7.203125h26.136719v-28.042969c0-.046875 0-.09375 0-.136719-.058594-29.085937-19.175782-54.695312-47.0625-62.992187zm0 0" fill="#dc4250"/><g fill="#d1b28c"><path d="m120.085938 308.402344v18.972656c-5.601563-2.921875-10.847657-6.425781-15.644532-10.449219v-8.523437c0-4.328125 3.503906-7.820313 7.824219-7.820313 4.316406 0 7.820313 3.492188 7.820313 7.820313zm0 0"/><path d="m144.21875 314.683594v21.042968c-5.402344-1-10.636719-2.511718-15.644531-4.484374v-16.558594c0-4.320313 3.496093-7.824219 7.824219-7.824219 4.316406 0 7.820312 3.503906 7.820312 7.824219zm0 0"/><path d="m168.976562 318.03125v18.925781c-2.347656.1875-4.714843.28125-7.101562.28125h-1.4375c-2.386719 0-4.757812-.09375-7.101562-.28125v-18.925781c0-4.320312 3.503906-7.824219 7.820312-7.824219s7.820312 3.503907 7.820312 7.824219zm0 0"/><path d="m193.984375 313.042969v18.105469c-5.003906 1.984374-10.238281 3.515624-15.640625 4.539062v-22.644531c0-4.316407 3.503906-7.820313 7.820312-7.820313 4.316407 0 7.820313 3.503906 7.820313 7.820313zm0 0"/><path d="m220.578125 304.796875v9.757813c-4.753906 4.339843-10 8.148437-15.640625 11.347656v-21.105469c0-4.320313 3.503906-7.824219 7.820312-7.824219 4.328126 0 7.820313 3.503906 7.820313 7.824219zm0 0"/></g><path d="m143.246094 295.117188c-8.558594 0-15.378906-2.386719-18.683594-3.808594-3.964844-1.710938-5.796875-6.3125-4.089844-10.277344 1.710938-3.96875 6.3125-5.796875 10.28125-4.089844 3.398438 1.464844 12.398438 4.46875 22.515625.761719 7.738281-2.835937 12.347657-8.265625 14.410157-11.253906 2.449218-3.554688 7.324218-4.449219 10.878906-1.992188 3.554687 2.449219 4.449218 7.320313 1.996094 10.878907-3.117188 4.511718-10.101563 12.730468-21.902344 17.054687-5.464844 2.003906-10.699219 2.726563-15.40625 2.726563zm0 0" fill="#c06100"/></svg>