<svg height="512pt" viewBox="-123 0 512 512" width="512pt" xmlns="http://www.w3.org/2000/svg"><path d="m266.875 441.292969v62.597656c0 4.472656-3.644531 8.109375-8.121094 8.109375h-250.625c-4.484375 0-8.128906-3.636719-8.128906-8.109375v-62.597656c0-28.847657 17.246094-54.585938 43.242188-65.820313 2.578124-1.121094 5.25-2.09375 8.003906-2.910156l14.417968-4.289062c2.226563-.660157 4.339844-1.5625 6.308594-2.671876 4.484375-2.527343 8.222656-6.121093 10.914063-10.386718 2.765625-4.371094 4.445312-9.457032 4.703125-14.832032.042968-.53125.054687-1.058593.054687-1.585937v-24.960937l84.472657-18.425782v41.253906c0 7.851563 2.972656 15.171876 7.996093 20.683594 3.5 3.851563 7.984375 6.824219 13.140625 8.535156.28125.082032.558594.175782.839844.257813l21.542969 6.421875c2.742187.816406 5.414062 1.789062 7.996093 2.910156 25.996094 11.234375 43.242188 36.972656 43.242188 65.820313zm0 0" fill="#846351"/><g fill="#684e41"><path d="m223.632812 375.472656c-2.578124-1.121094-5.25-2.09375-7.996093-2.910156l-21.542969-6.421875c-.277344-.082031-.558594-.175781-.835938-.257813-5.160156-1.710937-9.644531-4.683593-13.144531-8.535156-5.023437-5.511718-7.996093-12.832031-7.996093-20.683594v-41.253906l-84.472657 18.425782v18.386718l56.164063-12.25v41.253906c0 7.851563 2.972656 15.171876 7.996094 20.683594 3.5 3.851563 7.984374 6.824219 13.140624 8.53125.28125.085938.5625.179688.839844.261719l21.542969 6.421875c2.746094.816406 5.417969 1.789062 7.996094 2.910156 25.996093 11.238282 43.242187 36.972656 43.242187 65.820313v46.144531h20.1875c4.476563 0 8.121094-3.636719 8.121094-8.109375v-62.597656c0-28.847657-17.246094-54.585938-43.242188-65.820313zm0 0"/><path d="m172.117188 295.410156v31.445313c-15.578126 11.121093-34.65625 17.679687-55.265626 17.679687h-1.367187c-9.707031 0-19.066406-1.449218-27.890625-4.15625.039062-.527344.050781-1.054687.050781-1.582031v-24.960937zm0 0"/><path d="m217.847656 213.546875h-5.828125v-65.355469h5.828125c16.328125 0 29.5625 13.238282 29.5625 29.566406v6.222657c0 16.328125-13.234375 29.566406-29.5625 29.566406zm0 0"/></g><path d="m116.847656 321.746094h-1.363281c-52.5625 0-95.171875-42.609375-95.171875-95.175782v-89.273437c0-52.9375 42.914062-95.851563 95.851562-95.851563 52.941407 0 95.855469 42.914063 95.855469 95.851563v89.273437c.003907 52.566407-42.609375 95.175782-95.171875 95.175782zm0 0" fill="#846351"/><path d="m67.515625 168.476562c0 4.359376-3.53125 7.894532-7.890625 7.894532s-7.890625-3.535156-7.890625-7.894532c0-4.355468 3.53125-7.890624 7.890625-7.890624s7.890625 3.535156 7.890625 7.890624zm0 0" fill="#37363a"/><path d="m143.738281 168.476562c0 4.359376-3.535156 7.894532-7.894531 7.894532-4.355469 0-7.890625-3.535156-7.890625-7.894532 0-4.355468 3.535156-7.890624 7.890625-7.890624 4.359375 0 7.894531 3.535156 7.894531 7.890624zm0 0" fill="#37363a"/><path d="m223.632812 375.472656v136.527344h-180.390624v-136.527344c2.578124-1.121094 5.25-2.09375 8.003906-2.910156l14.417968-4.289062c2.226563-.660157 4.339844-1.5625 6.308594-2.671876v39.089844c0 33.503906 27.144532 60.640625 60.640625 60.640625 16.738281 0 31.902344-6.785156 42.878907-17.753906 10.96875-10.976563 17.761718-26.128906 17.761718-42.886719v-38.808594c.28125.082032.5625.175782.839844.257813l21.542969 6.421875c2.746093.816406 5.417969 1.789062 7.996093 2.910156zm0 0" fill="#ff9a01"/><path d="m195.324219 400.03125c11.335937 4.902344 21.003906 12.558594 28.308593 22.03125v-46.589844c-2.578124-1.121094-5.25-2.09375-7.996093-2.910156l-21.542969-6.421875c-.277344-.082031-.558594-.175781-.835938-.257813v33.328126c.6875.273437 1.386719.527343 2.066407.820312zm0 0" fill="#ff8505"/><path d="m84.90625 110.433594c.066406-28.558594 16.378906-49.910156 34.777344-52.464844 11.480468-1.597656 21.351562-3.574219 26.066406-.097656v-57.597656c-32.628906 0-17.855469-.613282-32.628906 0-14.21875.585937-26.570313 10.566406-30.226563 24.527343.671875 28.542969 1.34375 57.085938 2.011719 85.632813zm0 0" fill="#00c2fd"/><path d="m119.289062 110.433594h-36.394531v-81.53125c0-2.871094 2.328125-5.195313 5.195313-5.195313h26.003906c2.867188 0 5.195312 2.324219 5.195312 5.195313zm0 0" fill="#00a6ff"/><path d="m119.289062 110.433594c.066407-28.558594 16.378907-49.910156 34.777344-52.464844 11.480469-1.597656 21.351563 4.46875 26.066406 7.945312v-24.46875c0-30.222656-17.855468-41.785156-32.628906-41.171874-14.21875.585937-26.570312 10.566406-30.226562 24.527343.671875 28.542969 1.34375 57.085938 2.011718 85.632813zm0 0" fill="#0087e2"/><path d="m93.503906 275.546875c-8.5 0-15.269531-2.367187-18.554687-3.78125-3.9375-1.695313-5.757813-6.265625-4.058594-10.207031 1.695313-3.941406 6.265625-5.757813 10.207031-4.0625 3.375 1.457031 12.316406 4.4375 22.363282.757812 7.683593-2.816406 12.261718-8.210937 14.304687-11.171875 2.4375-3.53125 7.273437-4.421875 10.808594-1.984375 3.527343 2.433594 4.417969 7.273438 1.980469 10.804688-3.089844 4.484375-10.03125 12.644531-21.75 16.941406-5.425782 1.984375-10.625 2.703125-15.300782 2.703125zm0 0" fill="#4c3930"/></svg>