<svg height="512pt" viewBox="-118 0 512 512" width="512pt" xmlns="http://www.w3.org/2000/svg"><path d="m266.035156 443.347656v60.773438c0 4.351562-3.527344 7.878906-7.882812 7.878906h-243.320313c-4.355469 0-7.894531-3.527344-7.894531-7.878906v-60.773438c0-30.789062 20.242188-57.9375 49.765625-66.726562l13.984375-4.160156c7.109375-2.113282 12.960938-6.71875 16.734375-12.6875 2.945313-4.660157 4.605469-10.140626 4.605469-15.941407v-9.441406h82.011718v7.382813c0 7.613281 2.894532 14.722656 7.765626 20.078124 3.578124 3.933594 8.226562 6.933594 13.570312 8.535157l2.789062.835937 18.128907 5.398438c29.523437 8.789062 49.742187 35.9375 49.742187 66.726562zm0 0" fill="#ffda2d"/><path d="m216.292969 376.621094-18.125-5.398438-2.789063-.832031c-5.347656-1.605469-9.996094-4.605469-13.574218-8.535156-4.871094-5.355469-7.765626-12.464844-7.765626-20.082031v-7.382813h-82.011718v9.441406c0 1.085938-.078125 2.152344-.191406 3.210938h44.175781v7.382812c0 7.617188 2.894531 14.726563 7.765625 20.082031 3.578125 3.929688 8.226562 6.929688 13.574218 8.535157l2.785157.835937 18.128906 5.394532c29.523437 8.789062 49.742187 35.9375 49.742187 66.730468v55.996094h30.148438c4.351562 0 7.878906-3.527344 7.878906-7.878906v-60.773438c0-30.789062-20.21875-57.9375-49.742187-66.726562zm0 0" fill="#fec002"/><path d="m154.601562 512h-39.632812l15.464844-124.328125.496094-3.984375c.074218-.496094.242187-.929688.488281-1.277344l2.460937 1.277344 2.460938-1.277344c.230468.335938.398437.75.472656 1.234375l.570312 4.101563zm0 0" fill="#ffec97"/><path d="m198.167969 371.222656-64.289063 12.464844-63.1875-11.230469c7.109375-2.109375 12.960938-6.71875 16.730469-12.683593 2.949219-4.660157 4.605469-10.140626 4.605469-15.941407v-9.445312h82.011718v7.386719c0 7.613281 2.894532 14.722656 7.765626 20.078124 3.578124 3.929688 8.226562 6.929688 13.574218 8.535157zm0 0" fill="#ffdba9"/><path d="m133.878906 383.6875-3.445312 3.984375-17.988282 20.796875c-2.535156 2.925781-7.066406 2.96875-9.644531.066406l-32.113281-36.074218 16.730469-12.6875 44 22.636718zm0 0" fill="#ff9a01"/><path d="m198.167969 371.222656-33.210938 37.308594c-2.578125 2.90625-7.109375 2.863281-9.644531-.0625l-17.929688-20.726562-3.503906-4.054688 2.460938-1.277344 43.707031-22.636718zm0 0" fill="#ff9a01"/><path d="m217.386719 106.816406c-22.488281-3.367187-49.96875-5.34375-79.644531-5.34375-29.675782 0-57.160157 1.976563-79.644532 5.34375h-58.097656v23.710938c0 16.050781 61.671875 29.058594 137.742188 29.058594 76.074218 0 137.742187-13.007813 137.742187-29.058594v-23.710938zm0 0" fill="#00989e"/><path d="m275.484375 106.1875c0-14.742188-61.671875-26.695312-137.742187-26.695312-76.074219 0-137.742188 11.953124-137.742188 26.695312 0 14.746094 61.667969 26.699219 137.742188 26.699219 76.070312 0 137.742187-11.953125 137.742187-26.699219zm0 0" fill="#6dd7a7"/><path d="m223.242188 14.089844v84.8125c-22.035157 5.070312-50.460938 9.550781-83.691407 9.707031-34.871093.167969-64.582031-4.476563-87.316406-9.707031v-84.8125c0-7.785156 6.308594-14.089844 14.089844-14.089844h142.828125c7.785156 0 14.089844 6.304688 14.089844 14.089844zm0 0" fill="#6dd7a7"/><path d="m223.242188 14.089844v55.140625l-3 1.226562c-11.746094 2.597657-25.191407 4.996094-40.117188 6.664063 1.785156-4.804688 2.753906-10.003906 2.753906-15.402344v-47.628906c0-7.785156-6.304687-14.089844-14.089844-14.089844h40.363282c7.785156 0 14.089844 6.304688 14.089844 14.089844zm0 0" fill="#00bb64"/><path d="m223.242188 69.230469v29.671875c-22.035157 5.070312-50.460938 9.550781-83.691407 9.707031h-1.847656c-1.554687 0-3.097656-.007813-4.628906-.03125-.191407.011719-.390625 0-.582031-.007813-1.625-.023437-3.230469-.054687-4.835938-.097656-3.390625-.09375-6.730469-.21875-10.015625-.398437 9.214844-.488281 17.992187-1.289063 26.28125-2.316407 16.890625-2.078124 30.59375-13.464843 36.203125-28.636718 14.925781-1.667969 28.371094-4.066406 40.117188-6.664063zm0 0" fill="#fec002"/><path d="m127.65625 108.472656c-1.703125-.046875-3.390625-.101562-5.066406-.167968 1.679687.066406 3.363281.125 5.066406.167968zm0 0" fill="#ffda2d"/><path d="m180.125 77.121094c-5.609375 15.171875-19.3125 26.558594-36.203125 28.636718-8.289063 1.023438-17.070313 1.828126-26.28125 2.3125 1.636719.089844 3.289063.167969 4.949219.234376-27.59375-1.09375-51.402344-5.039063-70.355469-9.402344v-29.226563l3 .78125c22.320313 4.941407 50.957031 9.191407 84.316406 9.019531 14.472657-.050781 28.042969-.949218 40.574219-2.355468zm0 0" fill="#ffda2d"/><path d="m174.039062 334.390625c0-6.988281-18.089843-12.65625-40.828124-12.65625-22.742188 0-41.179688 5.667969-41.179688 12.65625s18.433594 12.652344 41.179688 12.652344c22.742187 0 40.828124-5.664063 40.828124-12.652344zm0 0" fill="#ffc473"/><g fill="#57555c"><path d="m92.957031 268.398438h-4.5c-21.414062 0-38.839843-17.421876-38.839843-38.835938v-4.5c0-21.414062 17.425781-38.839844 38.839843-38.839844h4.5c21.414063 0 38.835938 17.421875 38.835938 38.839844v4.5c0 21.414062-17.421875 38.835938-38.835938 38.835938zm-4.5-66.328126c-12.679687 0-22.992187 10.3125-22.992187 22.992188v4.5c0 12.675781 10.3125 22.992188 22.992187 22.992188h4.5c12.675781 0 22.992188-10.316407 22.992188-22.992188v-4.5c0-12.679688-10.316407-22.992188-22.992188-22.992188zm0 0"/><path d="m187.027344 268.398438h-4.5c-21.417969 0-38.839844-17.421876-38.839844-38.835938v-4.5c0-21.414062 17.421875-38.839844 38.839844-38.839844h4.5c21.414062 0 38.835937 17.421875 38.835937 38.839844v4.5c0 21.414062-17.421875 38.835938-38.835937 38.835938zm-4.5-66.328126c-12.679688 0-22.996094 10.3125-22.996094 22.992188v4.5c0 12.675781 10.316406 22.992188 22.996094 22.992188h4.5c12.675781 0 22.992187-10.316407 22.992187-22.992188v-4.5c0-12.679688-10.316406-22.992188-22.992187-22.992188zm0 0"/><path d="m151.609375 233.605469h-27.738281c-4.375 0-7.921875-3.546875-7.921875-7.925781 0-4.375 3.546875-7.921876 7.921875-7.921876h27.738281c4.375 0 7.921875 3.546876 7.921875 7.921876 0 4.378906-3.546875 7.925781-7.921875 7.925781zm0 0"/></g></svg>