<svg height="512pt" viewBox="-118 0 512 512.00103" width="512pt" xmlns="http://www.w3.org/2000/svg"><path d="m29.441406 99.632812h29.441406v27.011719h-29.441406zm0 0" fill="#fff"/><path d="m58.878906 134.382812h-29.4375c-4.273437 0-7.738281-3.464843-7.738281-7.738281v-27.011719c0-4.273437 3.464844-7.738281 7.738281-7.738281h29.4375c4.273438 0 7.738282 3.464844 7.738282 7.738281v27.011719c0 4.273438-3.464844 7.738281-7.738282 7.738281zm-21.699218-15.476562h13.964843v-11.535156h-13.964843zm0 0"/><path d="m7.554688 87.347656h23.148437v51.578125h-23.148437c-4.171876 0-7.554688-3.378906-7.554688-7.550781v-36.472656c0-4.171875 3.382812-7.554688 7.554688-7.554688zm0 0" fill="#e1e1e3"/><path d="m275.007812 441.574219v69.394531c0 .566406-.460937 1.03125-1.03125 1.03125h-256.671874c-4.46875 0-8.089844-3.632812-8.089844-8.089844v-62.335937c0-31.597657 20.753906-59.4375 51.042968-68.457031l14.347657-4.277344c7.292969-2.167969 13.296875-6.882813 17.167969-13.011719 2.804687-4.425781 4.464843-9.589844 4.691406-15.046875.023437-.433594.03125-.867188.03125-1.300781v-25.050781c0-.492188.34375-.914063.824218-1.011719l82.070313-16.894531c.640625-.132813 1.242187.355468 1.242187 1.007812v39.832031c0 7.820313 2.960938 15.101563 7.972657 20.601563 3.671875 4.03125 8.4375 7.105468 13.914062 8.757812l21.457031 6.394532c30.289063 9.019531 51.03125 36.859374 51.03125 68.457031zm0 0" fill="#6dd7a7"/><path d="m223.976562 373.121094-21.457031-6.398438c-5.476562-1.648437-10.242187-4.722656-13.914062-8.757812-5.011719-5.496094-7.972657-12.777344-7.972657-20.597656v-39.832032c0-.652344-.601562-1.144531-1.242187-1.011718l-82.070313 16.894531c-.480468.101562-.824218.523437-.824218 1.011719v5.960937l52.59375-10.824219c.640625-.132812 1.238281.355469 1.238281 1.011719v39.828125c0 7.820312 2.960937 15.105469 7.976563 20.601562 3.671874 4.035157 8.4375 7.109376 13.914062 8.757813l21.457031 6.394531c30.285157 9.015625 51.03125 36.859375 51.03125 68.457032v57.382812h29.273438c.566406 0 1.03125-.464844 1.03125-1.03125v-69.390625c-.003907-31.601563-20.746094-59.441406-51.035157-68.457031zm0 0" fill="#00bb64"/><path d="m242.265625 138.925781h-24.074219v-51.578125h24.074219c4.171875 0 7.554687 3.382813 7.554687 7.554688v36.472656c0 4.171875-3.382812 7.550781-7.554687 7.550781zm0 0" fill="#e1e1e3"/><path d="m180.632812 296.269531v31.039063c-15.515624 11.089844-34.519531 17.609375-55.046874 17.609375h-1.351563c-9.664063 0-18.992187-1.445313-27.769531-4.136719.019531-.433594.03125-.867188.03125-1.300781v-25.890625zm0 0" fill="#00bb64"/><path d="m125.589844 323.601562h-1.359375c-52.351563 0-94.789063-42.441406-94.789063-94.792968v-158.386719c0-14.359375 11.636719-25.996094 25.996094-25.996094h138.945312c14.355469 0 25.996094 11.636719 25.996094 25.996094v158.386719c0 52.351562-42.4375 94.792968-94.789062 94.792968zm0 0" fill="#6dd7a7"/><path d="m220.378906 86.304688c0-9.378907-7.601562-16.980469-16.980468-16.980469l-14.746094 9.269531c-2.980469 1.875-6.769532 1.875-9.75 0l-9.871094-6.207031c-2.980469-1.871094-6.769531-1.871094-9.75 0l-9.871094 6.207031c-2.980468 1.875-6.773437 1.875-9.75 0l-9.871094-6.207031c-2.980468-1.871094-6.773437-1.871094-9.753906 0l-9.867187 6.207031c-2.980469 1.875-6.773438 1.875-9.753907 0l-9.871093-6.207031c-2.980469-1.871094-6.769531-1.871094-9.75 0l-9.871094 6.207031c-2.980469 1.875-6.769531 1.875-9.75 0l-14.746094-9.269531c-9.378906 0-16.980469 7.601562-16.980469 16.980469v-54.023438c-.003906-17.828125 14.449219-32.28125 32.277344-32.28125h126.375c17.828125 0 32.28125 14.453125 32.28125 32.28125zm0 0" fill="#a17852"/><path d="m188.097656 0h-38.070312c17.828125 0 32.28125 14.453125 32.28125 32.28125v47.589844c2.164062.351562 4.421875-.066406 6.34375-1.273438l14.746094-9.273437c9.378906 0 16.984374 7.601562 16.984374 16.980469v-54.023438c-.003906-17.828125-14.457031-32.28125-32.285156-32.28125zm0 0" fill="#715539"/><path d="m29.441406 79.871094v6.429687c0-2.414062.511719-4.707031 1.421875-6.789062-.46875.15625-.941406.28125-1.421875.359375zm0 0" fill="#a17852"/><path d="m226.183594 214.738281h-5.804688v-65.09375h5.804688c16.261718 0 29.445312 13.183594 29.445312 29.445313v6.199218c0 16.265626-13.183594 29.449219-29.445312 29.449219zm0 0" fill="#00bb64"/><path d="m84.316406 191.871094c0 4.34375-3.519531 7.863281-7.863281 7.863281-4.339844 0-7.859375-3.519531-7.859375-7.863281 0-4.339844 3.519531-7.859375 7.859375-7.859375 4.34375 0 7.863281 3.519531 7.863281 7.859375zm0 0" fill="#007539"/><path d="m154.230469 191.871094c0 4.34375-3.519531 7.863281-7.863281 7.863281-4.339844 0-7.859376-3.519531-7.859376-7.863281 0-4.339844 3.519532-7.859375 7.859376-7.859375 4.34375 0 7.863281 3.519531 7.863281 7.859375zm0 0" fill="#007539"/><path d="m190.941406 99.632812h29.441406v27.011719h-29.441406zm0 0" fill="#fff"/><g fill="#00989e"><path d="m71.265625 155.179688c-1.980469 0-3.957031-.753907-5.46875-2.265626-3.023437-3.023437-3.023437-7.921874 0-10.941406l45.671875-45.671875c3.023438-3.023437 7.917969-3.019531 10.941406 0 3.023438 3.023438 3.023438 7.917969 0 10.941407l-45.671875 45.671874c-1.511719 1.511719-3.492187 2.265626-5.472656 2.265626zm0 0"/><path d="m117.574219 126.398438c-1.980469 0-3.960938-.753907-5.472657-2.265626l-17.527343-17.527343c-3.019531-3.019531-3.019531-7.917969 0-10.941407 3.023437-3.019531 7.921875-3.019531 10.945312 0l17.523438 17.527344c3.023437 3.023438 3.023437 7.921875 0 10.941406-1.507813 1.511719-3.488281 2.265626-5.46875 2.265626zm0 0"/><path d="m101.570312 142.402344c-1.980468 0-3.960937-.753906-5.472656-2.265625l-17.527344-17.527344c-3.019531-3.019531-3.019531-7.917969 0-10.941406 3.023438-3.019531 7.921876-3.019531 10.941407 0l17.527343 17.527343c3.023438 3.023438 3.023438 7.921876 0 10.941407-1.507812 1.511719-3.488281 2.265625-5.46875 2.265625zm0 0"/><path d="m86.121094 157.851562c-1.976563 0-3.960938-.753906-5.46875-2.265624l-17.527344-17.527344c-3.023438-3.019532-3.023438-7.917969 0-10.941406 3.019531-3.019532 7.917969-3.019532 10.9375 0l17.527344 17.527343c3.023437 3.019531 3.023437 7.917969.003906 10.941407-1.511719 1.511718-3.492188 2.265624-5.472656 2.265624zm0 0"/><path d="m92.5625 188.996094h-30.617188c-9.597656 0-17.402343-7.804688-17.402343-17.398438 0-4.273437 3.464843-7.738281 7.738281-7.738281s7.734375 3.464844 7.734375 7.738281c0 1.0625.867187 1.925782 1.929687 1.925782h30.617188c1.0625 0 1.925781-.863282 1.925781-1.925782 0-4.273437 3.464844-7.738281 7.738281-7.738281 4.273438 0 7.738282 3.464844 7.738282 7.738281-.003906 9.59375-7.808594 17.398438-17.402344 17.398438zm0 0"/></g><path d="m127.117188 270.980469h-30.617188c-9.59375 0-17.398438-7.804688-17.398438-17.398438 0-4.273437 3.460938-7.738281 7.734376-7.738281 4.273437 0 7.738281 3.464844 7.738281 7.738281 0 1.0625.863281 1.925781 1.929687 1.925781h30.617188c1.0625 0 1.925781-.863281 1.925781-1.925781 0-4.273437 3.464844-7.738281 7.738281-7.738281 4.273438 0 7.734375 3.464844 7.734375 7.738281 0 9.59375-7.808593 17.398438-17.402343 17.398438zm0 0" fill="#dc4250"/><path d="m161.675781 188.996094h-30.617187c-9.59375 0-17.398438-7.804688-17.398438-17.398438 0-4.273437 3.460938-7.738281 7.734375-7.738281 4.273438 0 7.738281 3.464844 7.738281 7.738281 0 1.0625.863282 1.925782 1.925782 1.925782h30.617187c1.066407 0 1.929688-.863282 1.929688-1.925782 0-4.273437 3.460937-7.738281 7.734375-7.738281 4.273437 0 7.738281 3.464844 7.738281 7.738281 0 9.59375-7.808594 17.398438-17.402344 17.398438zm0 0" fill="#00989e"/><path d="m275.011719 441.570312v30.40625h-50.300781v40.019532h-163.621094v-40.019532h-51.878906v-30.40625c0-31.59375 20.765624-59.4375 51.046874-68.453124l14.351563-4.277344c7.285156-2.164063 13.292969-6.886719 17.160156-13.007813 12.621094 5.109375 29.859375 9.941407 50.496094 10.066407 17.730469.105468 33.328125-3.292969 46.335937-7.933594 3.671876 4.035156 8.4375 7.113281 13.921876 8.753906l21.457031 6.398438c30.28125 9.015624 51.03125 36.859374 51.03125 68.453124zm0 0" fill="#96a0ef"/><path d="m223.976562 373.121094-21.457031-6.398438c-5.472656-1.648437-10.234375-4.71875-13.90625-8.746094-.003906-.003906-.007812-.007812-.011719-.011718-9.992187 3.5625-21.515624 6.386718-34.351562 7.460937 1.136719 2.015625 2.496094 3.898438 4.050781 5.605469 3.671875 4.035156 8.441407 7.109375 13.917969 8.757812l21.457031 6.398438c30.285157 9.015625 51.03125 36.855469 51.03125 68.453125v17.335937h30.300781v-30.402343c0-31.597657-20.742187-59.4375-51.03125-68.453125zm0 0" fill="#7985eb"/></svg>