<svg height="512pt" viewBox="-76 0 512 512" width="512pt" xmlns="http://www.w3.org/2000/svg"><path d="m239.371094 77.058594h-77.0625v-77.058594h54.261718c12.589844 0 22.800782 10.207031 22.800782 22.800781zm0 0" fill="#fec002"/><path d="m354.960938 512h-350.804688c-2.296875 0-4.15625-1.859375-4.15625-4.15625v-117.984375c0-30.011719 24.328125-54.339844 54.339844-54.339844h250.4375c30.011718 0 54.34375 24.328125 54.34375 54.339844v117.984375c-.003906 2.296875-1.863282 4.15625-4.160156 4.15625zm0 0" fill="#dc4250"/><path d="m291.015625 512h-222.539063l8.148438-176.480469h205.867188zm0 0" fill="#ef5361"/><path d="m288.453125 277.496094h-121.660156c-18.863281 0-34.152344-15.289063-34.152344-34.152344v-132.132812c0-18.859376 15.289063-34.148438 34.152344-34.148438h121.660156c18.859375 0 34.152344 15.289062 34.152344 34.148438v132.132812c0 18.863281-15.292969 34.152344-34.152344 34.152344zm0 0" fill="#fec002"/><path d="m212.789062 277.496094h-132.128906c-18.863281 0-34.152344-15.289063-34.152344-34.152344v-132.132812c0-18.859376 15.289063-34.148438 34.152344-34.148438h132.128906c18.863282 0 34.152344 15.289062 34.152344 34.148438v132.132812c0 18.863281-15.289062 34.152344-34.152344 34.152344zm0 0" fill="#ffda2d"/><path d="m197.28125 77.058594h-77.058594v-54.257813c0-12.59375 10.207032-22.800781 22.800782-22.800781h31.457031c12.59375 0 22.800781 10.207031 22.800781 22.800781zm0 0" fill="#ffda2d"/><path d="m216.570312 0h-19.289062v37.003906c0 12.621094-10.230469 22.851563-22.851562 22.851563h-54.207032v17.203125h119.148438v-54.257813c0-12.59375-10.210938-22.800781-22.800782-22.800781zm0 0" fill="#fec002"/><path d="m103.6875 277.496094h98.449219v58.707031h-98.449219zm0 0" fill="#ffda2d"/><path d="m202.136719 277.496094h-98.449219v18.871094h65.257812c18.332032 0 33.191407 14.859374 33.191407 33.1875v6.648437h53.765625v-58.707031zm0 0" fill="#fec002"/><path d="m114.875 141.621094c0 5.292968-4.289062 9.582031-9.582031 9.582031-5.289063 0-9.578125-4.289063-9.578125-9.582031 0-5.289063 4.289062-9.578125 9.578125-9.578125 5.292969 0 9.582031 4.289062 9.582031 9.578125zm0 0" fill="#57555c"/><path d="m191.523438 141.621094c0 5.292968-4.289063 9.582031-9.582032 9.582031-5.289062 0-9.578125-4.289063-9.578125-9.582031 0-5.289063 4.289063-9.578125 9.578125-9.578125 5.292969 0 9.582032 4.289062 9.582032 9.578125zm0 0" fill="#57555c"/><path d="m147.078125 234.398438c-15.023437 0-25.753906-7.511719-29.832031-10.898438-3.433594-2.855469-3.902344-7.957031-1.046875-11.390625s7.957031-3.902344 11.390625-1.046875c2.84375 2.367188 10.625 7.785156 21.367187 7.101562 8.21875-.53125 14.171875-4.433593 16.988281-6.710937 3.476563-2.808594 8.566407-2.265625 11.375 1.203125 2.808594 3.472656 2.269532 8.566406-1.203124 11.375-4.3125 3.488281-13.4375 9.457031-26.121094 10.273438-.988282.0625-1.960938.09375-2.917969.09375zm0 0" fill="#c06100"/></svg>