<svg height="512pt" viewBox="-80 0 511 512" width="512pt" xmlns="http://www.w3.org/2000/svg"><path d="m330.117188 158.582031c0 87.589844-71.003907 158.589844-158.582032 158.589844-46.0625 0-87.546875-19.640625-116.511718-51.011719-3.128907-3.390625-6.105469-6.90625-8.933594-10.5625-1.394532-1.78125-2.734375-3.597656-4.046875-5.445312-2.171875-3.0625-4.242188-6.210938-6.195313-9.441406-14.542968-23.949219-22.902344-52.058594-22.902344-82.132813 0-17.503906 2.839844-34.347656 8.078126-50.101563.714843-2.167968 1.476562-4.300781 2.300781-6.421874 1.363281-3.589844 2.851562-7.105469 4.476562-10.558594.675781-1.457032 1.371094-2.90625 2.101563-4.332032 26.113281-51.707031 79.734375-87.164062 141.632812-87.164062 87.578125 0 158.582032 71 158.582032 158.582031zm0 0" fill="#b0ddff"/><path d="m171.535156 0c-7.976562 0-15.808594.597656-23.46875 1.734375 76.4375 11.351563 135.089844 77.25 135.089844 156.847656 0 79.601563-58.644531 145.496094-135.078125 156.851563 7.65625 1.136718 15.484375 1.738281 23.457031 1.738281 87.578125 0 158.582032-71 158.582032-158.589844 0-87.582031-71.003907-158.582031-158.582032-158.582031zm0 0" fill="#84caff"/><path d="m221.417969 102.058594v127.015625c0 14.648437-11.878907 26.527343-26.523438 26.527343h-148.804687c-1.394532-1.785156-2.734375-3.601562-4.046875-5.449218-2.171875-3.0625-4.242188-6.207032-6.195313-9.441406-14.542968-23.949219-22.902344-52.058594-22.902344-82.128907 0-17.507812 2.839844-34.351562 8.078126-50.105469.714843-2.164062 1.476562-4.296874 2.300781-6.421874h198.09375zm0 0" fill="#e1e4fb"/><path d="m231.976562 91.496094v137.578125c0 20.457031-16.632812 37.085937-37.085937 37.085937h-139.867187c-3.128907-3.390625-6.105469-6.90625-8.933594-10.558594-1.394532-1.785156.273437-3.601562-1.035156-5.449218-2.175782-3.0625-3.328126-6.007813-5.28125-9.238282-14.539063-23.949218-22.613282-52.253906-22.613282-82.328124 0-17.507813 1.800782-33.824219 7.039063-49.578126.71875-2.164062-1.699219-4.828124-.875-6.949218 1.359375-3.589844 2.851562-7.109375 4.476562-10.5625zm0 0" fill="#57555c"/><path d="m221.417969 102.058594v127.015625c0 14.648437-11.878907 26.527343-26.523438 26.527343h-148.804687c-1.394532-1.785156-2.734375-3.601562-4.046875-5.449218-2.171875-3.0625-4.242188-6.207032-6.195313-9.441406-14.542968-23.949219-22.902344-52.058594-22.902344-82.128907 0-17.507812 2.839844-34.351562 8.078126-50.105469.714843-2.164062 1.476562-4.296874 2.300781-6.421874h198.09375zm0 0" fill="#e1e4fb"/><path d="m260.257812 339.179688h-178.734374c-5.777344 0-10.464844-4.683594-10.464844-10.464844v-30.121094c0-5.777344 4.6875-10.460938 10.464844-10.460938h178.734374c5.78125 0 10.464844 4.683594 10.464844 10.460938v30.121094c0 5.78125-4.683594 10.464844-10.464844 10.464844zm0 0" fill="#7985eb"/><path d="m260.257812 288.132812h-46.320312c5.777344 0 10.460938 4.683594 10.460938 10.460938v30.121094c0 5.78125-4.683594 10.464844-10.460938 10.464844h46.320312c5.78125 0 10.464844-4.683594 10.464844-10.464844v-30.121094c0-5.777344-4.683594-10.460938-10.464844-10.460938zm0 0" fill="#4b5be5"/><path d="m272.652344 102.808594c0 26.144531-21.191406 47.335937-47.335938 47.335937-26.140625 0-47.335937-21.191406-47.335937-47.335937 0-26.144532 21.195312-47.335938 47.335937-47.335938 26.144532 0 47.335938 21.191406 47.335938 47.335938zm0 0" fill="#7985eb"/><path d="m242.042969 102.808594c0 9.238281-7.488281 16.726562-16.726563 16.726562-9.234375 0-16.726562-7.488281-16.726562-16.726562 0-9.238282 7.492187-16.726563 16.726562-16.726563 9.238282 0 16.726563 7.488281 16.726563 16.726563zm0 0" fill="#fff"/><path d="m348.097656 512h-343.527344c-2.246093 0-4.070312-1.824219-4.070312-4.070312v-115.535157c0-29.390625 23.824219-53.214843 53.214844-53.214843h245.242187c29.386719 0 53.214844 23.824218 53.214844 53.214843v115.535157c0 2.25-1.824219 4.070312-4.074219 4.070312zm0 0" fill="#b0ddff"/><path d="m298.957031 339.179688h-59.15625c29.390625 0 53.214844 23.824218 53.214844 53.214843v115.535157c0 2.246093-1.824219 4.070312-4.070313 4.070312h59.152344c2.25 0 4.070313-1.824219 4.070313-4.070312v-115.535157c0-29.390625-23.824219-53.214843-53.210938-53.214843zm0 0" fill="#84caff"/><path d="m246.925781 446.691406h-141.179687c-3.464844 0-6.273438-2.8125-6.273438-6.277344v-40.703124c0-3.464844 2.808594-6.273438 6.273438-6.273438h141.179687c3.464844 0 6.273438 2.808594 6.273438 6.273438v40.703124c0 3.464844-2.808594 6.277344-6.273438 6.277344zm0 0" fill="#00989e"/><g fill="#a6aff2"><path d="m78.203125 139.785156c0 4.855469-3.933594 8.789063-8.789063 8.789063-4.851562 0-8.785156-3.933594-8.785156-8.789063 0-4.851562 3.933594-8.785156 8.785156-8.785156 4.855469 0 8.789063 3.933594 8.789063 8.785156zm0 0"/><path d="m148.511719 139.785156c0 4.855469-3.933594 8.789063-8.785157 8.789063-4.855468 0-8.789062-3.933594-8.789062-8.789063 0-4.851562 3.933594-8.785156 8.789062-8.785156 4.851563 0 8.785157 3.933594 8.785157 8.785156zm0 0"/><path d="m102.476562 234.574219c-8.03125 0-14.425781-2.238281-17.527343-3.570313-4.015625-1.730468-5.871094-6.390625-4.140625-10.40625 1.726562-4.015625 6.386718-5.867187 10.402344-4.140625 3.066406 1.316407 11.171874 4.027344 20.277343.691407 6.960938-2.554688 11.109375-7.441407 12.964844-10.132813 2.484375-3.597656 7.414063-4.503906 11.015625-2.019531s4.503906 7.417968 2.019531 11.019531c-2.921875 4.234375-9.476562 11.945313-20.554687 16.003906-5.125 1.878907-10.039063 2.554688-14.457032 2.554688zm0 0"/></g></svg>