<svg height="512pt" viewBox="-59 0 512 512" width="512pt" xmlns="http://www.w3.org/2000/svg"><path d="m302.707031 512h-211.824219c-3.042968 0-5.507812-2.464844-5.507812-5.507812v-181.429688c0-6.5 5.269531-11.773438 11.773438-11.773438h199.292968c6.5 0 11.773438 5.273438 11.773438 11.773438v181.429688c0 3.042968-2.46875 5.507812-5.507813 5.507812zm0 0" fill="#ffda2d"/><path d="m296.441406 313.289062h-40.441406c6.5 0 11.773438 5.273438 11.773438 11.773438v186.9375h34.933593c3.042969 0 5.507813-2.464844 5.507813-5.507812v-181.429688c0-6.5-5.269532-11.773438-11.773438-11.773438zm0 0" fill="#fec002"/><path d="m49.746094 512h-44.238282c-3.042968 0-5.507812-2.464844-5.507812-5.507812v-149.71875c0-24.015626 19.46875-43.484376 43.484375-43.484376 6.5 0 11.773437 5.273438 11.773437 11.773438v181.429688c0 3.042968-2.46875 5.507812-5.511718 5.507812zm0 0" fill="#00989e"/><path d="m43.484375 313.289062c-5.015625 0-9.824219.859376-14.304687 2.421876 2.820312 2.148437 4.644531 5.535156 4.644531 9.351562v186.9375h15.921875c3.042968 0 5.511718-2.464844 5.511718-5.507812v-181.429688c0-6.5-5.273437-11.773438-11.773437-11.773438zm0 0" fill="#00777b"/><path d="m255.65625 448.851562h-117.722656c-3.402344 0-6.164063-2.757812-6.164063-6.164062v-8.246094c0-35.910156 29.113281-65.019531 65.023438-65.019531 35.910156 0 65.023437 29.109375 65.023437 65.019531v8.246094c0 3.402344-2.757812 6.164062-6.160156 6.164062zm0 0" fill="#ffec97"/><path d="m55.257812 339.433594h30.117188v37.714844h-30.117188zm0 0" fill="#beccd3"/><path d="m55.257812 339.433594v11.128906h3.632813c8.757813 0 15.855469 7.101562 15.855469 15.855469v10.730469h10.628906v-37.714844zm0 0" fill="#a7b6bc"/><path d="m196.792969 70.835938c-4.292969 0-7.777344-3.480469-7.777344-7.777344v-27.109375c0-4.296875 3.484375-7.777344 7.777344-7.777344 4.296875 0 7.777343 3.480469 7.777343 7.777344v27.109375c0 4.296875-3.480468 7.777344-7.777343 7.777344zm0 0" fill="#beccd3"/><path d="m343.839844 512h44.242187c3.042969 0 5.507813-2.464844 5.507813-5.507812v-149.71875c0-24.015626-19.46875-43.484376-43.484375-43.484376-6.5 0-11.773438 5.273438-11.773438 11.773438v181.429688c0 3.042968 2.46875 5.507812 5.507813 5.507812zm0 0" fill="#00989e"/><path d="m350.105469 313.289062c-2.804688 0-5.375.984376-7.398438 2.621094 16.679688 6.082032 28.585938 22.082032 28.585938 40.863282v155.226562h16.785156c3.042969 0 5.511719-2.464844 5.511719-5.507812v-149.71875c0-24.015626-19.46875-43.484376-43.484375-43.484376zm0 0" fill="#00777b"/><path d="m308.214844 339.433594h30.117187v37.714844h-30.117187zm0 0" fill="#beccd3"/><path d="m308.214844 339.433594v11.128906c10.621094 0 19.230468 8.609375 19.230468 19.230469v7.355469h10.886719v-37.714844zm0 0" fill="#a7b6bc"/><path d="m270.839844 268.847656h-148.089844c-26.539062 0-48.050781-21.511718-48.050781-48.050781v-109.683594c0-26.539062 21.511719-48.054687 48.050781-48.054687h148.089844c26.539062 0 48.050781 21.515625 48.050781 48.054687v109.683594c0 26.539063-21.511719 48.050781-48.050781 48.050781zm0 0" fill="#00777b"/><path d="m232.433594 268.847656h-109.683594c-26.539062 0-48.050781-21.511718-48.050781-48.050781v-109.683594c0-26.539062 21.511719-48.054687 48.050781-48.054687h109.683594c26.539062 0 48.054687 21.515625 48.054687 48.054687v109.683594c0 26.539063-21.515625 48.050781-48.054687 48.050781zm0 0" fill="#00989e"/><path d="m214.769531 17.972656c0 9.929688-8.046875 17.976563-17.976562 17.976563-9.925781 0-17.972657-8.046875-17.972657-17.976563 0-9.925781 8.046876-17.972656 17.972657-17.972656 9.929687 0 17.976562 8.046875 17.976562 17.972656zm0 0" fill="#ffda2d"/><path d="m196.792969 0c-2.191407 0-4.28125.410156-6.21875 1.128906 6.855469 2.535156 11.75 9.109375 11.75 16.84375 0 7.738282-4.894531 14.3125-11.75 16.847656 1.941406.714844 4.03125 1.128907 6.21875 1.128907 9.925781 0 17.976562-8.046875 17.976562-17.976563 0-9.925781-8.046875-17.972656-17.976562-17.972656zm0 0" fill="#fec002"/><path d="m131.265625 163.796875c-16.460937 0-29.851563-13.390625-29.851563-29.851563 0-16.460937 13.390626-29.851562 29.851563-29.851562s29.851563 13.390625 29.851563 29.851562c0 16.460938-13.390626 29.851563-29.851563 29.851563zm0-44.148437c-7.882813 0-14.296875 6.410156-14.296875 14.296874 0 7.882813 6.414062 14.296876 14.296875 14.296876s14.296875-6.414063 14.296875-14.296876c0-7.886718-6.414062-14.296874-14.296875-14.296874zm0 0" fill="#00ceb4"/><path d="m220.546875 163.613281c-16.460937 0-29.851563-13.394531-29.851563-29.851562 0-16.460938 13.390626-29.851563 29.851563-29.851563s29.851563 13.390625 29.851563 29.851563c0 16.457031-13.394532 29.851562-29.851563 29.851562zm0-44.152343c-7.886719 0-14.296875 6.414062-14.296875 14.296874 0 7.882813 6.410156 14.300782 14.296875 14.300782 7.882813 0 14.296875-6.417969 14.296875-14.300782 0-7.882812-6.414062-14.296874-14.296875-14.296874zm0 0" fill="#00ceb4"/><g fill="#006569"><path d="m209.613281 232.214844h-75.015625c-10.316406 0-18.707031-8.394532-18.707031-18.710938v-9.894531c0-10.316406 8.390625-18.710937 18.707031-18.710937h75.015625c10.316407 0 18.707031 8.394531 18.707031 18.710937v9.894531c.003907 10.316406-8.390624 18.710938-18.707031 18.710938zm-75.015625-31.761719c-1.738281 0-3.152344 1.417969-3.152344 3.15625v9.894531c0 1.738282 1.414063 3.15625 3.152344 3.15625h75.015625c1.738281 0 3.152344-1.417968 3.152344-3.15625v-9.894531c0-1.738281-1.414063-3.15625-3.152344-3.15625zm0 0"/><path d="m155.539062 232.214844c-4.296874 0-7.777343-3.480469-7.777343-7.777344v-31.761719c0-4.296875 3.480469-7.777343 7.777343-7.777343 4.292969 0 7.777344 3.480468 7.777344 7.777343v31.761719c0 4.296875-3.484375 7.777344-7.777344 7.777344zm0 0"/><path d="m189.238281 232.214844c-4.292969 0-7.777343-3.480469-7.777343-7.777344v-31.761719c0-4.296875 3.484374-7.777343 7.777343-7.777343 4.296875 0 7.777344 3.480468 7.777344 7.777343v31.761719c0 4.296875-3.480469 7.777344-7.777344 7.777344zm0 0"/></g><path d="m145.511719 268.847656h69.824219v44.445313h-69.824219zm0 0" fill="#00989e"/><path d="m215.335938 268.847656h-69.824219v14.519532h47.867187c12.128906 0 21.957032 9.832031 21.957032 21.957031v7.96875h32.738281v-44.445313zm0 0" fill="#00777b"/></svg>